<?xml version="1.0" encoding="utf-8"?>
<!-- Generator: Adobe Illustrator 16.0.0, SVG Export Plug-In . SVG Version: 6.00 Build 0)  -->
<!DOCTYPE svg PUBLIC "-//W3C//DTD SVG 1.1//EN" "http://www.w3.org/Graphics/SVG/1.1/DTD/svg11.dtd">
<svg version="1.1" id="Layer_2" xmlns="http://www.w3.org/2000/svg" xmlns:xlink="http://www.w3.org/1999/xlink" x="0px" y="0px"
	 width="700px" height="700px" viewBox="0 0 700 700" enable-background="new 0 0 700 700" xml:space="preserve">
<g>
	<g>
		<g>
			<g>
				<g>
					<g>
						<g>
							<path fill-rule="evenodd" clip-rule="evenodd" fill="#918888" d="M716.6,208.2c-0.4-0.1-0.8-0.2-1.2-0.3h1.2h1.2l-1.4,0.1
								l0.4,0.1h-0.1l0.1,0.1L716.6,208.2z M113.5,208.1h1.3c-0.2,0.1-0.4,0.1-0.6,0.2c-0.1,0-0.2,0.1-0.3,0.1l-0.4,0.3v-0.3V208.1z
								"/>
							<linearGradient id="SVGID_1_" gradientUnits="userSpaceOnUse" x1="-10.3716" y1="397.6885" x2="41.0859" y2="-53.6357">
								<stop  offset="0" style="stop-color:#5A726C"/>
								<stop  offset="0.4471" style="stop-color:#698D89"/>
								<stop  offset="1" style="stop-color:#859FA5"/>
							</linearGradient>
							<polygon fill-rule="evenodd" clip-rule="evenodd" fill="url(#SVGID_1_)" points="-66,302.8 -66,-10.7 113.5,-10.7 
								113.5,208.1 113.5,208.4 111.7,208.4 111.3,208.7 							"/>
							<path fill-rule="evenodd" clip-rule="evenodd" fill="#232121" d="M114.1,208.3h602.4V226H113.5v-17.3l0.4-0.3
								C114,208.4,114.1,208.3,114.1,208.3z"/>
							<path fill-rule="evenodd" clip-rule="evenodd" fill="#353131" d="M113.5,226L-66,337.8v-33.1l179.5-95.9V226z M796.2,271.5
								L716.6,226v-17.7v-0.1l0.1-0.1l79.5,40.6V271.5z"/>
							<path fill-rule="evenodd" clip-rule="evenodd" fill="#AAA2A2" d="M716.7,208.1l-0.1-0.1L716.7,208.1l-0.4-0.1l1.4-0.1
								l78.4,39.8v1.1L716.7,208.1z M113.5,208.7L-66,304.6v-1.9l177.3-94.1l0.5-0.3h1.8V208.7z"/>
							<linearGradient id="SVGID_2_" gradientUnits="userSpaceOnUse" x1="476.7676" y1="887.3994" x2="327.9651" y2="387.1502">
								<stop  offset="0" style="stop-color:#2E2927"/>
								<stop  offset="0.5373" style="stop-color:#605553"/>
								<stop  offset="0.7451" style="stop-color:#6C6260"/>
								<stop  offset="1" style="stop-color:#484140"/>
							</linearGradient>
							<polygon fill-rule="evenodd" clip-rule="evenodd" fill="url(#SVGID_2_)" points="-66,337.8 113.5,226 716.6,226 796.2,271.5 
								796.2,752.2 -66,752.2 							"/>
							<linearGradient id="SVGID_3_" gradientUnits="userSpaceOnUse" x1="426.0371" y1="238.4111" x2="391.7681" y2="-196.3394">
								<stop  offset="0.4471" style="stop-color:#6B747A"/>
								<stop  offset="1" style="stop-color:#4B5256"/>
							</linearGradient>
							<path fill-rule="evenodd" clip-rule="evenodd" fill="url(#SVGID_3_)" d="M113.5-10.7h603.1v218.6h-1.2
								c0.4,0.1,0.8,0.2,1.2,0.3v0.1H114.1c0.2-0.1,0.4-0.1,0.6-0.2h-1.3V-10.7z"/>
						</g>
					</g>
				</g>
			</g>
		</g>
		<g>
			<g>
				<g>
					<g>
						
							<path fill-rule="evenodd" clip-rule="evenodd" fill="none" stroke="#5E6A6F" stroke-linecap="round" stroke-linejoin="round" stroke-miterlimit="3" d="
							M413.3-10.7v218.6 M347.5-10.7v218.6 M287.6-10.7v218.6 M229-10.7v218.6 M171.5-10.7v218.6 M657.3-10.7v218.6 M598.7-10.7
							v218.6 M540-10.7v218.6 M477.8-10.7v218.6"/>
						
							<path fill-rule="evenodd" clip-rule="evenodd" fill="none" stroke="#75848A" stroke-linecap="round" stroke-linejoin="round" stroke-miterlimit="3" d="
							M414.4-10.7v218.6 M172.6-10.7v218.6 M230.1-10.7v218.6 M288.9-10.7v218.6 M348.7-10.7v218.6 M479-10.7v218.6 M658.5-10.7
							v218.6 M599.8-10.7v218.6 M541.2-10.7v218.6"/>
						
							<path fill-rule="evenodd" clip-rule="evenodd" fill="none" stroke="#FFFFFF" stroke-linecap="round" stroke-linejoin="round" stroke-miterlimit="3" stroke-opacity="0.1373" d="
							M78-10.7v236.6 M26.3-10.7V254 M804.5-10.7V254 M752.8-10.7v236.6"/>
						
							<path fill-rule="evenodd" clip-rule="evenodd" fill="none" stroke="#000000" stroke-linecap="round" stroke-linejoin="round" stroke-miterlimit="3" stroke-opacity="0.1176" d="
							M76.9-10.7v236.6 M25.3-10.7V254 M805.5-10.7V254 M753.9-10.7v236.6"/>
					</g>
				</g>
			</g>
		</g>
		<g>
			<g>
				<linearGradient id="SVGID_4_" gradientUnits="userSpaceOnUse" x1="365.0859" y1="197.7559" x2="365.0649" y2="-11.7191">
					<stop  offset="0" style="stop-color:#020202;stop-opacity:0"/>
					<stop  offset="1" style="stop-color:#000000"/>
				</linearGradient>
				<rect x="-66" y="-12.8" fill-rule="evenodd" clip-rule="evenodd" fill="url(#SVGID_4_)" width="862.3" height="211.5"/>
			</g>
		</g>
		<g>
			
				<path fill-rule="evenodd" clip-rule="evenodd" fill="none" stroke="#000000" stroke-linecap="round" stroke-linejoin="round" stroke-miterlimit="3" stroke-opacity="4.705882e-002" d="
				M635.8,225.9l26.1,25h59.4l-33.5-25 M648.3,303l45.9,58.4h83.1L716.3,303H648.3z M796.2,303h-5l5,3.8 M796.2,361.4h-18.9
				l18.9,18.1 M791.2,303h-74.8 M791.2,303l-69.8-52.1h43.8 M662,250.9l54.4,52.1 M796.2,449H763l33.2,42.1 M763,449H642.3
				l48.3,97.9h105.5 M690.7,546.8l54.5,110.5h51 M792,752.2l-46.8-94.9H565.3l17.8,94.9 M694.2,361.4L763,449 M387.5,225.9l-7.3,25
				h53.2l1.7-25 M330.6,250.9L302.8,303h62l15.3-52.1H330.6z M298.1,225.9l-19.5,25h52l13.4-25 M347.8,361.4H426l4-58.4h-65.1
				L347.8,361.4L322.2,449 M429.9,303h69l-9.8-52.1h-55.8L429.9,303z M587.6,225.9l19.7,25H662 M484.4,225.9l4.7,25h55.6l-12.3-25
				 M509.8,361.4h89.4L570.3,303h-71.4L509.8,361.4z M544.7,250.9l25.7,52.1h77.9l-41-52.1H544.7z M426,361.4l-5.9,87.5h106.2
				l-16.5-87.5H426z M156.7,225.9l-36.9,25h49.3l32-25 M102.4,303H43l-86.1,58.4h70.6L102.4,303z M27.5,361.4H120l57.5-58.4h-75.1
				 M-12.3,303H43l76.9-52.1H69 M177.5,303l51.4-52.1h-59.8L102.4,303 M120,361.4h72.6L238,303h-60.5 M192.5,361.4h79.1l31.2-58.4
				H238 M253.5,225.9l-24.6,25h49.7L238,303 M224.8,449l-52.3,97.9h121.1l28.6-97.9H224.8z M124.3,449H33.6L-63,546.8H48L124.3,449z
				 M62.7,752.2l50.7-94.9H-38.1L-66,693.2 M399.8,752.2l6.4-94.9h-145l-27.8,94.9 M113.4,657.3l59.1-110.5H48l-86.1,110.5
				 M113.4,657.3h147.9l32.4-110.5h120l6.5-97.9h-97.9 M192.5,361.4L124.3,449h100.5l46.8-87.5h76.2 M642.3,449H526.3l18.3,97.9
				h146.1 M413.6,546.8l-7.4,110.5h159.1l-20.7-110.5H413.6z M-66,449h99.7l86.3-87.5 M642.3,449l-43.2-87.5h95 M-43.1,361.4
				L-66,377 M-66,361.4h22.9 M-63,546.8L-66,550 M-66,546.8h3.1 M-66,657.3h27.9 M27.5,361.4l-93.6,73"/>
		</g>
		<g>
			
				<path fill-rule="evenodd" clip-rule="evenodd" fill="none" stroke="#FFFFFF" stroke-linecap="round" stroke-linejoin="round" stroke-miterlimit="3" stroke-opacity="4.705882e-002" d="
				M638.2,225.9l26.1,25h59.4l-33.5-25 M650.6,303l45.9,58.4h83.1L718.7,303H650.6z M796.2,303h-2.7l2.7,2 M796.2,361.4h-16.6
				l16.6,15.8 M793.5,303h-74.8 M793.5,303l-69.8-52.1h72.5 M664.3,250.9l54.4,52.1 M796.2,449h-30.8l30.8,39.3 M765.3,449H644.7
				l48.3,97.9h103.2 M693,546.8l54.5,110.5h48.7 M794.2,752.1l-46.7-94.8H567.7l17.8,94.8 M696.5,361.4l68.8,87.5 M389.8,225.9
				l-7.3,25h53.2l1.7-25 M333,250.9L305.1,303h62.1l15.3-52.1H333z M300.5,225.9l-19.5,25h52l13.4-25 M350.2,361.4h78.1l4-58.4h-65
				L350.2,361.4L324.5,449 M432.3,303h69l-9.8-52.1h-55.8L432.3,303z M590,225.9l19.6,25h54.7 M486.8,225.9l4.7,25H547l-12.3-25
				 M512.2,361.4h89.3L572.7,303h-71.5L512.2,361.4z M547,250.9l25.7,52.1h77.9l-41-52.1H547z M428.3,361.4l-5.8,87.5h106.1
				l-16.4-87.5H428.3z M159,225.9l-36.8,25h49.3l32-25 M104.7,303H45.3l-86,58.4h70.6L104.7,303z M29.9,361.4h92.4l57.6-58.4h-75.1
				 M-8.1,303h53.4l76.9-52.1H73.1 M179.9,303l51.4-52.1h-59.8L104.7,303 M122.3,361.4h72.6l45.5-58.4h-60.5 M194.9,361.4h79
				l31.3-58.4h-64.8 M255.9,225.9l-24.6,25H281L240.4,303 M296,546.8l28.6-97.9h-97.4l-52.4,97.9H296h120l6.5-97.9h-97.9 M126.6,449
				H36l-96.6,97.9h111L126.6,449z M65.1,752.1l50.6-94.8H-35.8L-64,693.7 M402.2,752.1l6.3-94.8H263.6l-27.8,94.8 M115.8,657.3
				l59-110.5H50.4l-86.1,110.5 M115.8,657.3h147.9L296,546.8 M194.9,361.4L126.6,449h100.5l46.8-87.5h76.3 M644.7,449H528.6
				l18.4,97.9h146 M415.9,546.8l-7.4,110.5h159.1L547,546.8H415.9z M-64,449H36l86.3-87.5 M644.7,449l-43.2-87.5h95 M-64,377.2
				l23.3-15.8H-64 M-60.6,546.8l-3.4,3.6 M-64,546.8h3.4 M-64,657.3h28.3 M29.9,361.4L-64,434.7"/>
		</g>
		<g>
			<g>
				<g>
					<polygon fill-rule="evenodd" clip-rule="evenodd" fill="#FBFBFB" points="614.8,62.9 610.8,65 523.2,65 518.3,62.9 					"/>
					<path fill-rule="evenodd" clip-rule="evenodd" fill="#CCD5D5" d="M515.5,62.5l101.7-0.3l-6.7,3.5H523L515.5,62.5L515.5,62.5z
						 M614.8,62.9h-96.5l4.9,2.2h87.6L614.8,62.9z"/>
					<polygon fill-rule="evenodd" clip-rule="evenodd" fill="#4A4251" points="515.4,62.8 515.5,62.6 523,65.7 610.5,65.7 
						617.2,62.2 617.4,62.2 610.6,65.8 523,65.8 					"/>
					<path fill-rule="evenodd" clip-rule="evenodd" fill="none" d="M515.5,62.6l0,0.1 M515.5,62.5L515.5,62.5"/>
				</g>
				<g>
					<linearGradient id="SVGID_5_" gradientUnits="userSpaceOnUse" x1="565.0996" y1="3.1748" x2="569.8994" y2="3.1748">
						<stop  offset="0" style="stop-color:#040404"/>
						<stop  offset="0.2235" style="stop-color:#473C30"/>
						<stop  offset="0.7529" style="stop-color:#241E17"/>
						<stop  offset="0.8392" style="stop-color:#9A8E7E"/>
						<stop  offset="0.9608" style="stop-color:#000000"/>
					</linearGradient>
					<rect x="565.2" y="-48.5" fill-rule="evenodd" clip-rule="evenodd" fill="url(#SVGID_5_)" width="4.8" height="103.4"/>
				</g>
			</g>
			<g>
				
					<radialGradient id="SVGID_6_" cx="562.9502" cy="67.8999" r="115.8891" fx="566.1315" fy="67.8999" gradientTransform="matrix(1 2.588692e-003 -2.643105e-003 1.021 0.1813 -2.8843)" gradientUnits="userSpaceOnUse">
					<stop  offset="0" style="stop-color:#FBFEFD;stop-opacity:0.251"/>
					<stop  offset="0.502" style="stop-color:#CDEDE2;stop-opacity:5.098039e-002"/>
					<stop  offset="0.9765" style="stop-color:#CCCFD5;stop-opacity:0"/>
				</radialGradient>
				<path fill-rule="evenodd" clip-rule="evenodd" fill="url(#SVGID_6_)" d="M615.3,59.2l55.3,119.1c4.5,15.7-21.4,31.8-77.7,48.4
					c-56.2,16.6-91.8,10.5-106.7-18.4c-15-28.9-17.5-51.3-7.5-67.1c21.9-42.1,34.9-69.2,39.1-81.4c32.6,1.1,63.4,1.6,92.6,1.4
					L615.3,59.2z"/>
			</g>
			<g>
				<linearGradient id="SVGID_7_" gradientUnits="userSpaceOnUse" x1="566.4893" y1="51.0039" x2="566.5354" y2="62.1038">
					<stop  offset="3.921569e-003" style="stop-color:#222222"/>
					<stop  offset="0.2275" style="stop-color:#514840"/>
					<stop  offset="0.8196" style="stop-color:#1A181B"/>
					<stop  offset="0.8941" style="stop-color:#CDC7D1"/>
					<stop  offset="0.9882" style="stop-color:#38303F"/>
				</linearGradient>
				<path fill-rule="evenodd" clip-rule="evenodd" fill="url(#SVGID_7_)" d="M617.6,62l-0.2,0.3l-102,0.4l0,0l0.1-0.3l0.9-1.1
					c2.4-2.6,6.6-5.3,12.5-7.8l76.6-0.3c4.9,1.4,8.6,3.8,11,7.2C617.5,61.2,617.8,61.8,617.6,62z"/>
			</g>
		</g>
		<g>
			<g>
				<g>
					<polygon fill-rule="evenodd" clip-rule="evenodd" fill="#FBFBFB" points="342.6,62.9 338.5,65 250.9,65 246,62.9 					"/>
					<path fill-rule="evenodd" clip-rule="evenodd" fill="#CCD5D5" d="M243.2,62.5l101.6-0.3l-6.6,3.5h-87.5L243.2,62.5L243.2,62.5z
						 M342.6,62.9H246l4.9,2.2h87.6L342.6,62.9z"/>
					<polygon fill-rule="evenodd" clip-rule="evenodd" fill="#4A4251" points="243.1,62.8 243.2,62.6 250.8,65.7 338.3,65.7 
						344.9,62.2 345.1,62.2 338.4,65.8 250.7,65.8 					"/>
					<path fill-rule="evenodd" clip-rule="evenodd" fill="none" d="M243.2,62.6l-0.1,0.1 M243.2,62.5L243.2,62.5"/>
				</g>
				<g>
					<linearGradient id="SVGID_8_" gradientUnits="userSpaceOnUse" x1="292.7998" y1="3.1748" x2="297.5996" y2="3.1748">
						<stop  offset="0" style="stop-color:#040404"/>
						<stop  offset="0.2235" style="stop-color:#473C30"/>
						<stop  offset="0.7529" style="stop-color:#241E17"/>
						<stop  offset="0.8392" style="stop-color:#9A8E7E"/>
						<stop  offset="0.9608" style="stop-color:#000000"/>
					</linearGradient>
					<rect x="293" y="-48.5" fill-rule="evenodd" clip-rule="evenodd" fill="url(#SVGID_8_)" width="4.8" height="103.4"/>
				</g>
			</g>
			<g>
				
					<radialGradient id="SVGID_9_" cx="290.7002" cy="67.8999" r="115.8891" fx="293.8815" fy="67.8999" gradientTransform="matrix(1 2.588692e-003 -2.643105e-003 1.021 0.1805 -2.1795)" gradientUnits="userSpaceOnUse">
					<stop  offset="0" style="stop-color:#FBFEFD;stop-opacity:0.251"/>
					<stop  offset="0.502" style="stop-color:#CDEDE2;stop-opacity:5.098039e-002"/>
					<stop  offset="0.9765" style="stop-color:#CCCFD5;stop-opacity:0"/>
				</radialGradient>
				<path fill-rule="evenodd" clip-rule="evenodd" fill="url(#SVGID_9_)" d="M343.1,59.2l55.3,119.1c4.5,15.7-21.4,31.8-77.7,48.4
					c-56.3,16.6-91.9,10.5-106.8-18.4c-14.9-28.9-17.4-51.3-7.5-67.1c21.9-42.1,34.9-69.2,39.1-81.4c32.5,1.1,63.4,1.6,92.6,1.4
					L343.1,59.2z"/>
			</g>
			<g>
				<linearGradient id="SVGID_10_" gradientUnits="userSpaceOnUse" x1="294.2148" y1="51.0034" x2="294.261" y2="62.1034">
					<stop  offset="3.921569e-003" style="stop-color:#222222"/>
					<stop  offset="0.2275" style="stop-color:#514840"/>
					<stop  offset="0.8196" style="stop-color:#1A181B"/>
					<stop  offset="0.8941" style="stop-color:#CDC7D1"/>
					<stop  offset="0.9882" style="stop-color:#38303F"/>
				</linearGradient>
				<path fill-rule="evenodd" clip-rule="evenodd" fill="url(#SVGID_10_)" d="M333.3,53.1c4.9,1.4,8.6,3.8,11.1,7.2
					c0.9,0.9,1.2,1.4,1,1.6l-0.2,0.3l-102,0.4l0.1,0l0.1-0.3l0.8-1.1c2.4-2.6,6.6-5.3,12.5-7.8L333.3,53.1z"/>
			</g>
		</g>
	</g>
	<g>
		<g>
			
				<linearGradient id="SVGID_11_" gradientUnits="userSpaceOnUse" x1="162.9404" y1="524.9287" x2="602.4971" y2="524.9287" gradientTransform="matrix(0.9486 -0.3164 5.245907e-002 1.0367 3.852695e-005 -3.550053e-004)">
				<stop  offset="0" style="stop-color:#000000;stop-opacity:0.7176"/>
				<stop  offset="0.1725" style="stop-color:#000000;stop-opacity:0.9294"/>
				<stop  offset="0.5216" style="stop-color:#000000"/>
				<stop  offset="0.8196" style="stop-color:#000000"/>
				<stop  offset="1" style="stop-color:#000000;stop-opacity:0.7569"/>
			</linearGradient>
			<path fill-rule="evenodd" clip-rule="evenodd" fill="url(#SVGID_11_)" d="M665.8,418.4l6.2,6.5c1.1-0.1,2.4-0.2,3.7-0.2
				c-0.2-0.2-0.5-0.3-0.8-0.5c-2.1-1.4-4.3-3.4-6.8-5.8H665.8z M665.2,415.3c-1.9-2.1-3.4-4.1-4.5-6c-1.4-2.4-1.8-3.8-1.2-4.4
				c0.7-0.5,2.2,0.1,4.7,1.7c2.4,1.7,5,4.1,7.8,7c2.7,2.9,4.8,5.6,6.3,8c0.9,1.5,1.4,2.6,1.5,3.4c1.5,0.1,2.9,0.3,4.2,0.4
				c2.3,0.3,3.5,0.8,3.6,1.3c0.1,0.5-0.9,0.9-3,1.3c-2.1,0.4-4.7,0.5-7.8,0.5c-3.1,0-5.8-0.2-8-0.5c-1.7-0.2-2.8-0.5-3.3-0.9h-10.8
				l0.6,0.8l13.8,16.4l1.8,2.1l3.6,4.3l-525.8-1l77.4-93.8l368.2-0.6L627,394l15.3-0.2l20.4,21.4H665.2z M631.6,399.6v-0.1h-0.1
				L631.6,399.6z"/>
		</g>
		<g>
			
				<linearGradient id="SVGID_12_" gradientUnits="userSpaceOnUse" x1="-602.8057" y1="100.6172" x2="-450.0189" y2="100.6172" gradientTransform="matrix(-2.192599e-002 -0.9998 0.9837 -0.7564 -9.838492e-006 8.759499e-004)">
				<stop  offset="0" style="stop-color:#000000;stop-opacity:0.7176"/>
				<stop  offset="1" style="stop-color:#000000;stop-opacity:0"/>
			</linearGradient>
			<polygon fill-rule="evenodd" clip-rule="evenodd" fill="url(#SVGID_12_)" points="201.3,342.6 225.1,357.5 148.7,449.5 -8,368.3 
				27.1,342.6 			"/>
		</g>
	</g>
</g>
<g>
	<g>
		<g>
			<rect x="-66" y="661.8" fill-rule="evenodd" clip-rule="evenodd" fill="#9D7B48" width="862.2" height="15.8"/>
			<linearGradient id="SVGID_13_" gradientUnits="userSpaceOnUse" x1="372.0078" y1="524.5527" x2="345.8792" y2="896.4168">
				<stop  offset="0" style="stop-color:#8B6C41"/>
				<stop  offset="0.3647" style="stop-color:#B99868"/>
				<stop  offset="1" style="stop-color:#B99868"/>
			</linearGradient>
			<polygon fill-rule="evenodd" clip-rule="evenodd" fill="url(#SVGID_13_)" points="-66,661.8 -66,585.4 6,508 796.2,508 
				796.2,661.8 			"/>
			<rect x="-66" y="677.6" fill-rule="evenodd" clip-rule="evenodd" fill="#5F2C0D" width="862.2" height="74.6"/>
		</g>
	</g>
	<g>
		<polygon fill-rule="evenodd" clip-rule="evenodd" fill="#999999" points="796.2,508 796.2,677.6 -66,677.6 -66,585.4 6,508 		"/>
	</g>
	<g>
		<g>
			<rect x="-66" y="661.8" fill-rule="evenodd" clip-rule="evenodd" fill="#8C5C13" width="862.2" height="15.8"/>
			<linearGradient id="SVGID_14_" gradientUnits="userSpaceOnUse" x1="364.457" y1="477.7178" x2="365.6989" y2="701.7181">
				<stop  offset="0" style="stop-color:#BD6616"/>
				<stop  offset="0.4902" style="stop-color:#D17B24"/>
				<stop  offset="1" style="stop-color:#C3782B"/>
			</linearGradient>
			<polygon fill-rule="evenodd" clip-rule="evenodd" fill="url(#SVGID_14_)" points="-66,661.8 -66,585.4 6,508 796.2,508 
				796.2,661.8 			"/>
		</g>
	</g>
	<g>
		<line fill-rule="evenodd" clip-rule="evenodd" fill="none" x1="-66" y1="661.7" x2="796.2" y2="661.7"/>
	</g>
</g>
</svg>
