<?xml version="1.0" encoding="utf-8"?>
<!-- Generator: Adobe Illustrator 16.0.0, SVG Export Plug-In . SVG Version: 6.00 Build 0)  -->
<!DOCTYPE svg PUBLIC "-//W3C//DTD SVG 1.1//EN" "http://www.w3.org/Graphics/SVG/1.1/DTD/svg11.dtd">
<svg version="1.1" xmlns="http://www.w3.org/2000/svg" xmlns:xlink="http://www.w3.org/1999/xlink" x="0px" y="0px" width="231.3px"
	 height="3196.7px" viewBox="0 0 231.3 3196.7" enable-background="new 0 0 231.3 3196.7" xml:space="preserve">
<g id="Layer_2_1_">
	<rect fill="#FFFFFF" stroke="#000000" stroke-miterlimit="10" width="231.3" height="3196.7"/>
</g>
<g id="Layer_1">
	<g id="Layer_3" display="none">
	</g>
	<g id="Layer_2">
	</g>
	<g id="Layer_4">
		<line fill="none" stroke="#000000" stroke-miterlimit="10" x1="88" y1="3162.1" x2="148.3" y2="3162.1"/>
		<line fill="none" stroke="#000000" stroke-miterlimit="10" x1="98.2" y1="3156" x2="138.7" y2="3156"/>
		<line fill="none" stroke="#000000" stroke-miterlimit="10" x1="98.2" y1="3149.8" x2="138.7" y2="3149.8"/>
		<line fill="none" stroke="#000000" stroke-miterlimit="10" x1="98.2" y1="3143.7" x2="138.7" y2="3143.7"/>
		<line fill="none" stroke="#000000" stroke-miterlimit="10" x1="98.2" y1="3137.6" x2="138.7" y2="3137.6"/>
		<line fill="none" stroke="#000000" stroke-miterlimit="10" x1="73.1" y1="3131.4" x2="162.2" y2="3131.4"/>
		<line fill="none" stroke="#000000" stroke-miterlimit="10" x1="98.2" y1="3125.3" x2="138.7" y2="3125.3"/>
		<line fill="none" stroke="#000000" stroke-miterlimit="10" x1="98.2" y1="3119.1" x2="138.7" y2="3119.1"/>
		<line fill="none" stroke="#000000" stroke-miterlimit="10" x1="98.2" y1="3113" x2="138.7" y2="3113"/>
		<line fill="none" stroke="#000000" stroke-miterlimit="10" x1="98.2" y1="3106.8" x2="138.7" y2="3106.8"/>
		<line fill="none" stroke="#000000" stroke-miterlimit="10" x1="88" y1="3100.7" x2="148.3" y2="3100.7"/>
		<line fill="none" stroke="#000000" stroke-miterlimit="10" x1="98.2" y1="3094.6" x2="138.7" y2="3094.6"/>
		<line fill="none" stroke="#000000" stroke-miterlimit="10" x1="98.2" y1="3088.4" x2="138.7" y2="3088.4"/>
		<line fill="none" stroke="#000000" stroke-miterlimit="10" x1="98.2" y1="3082.3" x2="138.7" y2="3082.3"/>
		<line fill="none" stroke="#000000" stroke-miterlimit="10" x1="98.2" y1="3076.1" x2="138.7" y2="3076.1"/>
		<line fill="none" stroke="#000000" stroke-miterlimit="10" x1="73.1" y1="3070" x2="162.2" y2="3070"/>
		<line fill="none" stroke="#000000" stroke-miterlimit="10" x1="98.2" y1="3063.9" x2="138.7" y2="3063.9"/>
		<line fill="none" stroke="#000000" stroke-miterlimit="10" x1="98.2" y1="3057.7" x2="138.7" y2="3057.7"/>
		<line fill="none" stroke="#000000" stroke-miterlimit="10" x1="98.2" y1="3051.6" x2="138.7" y2="3051.6"/>
		<line fill="none" stroke="#000000" stroke-miterlimit="10" x1="98.2" y1="3045.4" x2="138.7" y2="3045.4"/>
		<line fill="none" stroke="#000000" stroke-miterlimit="10" x1="88" y1="3039.3" x2="148.3" y2="3039.3"/>
		<line fill="none" stroke="#000000" stroke-miterlimit="10" x1="98.2" y1="3033.2" x2="138.7" y2="3033.2"/>
		<line fill="none" stroke="#000000" stroke-miterlimit="10" x1="98.2" y1="3027" x2="138.7" y2="3027"/>
		<line fill="none" stroke="#000000" stroke-miterlimit="10" x1="98.2" y1="3020.9" x2="138.7" y2="3020.9"/>
		<line fill="none" stroke="#000000" stroke-miterlimit="10" x1="98.2" y1="3014.7" x2="138.7" y2="3014.7"/>
		<line fill="none" stroke="#000000" stroke-miterlimit="10" x1="73.1" y1="3008.6" x2="162.2" y2="3008.6"/>
		<line fill="none" stroke="#000000" stroke-miterlimit="10" x1="98.2" y1="3002.5" x2="138.7" y2="3002.5"/>
		<line fill="none" stroke="#000000" stroke-miterlimit="10" x1="98.2" y1="2996.3" x2="138.7" y2="2996.3"/>
		<line fill="none" stroke="#000000" stroke-miterlimit="10" x1="98.2" y1="2990.2" x2="138.7" y2="2990.2"/>
		<line fill="none" stroke="#000000" stroke-miterlimit="10" x1="98.2" y1="2984" x2="138.7" y2="2984"/>
		<line fill="none" stroke="#000000" stroke-miterlimit="10" x1="88" y1="2977.9" x2="148.3" y2="2977.9"/>
		<line fill="none" stroke="#000000" stroke-miterlimit="10" x1="98.2" y1="2971.7" x2="138.7" y2="2971.7"/>
		<line fill="none" stroke="#000000" stroke-miterlimit="10" x1="98.2" y1="2965.6" x2="138.7" y2="2965.6"/>
		<line fill="none" stroke="#000000" stroke-miterlimit="10" x1="98.2" y1="2959.5" x2="138.7" y2="2959.5"/>
		<line fill="none" stroke="#000000" stroke-miterlimit="10" x1="98.2" y1="2953.3" x2="138.7" y2="2953.3"/>
		<line fill="none" stroke="#000000" stroke-miterlimit="10" x1="73.1" y1="2947.2" x2="162.2" y2="2947.2"/>
		<line fill="none" stroke="#000000" stroke-miterlimit="10" x1="98.2" y1="2941" x2="138.7" y2="2941"/>
		<line fill="none" stroke="#000000" stroke-miterlimit="10" x1="98.2" y1="2934.9" x2="138.7" y2="2934.9"/>
		<line fill="none" stroke="#000000" stroke-miterlimit="10" x1="98.2" y1="2928.8" x2="138.7" y2="2928.8"/>
		<line fill="none" stroke="#000000" stroke-miterlimit="10" x1="98.2" y1="2922.6" x2="138.7" y2="2922.6"/>
		<line fill="none" stroke="#000000" stroke-miterlimit="10" x1="88" y1="2916.5" x2="148.3" y2="2916.5"/>
		<line fill="none" stroke="#000000" stroke-miterlimit="10" x1="98.2" y1="2910.3" x2="138.7" y2="2910.3"/>
		<line fill="none" stroke="#000000" stroke-miterlimit="10" x1="98.2" y1="2904.2" x2="138.7" y2="2904.2"/>
		<line fill="none" stroke="#000000" stroke-miterlimit="10" x1="98.2" y1="2898.1" x2="138.7" y2="2898.1"/>
		<line fill="none" stroke="#000000" stroke-miterlimit="10" x1="98.2" y1="2891.9" x2="138.7" y2="2891.9"/>
		<line fill="none" stroke="#000000" stroke-miterlimit="10" x1="73.1" y1="2885.8" x2="162.2" y2="2885.8"/>
		<line fill="none" stroke="#000000" stroke-miterlimit="10" x1="98.2" y1="2879.6" x2="138.7" y2="2879.6"/>
		<line fill="none" stroke="#000000" stroke-miterlimit="10" x1="98.2" y1="2873.5" x2="138.7" y2="2873.5"/>
		<line fill="none" stroke="#000000" stroke-miterlimit="10" x1="98.2" y1="2867.4" x2="138.7" y2="2867.4"/>
		<line fill="none" stroke="#000000" stroke-miterlimit="10" x1="98.2" y1="2861.2" x2="138.7" y2="2861.2"/>
		<line fill="none" stroke="#000000" stroke-miterlimit="10" x1="88" y1="2855.1" x2="148.3" y2="2855.1"/>
		<line fill="none" stroke="#000000" stroke-miterlimit="10" x1="98.2" y1="2848.9" x2="138.7" y2="2848.9"/>
		<line fill="none" stroke="#000000" stroke-miterlimit="10" x1="98.2" y1="2842.8" x2="138.7" y2="2842.8"/>
		<line fill="none" stroke="#000000" stroke-miterlimit="10" x1="98.2" y1="2836.6" x2="138.7" y2="2836.6"/>
		<line fill="none" stroke="#000000" stroke-miterlimit="10" x1="98.2" y1="2830.5" x2="138.7" y2="2830.5"/>
		<line fill="none" stroke="#000000" stroke-miterlimit="10" x1="73.1" y1="2824.4" x2="162.2" y2="2824.4"/>
		<line fill="none" stroke="#000000" stroke-miterlimit="10" x1="98.2" y1="2818.2" x2="138.7" y2="2818.2"/>
		<line fill="none" stroke="#000000" stroke-miterlimit="10" x1="98.2" y1="2812.1" x2="138.7" y2="2812.1"/>
		<line fill="none" stroke="#000000" stroke-miterlimit="10" x1="98.2" y1="2805.9" x2="138.7" y2="2805.9"/>
		<line fill="none" stroke="#000000" stroke-miterlimit="10" x1="98.2" y1="2799.8" x2="138.7" y2="2799.8"/>
		<line fill="none" stroke="#000000" stroke-miterlimit="10" x1="88" y1="2793.7" x2="148.3" y2="2793.7"/>
		<line fill="none" stroke="#000000" stroke-miterlimit="10" x1="98.2" y1="2787.5" x2="138.7" y2="2787.5"/>
		<line fill="none" stroke="#000000" stroke-miterlimit="10" x1="98.2" y1="2781.4" x2="138.7" y2="2781.4"/>
		<line fill="none" stroke="#000000" stroke-miterlimit="10" x1="98.2" y1="2775.2" x2="138.7" y2="2775.2"/>
		<line fill="none" stroke="#000000" stroke-miterlimit="10" x1="98.2" y1="2769.1" x2="138.7" y2="2769.1"/>
		<line fill="none" stroke="#000000" stroke-miterlimit="10" x1="73.1" y1="2763" x2="162.2" y2="2763"/>
		<line fill="none" stroke="#000000" stroke-miterlimit="10" x1="98.2" y1="2756.8" x2="138.7" y2="2756.8"/>
		<line fill="none" stroke="#000000" stroke-miterlimit="10" x1="98.2" y1="2750.7" x2="138.7" y2="2750.7"/>
		<line fill="none" stroke="#000000" stroke-miterlimit="10" x1="98.2" y1="2744.5" x2="138.7" y2="2744.5"/>
		<line fill="none" stroke="#000000" stroke-miterlimit="10" x1="98.2" y1="2738.4" x2="138.7" y2="2738.4"/>
		<line fill="none" stroke="#000000" stroke-miterlimit="10" x1="88" y1="2732.3" x2="148.3" y2="2732.3"/>
		<line fill="none" stroke="#000000" stroke-miterlimit="10" x1="98.2" y1="2726.1" x2="138.7" y2="2726.1"/>
		<line fill="none" stroke="#000000" stroke-miterlimit="10" x1="98.2" y1="2720" x2="138.7" y2="2720"/>
		<line fill="none" stroke="#000000" stroke-miterlimit="10" x1="98.2" y1="2713.8" x2="138.7" y2="2713.8"/>
		<line fill="none" stroke="#000000" stroke-miterlimit="10" x1="98.2" y1="2707.7" x2="138.7" y2="2707.7"/>
		<line fill="none" stroke="#000000" stroke-miterlimit="10" x1="73.1" y1="2701.5" x2="162.2" y2="2701.5"/>
		<line fill="none" stroke="#000000" stroke-miterlimit="10" x1="98.2" y1="2695.4" x2="138.7" y2="2695.4"/>
		<line fill="none" stroke="#000000" stroke-miterlimit="10" x1="98.2" y1="2689.3" x2="138.7" y2="2689.3"/>
		<line fill="none" stroke="#000000" stroke-miterlimit="10" x1="98.2" y1="2683.1" x2="138.7" y2="2683.1"/>
		<line fill="none" stroke="#000000" stroke-miterlimit="10" x1="98.2" y1="2677" x2="138.7" y2="2677"/>
		<line fill="none" stroke="#000000" stroke-miterlimit="10" x1="88" y1="2670.8" x2="148.3" y2="2670.8"/>
		<line fill="none" stroke="#000000" stroke-miterlimit="10" x1="98.2" y1="2664.7" x2="138.7" y2="2664.7"/>
		<line fill="none" stroke="#000000" stroke-miterlimit="10" x1="98.2" y1="2658.6" x2="138.7" y2="2658.6"/>
		<line fill="none" stroke="#000000" stroke-miterlimit="10" x1="98.2" y1="2652.4" x2="138.7" y2="2652.4"/>
		<line fill="none" stroke="#000000" stroke-miterlimit="10" x1="98.2" y1="2646.3" x2="138.7" y2="2646.3"/>
		<line fill="none" stroke="#000000" stroke-miterlimit="10" x1="73.1" y1="2640.1" x2="162.2" y2="2640.1"/>
		<line fill="none" stroke="#000000" stroke-miterlimit="10" x1="98.2" y1="2634" x2="138.7" y2="2634"/>
		<line fill="none" stroke="#000000" stroke-miterlimit="10" x1="98.2" y1="2627.9" x2="138.7" y2="2627.9"/>
		<line fill="none" stroke="#000000" stroke-miterlimit="10" x1="98.2" y1="2621.7" x2="138.7" y2="2621.7"/>
		<line fill="none" stroke="#000000" stroke-miterlimit="10" x1="98.2" y1="2615.6" x2="138.7" y2="2615.6"/>
		<line fill="none" stroke="#000000" stroke-miterlimit="10" x1="88" y1="2609.4" x2="148.3" y2="2609.4"/>
		<line fill="none" stroke="#000000" stroke-miterlimit="10" x1="98.2" y1="2603.3" x2="138.7" y2="2603.3"/>
		<line fill="none" stroke="#000000" stroke-miterlimit="10" x1="98.2" y1="2597.2" x2="138.7" y2="2597.2"/>
		<line fill="none" stroke="#000000" stroke-miterlimit="10" x1="98.2" y1="2591" x2="138.7" y2="2591"/>
		<line fill="none" stroke="#000000" stroke-miterlimit="10" x1="98.2" y1="2584.9" x2="138.7" y2="2584.9"/>
		<line fill="none" stroke="#000000" stroke-miterlimit="10" x1="73.1" y1="2578.7" x2="162.2" y2="2578.7"/>
		<line fill="none" stroke="#000000" stroke-miterlimit="10" x1="98.2" y1="2572.6" x2="138.7" y2="2572.6"/>
		<line fill="none" stroke="#000000" stroke-miterlimit="10" x1="98.2" y1="2566.4" x2="138.7" y2="2566.4"/>
		<line fill="none" stroke="#000000" stroke-miterlimit="10" x1="98.2" y1="2560.3" x2="138.7" y2="2560.3"/>
		<line fill="none" stroke="#000000" stroke-miterlimit="10" x1="98.2" y1="2554.2" x2="138.7" y2="2554.2"/>
		<line fill="none" stroke="#000000" stroke-miterlimit="10" x1="88" y1="2548" x2="148.3" y2="2548"/>
		<line fill="none" stroke="#000000" stroke-miterlimit="10" x1="98.2" y1="2541.9" x2="138.7" y2="2541.9"/>
		<line fill="none" stroke="#000000" stroke-miterlimit="10" x1="98.2" y1="2535.7" x2="138.7" y2="2535.7"/>
		<line fill="none" stroke="#000000" stroke-miterlimit="10" x1="98.2" y1="2529.6" x2="138.7" y2="2529.6"/>
		<line fill="none" stroke="#000000" stroke-miterlimit="10" x1="98.2" y1="2523.5" x2="138.7" y2="2523.5"/>
		<line fill="none" stroke="#000000" stroke-miterlimit="10" x1="73.1" y1="2517.3" x2="162.2" y2="2517.3"/>
		<line fill="none" stroke="#000000" stroke-miterlimit="10" x1="98.2" y1="2511.2" x2="138.7" y2="2511.2"/>
		<line fill="none" stroke="#000000" stroke-miterlimit="10" x1="98.2" y1="2505" x2="138.7" y2="2505"/>
		<line fill="none" stroke="#000000" stroke-miterlimit="10" x1="98.2" y1="2498.9" x2="138.7" y2="2498.9"/>
		<line fill="none" stroke="#000000" stroke-miterlimit="10" x1="98.2" y1="2492.8" x2="138.7" y2="2492.8"/>
		<line fill="none" stroke="#000000" stroke-miterlimit="10" x1="88" y1="2486.6" x2="148.3" y2="2486.6"/>
		<line fill="none" stroke="#000000" stroke-miterlimit="10" x1="98.2" y1="2480.5" x2="138.7" y2="2480.5"/>
		<line fill="none" stroke="#000000" stroke-miterlimit="10" x1="98.2" y1="2474.3" x2="138.7" y2="2474.3"/>
		<line fill="none" stroke="#000000" stroke-miterlimit="10" x1="98.2" y1="2468.2" x2="138.7" y2="2468.2"/>
		<line fill="none" stroke="#000000" stroke-miterlimit="10" x1="98.2" y1="2462.1" x2="138.7" y2="2462.1"/>
		<line fill="none" stroke="#000000" stroke-miterlimit="10" x1="73.1" y1="2455.9" x2="162.2" y2="2455.9"/>
		<line fill="none" stroke="#000000" stroke-miterlimit="10" x1="98.2" y1="2449.8" x2="138.7" y2="2449.8"/>
		<line fill="none" stroke="#000000" stroke-miterlimit="10" x1="98.2" y1="2443.6" x2="138.7" y2="2443.6"/>
		<line fill="none" stroke="#000000" stroke-miterlimit="10" x1="98.2" y1="2437.5" x2="138.7" y2="2437.5"/>
		<line fill="none" stroke="#000000" stroke-miterlimit="10" x1="98.2" y1="2431.3" x2="138.7" y2="2431.3"/>
		<line fill="none" stroke="#000000" stroke-miterlimit="10" x1="88" y1="2425.2" x2="148.3" y2="2425.2"/>
		<line fill="none" stroke="#000000" stroke-miterlimit="10" x1="98.2" y1="2419.1" x2="138.7" y2="2419.1"/>
		<line fill="none" stroke="#000000" stroke-miterlimit="10" x1="98.2" y1="2412.9" x2="138.7" y2="2412.9"/>
		<line fill="none" stroke="#000000" stroke-miterlimit="10" x1="98.2" y1="2406.8" x2="138.7" y2="2406.8"/>
		<line fill="none" stroke="#000000" stroke-miterlimit="10" x1="98.2" y1="2400.6" x2="138.7" y2="2400.6"/>
		<line fill="none" stroke="#000000" stroke-miterlimit="10" x1="73.1" y1="2394.5" x2="162.2" y2="2394.5"/>
		<line fill="none" stroke="#000000" stroke-miterlimit="10" x1="98.2" y1="2388.4" x2="138.7" y2="2388.4"/>
		<line fill="none" stroke="#000000" stroke-miterlimit="10" x1="98.2" y1="2382.2" x2="138.7" y2="2382.2"/>
		<line fill="none" stroke="#000000" stroke-miterlimit="10" x1="98.2" y1="2376.1" x2="138.7" y2="2376.1"/>
		<line fill="none" stroke="#000000" stroke-miterlimit="10" x1="98.2" y1="2369.9" x2="138.7" y2="2369.9"/>
		<line fill="none" stroke="#000000" stroke-miterlimit="10" x1="88" y1="2363.8" x2="148.3" y2="2363.8"/>
		<line fill="none" stroke="#000000" stroke-miterlimit="10" x1="98.2" y1="2357.7" x2="138.7" y2="2357.7"/>
		<line fill="none" stroke="#000000" stroke-miterlimit="10" x1="98.2" y1="2351.5" x2="138.7" y2="2351.5"/>
		<line fill="none" stroke="#000000" stroke-miterlimit="10" x1="98.2" y1="2345.4" x2="138.7" y2="2345.4"/>
		<line fill="none" stroke="#000000" stroke-miterlimit="10" x1="98.2" y1="2339.2" x2="138.7" y2="2339.2"/>
		<line fill="none" stroke="#000000" stroke-miterlimit="10" x1="73.1" y1="2333.1" x2="162.2" y2="2333.1"/>
		<line fill="none" stroke="#000000" stroke-miterlimit="10" x1="98.2" y1="2327" x2="138.7" y2="2327"/>
		<line fill="none" stroke="#000000" stroke-miterlimit="10" x1="98.2" y1="2320.8" x2="138.7" y2="2320.8"/>
		<line fill="none" stroke="#000000" stroke-miterlimit="10" x1="98.2" y1="2314.7" x2="138.7" y2="2314.7"/>
		<line fill="none" stroke="#000000" stroke-miterlimit="10" x1="98.2" y1="2308.5" x2="138.7" y2="2308.5"/>
		<line fill="none" stroke="#000000" stroke-miterlimit="10" x1="88" y1="2302.4" x2="148.3" y2="2302.4"/>
		<line fill="none" stroke="#000000" stroke-miterlimit="10" x1="98.2" y1="2296.2" x2="138.7" y2="2296.2"/>
		<line fill="none" stroke="#000000" stroke-miterlimit="10" x1="98.2" y1="2290.1" x2="138.7" y2="2290.1"/>
		<line fill="none" stroke="#000000" stroke-miterlimit="10" x1="98.2" y1="2284" x2="138.7" y2="2284"/>
		<line fill="none" stroke="#000000" stroke-miterlimit="10" x1="98.2" y1="2277.8" x2="138.7" y2="2277.8"/>
		<line fill="none" stroke="#000000" stroke-miterlimit="10" x1="73.1" y1="2271.7" x2="162.2" y2="2271.7"/>
		<line fill="none" stroke="#000000" stroke-miterlimit="10" x1="98.2" y1="2265.5" x2="138.7" y2="2265.5"/>
		<line fill="none" stroke="#000000" stroke-miterlimit="10" x1="98.2" y1="2259.4" x2="138.7" y2="2259.4"/>
		<line fill="none" stroke="#000000" stroke-miterlimit="10" x1="98.2" y1="2253.3" x2="138.7" y2="2253.3"/>
		<line fill="none" stroke="#000000" stroke-miterlimit="10" x1="98.2" y1="2247.1" x2="138.7" y2="2247.1"/>
		<line fill="none" stroke="#000000" stroke-miterlimit="10" x1="88" y1="2241" x2="148.3" y2="2241"/>
		<line fill="none" stroke="#000000" stroke-miterlimit="10" x1="98.2" y1="2234.8" x2="138.7" y2="2234.8"/>
		<line fill="none" stroke="#000000" stroke-miterlimit="10" x1="98.2" y1="2228.7" x2="138.7" y2="2228.7"/>
		<line fill="none" stroke="#000000" stroke-miterlimit="10" x1="98.2" y1="2222.6" x2="138.7" y2="2222.6"/>
		<line fill="none" stroke="#000000" stroke-miterlimit="10" x1="98.2" y1="2216.4" x2="138.7" y2="2216.4"/>
		<line fill="none" stroke="#000000" stroke-miterlimit="10" x1="73.1" y1="2210.3" x2="162.2" y2="2210.3"/>
		<line fill="none" stroke="#000000" stroke-miterlimit="10" x1="98.2" y1="2204.1" x2="138.7" y2="2204.1"/>
		<line fill="none" stroke="#000000" stroke-miterlimit="10" x1="98.2" y1="2198" x2="138.7" y2="2198"/>
		<line fill="none" stroke="#000000" stroke-miterlimit="10" x1="98.2" y1="2191.9" x2="138.7" y2="2191.9"/>
		<line fill="none" stroke="#000000" stroke-miterlimit="10" x1="98.2" y1="2185.7" x2="138.7" y2="2185.7"/>
		<line fill="none" stroke="#000000" stroke-miterlimit="10" x1="88" y1="2179.6" x2="148.3" y2="2179.6"/>
		<line fill="none" stroke="#000000" stroke-miterlimit="10" x1="98.2" y1="2173.4" x2="138.7" y2="2173.4"/>
		<line fill="none" stroke="#000000" stroke-miterlimit="10" x1="98.2" y1="2167.3" x2="138.7" y2="2167.3"/>
		<line fill="none" stroke="#000000" stroke-miterlimit="10" x1="98.2" y1="2161.1" x2="138.7" y2="2161.1"/>
		<line fill="none" stroke="#000000" stroke-miterlimit="10" x1="98.2" y1="2155" x2="138.7" y2="2155"/>
		<line fill="none" stroke="#000000" stroke-miterlimit="10" x1="73.1" y1="2148.9" x2="162.2" y2="2148.9"/>
		<line fill="none" stroke="#000000" stroke-miterlimit="10" x1="98.2" y1="2142.7" x2="138.7" y2="2142.7"/>
		<line fill="none" stroke="#000000" stroke-miterlimit="10" x1="98.2" y1="2136.6" x2="138.7" y2="2136.6"/>
		<line fill="none" stroke="#000000" stroke-miterlimit="10" x1="98.2" y1="2130.4" x2="138.7" y2="2130.4"/>
		<line fill="none" stroke="#000000" stroke-miterlimit="10" x1="98.2" y1="2124.3" x2="138.7" y2="2124.3"/>
		<line fill="none" stroke="#000000" stroke-miterlimit="10" x1="88" y1="2118.2" x2="148.3" y2="2118.2"/>
		<line fill="none" stroke="#000000" stroke-miterlimit="10" x1="98.2" y1="2112" x2="138.7" y2="2112"/>
		<line fill="none" stroke="#000000" stroke-miterlimit="10" x1="98.2" y1="2105.9" x2="138.7" y2="2105.9"/>
		<line fill="none" stroke="#000000" stroke-miterlimit="10" x1="98.2" y1="2099.7" x2="138.7" y2="2099.7"/>
		<line fill="none" stroke="#000000" stroke-miterlimit="10" x1="98.2" y1="2093.6" x2="138.7" y2="2093.6"/>
		<line fill="none" stroke="#000000" stroke-miterlimit="10" x1="73.1" y1="2087.5" x2="162.2" y2="2087.5"/>
		<line fill="none" stroke="#000000" stroke-miterlimit="10" x1="98.2" y1="2081.3" x2="138.7" y2="2081.3"/>
		<line fill="none" stroke="#000000" stroke-miterlimit="10" x1="98.2" y1="2075.2" x2="138.7" y2="2075.2"/>
		<line fill="none" stroke="#000000" stroke-miterlimit="10" x1="98.2" y1="2069" x2="138.7" y2="2069"/>
		<line fill="none" stroke="#000000" stroke-miterlimit="10" x1="98.2" y1="2062.9" x2="138.7" y2="2062.9"/>
		<line fill="none" stroke="#000000" stroke-miterlimit="10" x1="88" y1="2056.8" x2="148.3" y2="2056.8"/>
		<line fill="none" stroke="#000000" stroke-miterlimit="10" x1="98.2" y1="2050.6" x2="138.7" y2="2050.6"/>
		<line fill="none" stroke="#000000" stroke-miterlimit="10" x1="98.2" y1="2044.5" x2="138.7" y2="2044.5"/>
		<line fill="none" stroke="#000000" stroke-miterlimit="10" x1="98.2" y1="2038.3" x2="138.7" y2="2038.3"/>
		<line fill="none" stroke="#000000" stroke-miterlimit="10" x1="98.2" y1="2032.2" x2="138.7" y2="2032.2"/>
		<line fill="none" stroke="#000000" stroke-miterlimit="10" x1="73.1" y1="2026.1" x2="162.2" y2="2026.1"/>
		<line fill="none" stroke="#000000" stroke-miterlimit="10" x1="98.2" y1="2019.9" x2="138.7" y2="2019.9"/>
		<line fill="none" stroke="#000000" stroke-miterlimit="10" x1="98.2" y1="2013.8" x2="138.7" y2="2013.8"/>
		<line fill="none" stroke="#000000" stroke-miterlimit="10" x1="98.2" y1="2007.6" x2="138.7" y2="2007.6"/>
		<line fill="none" stroke="#000000" stroke-miterlimit="10" x1="98.2" y1="2001.5" x2="138.7" y2="2001.5"/>
		<line fill="none" stroke="#000000" stroke-miterlimit="10" x1="88" y1="1995.3" x2="148.3" y2="1995.3"/>
		<line fill="none" stroke="#000000" stroke-miterlimit="10" x1="98.2" y1="1989.2" x2="138.7" y2="1989.2"/>
		<line fill="none" stroke="#000000" stroke-miterlimit="10" x1="98.2" y1="1983.1" x2="138.7" y2="1983.1"/>
		<line fill="none" stroke="#000000" stroke-miterlimit="10" x1="98.2" y1="1976.9" x2="138.7" y2="1976.9"/>
		<line fill="none" stroke="#000000" stroke-miterlimit="10" x1="98.2" y1="1970.8" x2="138.7" y2="1970.8"/>
		<line fill="none" stroke="#000000" stroke-miterlimit="10" x1="73.1" y1="1964.6" x2="162.2" y2="1964.6"/>
		<line fill="none" stroke="#000000" stroke-miterlimit="10" x1="98.2" y1="1958.5" x2="138.7" y2="1958.5"/>
		<line fill="none" stroke="#000000" stroke-miterlimit="10" x1="98.2" y1="1952.4" x2="138.7" y2="1952.4"/>
		<line fill="none" stroke="#000000" stroke-miterlimit="10" x1="98.2" y1="1946.2" x2="138.7" y2="1946.2"/>
		<line fill="none" stroke="#000000" stroke-miterlimit="10" x1="98.2" y1="1940.1" x2="138.7" y2="1940.1"/>
		<line fill="none" stroke="#000000" stroke-miterlimit="10" x1="88" y1="1933.9" x2="148.3" y2="1933.9"/>
		<line fill="none" stroke="#000000" stroke-miterlimit="10" x1="98.2" y1="1927.8" x2="138.7" y2="1927.8"/>
		<line fill="none" stroke="#000000" stroke-miterlimit="10" x1="98.2" y1="1921.7" x2="138.7" y2="1921.7"/>
		<line fill="none" stroke="#000000" stroke-miterlimit="10" x1="98.2" y1="1915.5" x2="138.7" y2="1915.5"/>
		<line fill="none" stroke="#000000" stroke-miterlimit="10" x1="98.2" y1="1909.4" x2="138.7" y2="1909.4"/>
		<line fill="none" stroke="#000000" stroke-miterlimit="10" x1="73.1" y1="1903.2" x2="162.2" y2="1903.2"/>
		<line fill="none" stroke="#000000" stroke-miterlimit="10" x1="98.2" y1="1897.1" x2="138.7" y2="1897.1"/>
		<line fill="none" stroke="#000000" stroke-miterlimit="10" x1="98.2" y1="1891" x2="138.7" y2="1891"/>
		<line fill="none" stroke="#000000" stroke-miterlimit="10" x1="98.2" y1="1884.8" x2="138.7" y2="1884.8"/>
		<line fill="none" stroke="#000000" stroke-miterlimit="10" x1="98.2" y1="1878.7" x2="138.7" y2="1878.7"/>
		<line fill="none" stroke="#000000" stroke-miterlimit="10" x1="88" y1="1872.5" x2="148.3" y2="1872.5"/>
		<line fill="none" stroke="#000000" stroke-miterlimit="10" x1="98.2" y1="1866.4" x2="138.7" y2="1866.4"/>
		<line fill="none" stroke="#000000" stroke-miterlimit="10" x1="98.2" y1="1860.2" x2="138.7" y2="1860.2"/>
		<line fill="none" stroke="#000000" stroke-miterlimit="10" x1="98.2" y1="1854.1" x2="138.7" y2="1854.1"/>
		<line fill="none" stroke="#000000" stroke-miterlimit="10" x1="98.2" y1="1848" x2="138.7" y2="1848"/>
		<line fill="none" stroke="#000000" stroke-miterlimit="10" x1="73.1" y1="1841.8" x2="162.2" y2="1841.8"/>
		<line fill="none" stroke="#000000" stroke-miterlimit="10" x1="98.2" y1="1835.7" x2="138.7" y2="1835.7"/>
		<line fill="none" stroke="#000000" stroke-miterlimit="10" x1="98.2" y1="1829.5" x2="138.7" y2="1829.5"/>
		<line fill="none" stroke="#000000" stroke-miterlimit="10" x1="98.2" y1="1823.4" x2="138.7" y2="1823.4"/>
		<line fill="none" stroke="#000000" stroke-miterlimit="10" x1="98.2" y1="1817.3" x2="138.7" y2="1817.3"/>
		<line fill="none" stroke="#000000" stroke-miterlimit="10" x1="88" y1="1811.1" x2="148.3" y2="1811.1"/>
		<line fill="none" stroke="#000000" stroke-miterlimit="10" x1="98.2" y1="1805" x2="138.7" y2="1805"/>
		<line fill="none" stroke="#000000" stroke-miterlimit="10" x1="98.2" y1="1798.8" x2="138.7" y2="1798.8"/>
		<line fill="none" stroke="#000000" stroke-miterlimit="10" x1="98.2" y1="1792.7" x2="138.7" y2="1792.7"/>
		<line fill="none" stroke="#000000" stroke-miterlimit="10" x1="98.2" y1="1786.6" x2="138.7" y2="1786.6"/>
		<line fill="none" stroke="#000000" stroke-miterlimit="10" x1="73.1" y1="1780.4" x2="162.2" y2="1780.4"/>
		<line fill="none" stroke="#000000" stroke-miterlimit="10" x1="98.2" y1="1774.3" x2="138.7" y2="1774.3"/>
		<line fill="none" stroke="#000000" stroke-miterlimit="10" x1="98.2" y1="1768.1" x2="138.7" y2="1768.1"/>
		<line fill="none" stroke="#000000" stroke-miterlimit="10" x1="98.2" y1="1762" x2="138.7" y2="1762"/>
		<line fill="none" stroke="#000000" stroke-miterlimit="10" x1="98.2" y1="1755.9" x2="138.7" y2="1755.9"/>
		<line fill="none" stroke="#000000" stroke-miterlimit="10" x1="88" y1="1749.7" x2="148.3" y2="1749.7"/>
		<line fill="none" stroke="#000000" stroke-miterlimit="10" x1="98.2" y1="1743.6" x2="138.7" y2="1743.6"/>
		<line fill="none" stroke="#000000" stroke-miterlimit="10" x1="98.2" y1="1737.4" x2="138.7" y2="1737.4"/>
		<line fill="none" stroke="#000000" stroke-miterlimit="10" x1="98.2" y1="1731.3" x2="138.7" y2="1731.3"/>
		<line fill="none" stroke="#000000" stroke-miterlimit="10" x1="98.2" y1="1725.1" x2="138.7" y2="1725.1"/>
		<line fill="none" stroke="#000000" stroke-miterlimit="10" x1="73.1" y1="1719" x2="162.2" y2="1719"/>
		<line fill="none" stroke="#000000" stroke-miterlimit="10" x1="98.2" y1="1712.9" x2="138.7" y2="1712.9"/>
		<line fill="none" stroke="#000000" stroke-miterlimit="10" x1="98.2" y1="1706.7" x2="138.7" y2="1706.7"/>
		<line fill="none" stroke="#000000" stroke-miterlimit="10" x1="98.2" y1="1700.6" x2="138.7" y2="1700.6"/>
		<line fill="none" stroke="#000000" stroke-miterlimit="10" x1="98.2" y1="1694.4" x2="138.7" y2="1694.4"/>
		<line fill="none" stroke="#000000" stroke-miterlimit="10" x1="88" y1="1688.3" x2="148.3" y2="1688.3"/>
		<line fill="none" stroke="#000000" stroke-miterlimit="10" x1="98.2" y1="1682.2" x2="138.7" y2="1682.2"/>
		<line fill="none" stroke="#000000" stroke-miterlimit="10" x1="98.2" y1="1676" x2="138.7" y2="1676"/>
		<line fill="none" stroke="#000000" stroke-miterlimit="10" x1="98.2" y1="1669.9" x2="138.7" y2="1669.9"/>
		<line fill="none" stroke="#000000" stroke-miterlimit="10" x1="98.2" y1="1663.7" x2="138.7" y2="1663.7"/>
		<line fill="none" stroke="#000000" stroke-miterlimit="10" x1="73.1" y1="1657.6" x2="162.2" y2="1657.6"/>
		<line fill="none" stroke="#000000" stroke-miterlimit="10" x1="98.2" y1="1651.5" x2="138.7" y2="1651.5"/>
		<line fill="none" stroke="#000000" stroke-miterlimit="10" x1="98.2" y1="1645.3" x2="138.7" y2="1645.3"/>
		<line fill="none" stroke="#000000" stroke-miterlimit="10" x1="98.2" y1="1639.2" x2="138.7" y2="1639.2"/>
		<line fill="none" stroke="#000000" stroke-miterlimit="10" x1="98.2" y1="1633" x2="138.7" y2="1633"/>
		<line fill="none" stroke="#000000" stroke-miterlimit="10" x1="88" y1="1626.9" x2="147.9" y2="1626.9"/>
		<line fill="none" stroke="#000000" stroke-miterlimit="10" x1="98.2" y1="1620.8" x2="138.7" y2="1620.8"/>
		<line fill="none" stroke="#000000" stroke-miterlimit="10" x1="98.2" y1="1614.6" x2="138.7" y2="1614.6"/>
		<line fill="none" stroke="#000000" stroke-miterlimit="10" x1="98.2" y1="1608.5" x2="138.7" y2="1608.5"/>
		<line fill="none" stroke="#000000" stroke-miterlimit="10" x1="98.2" y1="1602.3" x2="138.7" y2="1602.3"/>
		<line fill="none" stroke="#000000" stroke-miterlimit="10" x1="73.1" y1="1596.2" x2="162.2" y2="1596.2"/>
		<line fill="none" stroke="#000000" stroke-miterlimit="10" x1="98.2" y1="1590" x2="138.7" y2="1590"/>
		<line fill="none" stroke="#000000" stroke-miterlimit="10" x1="98.2" y1="1583.9" x2="138.7" y2="1583.9"/>
		<line fill="none" stroke="#000000" stroke-miterlimit="10" x1="98.2" y1="1577.8" x2="138.7" y2="1577.8"/>
		<line fill="none" stroke="#000000" stroke-miterlimit="10" x1="98.2" y1="1571.6" x2="138.7" y2="1571.6"/>
		<line fill="none" stroke="#000000" stroke-miterlimit="10" x1="88" y1="1565.5" x2="147.9" y2="1565.5"/>
		<line fill="none" stroke="#000000" stroke-miterlimit="10" x1="98.2" y1="1559.3" x2="138.7" y2="1559.3"/>
		<line fill="none" stroke="#000000" stroke-miterlimit="10" x1="98.2" y1="1553.2" x2="138.7" y2="1553.2"/>
		<line fill="none" stroke="#000000" stroke-miterlimit="10" x1="98.2" y1="1547.1" x2="138.7" y2="1547.1"/>
		<line fill="none" stroke="#000000" stroke-miterlimit="10" x1="98.2" y1="1540.9" x2="138.7" y2="1540.9"/>
		<line fill="none" stroke="#000000" stroke-miterlimit="10" x1="73.1" y1="1534.8" x2="162.2" y2="1534.8"/>
		<line fill="none" stroke="#000000" stroke-miterlimit="10" x1="98.2" y1="1528.6" x2="138.7" y2="1528.6"/>
		<line fill="none" stroke="#000000" stroke-miterlimit="10" x1="98.2" y1="1522.5" x2="138.7" y2="1522.5"/>
		<line fill="none" stroke="#000000" stroke-miterlimit="10" x1="98.2" y1="1516.4" x2="138.7" y2="1516.4"/>
		<line fill="none" stroke="#000000" stroke-miterlimit="10" x1="98.2" y1="1510.2" x2="138.7" y2="1510.2"/>
		<line fill="none" stroke="#000000" stroke-miterlimit="10" x1="88" y1="1504.1" x2="148.3" y2="1504.1"/>
		<line fill="none" stroke="#000000" stroke-miterlimit="10" x1="98.2" y1="1497.9" x2="138.7" y2="1497.9"/>
		<line fill="none" stroke="#000000" stroke-miterlimit="10" x1="98.2" y1="1491.8" x2="138.7" y2="1491.8"/>
		<line fill="none" stroke="#000000" stroke-miterlimit="10" x1="98.2" y1="1485.7" x2="138.7" y2="1485.7"/>
		<line fill="none" stroke="#000000" stroke-miterlimit="10" x1="98.2" y1="1479.5" x2="138.7" y2="1479.5"/>
		<line fill="none" stroke="#000000" stroke-miterlimit="10" x1="73.1" y1="1473.4" x2="162.2" y2="1473.4"/>
		<line fill="none" stroke="#000000" stroke-miterlimit="10" x1="98.2" y1="1467.2" x2="138.7" y2="1467.2"/>
		<line fill="none" stroke="#000000" stroke-miterlimit="10" x1="98.2" y1="1461.1" x2="138.7" y2="1461.1"/>
		<line fill="none" stroke="#000000" stroke-miterlimit="10" x1="98.2" y1="1454.9" x2="138.7" y2="1454.9"/>
		<line fill="none" stroke="#000000" stroke-miterlimit="10" x1="98.2" y1="1448.8" x2="138.7" y2="1448.8"/>
		<line fill="none" stroke="#000000" stroke-miterlimit="10" x1="88" y1="1442.7" x2="148.3" y2="1442.7"/>
		<line fill="none" stroke="#000000" stroke-miterlimit="10" x1="98.2" y1="1436.5" x2="138.7" y2="1436.5"/>
		<line fill="none" stroke="#000000" stroke-miterlimit="10" x1="98.2" y1="1430.4" x2="138.7" y2="1430.4"/>
		<line fill="none" stroke="#000000" stroke-miterlimit="10" x1="98.2" y1="1424.2" x2="138.7" y2="1424.2"/>
		<line fill="none" stroke="#000000" stroke-miterlimit="10" x1="98.2" y1="1418.1" x2="138.7" y2="1418.1"/>
		<line fill="none" stroke="#000000" stroke-miterlimit="10" x1="73.1" y1="1412" x2="162.2" y2="1412"/>
		<line fill="none" stroke="#000000" stroke-miterlimit="10" x1="98.2" y1="1405.8" x2="138.7" y2="1405.8"/>
		<line fill="none" stroke="#000000" stroke-miterlimit="10" x1="98.2" y1="1399.7" x2="138.7" y2="1399.7"/>
		<line fill="none" stroke="#000000" stroke-miterlimit="10" x1="98.2" y1="1393.5" x2="138.7" y2="1393.5"/>
		<line fill="none" stroke="#000000" stroke-miterlimit="10" x1="98.2" y1="1387.4" x2="138.7" y2="1387.4"/>
		<line fill="none" stroke="#000000" stroke-miterlimit="10" x1="88" y1="1381.3" x2="147.9" y2="1381.3"/>
		<line fill="none" stroke="#000000" stroke-miterlimit="10" x1="98.2" y1="1375.1" x2="138.7" y2="1375.1"/>
		<line fill="none" stroke="#000000" stroke-miterlimit="10" x1="98.2" y1="1369" x2="138.7" y2="1369"/>
		<line fill="none" stroke="#000000" stroke-miterlimit="10" x1="98.2" y1="1362.8" x2="138.7" y2="1362.8"/>
		<line fill="none" stroke="#000000" stroke-miterlimit="10" x1="98.2" y1="1356.7" x2="138.7" y2="1356.7"/>
		<line fill="none" stroke="#000000" stroke-miterlimit="10" x1="73.1" y1="1350.6" x2="162.2" y2="1350.6"/>
		<line fill="none" stroke="#000000" stroke-miterlimit="10" x1="98.2" y1="1344.4" x2="138.7" y2="1344.4"/>
		<line fill="none" stroke="#000000" stroke-miterlimit="10" x1="98.2" y1="1338.3" x2="138.7" y2="1338.3"/>
		<line fill="none" stroke="#000000" stroke-miterlimit="10" x1="98.2" y1="1332.1" x2="138.7" y2="1332.1"/>
		<line fill="none" stroke="#000000" stroke-miterlimit="10" x1="98.2" y1="1326" x2="138.7" y2="1326"/>
		<line fill="none" stroke="#000000" stroke-miterlimit="10" x1="88" y1="1319.8" x2="148.3" y2="1319.8"/>
		<line fill="none" stroke="#000000" stroke-miterlimit="10" x1="98.2" y1="1313.7" x2="138.7" y2="1313.7"/>
		<line fill="none" stroke="#000000" stroke-miterlimit="10" x1="98.2" y1="1307.6" x2="138.7" y2="1307.6"/>
		<line fill="none" stroke="#000000" stroke-miterlimit="10" x1="98.2" y1="1301.4" x2="138.7" y2="1301.4"/>
		<line fill="none" stroke="#000000" stroke-miterlimit="10" x1="98.2" y1="1295.3" x2="138.7" y2="1295.3"/>
		<line fill="none" stroke="#000000" stroke-miterlimit="10" x1="73.1" y1="1289.1" x2="162.2" y2="1289.1"/>
		<line fill="none" stroke="#000000" stroke-miterlimit="10" x1="98.2" y1="1283" x2="138.7" y2="1283"/>
		<line fill="none" stroke="#000000" stroke-miterlimit="10" x1="98.2" y1="1276.9" x2="138.7" y2="1276.9"/>
		<line fill="none" stroke="#000000" stroke-miterlimit="10" x1="98.2" y1="1270.7" x2="138.7" y2="1270.7"/>
		<line fill="none" stroke="#000000" stroke-miterlimit="10" x1="98.2" y1="1264.6" x2="138.7" y2="1264.6"/>
		<line fill="none" stroke="#000000" stroke-miterlimit="10" x1="88" y1="1258.4" x2="148.3" y2="1258.4"/>
		<line fill="none" stroke="#000000" stroke-miterlimit="10" x1="98.2" y1="1252.3" x2="138.7" y2="1252.3"/>
		<line fill="none" stroke="#000000" stroke-miterlimit="10" x1="98.2" y1="1246.2" x2="138.7" y2="1246.2"/>
		<line fill="none" stroke="#000000" stroke-miterlimit="10" x1="98.2" y1="1240" x2="138.7" y2="1240"/>
		<line fill="none" stroke="#000000" stroke-miterlimit="10" x1="98.2" y1="1233.9" x2="138.7" y2="1233.9"/>
		<line fill="none" stroke="#000000" stroke-miterlimit="10" x1="73.1" y1="1227.7" x2="162.2" y2="1227.7"/>
		<line fill="none" stroke="#000000" stroke-miterlimit="10" x1="98.2" y1="1221.6" x2="138.7" y2="1221.6"/>
		<line fill="none" stroke="#000000" stroke-miterlimit="10" x1="98.2" y1="1215.5" x2="138.7" y2="1215.5"/>
		<line fill="none" stroke="#000000" stroke-miterlimit="10" x1="98.2" y1="1209.3" x2="138.7" y2="1209.3"/>
		<line fill="none" stroke="#000000" stroke-miterlimit="10" x1="98.2" y1="1203.2" x2="138.7" y2="1203.2"/>
		<line fill="none" stroke="#000000" stroke-miterlimit="10" x1="88" y1="1197" x2="148.3" y2="1197"/>
		<line fill="none" stroke="#000000" stroke-miterlimit="10" x1="98.2" y1="1190.9" x2="138.7" y2="1190.9"/>
		<line fill="none" stroke="#000000" stroke-miterlimit="10" x1="98.2" y1="1184.7" x2="138.7" y2="1184.7"/>
		<line fill="none" stroke="#000000" stroke-miterlimit="10" x1="98.2" y1="1178.6" x2="138.7" y2="1178.6"/>
		<line fill="none" stroke="#000000" stroke-miterlimit="10" x1="98.2" y1="1172.5" x2="138.7" y2="1172.5"/>
		<line fill="none" stroke="#000000" stroke-miterlimit="10" x1="73.1" y1="1166.3" x2="162.2" y2="1166.3"/>
		<line fill="none" stroke="#000000" stroke-miterlimit="10" x1="98.2" y1="1160.2" x2="138.7" y2="1160.2"/>
		<line fill="none" stroke="#000000" stroke-miterlimit="10" x1="98.2" y1="1154" x2="138.7" y2="1154"/>
		<line fill="none" stroke="#000000" stroke-miterlimit="10" x1="98.2" y1="1147.9" x2="138.7" y2="1147.9"/>
		<line fill="none" stroke="#000000" stroke-miterlimit="10" x1="98.2" y1="1141.8" x2="138.7" y2="1141.8"/>
		<line fill="none" stroke="#000000" stroke-miterlimit="10" x1="88" y1="1135.6" x2="148.3" y2="1135.6"/>
		<line fill="none" stroke="#000000" stroke-miterlimit="10" x1="98.2" y1="1129.5" x2="138.7" y2="1129.5"/>
		<line fill="none" stroke="#000000" stroke-miterlimit="10" x1="98.2" y1="1123.3" x2="138.7" y2="1123.3"/>
		<line fill="none" stroke="#000000" stroke-miterlimit="10" x1="98.2" y1="1117.2" x2="138.7" y2="1117.2"/>
		<line fill="none" stroke="#000000" stroke-miterlimit="10" x1="98.2" y1="1111.1" x2="138.7" y2="1111.1"/>
		<line fill="none" stroke="#000000" stroke-miterlimit="10" x1="73.1" y1="1104.9" x2="162.2" y2="1104.9"/>
		<line fill="none" stroke="#000000" stroke-miterlimit="10" x1="98.2" y1="1098.8" x2="138.7" y2="1098.8"/>
		<line fill="none" stroke="#000000" stroke-miterlimit="10" x1="98.2" y1="1092.6" x2="138.7" y2="1092.6"/>
		<line fill="none" stroke="#000000" stroke-miterlimit="10" x1="98.2" y1="1086.5" x2="138.7" y2="1086.5"/>
		<line fill="none" stroke="#000000" stroke-miterlimit="10" x1="98.2" y1="1080.4" x2="138.7" y2="1080.4"/>
		<line fill="none" stroke="#000000" stroke-miterlimit="10" x1="88" y1="1074.2" x2="147.9" y2="1074.2"/>
		<line fill="none" stroke="#000000" stroke-miterlimit="10" x1="98.2" y1="1068.1" x2="138.7" y2="1068.1"/>
		<line fill="none" stroke="#000000" stroke-miterlimit="10" x1="98.2" y1="1061.9" x2="138.7" y2="1061.9"/>
		<line fill="none" stroke="#000000" stroke-miterlimit="10" x1="98.2" y1="1055.8" x2="138.7" y2="1055.8"/>
		<line fill="none" stroke="#000000" stroke-miterlimit="10" x1="98.2" y1="1049.6" x2="138.7" y2="1049.6"/>
		<line fill="none" stroke="#000000" stroke-miterlimit="10" x1="73.1" y1="1043.5" x2="162.2" y2="1043.5"/>
		<line fill="none" stroke="#000000" stroke-miterlimit="10" x1="98.2" y1="1037.4" x2="138.7" y2="1037.4"/>
		<line fill="none" stroke="#000000" stroke-miterlimit="10" x1="98.2" y1="1031.2" x2="138.7" y2="1031.2"/>
		<line fill="none" stroke="#000000" stroke-miterlimit="10" x1="98.2" y1="1025.1" x2="138.7" y2="1025.1"/>
		<line fill="none" stroke="#000000" stroke-miterlimit="10" x1="98.2" y1="1018.9" x2="138.7" y2="1018.9"/>
		<line fill="none" stroke="#000000" stroke-miterlimit="10" x1="88" y1="1012.8" x2="148.3" y2="1012.8"/>
		<line fill="none" stroke="#000000" stroke-miterlimit="10" x1="98.2" y1="1006.7" x2="138.7" y2="1006.7"/>
		<line fill="none" stroke="#000000" stroke-miterlimit="10" x1="98.2" y1="1000.5" x2="138.7" y2="1000.5"/>
		<line fill="none" stroke="#000000" stroke-miterlimit="10" x1="98.2" y1="994.4" x2="138.7" y2="994.4"/>
		<line fill="none" stroke="#000000" stroke-miterlimit="10" x1="98.2" y1="988.2" x2="138.7" y2="988.2"/>
		<line fill="none" stroke="#000000" stroke-miterlimit="10" x1="73.1" y1="982.1" x2="162.2" y2="982.1"/>
		<line fill="none" stroke="#000000" stroke-miterlimit="10" x1="98.2" y1="976" x2="138.7" y2="976"/>
		<line fill="none" stroke="#000000" stroke-miterlimit="10" x1="98.2" y1="969.8" x2="138.7" y2="969.8"/>
		<line fill="none" stroke="#000000" stroke-miterlimit="10" x1="98.2" y1="963.7" x2="138.7" y2="963.7"/>
		<line fill="none" stroke="#000000" stroke-miterlimit="10" x1="98.2" y1="957.5" x2="138.7" y2="957.5"/>
		<line fill="none" stroke="#000000" stroke-miterlimit="10" x1="88" y1="951.4" x2="148.3" y2="951.4"/>
		<line fill="none" stroke="#000000" stroke-miterlimit="10" x1="98.2" y1="945.3" x2="138.7" y2="945.3"/>
		<line fill="none" stroke="#000000" stroke-miterlimit="10" x1="98.2" y1="939.1" x2="138.7" y2="939.1"/>
		<line fill="none" stroke="#000000" stroke-miterlimit="10" x1="98.2" y1="933" x2="138.7" y2="933"/>
		<line fill="none" stroke="#000000" stroke-miterlimit="10" x1="98.2" y1="926.8" x2="138.7" y2="926.8"/>
		<line fill="none" stroke="#000000" stroke-miterlimit="10" x1="73.1" y1="920.7" x2="162.2" y2="920.7"/>
		<line fill="none" stroke="#000000" stroke-miterlimit="10" x1="98.2" y1="914.5" x2="138.7" y2="914.5"/>
		<line fill="none" stroke="#000000" stroke-miterlimit="10" x1="98.2" y1="908.4" x2="138.7" y2="908.4"/>
		<line fill="none" stroke="#000000" stroke-miterlimit="10" x1="98.2" y1="902.3" x2="138.7" y2="902.3"/>
		<line fill="none" stroke="#000000" stroke-miterlimit="10" x1="98.2" y1="896.1" x2="138.7" y2="896.1"/>
		<line fill="none" stroke="#000000" stroke-miterlimit="10" x1="88" y1="890" x2="148.3" y2="890"/>
		<line fill="none" stroke="#000000" stroke-miterlimit="10" x1="98.2" y1="883.8" x2="138.7" y2="883.8"/>
		<line fill="none" stroke="#000000" stroke-miterlimit="10" x1="98.2" y1="877.7" x2="138.7" y2="877.7"/>
		<line fill="none" stroke="#000000" stroke-miterlimit="10" x1="98.2" y1="871.6" x2="138.7" y2="871.6"/>
		<line fill="none" stroke="#000000" stroke-miterlimit="10" x1="98.2" y1="865.4" x2="138.7" y2="865.4"/>
		<line fill="none" stroke="#000000" stroke-miterlimit="10" x1="73.1" y1="859.3" x2="162.2" y2="859.3"/>
		<line fill="none" stroke="#000000" stroke-miterlimit="10" x1="98.2" y1="853.1" x2="138.7" y2="853.1"/>
		<line fill="none" stroke="#000000" stroke-miterlimit="10" x1="98.2" y1="847" x2="138.7" y2="847"/>
		<line fill="none" stroke="#000000" stroke-miterlimit="10" x1="98.2" y1="840.9" x2="138.7" y2="840.9"/>
		<line fill="none" stroke="#000000" stroke-miterlimit="10" x1="98.2" y1="834.7" x2="138.7" y2="834.7"/>
		<line fill="none" stroke="#000000" stroke-miterlimit="10" x1="88" y1="828.6" x2="148.3" y2="828.6"/>
		<line fill="none" stroke="#000000" stroke-miterlimit="10" x1="98.2" y1="822.4" x2="138.7" y2="822.4"/>
		<line fill="none" stroke="#000000" stroke-miterlimit="10" x1="98.2" y1="816.3" x2="138.7" y2="816.3"/>
		<line fill="none" stroke="#000000" stroke-miterlimit="10" x1="98.2" y1="810.2" x2="138.7" y2="810.2"/>
		<line fill="none" stroke="#000000" stroke-miterlimit="10" x1="98.2" y1="804" x2="138.7" y2="804"/>
		<line fill="none" stroke="#000000" stroke-miterlimit="10" x1="73.1" y1="797.9" x2="162.2" y2="797.9"/>
		<line fill="none" stroke="#000000" stroke-miterlimit="10" x1="98.2" y1="791.7" x2="138.7" y2="791.7"/>
		<line fill="none" stroke="#000000" stroke-miterlimit="10" x1="98.2" y1="785.6" x2="138.7" y2="785.6"/>
		<line fill="none" stroke="#000000" stroke-miterlimit="10" x1="98.2" y1="779.4" x2="138.7" y2="779.4"/>
		<line fill="none" stroke="#000000" stroke-miterlimit="10" x1="98.2" y1="773.3" x2="138.7" y2="773.3"/>
		<line fill="none" stroke="#000000" stroke-miterlimit="10" x1="88" y1="767.2" x2="148.3" y2="767.2"/>
		<line fill="none" stroke="#000000" stroke-miterlimit="10" x1="98.2" y1="761" x2="138.7" y2="761"/>
		<line fill="none" stroke="#000000" stroke-miterlimit="10" x1="98.2" y1="754.9" x2="138.7" y2="754.9"/>
		<line fill="none" stroke="#000000" stroke-miterlimit="10" x1="98.2" y1="748.7" x2="138.7" y2="748.7"/>
		<line fill="none" stroke="#000000" stroke-miterlimit="10" x1="98.2" y1="742.6" x2="138.7" y2="742.6"/>
		<line fill="none" stroke="#000000" stroke-miterlimit="10" x1="73.1" y1="736.5" x2="162.2" y2="736.5"/>
		<line fill="none" stroke="#000000" stroke-miterlimit="10" x1="98.2" y1="730.3" x2="138.7" y2="730.3"/>
		<line fill="none" stroke="#000000" stroke-miterlimit="10" x1="98.2" y1="724.2" x2="138.7" y2="724.2"/>
		<line fill="none" stroke="#000000" stroke-miterlimit="10" x1="98.2" y1="718" x2="138.7" y2="718"/>
		<line fill="none" stroke="#000000" stroke-miterlimit="10" x1="98.2" y1="711.9" x2="138.7" y2="711.9"/>
		<line fill="none" stroke="#000000" stroke-miterlimit="10" x1="88" y1="705.8" x2="148.3" y2="705.8"/>
		<line fill="none" stroke="#000000" stroke-miterlimit="10" x1="98.2" y1="699.6" x2="138.7" y2="699.6"/>
		<line fill="none" stroke="#000000" stroke-miterlimit="10" x1="98.2" y1="693.5" x2="138.7" y2="693.5"/>
		<line fill="none" stroke="#000000" stroke-miterlimit="10" x1="98.2" y1="687.3" x2="138.7" y2="687.3"/>
		<line fill="none" stroke="#000000" stroke-miterlimit="10" x1="98.2" y1="681.2" x2="138.7" y2="681.2"/>
		<line fill="none" stroke="#000000" stroke-miterlimit="10" x1="73.1" y1="675.1" x2="162.2" y2="675.1"/>
		<line fill="none" stroke="#000000" stroke-miterlimit="10" x1="98.2" y1="668.9" x2="138.7" y2="668.9"/>
		<line fill="none" stroke="#000000" stroke-miterlimit="10" x1="98.2" y1="662.8" x2="138.7" y2="662.8"/>
		<line fill="none" stroke="#000000" stroke-miterlimit="10" x1="98.2" y1="656.6" x2="138.7" y2="656.6"/>
		<line fill="none" stroke="#000000" stroke-miterlimit="10" x1="98.2" y1="650.5" x2="138.7" y2="650.5"/>
		<line fill="none" stroke="#000000" stroke-miterlimit="10" x1="88" y1="644.3" x2="148.3" y2="644.3"/>
		<line fill="none" stroke="#000000" stroke-miterlimit="10" x1="98.2" y1="638.2" x2="138.7" y2="638.2"/>
		<line fill="none" stroke="#000000" stroke-miterlimit="10" x1="98.2" y1="632.1" x2="138.7" y2="632.1"/>
		<line fill="none" stroke="#000000" stroke-miterlimit="10" x1="98.2" y1="625.9" x2="138.7" y2="625.9"/>
		<line fill="none" stroke="#000000" stroke-miterlimit="10" x1="98.2" y1="619.8" x2="138.7" y2="619.8"/>
		<line fill="none" stroke="#000000" stroke-miterlimit="10" x1="73.1" y1="613.6" x2="162.2" y2="613.6"/>
		<line fill="none" stroke="#000000" stroke-miterlimit="10" x1="98.2" y1="607.5" x2="138.7" y2="607.5"/>
		<line fill="none" stroke="#000000" stroke-miterlimit="10" x1="98.2" y1="601.4" x2="138.7" y2="601.4"/>
		<line fill="none" stroke="#000000" stroke-miterlimit="10" x1="98.2" y1="595.2" x2="138.7" y2="595.2"/>
		<line fill="none" stroke="#000000" stroke-miterlimit="10" x1="98.2" y1="589.1" x2="138.7" y2="589.1"/>
		<line fill="none" stroke="#000000" stroke-miterlimit="10" x1="88" y1="582.9" x2="148.3" y2="582.9"/>
		<line fill="none" stroke="#000000" stroke-miterlimit="10" x1="98.2" y1="576.8" x2="138.7" y2="576.8"/>
		<line fill="none" stroke="#000000" stroke-miterlimit="10" x1="98.2" y1="570.7" x2="138.7" y2="570.7"/>
		<line fill="none" stroke="#000000" stroke-miterlimit="10" x1="98.2" y1="564.5" x2="138.7" y2="564.5"/>
		<line fill="none" stroke="#000000" stroke-miterlimit="10" x1="98.2" y1="558.4" x2="138.7" y2="558.4"/>
		<line fill="none" stroke="#000000" stroke-miterlimit="10" x1="73.1" y1="552.2" x2="162.2" y2="552.2"/>
		<line fill="none" stroke="#000000" stroke-miterlimit="10" x1="98.2" y1="546.1" x2="138.7" y2="546.1"/>
		<line fill="none" stroke="#000000" stroke-miterlimit="10" x1="98.2" y1="540" x2="138.7" y2="540"/>
		<line fill="none" stroke="#000000" stroke-miterlimit="10" x1="98.2" y1="533.8" x2="138.7" y2="533.8"/>
		<line fill="none" stroke="#000000" stroke-miterlimit="10" x1="98.2" y1="527.7" x2="138.7" y2="527.7"/>
		<line fill="none" stroke="#000000" stroke-miterlimit="10" x1="88" y1="521.5" x2="148.3" y2="521.5"/>
		<line fill="none" stroke="#000000" stroke-miterlimit="10" x1="98.2" y1="515.4" x2="138.7" y2="515.4"/>
		<line fill="none" stroke="#000000" stroke-miterlimit="10" x1="98.2" y1="509.2" x2="138.7" y2="509.2"/>
		<line fill="none" stroke="#000000" stroke-miterlimit="10" x1="98.2" y1="503.1" x2="138.7" y2="503.1"/>
		<line fill="none" stroke="#000000" stroke-miterlimit="10" x1="98.2" y1="497" x2="138.7" y2="497"/>
		<line fill="none" stroke="#000000" stroke-miterlimit="10" x1="73.1" y1="490.8" x2="162.2" y2="490.8"/>
		<line fill="none" stroke="#000000" stroke-miterlimit="10" x1="98.2" y1="484.7" x2="138.7" y2="484.7"/>
		<line fill="none" stroke="#000000" stroke-miterlimit="10" x1="98.2" y1="478.5" x2="138.7" y2="478.5"/>
		<line fill="none" stroke="#000000" stroke-miterlimit="10" x1="98.2" y1="472.4" x2="138.7" y2="472.4"/>
		<line fill="none" stroke="#000000" stroke-miterlimit="10" x1="98.2" y1="466.3" x2="138.7" y2="466.3"/>
		<line fill="none" stroke="#000000" stroke-miterlimit="10" x1="88" y1="460.1" x2="148.3" y2="460.1"/>
		<line fill="none" stroke="#000000" stroke-miterlimit="10" x1="98.2" y1="454" x2="138.7" y2="454"/>
		<line fill="none" stroke="#000000" stroke-miterlimit="10" x1="98.2" y1="447.8" x2="138.7" y2="447.8"/>
		<line fill="none" stroke="#000000" stroke-miterlimit="10" x1="98.2" y1="441.7" x2="138.7" y2="441.7"/>
		<line fill="none" stroke="#000000" stroke-miterlimit="10" x1="98.2" y1="435.6" x2="138.7" y2="435.6"/>
		<line fill="none" stroke="#000000" stroke-miterlimit="10" x1="73.1" y1="429.4" x2="162.2" y2="429.4"/>
		<line fill="none" stroke="#000000" stroke-miterlimit="10" x1="98.2" y1="423.3" x2="138.7" y2="423.3"/>
		<line fill="none" stroke="#000000" stroke-miterlimit="10" x1="98.2" y1="417.1" x2="138.7" y2="417.1"/>
		<line fill="none" stroke="#000000" stroke-miterlimit="10" x1="98.2" y1="411" x2="138.7" y2="411"/>
		<line fill="none" stroke="#000000" stroke-miterlimit="10" x1="98.2" y1="404.9" x2="138.7" y2="404.9"/>
		<line fill="none" stroke="#000000" stroke-miterlimit="10" x1="88" y1="398.7" x2="148.3" y2="398.7"/>
		<line fill="none" stroke="#000000" stroke-miterlimit="10" x1="98.2" y1="392.6" x2="138.7" y2="392.6"/>
		<line fill="none" stroke="#000000" stroke-miterlimit="10" x1="98.2" y1="386.4" x2="138.7" y2="386.4"/>
		<line fill="none" stroke="#000000" stroke-miterlimit="10" x1="98.2" y1="380.3" x2="138.7" y2="380.3"/>
		<line fill="none" stroke="#000000" stroke-miterlimit="10" x1="98.2" y1="374.1" x2="138.7" y2="374.1"/>
		<line fill="none" stroke="#000000" stroke-miterlimit="10" x1="73.1" y1="368" x2="162.2" y2="368"/>
		<line fill="none" stroke="#000000" stroke-miterlimit="10" x1="98.2" y1="361.9" x2="138.7" y2="361.9"/>
		<line fill="none" stroke="#000000" stroke-miterlimit="10" x1="98.2" y1="355.7" x2="138.7" y2="355.7"/>
		<line fill="none" stroke="#000000" stroke-miterlimit="10" x1="98.2" y1="349.6" x2="138.7" y2="349.6"/>
		<line fill="none" stroke="#000000" stroke-miterlimit="10" x1="98.2" y1="343.4" x2="138.7" y2="343.4"/>
		<line fill="none" stroke="#000000" stroke-miterlimit="10" x1="88" y1="337.3" x2="148.3" y2="337.3"/>
		<line fill="none" stroke="#000000" stroke-miterlimit="10" x1="98.2" y1="331.2" x2="138.7" y2="331.2"/>
		<line fill="none" stroke="#000000" stroke-miterlimit="10" x1="98.2" y1="325" x2="138.7" y2="325"/>
		<line fill="none" stroke="#000000" stroke-miterlimit="10" x1="98.2" y1="318.9" x2="138.7" y2="318.9"/>
		<line fill="none" stroke="#000000" stroke-miterlimit="10" x1="98.2" y1="312.7" x2="138.7" y2="312.7"/>
		<line fill="none" stroke="#000000" stroke-miterlimit="10" x1="73.1" y1="306.6" x2="162.2" y2="306.6"/>
		<line fill="none" stroke="#000000" stroke-miterlimit="10" x1="98.1" y1="300.5" x2="138.7" y2="300.5"/>
		<line fill="none" stroke="#000000" stroke-miterlimit="10" x1="98.1" y1="294.3" x2="138.7" y2="294.3"/>
		<line fill="none" stroke="#000000" stroke-miterlimit="10" x1="98.1" y1="288.2" x2="138.7" y2="288.2"/>
		<line fill="none" stroke="#000000" stroke-miterlimit="10" x1="98.1" y1="282" x2="138.7" y2="282"/>
		<line fill="none" stroke="#000000" stroke-miterlimit="10" x1="88" y1="275.9" x2="148.3" y2="275.9"/>
		<line fill="none" stroke="#000000" stroke-miterlimit="10" x1="97.9" y1="269.8" x2="138.7" y2="269.8"/>
		<line fill="none" stroke="#000000" stroke-miterlimit="10" x1="97.9" y1="263.6" x2="138.7" y2="263.6"/>
		<line fill="none" stroke="#000000" stroke-miterlimit="10" x1="97.9" y1="257.5" x2="138.7" y2="257.5"/>
		<line fill="none" stroke="#000000" stroke-miterlimit="10" x1="97.9" y1="251.3" x2="138.7" y2="251.3"/>
		<line fill="none" stroke="#000000" stroke-miterlimit="10" x1="73.1" y1="245.2" x2="162.2" y2="245.2"/>
		<line fill="none" stroke="#000000" stroke-miterlimit="10" x1="97.9" y1="239" x2="138.2" y2="239"/>
		<line fill="none" stroke="#000000" stroke-miterlimit="10" x1="97.9" y1="232.9" x2="138.2" y2="232.9"/>
		<line fill="none" stroke="#000000" stroke-miterlimit="10" x1="97.9" y1="226.8" x2="138.2" y2="226.8"/>
		<line fill="none" stroke="#000000" stroke-miterlimit="10" x1="97.9" y1="220.6" x2="138.2" y2="220.6"/>
		<line fill="none" stroke="#000000" stroke-miterlimit="10" x1="88" y1="214.5" x2="148.3" y2="214.5"/>
		<line fill="none" stroke="#000000" stroke-miterlimit="10" x1="98.2" y1="208.3" x2="138.6" y2="208.3"/>
		<line fill="none" stroke="#000000" stroke-miterlimit="10" x1="98.2" y1="202.2" x2="138.6" y2="202.2"/>
		<line fill="none" stroke="#000000" stroke-miterlimit="10" x1="98.2" y1="196.1" x2="138.6" y2="196.1"/>
		<line fill="none" stroke="#000000" stroke-miterlimit="10" x1="98.2" y1="189.9" x2="138.6" y2="189.9"/>
		<line fill="none" stroke="#000000" stroke-miterlimit="10" x1="73.1" y1="183.8" x2="162.2" y2="183.8"/>
		<line fill="none" stroke="#000000" stroke-miterlimit="10" x1="98.4" y1="177.6" x2="138.6" y2="177.6"/>
		<line fill="none" stroke="#000000" stroke-miterlimit="10" x1="98.4" y1="171.5" x2="138.6" y2="171.5"/>
		<line fill="none" stroke="#000000" stroke-miterlimit="10" x1="98.4" y1="165.4" x2="138.6" y2="165.4"/>
		<line fill="none" stroke="#000000" stroke-miterlimit="10" x1="98.4" y1="159.2" x2="138.6" y2="159.2"/>
		<line fill="none" stroke="#000000" stroke-miterlimit="10" x1="88" y1="153.1" x2="147.9" y2="153.1"/>
		<line fill="none" stroke="#000000" stroke-miterlimit="10" x1="98.1" y1="146.9" x2="138.4" y2="146.9"/>
		<line fill="none" stroke="#000000" stroke-miterlimit="10" x1="98.1" y1="140.8" x2="138.4" y2="140.8"/>
		<line fill="none" stroke="#000000" stroke-miterlimit="10" x1="98.1" y1="134.7" x2="138.4" y2="134.7"/>
		<line fill="none" stroke="#000000" stroke-miterlimit="10" x1="98.1" y1="128.5" x2="138.4" y2="128.5"/>
		<line fill="none" stroke="#000000" stroke-miterlimit="10" x1="73.1" y1="122.4" x2="162.2" y2="122.4"/>
		<line fill="none" stroke="#000000" stroke-miterlimit="10" x1="98.1" y1="116.2" x2="138.9" y2="116.2"/>
		<line fill="none" stroke="#000000" stroke-miterlimit="10" x1="98.1" y1="110.1" x2="138.9" y2="110.1"/>
		<line fill="none" stroke="#000000" stroke-miterlimit="10" x1="98.1" y1="104" x2="138.9" y2="104"/>
		<line fill="none" stroke="#000000" stroke-miterlimit="10" x1="98.1" y1="97.8" x2="138.9" y2="97.8"/>
		<line fill="none" stroke="#000000" stroke-miterlimit="10" x1="88.1" y1="91.7" x2="148.3" y2="91.7"/>
		<line fill="none" stroke="#000000" stroke-miterlimit="10" x1="98.1" y1="85.5" x2="138.9" y2="85.5"/>
		<line fill="none" stroke="#000000" stroke-miterlimit="10" x1="98.1" y1="79.4" x2="138.9" y2="79.4"/>
		<line fill="none" stroke="#000000" stroke-miterlimit="10" x1="98.1" y1="73.2" x2="138.9" y2="73.2"/>
		<line fill="none" stroke="#000000" stroke-miterlimit="10" x1="98.1" y1="67.1" x2="138.9" y2="67.1"/>
		<line fill="none" stroke="#000000" stroke-miterlimit="10" x1="73.1" y1="61" x2="162.2" y2="61"/>
	</g>
	<g id="Layer_5">
		<g>
			<path d="M69.4,60.5c0,6.2-2.3,9.6-6.3,9.6c-3.6,0-6-3.3-6-9.4c0-6.1,2.6-9.5,6.3-9.5C67.2,51.3,69.4,54.7,69.4,60.5z M59.5,60.8
				c0,4.7,1.5,7.4,3.7,7.4c2.5,0,3.7-2.9,3.7-7.6c0-4.5-1.1-7.4-3.7-7.4C61,53.2,59.5,55.9,59.5,60.8z"/>
			<path d="M66.6,115.4L66.6,115.4l-3.2,1.7l-0.5-1.9l4-2.1H69v18.2h-2.4V115.4z"/>
			<path d="M57.3,192.8v-1.5l1.9-1.9c4.6-4.4,6.7-6.8,6.8-9.5c0-1.8-0.9-3.6-3.6-3.6c-1.7,0-3,0.8-3.9,1.5l-0.8-1.7
				c1.3-1.1,3.1-1.8,5.2-1.8c3.9,0,5.6,2.7,5.6,5.3c0,3.4-2.4,6.1-6.3,9.8l-1.5,1.3v0.1h8.2v2H57.3L57.3,192.8z"/>
			<path d="M58.2,251.5c0.7,0.4,2.3,1.1,4,1.1c3.2,0,4.1-2,4.1-3.5c0-2.5-2.3-3.6-4.7-3.6h-1.4v-1.8h1.4c1.8,0,4.1-0.9,4.1-3.1
				c0-1.5-0.9-2.7-3.2-2.7c-1.5,0-2.9,0.6-3.6,1.2l-0.6-1.8c1-0.7,2.8-1.4,4.8-1.4c3.6,0,5.2,2.1,5.2,4.3c0,1.9-1.1,3.5-3.4,4.3v0.1
				c2.2,0.4,4.1,2.1,4.1,4.7c0,2.9-2.3,5.5-6.6,5.5c-2,0-3.8-0.6-4.7-1.2L58.2,251.5z"/>
			<path d="M63.9,315.8v-5h-8.5v-1.6l8.1-11.6h2.7v11.3h2.5v1.9h-2.5v5H63.9L63.9,315.8z M63.9,308.9v-6.1c0-1,0-1.9,0.1-2.9h-0.1
				c-0.6,1.1-1,1.8-1.5,2.7l-4.5,6.2v0.1H63.9z"/>
			<path d="M68.1,361.2h-6.9l-0.7,4.7c0.4-0.1,0.8-0.1,1.5-0.1c1.4,0,2.8,0.3,3.9,1c1.4,0.8,2.6,2.4,2.6,4.7c0,3.6-2.8,6.2-6.8,6.2
				c-2,0-3.7-0.6-4.5-1.1l0.6-1.9c0.8,0.4,2.2,1,3.9,1c2.3,0,4.3-1.5,4.3-3.9c0-2.4-1.6-4-5.2-4c-1,0-1.8,0.1-2.5,0.2l1.2-8.7h8.7
				v1.9H68.1z"/>
			<path d="M66.6,422.4c-0.5,0-1.1,0-1.8,0.1c-3.9,0.6-5.9,3.5-6.3,6.5h0.1c0.9-1.1,2.4-2.1,4.4-2.1c3.2,0,5.5,2.3,5.5,5.9
				c0,3.3-2.3,6.4-6,6.4c-3.9,0-6.4-3-6.4-7.8c0-3.6,1.3-6.4,3.1-8.2c1.5-1.5,3.5-2.4,5.8-2.7c0.7-0.1,1.3-0.1,1.8-0.1v2H66.6z
				 M65.9,432.9c0-2.6-1.5-4.2-3.8-4.2c-1.5,0-2.9,0.9-3.5,2.2c-0.2,0.3-0.3,0.6-0.3,1.1c0.1,3,1.4,5.2,4,5.2
				C64.5,437.2,65.9,435.5,65.9,432.9z"/>
			<path d="M69.1,482.1v1.6l-7.9,16.6h-2.5l7.9-16.1v-0.1h-8.9v-2H69.1z"/>
			<path d="M56,557.2c0-2.3,1.4-3.9,3.6-4.9v-0.1c-2-1-2.9-2.5-2.9-4.1c0-2.9,2.4-4.8,5.6-4.8c3.5,0,5.3,2.2,5.3,4.5
				c0,1.5-0.8,3.2-3,4.3v0.1c2.3,0.9,3.7,2.5,3.7,4.7c0,3.2-2.7,5.3-6.2,5.3C58.3,562.1,56,559.9,56,557.2z M65.8,557.1
				c0-2.2-1.5-3.3-4-4c-2.1,0.6-3.3,2-3.3,3.8c-0.1,1.8,1.3,3.5,3.6,3.5C64.4,560.3,65.8,559,65.8,557.1z M59.1,548
				c0,1.8,1.4,2.8,3.5,3.4c1.6-0.5,2.8-1.7,2.8-3.3c0-1.5-0.9-3-3.1-3C60.2,545.1,59.1,546.4,59.1,548z"/>
			<path d="M58.7,620.6c0.5,0.1,1.1,0,2-0.1c1.4-0.2,2.8-0.8,3.8-1.8c1.2-1.1,2.1-2.7,2.4-4.8h-0.1c-1,1.2-2.5,2-4.3,2
				c-3.3,0-5.4-2.5-5.4-5.6c0-3.4,2.5-6.5,6.2-6.5c3.7,0,6,3,6,7.7c0,4-1.3,6.8-3.1,8.5c-1.4,1.4-3.3,2.2-5.3,2.4
				c-0.9,0.1-1.7,0.2-2.3,0.1v-1.9H58.7z M59.6,610.1c0,2.3,1.4,3.9,3.5,3.9c1.7,0,2.9-0.8,3.6-1.9c0.1-0.2,0.2-0.5,0.2-0.9
				c0-3.1-1.1-5.5-3.7-5.5C61.1,605.7,59.6,607.5,59.6,610.1z"/>
			<path d="M47.6,667.9L47.6,667.9l-3.2,1.7l-0.5-1.9l4-2.1H50v18.2h-2.4V667.9z"/>
			<path d="M68.7,674.5c0,6.2-2.3,9.6-6.3,9.6c-3.6,0-6-3.3-6-9.4c0-6.1,2.6-9.5,6.3-9.5C66.5,665.3,68.7,668.7,68.7,674.5z
				 M58.8,674.8c0,4.7,1.5,7.4,3.7,7.4c2.5,0,3.7-2.9,3.7-7.6c0-4.5-1.1-7.4-3.7-7.4C60.4,667.2,58.8,669.9,58.8,674.8z"/>
			<path d="M51.6,729.4L51.6,729.4l-3.2,1.7l-0.5-1.9l4-2.1H54v18.2h-2.4V729.4z"/>
			<path d="M66,729.4L66,729.4l-3.2,1.7l-0.5-1.9l4-2.1h2.1v18.2H66V729.4z"/>
			<path d="M47.6,790.9L47.6,790.9l-3.2,1.7l-0.5-1.9l4-2.1H50v18.2h-2.4V790.9z"/>
			<path d="M56.6,806.8v-1.5l1.9-1.9c4.6-4.4,6.7-6.8,6.8-9.5c0-1.8-0.9-3.6-3.6-3.6c-1.7,0-3,0.8-3.9,1.5l-0.8-1.7
				c1.3-1.1,3.1-1.8,5.2-1.8c3.9,0,5.6,2.7,5.6,5.3c0,3.4-2.4,6.1-6.3,9.8l-1.5,1.3v0.1h8.2v2H56.6L56.6,806.8z"/>
			<path d="M48.6,852.4L48.6,852.4l-3.2,1.7l-0.5-1.9l4-2.1H51v18.2h-2.4V852.4z"/>
			<path d="M58.2,865.5c0.7,0.4,2.3,1.1,4,1.1c3.2,0,4.1-2,4.1-3.5c0-2.5-2.3-3.6-4.7-3.6h-1.4v-1.8h1.4c1.8,0,4.1-0.9,4.1-3.1
				c0-1.5-0.9-2.7-3.2-2.7c-1.5,0-2.9,0.6-3.6,1.2l-0.6-1.8c1-0.7,2.8-1.4,4.8-1.4c3.6,0,5.2,2.1,5.2,4.3c0,1.9-1.1,3.5-3.4,4.3v0.1
				c2.2,0.4,4.1,2.1,4.1,4.7c0,2.9-2.3,5.5-6.6,5.5c-2,0-3.8-0.6-4.7-1.2L58.2,865.5z"/>
			<path d="M46.6,913.9L46.6,913.9l-3.2,1.7l-0.5-1.9l4-2.1H49v18.2h-2.4V913.9z"/>
			<path d="M63.2,929.8v-5h-8.5v-1.6l8.1-11.6h2.7v11.3H68v1.9h-2.5v5H63.2L63.2,929.8z M63.2,922.9v-6.1c0-1,0-1.9,0.1-2.9h-0.1
				c-0.6,1.1-1,1.8-1.5,2.7l-4.5,6.2v0.1H63.2z"/>
			<path d="M47.6,975.4L47.6,975.4l-3.2,1.7l-0.5-1.9l4-2.1H50v18.2h-2.4V975.4z"/>
			<path d="M67.5,975.2h-6.9l-0.7,4.7c0.4-0.1,0.8-0.1,1.5-0.1c1.4,0,2.8,0.3,3.9,1c1.4,0.8,2.6,2.4,2.6,4.7c0,3.6-2.8,6.2-6.8,6.2
				c-2,0-3.7-0.6-4.5-1.1l0.6-1.9c0.8,0.4,2.2,1,3.9,1c2.3,0,4.3-1.5,4.3-3.9c0-2.4-1.6-4-5.2-4c-1,0-1.8,0.1-2.5,0.2l1.2-8.7h8.7
				v1.9H67.5z"/>
			<path d="M47.6,1036.9L47.6,1036.9l-3.2,1.7l-0.5-1.9l4-2.1H50v18.2h-2.4V1036.9z"/>
			<path d="M67,1036.4c-0.5,0-1.1,0-1.8,0.1c-3.9,0.6-5.9,3.5-6.3,6.5H59c0.9-1.1,2.4-2.1,4.4-2.1c3.2,0,5.5,2.3,5.5,5.9
				c0,3.3-2.3,6.4-6,6.4c-3.9,0-6.4-3-6.4-7.8c0-3.6,1.3-6.4,3.1-8.2c1.5-1.5,3.5-2.4,5.8-2.7c0.7-0.1,1.3-0.1,1.8-0.1v2H67z
				 M66.3,1046.9c0-2.6-1.5-4.2-3.8-4.2c-1.5,0-2.9,0.9-3.5,2.2c-0.2,0.3-0.3,0.6-0.3,1.1c0.1,3,1.4,5.2,4,5.2
				C64.9,1051.2,66.3,1049.5,66.3,1046.9z"/>
			<path d="M47.6,1098.4L47.6,1098.4l-3.2,1.7l-0.5-1.9l4-2.1H50v18.2h-2.4V1098.4z"/>
			<path d="M68.4,1096.1v1.6l-7.9,16.6H58l7.9-16.1v-0.1H57v-2H68.4z"/>
			<path d="M47.6,1159.9L47.6,1159.9l-3.2,1.7l-0.5-1.9l4-2.1H50v18.2h-2.4V1159.9z"/>
			<path d="M56.4,1171.2c0-2.3,1.4-3.9,3.6-4.9v-0.1c-2-1-2.9-2.5-2.9-4.1c0-2.9,2.4-4.8,5.6-4.8c3.5,0,5.3,2.2,5.3,4.5
				c0,1.5-0.8,3.2-3,4.3v0.1c2.3,0.9,3.7,2.5,3.7,4.7c0,3.2-2.7,5.3-6.2,5.3C58.7,1176.1,56.4,1173.9,56.4,1171.2z M66.2,1171.1
				c0-2.2-1.5-3.3-4-4c-2.1,0.6-3.3,2-3.3,3.8c-0.1,1.8,1.3,3.5,3.6,3.5C64.8,1174.3,66.2,1173,66.2,1171.1z M59.4,1162
				c0,1.8,1.4,2.8,3.5,3.4c1.6-0.5,2.8-1.7,2.8-3.3c0-1.5-0.9-3-3.1-3C60.5,1159.1,59.4,1160.4,59.4,1162z"/>
			<path d="M47.6,1221.4L47.6,1221.4l-3.2,1.7l-0.5-1.9l4-2.1H50v18.2h-2.4V1221.4z"/>
			<path d="M58.1,1235.6c0.5,0.1,1.1,0,2-0.1c1.4-0.2,2.8-0.8,3.8-1.8c1.2-1.1,2.1-2.7,2.4-4.8h-0.1c-1,1.2-2.5,2-4.3,2
				c-3.3,0-5.4-2.5-5.4-5.6c0-3.4,2.5-6.5,6.2-6.5c3.7,0,6,3,6,7.7c0,4-1.3,6.8-3.1,8.5c-1.4,1.4-3.3,2.2-5.3,2.4
				c-0.9,0.1-1.7,0.2-2.3,0.1v-1.9H58.1z M58.9,1225.1c0,2.3,1.4,3.9,3.5,3.9c1.7,0,2.9-0.8,3.6-1.9c0.1-0.2,0.2-0.5,0.2-0.9
				c0-3.1-1.1-5.5-3.7-5.5C60.4,1220.7,58.9,1222.5,58.9,1225.1z"/>
			<path d="M42.3,1297.8v-1.5l1.9-1.9c4.6-4.4,6.7-6.8,6.8-9.5c0-1.8-0.9-3.6-3.6-3.6c-1.7,0-3,0.8-3.9,1.5l-0.8-1.7
				c1.3-1.1,3.1-1.8,5.2-1.8c3.9,0,5.6,2.7,5.6,5.3c0,3.4-2.4,6.1-6.3,9.8l-1.5,1.3v0.1h8.2v2H42.3L42.3,1297.8z"/>
			<path d="M68.7,1288.5c0,6.2-2.3,9.6-6.3,9.6c-3.6,0-6-3.3-6-9.4c0-6.1,2.6-9.5,6.3-9.5C66.5,1279.3,68.7,1282.7,68.7,1288.5z
				 M58.8,1288.8c0,4.7,1.5,7.4,3.7,7.4c2.5,0,3.7-2.9,3.7-7.6c0-4.5-1.1-7.4-3.7-7.4C60.4,1281.2,58.8,1283.9,58.8,1288.8z"/>
			<path d="M46.3,1359.3v-1.5l1.9-1.9c4.6-4.4,6.7-6.8,6.8-9.5c0-1.8-0.9-3.6-3.6-3.6c-1.7,0-3,0.8-3.9,1.5l-0.8-1.7
				c1.3-1.1,3.1-1.8,5.2-1.8c3.9,0,5.6,2.7,5.6,5.3c0,3.4-2.4,6.1-6.3,9.8l-1.5,1.3v0.1h8.2v2H46.3L46.3,1359.3z"/>
			<path d="M66,1343.4L66,1343.4l-3.2,1.7l-0.5-1.9l4-2.1h2.1v18.2H66V1343.4z"/>
			<path d="M43.3,1421.8v-1.5l1.9-1.9c4.6-4.4,6.7-6.8,6.8-9.5c0-1.8-0.9-3.6-3.6-3.6c-1.7,0-3,0.8-3.9,1.5l-0.8-1.7
				c1.3-1.1,3.1-1.8,5.2-1.8c3.9,0,5.6,2.7,5.6,5.3c0,3.4-2.4,6.1-6.3,9.8l-1.5,1.3v0.1h8.2v2H43.3L43.3,1421.8z"/>
			<path d="M57.6,1421.8v-1.5l1.9-1.9c4.6-4.4,6.7-6.8,6.8-9.5c0-1.8-0.9-3.6-3.6-3.6c-1.7,0-3,0.8-3.9,1.5l-0.8-1.7
				c1.3-1.1,3.1-1.8,5.2-1.8c3.9,0,5.6,2.7,5.6,5.3c0,3.4-2.4,6.1-6.3,9.8l-1.5,1.3v0.1h8.2v2H57.6L57.6,1421.8z"/>
			<path d="M43.3,1482.3v-1.5l1.9-1.9c4.6-4.4,6.7-6.8,6.8-9.5c0-1.8-0.9-3.6-3.6-3.6c-1.7,0-3,0.8-3.9,1.5l-0.8-1.7
				c1.3-1.1,3.1-1.8,5.2-1.8c3.9,0,5.6,2.7,5.6,5.3c0,3.4-2.4,6.1-6.3,9.8l-1.5,1.3v0.1h8.2v2H43.3L43.3,1482.3z"/>
			<path d="M58.2,1479.5c0.7,0.4,2.3,1.1,4,1.1c3.2,0,4.1-2,4.1-3.5c0-2.5-2.3-3.6-4.7-3.6h-1.4v-1.8h1.4c1.8,0,4.1-0.9,4.1-3.1
				c0-1.5-0.9-2.7-3.2-2.7c-1.5,0-2.9,0.6-3.6,1.2l-0.6-1.8c1-0.7,2.8-1.4,4.8-1.4c3.6,0,5.2,2.1,5.2,4.3c0,1.9-1.1,3.5-3.4,4.3v0.1
				c2.2,0.4,4.1,2.1,4.1,4.7c0,2.9-2.3,5.5-6.6,5.5c-2,0-3.8-0.6-4.7-1.2L58.2,1479.5z"/>
			<path d="M42.3,1543.8v-1.5l1.9-1.9c4.6-4.4,6.7-6.8,6.8-9.5c0-1.8-0.9-3.6-3.6-3.6c-1.7,0-3,0.8-3.9,1.5l-0.8-1.7
				c1.3-1.1,3.1-1.8,5.2-1.8c3.9,0,5.6,2.7,5.6,5.3c0,3.4-2.4,6.1-6.3,9.8l-1.5,1.3v0.1h8.2v2H42.3L42.3,1543.8z"/>
			<path d="M64.2,1543.8v-5h-8.5v-1.6l8.1-11.6h2.7v11.3H69v1.9h-2.5v5H64.2L64.2,1543.8z M64.2,1536.9v-6.1c0-1,0-1.9,0.1-2.9h-0.1
				c-0.6,1.1-1,1.8-1.5,2.7l-4.5,6.2v0.1L64.2,1536.9L64.2,1536.9z"/>
			<path d="M43.3,1605.3v-1.5l1.9-1.9c4.6-4.4,6.7-6.8,6.8-9.5c0-1.8-0.9-3.6-3.6-3.6c-1.7,0-3,0.8-3.9,1.5l-0.8-1.7
				c1.3-1.1,3.1-1.8,5.2-1.8c3.9,0,5.6,2.7,5.6,5.3c0,3.4-2.4,6.1-6.3,9.8l-1.5,1.3v0.1h8.2v2H43.3L43.3,1605.3z"/>
			<path d="M68.5,1589.2h-6.9l-0.7,4.7c0.4-0.1,0.8-0.1,1.5-0.1c1.4,0,2.8,0.3,3.9,1c1.4,0.8,2.6,2.4,2.6,4.7c0,3.6-2.8,6.2-6.8,6.2
				c-2,0-3.7-0.6-4.5-1.1l0.6-1.9c0.8,0.4,2.2,1,3.9,1c2.3,0,4.3-1.5,4.3-3.9c0-2.4-1.6-4-5.2-4c-1,0-1.8,0.1-2.5,0.2l1.2-8.7h8.7
				v1.9H68.5z"/>
			<path d="M42.3,1666.8v-1.5l1.9-1.9c4.6-4.4,6.7-6.8,6.8-9.5c0-1.8-0.9-3.6-3.6-3.6c-1.7,0-3,0.8-3.9,1.5l-0.8-1.7
				c1.3-1.1,3.1-1.8,5.2-1.8c3.9,0,5.6,2.7,5.6,5.3c0,3.4-2.4,6.1-6.3,9.8l-1.5,1.3v0.1h8.2v2H42.3L42.3,1666.8z"/>
			<path d="M67,1650.4c-0.5,0-1.1,0-1.8,0.1c-3.9,0.6-5.9,3.5-6.3,6.5H59c0.9-1.1,2.4-2.1,4.4-2.1c3.2,0,5.5,2.3,5.5,5.9
				c0,3.3-2.3,6.4-6,6.4c-3.9,0-6.4-3-6.4-7.8c0-3.6,1.3-6.4,3.1-8.2c1.5-1.5,3.5-2.4,5.8-2.7c0.7-0.1,1.3-0.1,1.8-0.1v2H67z
				 M66.3,1660.9c0-2.6-1.5-4.2-3.8-4.2c-1.5,0-2.9,0.9-3.5,2.2c-0.2,0.3-0.3,0.6-0.3,1.1c0.1,3,1.4,5.2,4,5.2
				C64.9,1665.2,66.3,1663.5,66.3,1660.9z"/>
			<path d="M42.3,1728.3v-1.5l1.9-1.9c4.6-4.4,6.7-6.8,6.8-9.5c0-1.8-0.9-3.6-3.6-3.6c-1.7,0-3,0.8-3.9,1.5l-0.8-1.7
				c1.3-1.1,3.1-1.8,5.2-1.8c3.9,0,5.6,2.7,5.6,5.3c0,3.4-2.4,6.1-6.3,9.8l-1.5,1.3v0.1h8.2v2H42.3L42.3,1728.3z"/>
			<path d="M68.4,1710.1v1.6l-7.9,16.6H58l7.9-16.1v-0.1H57v-2H68.4z"/>
			<path d="M42.3,1789.8v-1.5l1.9-1.9c4.6-4.4,6.7-6.8,6.8-9.5c0-1.8-0.9-3.6-3.6-3.6c-1.7,0-3,0.8-3.9,1.5l-0.8-1.7
				c1.3-1.1,3.1-1.8,5.2-1.8c3.9,0,5.6,2.7,5.6,5.3c0,3.4-2.4,6.1-6.3,9.8l-1.5,1.3v0.1h8.2v2H42.3L42.3,1789.8z"/>
			<path d="M56.4,1785.2c0-2.3,1.4-3.9,3.6-4.9v-0.1c-2-1-2.9-2.5-2.9-4.1c0-2.9,2.4-4.8,5.6-4.8c3.5,0,5.3,2.2,5.3,4.5
				c0,1.5-0.8,3.2-3,4.3v0.1c2.3,0.9,3.7,2.5,3.7,4.7c0,3.2-2.7,5.3-6.2,5.3C58.7,1790.1,56.4,1787.9,56.4,1785.2z M66.2,1785.1
				c0-2.2-1.5-3.3-4-4c-2.1,0.6-3.3,2-3.3,3.8c-0.1,1.8,1.3,3.5,3.6,3.5C64.8,1788.3,66.2,1787,66.2,1785.1z M59.4,1776
				c0,1.8,1.4,2.8,3.5,3.4c1.6-0.5,2.8-1.7,2.8-3.3c0-1.5-0.9-3-3.1-3C60.5,1773.1,59.4,1774.4,59.4,1776z"/>
			<path d="M42.3,1851.3v-1.5l1.9-1.9c4.6-4.4,6.7-6.8,6.8-9.5c0-1.8-0.9-3.6-3.6-3.6c-1.7,0-3,0.8-3.9,1.5l-0.8-1.7
				c1.3-1.1,3.1-1.8,5.2-1.8c3.9,0,5.6,2.7,5.6,5.3c0,3.4-2.4,6.1-6.3,9.8l-1.5,1.3v0.1h8.2v2H42.3L42.3,1851.3z"/>
			<path d="M58.1,1849.6c0.5,0.1,1.1,0,2-0.1c1.4-0.2,2.8-0.8,3.8-1.8c1.2-1.1,2.1-2.7,2.4-4.8h-0.1c-1,1.2-2.5,2-4.3,2
				c-3.3,0-5.4-2.5-5.4-5.6c0-3.4,2.5-6.5,6.2-6.5c3.7,0,6,3,6,7.7c0,4-1.3,6.8-3.1,8.5c-1.4,1.4-3.3,2.2-5.3,2.4
				c-0.9,0.1-1.7,0.2-2.3,0.1v-1.9H58.1z M58.9,1839.1c0,2.3,1.4,3.9,3.5,3.9c1.7,0,2.9-0.8,3.6-1.9c0.1-0.2,0.2-0.5,0.2-0.9
				c0-3.1-1.1-5.5-3.7-5.5C60.4,1834.7,58.9,1836.5,58.9,1839.1z"/>
			<path d="M42.8,1909c0.7,0.4,2.3,1.1,4,1.1c3.2,0,4.1-2,4.1-3.5c0-2.5-2.3-3.6-4.7-3.6h-1.4v-1.8h1.4c1.8,0,4.1-0.9,4.1-3.1
				c0-1.5-0.9-2.7-3.2-2.7c-1.5,0-2.9,0.6-3.6,1.2l-0.6-1.8c1-0.7,2.8-1.4,4.8-1.4c3.6,0,5.2,2.1,5.2,4.3c0,1.9-1.1,3.5-3.4,4.3v0.1
				c2.2,0.4,4.1,2.1,4.1,4.7c0,2.9-2.3,5.5-6.6,5.5c-2,0-3.8-0.6-4.7-1.2L42.8,1909z"/>
			<path d="M68.7,1902.5c0,6.2-2.3,9.6-6.3,9.6c-3.6,0-6-3.3-6-9.4s2.6-9.5,6.3-9.5C66.5,1893.3,68.7,1896.7,68.7,1902.5z
				 M58.8,1902.8c0,4.7,1.5,7.4,3.7,7.4c2.5,0,3.7-2.9,3.7-7.6c0-4.5-1.1-7.4-3.7-7.4C60.4,1895.2,58.8,1897.9,58.8,1902.8z"/>
			<path d="M46.8,1970.5c0.7,0.4,2.3,1.1,4,1.1c3.2,0,4.1-2,4.1-3.5c0-2.5-2.3-3.6-4.7-3.6h-1.4v-1.8h1.4c1.8,0,4.1-0.9,4.1-3.1
				c0-1.5-0.9-2.7-3.2-2.7c-1.5,0-2.9,0.6-3.6,1.2l-0.6-1.8c1-0.7,2.8-1.4,4.8-1.4c3.6,0,5.2,2.1,5.2,4.3c0,1.9-1.1,3.5-3.4,4.3v0.1
				c2.2,0.4,4.1,2.1,4.1,4.7c0,2.9-2.3,5.5-6.6,5.5c-2,0-3.8-0.6-4.7-1.2L46.8,1970.5z"/>
			<path d="M66,1957.4L66,1957.4l-3.2,1.7l-0.5-1.9l4-2.1h2.1v18.2H66V1957.4z"/>
			<path d="M43.8,2032c0.7,0.4,2.3,1.1,4,1.1c3.2,0,4.1-2,4.1-3.5c0-2.5-2.3-3.6-4.7-3.6h-1.4v-1.8h1.4c1.8,0,4.1-0.9,4.1-3.1
				c0-1.5-0.9-2.7-3.2-2.7c-1.5,0-2.9,0.6-3.6,1.2l-0.6-1.8c1-0.7,2.8-1.4,4.8-1.4c3.6,0,5.2,2.1,5.2,4.3c0,1.9-1.1,3.5-3.4,4.3v0.1
				c2.2,0.4,4.1,2.1,4.1,4.7c0,2.9-2.3,5.5-6.6,5.5c-2,0-3.8-0.6-4.7-1.2L43.8,2032z"/>
			<path d="M57.6,2034.8v-1.5l1.9-1.9c4.6-4.4,6.7-6.8,6.8-9.5c0-1.8-0.9-3.6-3.6-3.6c-1.7,0-3,0.8-3.9,1.5l-0.8-1.7
				c1.3-1.1,3.1-1.8,5.2-1.8c3.9,0,5.6,2.7,5.6,5.3c0,3.4-2.4,6.1-6.3,9.8l-1.5,1.3v0.1h8.2v2H57.6L57.6,2034.8z"/>
			<path d="M43.8,2093.5c0.7,0.4,2.3,1.1,4,1.1c3.2,0,4.1-2,4.1-3.5c0-2.5-2.3-3.6-4.7-3.6h-1.4v-1.8h1.4c1.8,0,4.1-0.9,4.1-3.1
				c0-1.5-0.9-2.7-3.2-2.7c-1.5,0-2.9,0.6-3.6,1.2l-0.6-1.8c1-0.7,2.8-1.4,4.8-1.4c3.6,0,5.2,2.1,5.2,4.3c0,1.9-1.1,3.5-3.4,4.3v0.1
				c2.2,0.4,4.1,2.1,4.1,4.7c0,2.9-2.3,5.5-6.6,5.5c-2,0-3.8-0.6-4.7-1.2L43.8,2093.5z"/>
			<path d="M58.2,2093.5c0.7,0.4,2.3,1.1,4,1.1c3.2,0,4.1-2,4.1-3.5c0-2.5-2.3-3.6-4.7-3.6h-1.4v-1.8h1.4c1.8,0,4.1-0.9,4.1-3.1
				c0-1.5-0.9-2.7-3.2-2.7c-1.5,0-2.9,0.6-3.6,1.2l-0.6-1.8c1-0.7,2.8-1.4,4.8-1.4c3.6,0,5.2,2.1,5.2,4.3c0,1.9-1.1,3.5-3.4,4.3v0.1
				c2.2,0.4,4.1,2.1,4.1,4.7c0,2.9-2.3,5.5-6.6,5.5c-2,0-3.8-0.6-4.7-1.2L58.2,2093.5z"/>
			<path d="M42.8,2155c0.7,0.4,2.3,1.1,4,1.1c3.2,0,4.1-2,4.1-3.5c0-2.5-2.3-3.6-4.7-3.6h-1.4v-1.8h1.4c1.8,0,4.1-0.9,4.1-3.1
				c0-1.5-0.9-2.7-3.2-2.7c-1.5,0-2.9,0.6-3.6,1.2l-0.6-1.8c1-0.7,2.8-1.4,4.8-1.4c3.6,0,5.2,2.1,5.2,4.3c0,1.9-1.1,3.5-3.4,4.3v0.1
				c2.2,0.4,4.1,2.1,4.1,4.7c0,2.9-2.3,5.5-6.6,5.5c-2,0-3.8-0.6-4.7-1.2L42.8,2155z"/>
			<path d="M64.2,2157.8v-5h-8.5v-1.6l8.1-11.6h2.7v11.3H69v1.9h-2.5v5H64.2L64.2,2157.8z M64.2,2150.9v-6.1c0-1,0-1.9,0.1-2.9h-0.1
				c-0.6,1.1-1,1.8-1.5,2.7l-4.5,6.2v0.1H64.2z"/>
			<path d="M43.8,2216.5c0.7,0.4,2.3,1.1,4,1.1c3.2,0,4.1-2,4.1-3.5c0-2.5-2.3-3.6-4.7-3.6h-1.4v-1.8h1.4c1.8,0,4.1-0.9,4.1-3.1
				c0-1.5-0.9-2.7-3.2-2.7c-1.5,0-2.9,0.6-3.6,1.2l-0.6-1.8c1-0.7,2.8-1.4,4.8-1.4c3.6,0,5.2,2.1,5.2,4.3c0,1.9-1.1,3.5-3.4,4.3v0.1
				c2.2,0.4,4.1,2.1,4.1,4.7c0,2.9-2.3,5.5-6.6,5.5c-2,0-3.8-0.6-4.7-1.2L43.8,2216.5z"/>
			<path d="M68.5,2203.2h-6.9l-0.7,4.7c0.4-0.1,0.8-0.1,1.5-0.1c1.4,0,2.8,0.3,3.9,1c1.4,0.8,2.6,2.4,2.6,4.7c0,3.6-2.8,6.2-6.8,6.2
				c-2,0-3.7-0.6-4.5-1.1l0.6-1.9c0.8,0.4,2.2,1,3.9,1c2.3,0,4.3-1.5,4.3-3.9s-1.6-4-5.2-4c-1,0-1.8,0.1-2.5,0.2l1.2-8.7h8.7v1.9
				H68.5z"/>
			<path d="M42.8,2278c0.7,0.4,2.3,1.1,4,1.1c3.2,0,4.1-2,4.1-3.5c0-2.5-2.3-3.6-4.7-3.6h-1.4v-1.8h1.4c1.8,0,4.1-0.9,4.1-3.1
				c0-1.5-0.9-2.7-3.2-2.7c-1.5,0-2.9,0.6-3.6,1.2l-0.6-1.8c1-0.7,2.8-1.4,4.8-1.4c3.6,0,5.2,2.1,5.2,4.3c0,1.9-1.1,3.5-3.4,4.3v0.1
				c2.2,0.4,4.1,2.1,4.1,4.7c0,2.9-2.3,5.5-6.6,5.5c-2,0-3.8-0.6-4.7-1.2L42.8,2278z"/>
			<path d="M67,2264.4c-0.5,0-1.1,0-1.8,0.1c-3.9,0.6-5.9,3.5-6.3,6.5H59c0.9-1.1,2.4-2.1,4.4-2.1c3.2,0,5.5,2.3,5.5,5.9
				c0,3.3-2.3,6.4-6,6.4c-3.9,0-6.4-3-6.4-7.8c0-3.6,1.3-6.4,3.1-8.2c1.5-1.5,3.5-2.4,5.8-2.7c0.7-0.1,1.3-0.1,1.8-0.1v2H67z
				 M66.3,2274.9c0-2.6-1.5-4.2-3.8-4.2c-1.5,0-2.9,0.9-3.5,2.2c-0.2,0.3-0.3,0.6-0.3,1.1c0.1,3,1.4,5.2,4,5.2
				C64.9,2279.2,66.3,2277.5,66.3,2274.9z"/>
			<path d="M43.8,2339.5c0.7,0.4,2.3,1.1,4,1.1c3.2,0,4.1-2,4.1-3.5c0-2.5-2.3-3.6-4.7-3.6h-1.4v-1.8h1.4c1.8,0,4.1-0.9,4.1-3.1
				c0-1.5-0.9-2.7-3.2-2.7c-1.5,0-2.9,0.6-3.6,1.2l-0.6-1.8c1-0.7,2.8-1.4,4.8-1.4c3.6,0,5.2,2.1,5.2,4.3c0,1.9-1.1,3.5-3.4,4.3v0.1
				c2.2,0.4,4.1,2.1,4.1,4.7c0,2.9-2.3,5.5-6.6,5.5c-2,0-3.8-0.6-4.7-1.2L43.8,2339.5z"/>
			<path d="M69.4,2324.1v1.6l-7.9,16.6H59l7.9-16.1v-0.1H58v-2H69.4z"/>
			<path d="M42.8,2401c0.7,0.4,2.3,1.1,4,1.1c3.2,0,4.1-2,4.1-3.5c0-2.5-2.3-3.6-4.7-3.6h-1.4v-1.8h1.4c1.8,0,4.1-0.9,4.1-3.1
				c0-1.5-0.9-2.7-3.2-2.7c-1.5,0-2.9,0.6-3.6,1.2l-0.6-1.8c1-0.7,2.8-1.4,4.8-1.4c3.6,0,5.2,2.1,5.2,4.3c0,1.9-1.1,3.5-3.4,4.3v0.1
				c2.2,0.4,4.1,2.1,4.1,4.7c0,2.9-2.3,5.5-6.6,5.5c-2,0-3.8-0.6-4.7-1.2L42.8,2401z"/>
			<path d="M56.4,2399.2c0-2.3,1.4-3.9,3.6-4.9v-0.1c-2-1-2.9-2.5-2.9-4.1c0-2.9,2.4-4.8,5.6-4.8c3.5,0,5.3,2.2,5.3,4.5
				c0,1.5-0.8,3.2-3,4.3v0.1c2.3,0.9,3.7,2.5,3.7,4.7c0,3.2-2.7,5.3-6.2,5.3C58.7,2404.1,56.4,2401.9,56.4,2399.2z M66.2,2399.1
				c0-2.2-1.5-3.3-4-4c-2.1,0.6-3.3,2-3.3,3.8c-0.1,1.8,1.3,3.5,3.6,3.5C64.8,2402.3,66.2,2401,66.2,2399.1z M59.4,2390
				c0,1.8,1.4,2.8,3.5,3.4c1.6-0.5,2.8-1.7,2.8-3.3c0-1.5-0.9-3-3.1-3C60.5,2387.1,59.4,2388.4,59.4,2390z"/>
			<path d="M42.8,2462.5c0.7,0.4,2.3,1.1,4,1.1c3.2,0,4.1-2,4.1-3.5c0-2.5-2.3-3.6-4.7-3.6h-1.4v-1.8h1.4c1.8,0,4.1-0.9,4.1-3.1
				c0-1.5-0.9-2.7-3.2-2.7c-1.5,0-2.9,0.6-3.6,1.2l-0.6-1.8c1-0.7,2.8-1.4,4.8-1.4c3.6,0,5.2,2.1,5.2,4.3c0,1.9-1.1,3.5-3.4,4.3v0.1
				c2.2,0.4,4.1,2.1,4.1,4.7c0,2.9-2.3,5.5-6.6,5.5c-2,0-3.8-0.6-4.7-1.2L42.8,2462.5z"/>
			<path d="M58.1,2463.6c0.5,0.1,1.1,0,2-0.1c1.4-0.2,2.8-0.8,3.8-1.8c1.2-1.1,2.1-2.7,2.4-4.8h-0.1c-1,1.2-2.5,2-4.3,2
				c-3.3,0-5.4-2.5-5.4-5.6c0-3.4,2.5-6.5,6.2-6.5c3.7,0,6,3,6,7.7c0,4-1.3,6.8-3.1,8.5c-1.4,1.4-3.3,2.2-5.3,2.4
				c-0.9,0.1-1.7,0.2-2.3,0.1v-1.9H58.1z M58.9,2453.1c0,2.3,1.4,3.9,3.5,3.9c1.7,0,2.9-0.8,3.6-1.9c0.1-0.2,0.2-0.5,0.2-0.9
				c0-3.1-1.1-5.5-3.7-5.5C60.4,2448.7,58.9,2450.5,58.9,2453.1z"/>
			<path d="M49.9,2526.8v-5h-8.5v-1.6l8.1-11.6h2.7v11.3h2.5v1.9h-2.5v5H49.9L49.9,2526.8z M49.9,2519.9v-6.1c0-1,0-1.9,0.1-2.9
				h-0.1c-0.6,1.1-1,1.8-1.5,2.7l-4.5,6.2v0.1H49.9z"/>
			<path d="M68.7,2517.5c0,6.2-2.3,9.6-6.3,9.6c-3.6,0-6-3.3-6-9.4s2.6-9.5,6.3-9.5C66.5,2508.3,68.7,2511.7,68.7,2517.5z
				 M58.8,2517.8c0,4.7,1.5,7.4,3.7,7.4c2.5,0,3.7-2.9,3.7-7.6c0-4.5-1.1-7.4-3.7-7.4C60.4,2510.2,58.8,2512.9,58.8,2517.8z"/>
			<path d="M54.9,2588.3v-5h-8.5v-1.6l8.1-11.6h2.7v11.3h2.5v1.9h-2.5v5H54.9L54.9,2588.3z M54.9,2581.4v-6.1c0-1,0-1.9,0.1-2.9
				h-0.1c-0.6,1.1-1,1.8-1.5,2.7l-4.5,6.2v0.1H54.9z"/>
			<path d="M67,2572.4L67,2572.4l-3.2,1.7l-0.5-1.9l4-2.1h2.1v18.2H67V2572.4z"/>
			<path d="M50.9,2649.8v-5h-8.5v-1.6l8.1-11.6h2.7v11.3h2.5v1.9h-2.5v5H50.9L50.9,2649.8z M50.9,2642.9v-6.1c0-1,0-1.9,0.1-2.9
				h-0.1c-0.6,1.1-1,1.8-1.5,2.7l-4.5,6.2v0.1H50.9z"/>
			<path d="M57.6,2649.8v-1.5l1.9-1.9c4.6-4.4,6.7-6.8,6.8-9.5c0-1.8-0.9-3.6-3.6-3.6c-1.7,0-3,0.8-3.9,1.5l-0.8-1.7
				c1.3-1.1,3.1-1.8,5.2-1.8c3.9,0,5.6,2.7,5.6,5.3c0,3.4-2.4,6.1-6.3,9.8l-1.5,1.3v0.1h8.2v2H57.6L57.6,2649.8z"/>
			<path d="M50.9,2710.3v-5h-8.5v-1.6l8.1-11.6h2.7v11.3h2.5v1.9h-2.5v5H50.9L50.9,2710.3z M50.9,2703.4v-6.1c0-1,0-1.9,0.1-2.9
				h-0.1c-0.6,1.1-1,1.8-1.5,2.7l-4.5,6.2v0.1H50.9z"/>
			<path d="M58.2,2707.5c0.7,0.4,2.3,1.1,4,1.1c3.2,0,4.1-2,4.1-3.5c0-2.5-2.3-3.6-4.7-3.6h-1.4v-1.8h1.4c1.8,0,4.1-0.9,4.1-3.1
				c0-1.5-0.9-2.7-3.2-2.7c-1.5,0-2.9,0.6-3.6,1.2l-0.6-1.8c1-0.7,2.8-1.4,4.8-1.4c3.6,0,5.2,2.1,5.2,4.3c0,1.9-1.1,3.5-3.4,4.3v0.1
				c2.2,0.4,4.1,2.1,4.1,4.7c0,2.9-2.3,5.5-6.6,5.5c-2,0-3.8-0.6-4.7-1.2L58.2,2707.5z"/>
			<path d="M49.9,2771.8v-5h-8.5v-1.6l8.1-11.6h2.7v11.3h2.5v1.9h-2.5v5H49.9L49.9,2771.8z M49.9,2764.9v-6.1c0-1,0-1.9,0.1-2.9
				h-0.1c-0.6,1.1-1,1.8-1.5,2.7l-4.5,6.2v0.1H49.9z"/>
			<path d="M64.2,2771.8v-5h-8.5v-1.6l8.1-11.6h2.7v11.3H69v1.9h-2.5v5H64.2L64.2,2771.8z M64.2,2764.9v-6.1c0-1,0-1.9,0.1-2.9h-0.1
				c-0.6,1.1-1,1.8-1.5,2.7l-4.5,6.2v0.1H64.2z"/>
			<path d="M50.9,2833.3v-5h-8.5v-1.6l8.1-11.6h2.7v11.3h2.5v1.9h-2.5v5H50.9L50.9,2833.3z M50.9,2826.4v-6.1c0-1,0-1.9,0.1-2.9
				h-0.1c-0.6,1.1-1,1.8-1.5,2.7l-4.5,6.2v0.1H50.9z"/>
			<path d="M68.5,2817.2h-6.9l-0.7,4.7c0.4-0.1,0.8-0.1,1.5-0.1c1.4,0,2.8,0.3,3.9,1c1.4,0.8,2.6,2.4,2.6,4.7c0,3.6-2.8,6.2-6.8,6.2
				c-2,0-3.7-0.6-4.5-1.1l0.6-1.9c0.8,0.4,2.2,1,3.9,1c2.3,0,4.3-1.5,4.3-3.9s-1.6-4-5.2-4c-1,0-1.8,0.1-2.5,0.2l1.2-8.7h8.7v1.9
				H68.5z"/>
			<path d="M49.9,2894.8v-5h-8.5v-1.6l8.1-11.6h2.7v11.3h2.5v1.9h-2.5v5H49.9L49.9,2894.8z M49.9,2887.9v-6.1c0-1,0-1.9,0.1-2.9
				h-0.1c-0.6,1.1-1,1.8-1.5,2.7l-4.5,6.2v0.1H49.9z"/>
			<path d="M67,2878.4c-0.5,0-1.1,0-1.8,0.1c-3.9,0.6-5.9,3.5-6.3,6.5H59c0.9-1.1,2.4-2.1,4.4-2.1c3.2,0,5.5,2.3,5.5,5.9
				c0,3.3-2.3,6.4-6,6.4c-3.9,0-6.4-3-6.4-7.8c0-3.6,1.3-6.4,3.1-8.2c1.5-1.5,3.5-2.4,5.8-2.7c0.7-0.1,1.3-0.1,1.8-0.1v2H67z
				 M66.3,2888.9c0-2.6-1.5-4.2-3.8-4.2c-1.5,0-2.9,0.9-3.5,2.2c-0.2,0.3-0.3,0.6-0.3,1.1c0.1,3,1.4,5.2,4,5.2
				C64.9,2893.2,66.3,2891.5,66.3,2888.9z"/>
			<path d="M50.9,2956.3v-5h-8.5v-1.6l8.1-11.6h2.7v11.3h2.5v1.9h-2.5v5H50.9L50.9,2956.3z M50.9,2949.4v-6.1c0-1,0-1.9,0.1-2.9
				h-0.1c-0.6,1.1-1,1.8-1.5,2.7l-4.5,6.2v0.1H50.9z"/>
			<path d="M69.4,2938.1v1.6l-7.9,16.6H59l7.9-16.1v-0.1H58v-2H69.4z"/>
			<path d="M49.9,3017.8v-5h-8.5v-1.6l8.1-11.6h2.7v11.3h2.5v1.9h-2.5v5H49.9L49.9,3017.8z M49.9,3010.9v-6.1c0-1,0-1.9,0.1-2.9
				h-0.1c-0.6,1.1-1,1.8-1.5,2.7l-4.5,6.2v0.1H49.9z"/>
			<path d="M56.4,3013.2c0-2.3,1.4-3.9,3.6-4.9v-0.1c-2-1-2.9-2.5-2.9-4.1c0-2.9,2.4-4.8,5.6-4.8c3.5,0,5.3,2.2,5.3,4.5
				c0,1.5-0.8,3.2-3,4.3v0.1c2.3,0.9,3.7,2.5,3.7,4.7c0,3.2-2.7,5.3-6.2,5.3C58.7,3018.1,56.4,3015.9,56.4,3013.2z M66.2,3013.1
				c0-2.2-1.5-3.3-4-4c-2.1,0.6-3.3,2-3.3,3.8c-0.1,1.8,1.3,3.5,3.6,3.5C64.8,3016.3,66.2,3015,66.2,3013.1z M59.4,3004
				c0,1.8,1.4,2.8,3.5,3.4c1.6-0.5,2.8-1.7,2.8-3.3c0-1.5-0.9-3-3.1-3C60.5,3001.1,59.4,3002.4,59.4,3004z"/>
			<path d="M49.9,3079.3v-5h-8.5v-1.6l8.1-11.6h2.7v11.3h2.5v1.9h-2.5v5H49.9L49.9,3079.3z M49.9,3072.4v-6.1c0-1,0-1.9,0.1-2.9
				h-0.1c-0.6,1.1-1,1.8-1.5,2.7l-4.5,6.2v0.1H49.9z"/>
			<path d="M58.1,3077.6c0.5,0.1,1.1,0,2-0.1c1.4-0.2,2.8-0.8,3.8-1.8c1.2-1.1,2.1-2.7,2.4-4.8h-0.1c-1,1.2-2.5,2-4.3,2
				c-3.3,0-5.4-2.5-5.4-5.6c0-3.4,2.5-6.5,6.2-6.5c3.7,0,6,3,6,7.7c0,4-1.3,6.8-3.1,8.5c-1.4,1.4-3.3,2.2-5.3,2.4
				c-0.9,0.1-1.7,0.2-2.3,0.1v-1.9H58.1z M58.9,3067.1c0,2.3,1.4,3.9,3.5,3.9c1.7,0,2.9-0.8,3.6-1.9c0.1-0.2,0.2-0.5,0.2-0.9
				c0-3.1-1.1-5.5-3.7-5.5C60.4,3062.7,58.9,3064.5,58.9,3067.1z"/>
			<path d="M53.1,3124.7h-6.9l-0.7,4.7c0.4-0.1,0.8-0.1,1.5-0.1c1.4,0,2.8,0.3,3.9,1c1.4,0.8,2.6,2.4,2.6,4.7c0,3.6-2.8,6.2-6.8,6.2
				c-2,0-3.7-0.6-4.5-1.1l0.6-1.9c0.8,0.4,2.2,1,3.9,1c2.3,0,4.3-1.5,4.3-3.9s-1.6-4-5.2-4c-1,0-1.8,0.1-2.5,0.2l1.2-8.7h8.7v1.9
				H53.1z"/>
			<path d="M68.7,3131.5c0,6.2-2.3,9.6-6.3,9.6c-3.6,0-6-3.3-6-9.4s2.6-9.5,6.3-9.5C66.5,3122.3,68.7,3125.7,68.7,3131.5z
				 M58.8,3131.8c0,4.7,1.5,7.4,3.7,7.4c2.5,0,3.7-2.9,3.7-7.6c0-4.5-1.1-7.4-3.7-7.4C60.4,3124.2,58.8,3126.9,58.8,3131.8z"/>
		</g>
	</g>
	<g id="Layer_6">
		<g>
			<path d="M166.3,69.8v-1.5l1.9-1.9c4.6-4.4,6.7-6.8,6.8-9.5c0-1.8-0.9-3.6-3.6-3.6c-1.7,0-3,0.8-3.9,1.5l-0.8-1.7
				c1.3-1.1,3.1-1.8,5.2-1.8c3.9,0,5.6,2.7,5.6,5.3c0,3.4-2.4,6.1-6.3,9.8l-1.5,1.3v0.1h8.2v2H166.3z"/>
			<path d="M191.5,53.7h-6.9l-0.7,4.7c0.4-0.1,0.8-0.1,1.5-0.1c1.4,0,2.8,0.3,3.9,1c1.4,0.8,2.6,2.4,2.6,4.7c0,3.6-2.8,6.2-6.8,6.2
				c-2,0-3.7-0.6-4.5-1.1l0.6-1.9c0.8,0.4,2.2,1,3.9,1c2.3,0,4.3-1.5,4.3-3.9c0-2.4-1.6-4-5.2-4c-1,0-1.8,0.1-2.5,0.2l1.2-8.7h8.7
				v1.9H191.5z"/>
			<path d="M166.3,131.3v-1.5l1.9-1.9c4.6-4.4,6.7-6.8,6.8-9.5c0-1.8-0.9-3.6-3.6-3.6c-1.7,0-3,0.8-3.9,1.5l-0.8-1.7
				c1.3-1.1,3.1-1.8,5.2-1.8c3.9,0,5.6,2.7,5.6,5.3c0,3.4-2.4,6.1-6.3,9.8l-1.5,1.3v0.1h8.2v2H166.3L166.3,131.3z"/>
			<path d="M188.2,131.3v-5h-8.5v-1.6l8.1-11.6h2.7v11.3h2.5v1.9h-2.5v5H188.2L188.2,131.3z M188.2,124.4v-6.1c0-1,0-1.9,0.1-2.9
				h-0.1c-0.6,1.1-1,1.8-1.5,2.7l-4.5,6.2v0.1H188.2z"/>
			<path d="M166.3,192.8v-1.5l1.9-1.9c4.6-4.4,6.7-6.8,6.8-9.5c0-1.8-0.9-3.6-3.6-3.6c-1.7,0-3,0.8-3.9,1.5l-0.8-1.7
				c1.3-1.1,3.1-1.8,5.2-1.8c3.9,0,5.6,2.7,5.6,5.3c0,3.4-2.4,6.1-6.3,9.8l-1.5,1.3v0.1h8.2v2H166.3L166.3,192.8z"/>
			<path d="M181.2,190c0.7,0.4,2.3,1.1,4,1.1c3.2,0,4.1-2,4.1-3.5c0-2.5-2.3-3.6-4.7-3.6h-1.4v-1.8h1.4c1.8,0,4.1-0.9,4.1-3.1
				c0-1.5-0.9-2.7-3.2-2.7c-1.5,0-2.9,0.6-3.6,1.2l-0.6-1.8c1-0.7,2.8-1.4,4.8-1.4c3.6,0,5.2,2.1,5.2,4.3c0,1.9-1.1,3.5-3.4,4.3v0.1
				c2.2,0.4,4.1,2.1,4.1,4.7c0,2.9-2.3,5.5-6.6,5.5c-2,0-3.8-0.6-4.7-1.2L181.2,190z"/>
			<path d="M166.3,254.3v-1.5l1.9-1.9c4.6-4.4,6.7-6.8,6.8-9.5c0-1.8-0.9-3.6-3.6-3.6c-1.7,0-3,0.8-3.9,1.5l-0.8-1.7
				c1.3-1.1,3.1-1.8,5.2-1.8c3.9,0,5.6,2.7,5.6,5.3c0,3.4-2.4,6.1-6.3,9.8l-1.5,1.3v0.1h8.2v2H166.3L166.3,254.3z"/>
			<path d="M180.6,254.3v-1.5l1.9-1.9c4.6-4.4,6.7-6.8,6.8-9.5c0-1.8-0.9-3.6-3.6-3.6c-1.7,0-3,0.8-3.9,1.5l-0.8-1.7
				c1.3-1.1,3.1-1.8,5.2-1.8c3.9,0,5.6,2.7,5.6,5.3c0,3.4-2.4,6.1-6.3,9.8l-1.5,1.3v0.1h8.2v2H180.6L180.6,254.3z"/>
			<path d="M166.3,315.8v-1.5l1.9-1.9c4.6-4.4,6.7-6.8,6.8-9.5c0-1.8-0.9-3.6-3.6-3.6c-1.7,0-3,0.8-3.9,1.5l-0.8-1.7
				c1.3-1.1,3.1-1.8,5.2-1.8c3.9,0,5.6,2.7,5.6,5.3c0,3.4-2.4,6.1-6.3,9.8l-1.5,1.3v0.1h8.2v2H166.3L166.3,315.8z"/>
			<path d="M186,299.9L186,299.9l-3.2,1.7l-0.5-1.9l4-2.1h2.1v18.2H186V299.9z"/>
			<path d="M166.3,377.3v-1.5l1.9-1.9c4.6-4.4,6.7-6.8,6.8-9.5c0-1.8-0.9-3.6-3.6-3.6c-1.7,0-3,0.8-3.9,1.5l-0.8-1.7
				c1.3-1.1,3.1-1.8,5.2-1.8c3.9,0,5.6,2.7,5.6,5.3c0,3.4-2.4,6.1-6.3,9.8l-1.5,1.3v0.1h8.2v2H166.3L166.3,377.3z"/>
			<path d="M192.7,368c0,6.2-2.3,9.6-6.3,9.6c-3.6,0-6-3.3-6-9.4c0-6.1,2.6-9.5,6.3-9.5C190.5,358.8,192.7,362.2,192.7,368z
				 M182.8,368.3c0,4.7,1.5,7.4,3.7,7.4c2.5,0,3.7-2.9,3.7-7.6c0-4.5-1.1-7.4-3.7-7.4C184.4,360.7,182.8,363.4,182.8,368.3z"/>
			<path d="M169.6,422.9L169.6,422.9l-3.2,1.7l-0.5-1.9l4-2.1h2.1v18.2h-2.4V422.9L169.6,422.9z"/>
			<path d="M180.1,437.1c0.5,0.1,1.1,0,2-0.1c1.4-0.2,2.8-0.8,3.8-1.8c1.2-1.1,2.1-2.7,2.4-4.8h-0.1c-1,1.2-2.5,2-4.3,2
				c-3.3,0-5.4-2.5-5.4-5.6c0-3.4,2.5-6.5,6.2-6.5c3.7,0,6,3,6,7.7c0,4-1.3,6.8-3.1,8.5c-1.4,1.4-3.3,2.2-5.3,2.4
				c-0.9,0.1-1.7,0.2-2.3,0.1v-1.9H180.1z M180.9,426.6c0,2.3,1.4,3.9,3.5,3.9c1.7,0,2.9-0.8,3.6-1.9c0.1-0.2,0.2-0.5,0.2-0.9
				c0-3.1-1.1-5.5-3.7-5.5C182.4,422.2,180.9,424,180.9,426.6z"/>
			<path d="M169.6,483.4L169.6,483.4l-3.2,1.7l-0.5-1.9l4-2.1h2.1v18.2h-2.4V483.4L169.6,483.4z"/>
			<path d="M178.4,494.7c0-2.3,1.4-3.9,3.6-4.9v-0.1c-2-1-2.9-2.5-2.9-4.1c0-2.9,2.4-4.8,5.6-4.8c3.5,0,5.3,2.2,5.3,4.5
				c0,1.5-0.8,3.2-3,4.3v0.1c2.3,0.9,3.7,2.5,3.7,4.7c0,3.2-2.7,5.3-6.2,5.3C180.7,499.6,178.4,497.4,178.4,494.7z M188.2,494.6
				c0-2.2-1.5-3.3-4-4c-2.1,0.6-3.3,2-3.3,3.8c-0.1,1.8,1.3,3.5,3.6,3.5C186.8,497.8,188.2,496.5,188.2,494.6z M181.4,485.5
				c0,1.8,1.4,2.8,3.5,3.4c1.6-0.5,2.8-1.7,2.8-3.3c0-1.5-0.9-3-3.1-3C182.5,482.6,181.4,483.9,181.4,485.5z"/>
			<path d="M169.6,544.9L169.6,544.9l-3.2,1.7l-0.5-1.9l4-2.1h2.1v18.2h-2.4V544.9L169.6,544.9z"/>
			<path d="M190.4,542.6v1.6l-7.9,16.6H180l7.9-16.1v-0.1H179v-2H190.4z"/>
			<path d="M169.6,606.4L169.6,606.4l-3.2,1.7l-0.5-1.9l4-2.1h2.1v18.2h-2.4V606.4L169.6,606.4z"/>
			<path d="M189,605.9c-0.5,0-1.1,0-1.8,0.1c-3.9,0.6-5.9,3.5-6.3,6.5h0.1c0.9-1.1,2.4-2.1,4.4-2.1c3.2,0,5.5,2.3,5.5,5.9
				c0,3.3-2.3,6.4-6,6.4c-3.9,0-6.4-3-6.4-7.8c0-3.6,1.3-6.4,3.1-8.2c1.5-1.5,3.5-2.4,5.8-2.7c0.7-0.1,1.3-0.1,1.8-0.1v2H189z
				 M188.3,616.4c0-2.6-1.5-4.2-3.8-4.2c-1.5,0-2.9,0.9-3.5,2.2c-0.2,0.3-0.3,0.6-0.3,1.1c0.1,3,1.4,5.2,4,5.2
				C186.9,620.7,188.3,619,188.3,616.4z"/>
			<path d="M169.6,667.9L169.6,667.9l-3.2,1.7l-0.5-1.9l4-2.1h2.1v18.2h-2.4V667.9L169.6,667.9z"/>
			<path d="M189.5,667.7h-6.9l-0.7,4.7c0.4-0.1,0.8-0.1,1.5-0.1c1.4,0,2.8,0.3,3.9,1c1.4,0.8,2.6,2.4,2.6,4.7c0,3.6-2.8,6.2-6.8,6.2
				c-2,0-3.7-0.6-4.5-1.1l0.6-1.9c0.8,0.4,2.2,1,3.9,1c2.3,0,4.3-1.5,4.3-3.9c0-2.4-1.6-4-5.2-4c-1,0-1.8,0.1-2.5,0.2l1.2-8.7h8.7
				v1.9H189.5z"/>
			<path d="M169.6,729.4L169.6,729.4l-3.2,1.7l-0.5-1.9l4-2.1h2.1v18.2h-2.4V729.4L169.6,729.4z"/>
			<path d="M186.2,745.3v-5h-8.5v-1.6l8.1-11.6h2.7v11.3h2.5v1.9h-2.5v5H186.2L186.2,745.3z M186.2,738.4v-6.1c0-1,0-1.9,0.1-2.9
				h-0.1c-0.6,1.1-1,1.8-1.5,2.7l-4.5,6.2v0.1H186.2z"/>
			<path d="M169.6,790.9L169.6,790.9l-3.2,1.7l-0.5-1.9l4-2.1h2.1v18.2h-2.4V790.9L169.6,790.9z"/>
			<path d="M179.2,804c0.7,0.4,2.3,1.1,4,1.1c3.2,0,4.1-2,4.1-3.5c0-2.5-2.3-3.6-4.7-3.6h-1.4v-1.8h1.4c1.8,0,4.1-0.9,4.1-3.1
				c0-1.5-0.9-2.7-3.2-2.7c-1.5,0-2.9,0.6-3.6,1.2l-0.6-1.8c1-0.7,2.8-1.4,4.8-1.4c3.6,0,5.2,2.1,5.2,4.3c0,1.9-1.1,3.5-3.4,4.3v0.1
				c2.2,0.4,4.1,2.1,4.1,4.7c0,2.9-2.3,5.5-6.6,5.5c-2,0-3.8-0.6-4.7-1.2L179.2,804z"/>
			<path d="M172.6,849.4L172.6,849.4l-3.2,1.7l-0.5-1.9l4-2.1h2.1v18.2h-2.4V849.4L172.6,849.4z"/>
			<path d="M181.6,865.3v-1.5l1.9-1.9c4.6-4.4,6.7-6.8,6.8-9.5c0-1.8-0.9-3.6-3.6-3.6c-1.7,0-3,0.8-3.9,1.5l-0.8-1.7
				c1.3-1.1,3.1-1.8,5.2-1.8c3.9,0,5.6,2.7,5.6,5.3c0,3.4-2.4,6.1-6.3,9.8l-1.5,1.3v0.1h8.2v2H181.6L181.6,865.3z"/>
			<path d="M169.6,913.9L169.6,913.9l-3.2,1.7l-0.5-1.9l4-2.1h2.1v18.2h-2.4V913.9L169.6,913.9z"/>
			<path d="M184,913.9L184,913.9l-3.2,1.7l-0.5-1.9l4-2.1h2.1v18.2H184V913.9z"/>
			<path d="M169.6,975.4L169.6,975.4l-3.2,1.7l-0.5-1.9l4-2.1h2.1v18.2h-2.4V975.4L169.6,975.4z"/>
			<path d="M190.7,982c0,6.2-2.3,9.6-6.3,9.6c-3.6,0-6-3.3-6-9.4c0-6.1,2.6-9.5,6.3-9.5C188.5,972.8,190.7,976.2,190.7,982z
				 M180.8,982.3c0,4.7,1.5,7.4,3.7,7.4c2.5,0,3.7-2.9,3.7-7.6c0-4.5-1.1-7.4-3.7-7.4C182.4,974.7,180.8,977.4,180.8,982.3z"/>
			<path d="M167.7,1051.1c0.5,0.1,1.1,0,2-0.1c1.4-0.2,2.8-0.8,3.8-1.8c1.2-1.1,2.1-2.7,2.4-4.8h-0.1c-1,1.2-2.5,2-4.3,2
				c-3.3,0-5.4-2.5-5.4-5.6c0-3.4,2.5-6.5,6.2-6.5c3.7,0,6,3,6,7.7c0,4-1.3,6.8-3.1,8.5c-1.4,1.4-3.3,2.2-5.3,2.4
				c-0.9,0.1-1.7,0.2-2.3,0.1v-1.9H167.7z M168.6,1040.6c0,2.3,1.4,3.9,3.5,3.9c1.7,0,2.9-0.8,3.6-1.9c0.1-0.2,0.2-0.5,0.2-0.9
				c0-3.1-1.1-5.5-3.7-5.5C170.1,1036.2,168.6,1038,168.6,1040.6z"/>
			<path d="M166,1109.7c0-2.3,1.4-3.9,3.6-4.9v-0.1c-2-1-2.9-2.5-2.9-4.1c0-2.9,2.4-4.8,5.6-4.8c3.5,0,5.3,2.2,5.3,4.5
				c0,1.5-0.8,3.2-3,4.3v0.1c2.3,0.9,3.7,2.5,3.7,4.7c0,3.2-2.7,5.3-6.2,5.3C168.3,1114.6,166,1112.4,166,1109.7z M175.8,1109.6
				c0-2.2-1.5-3.3-4-4c-2.1,0.6-3.3,2-3.3,3.8c-0.1,1.8,1.3,3.5,3.6,3.5C174.4,1112.8,175.8,1111.5,175.8,1109.6z M169.1,1100.5
				c0,1.8,1.4,2.8,3.5,3.4c1.6-0.5,2.8-1.7,2.8-3.3c0-1.5-0.9-3-3.1-3C170.2,1097.6,169.1,1098.9,169.1,1100.5z"/>
			<path d="M177.1,1157.6v1.6l-7.9,16.6h-2.5l7.9-16.1v-0.1h-8.9v-2H177.1z"/>
			<path d="M176.6,1219.9c-0.5,0-1.1,0-1.8,0.1c-3.9,0.6-5.9,3.5-6.3,6.5h0.1c0.9-1.1,2.4-2.1,4.4-2.1c3.2,0,5.5,2.3,5.5,5.9
				c0,3.3-2.3,6.4-6,6.4c-3.9,0-6.4-3-6.4-7.8c0-3.6,1.3-6.4,3.1-8.2c1.5-1.5,3.5-2.4,5.8-2.7c0.7-0.1,1.3-0.1,1.8-0.1v2H176.6z
				 M175.9,1230.4c0-2.6-1.5-4.2-3.8-4.2c-1.5,0-2.9,0.9-3.5,2.2c-0.2,0.3-0.3,0.6-0.3,1.1c0.1,3,1.4,5.2,4,5.2
				C174.5,1234.7,175.9,1233,175.9,1230.4z"/>
			<path d="M177.1,1281.7h-6.9l-0.7,4.7c0.4-0.1,0.8-0.1,1.5-0.1c1.4,0,2.8,0.3,3.9,1c1.4,0.8,2.6,2.4,2.6,4.7
				c0,3.6-2.8,6.2-6.8,6.2c-2,0-3.7-0.6-4.5-1.1l0.6-1.9c0.8,0.4,2.2,1,3.9,1c2.3,0,4.3-1.5,4.3-3.9s-1.6-4-5.2-4
				c-1,0-1.8,0.1-2.5,0.2l1.2-8.7h8.7v1.9H177.1z"/>
			<path d="M174.9,1359.3v-5h-8.5v-1.6l8.1-11.6h2.7v11.3h2.5v1.9h-2.5v5H174.9L174.9,1359.3z M174.9,1352.4v-6.1c0-1,0-1.9,0.1-2.9
				h-0.1c-0.6,1.1-1,1.8-1.5,2.7l-4.5,6.2v0.1L174.9,1352.4L174.9,1352.4z"/>
			<path d="M166.8,1418c0.7,0.4,2.3,1.1,4,1.1c3.2,0,4.1-2,4.1-3.5c0-2.5-2.3-3.6-4.7-3.6h-1.4v-1.8h1.4c1.8,0,4.1-0.9,4.1-3.1
				c0-1.5-0.9-2.7-3.2-2.7c-1.5,0-2.9,0.6-3.6,1.2l-0.6-1.8c1-0.7,2.8-1.4,4.8-1.4c3.6,0,5.2,2.1,5.2,4.3c0,1.9-1.1,3.5-3.4,4.3v0.1
				c2.2,0.4,4.1,2.1,4.1,4.7c0,2.9-2.3,5.5-6.6,5.5c-2,0-3.8-0.6-4.7-1.2L166.8,1418z"/>
			<path d="M166.3,1482.3v-1.5l1.9-1.9c4.6-4.4,6.7-6.8,6.8-9.5c0-1.8-0.9-3.6-3.6-3.6c-1.7,0-3,0.8-3.9,1.5l-0.8-1.7
				c1.3-1.1,3.1-1.8,5.2-1.8c3.9,0,5.6,2.7,5.6,5.3c0,3.4-2.4,6.1-6.3,9.8l-1.5,1.3v0.1h8.2v2H166.3L166.3,1482.3z"/>
			<path d="M169.6,1527.9L169.6,1527.9l-3.2,1.7l-0.5-1.9l4-2.1h2.1v18.2h-2.4V1527.9L169.6,1527.9z"/>
			<path d="M178.4,1596c0,6.2-2.3,9.6-6.3,9.6c-3.6,0-6-3.3-6-9.4c0-6.1,2.6-9.5,6.3-9.5C176.2,1586.8,178.4,1590.2,178.4,1596z
				 M168.5,1596.3c0,4.7,1.5,7.4,3.7,7.4c2.5,0,3.7-2.9,3.7-7.6c0-4.5-1.1-7.4-3.7-7.4C170,1588.7,168.5,1591.4,168.5,1596.3z"/>
			<path d="M169.6,1650.9L169.6,1650.9l-3.2,1.7l-0.5-1.9l4-2.1h2.1v18.2h-2.4V1650.9L169.6,1650.9z"/>
			<path d="M166.3,1728.3v-1.5l1.9-1.9c4.6-4.4,6.7-6.8,6.8-9.5c0-1.8-0.9-3.6-3.6-3.6c-1.7,0-3,0.8-3.9,1.5l-0.8-1.7
				c1.3-1.1,3.1-1.8,5.2-1.8c3.9,0,5.6,2.7,5.6,5.3c0,3.4-2.4,6.1-6.3,9.8l-1.5,1.3v0.1h8.2v2H166.3L166.3,1728.3z"/>
			<path d="M166.8,1787c0.7,0.4,2.3,1.1,4,1.1c3.2,0,4.1-2,4.1-3.5c0-2.5-2.3-3.6-4.7-3.6h-1.4v-1.8h1.4c1.8,0,4.1-0.9,4.1-3.1
				c0-1.5-0.9-2.7-3.2-2.7c-1.5,0-2.9,0.6-3.6,1.2l-0.6-1.8c1-0.7,2.8-1.4,4.8-1.4c3.6,0,5.2,2.1,5.2,4.3c0,1.9-1.1,3.5-3.4,4.3v0.1
				c2.2,0.4,4.1,2.1,4.1,4.7c0,2.9-2.3,5.5-6.6,5.5c-2,0-3.8-0.6-4.7-1.2L166.8,1787z"/>
			<path d="M173.9,1850.3v-5h-8.5v-1.6l8.1-11.6h2.7v11.3h2.5v1.9h-2.5v5H173.9L173.9,1850.3z M173.9,1843.4v-6.1c0-1,0-1.9,0.1-2.9
				h-0.1c-0.6,1.1-1,1.8-1.5,2.7l-4.5,6.2v0.1L173.9,1843.4L173.9,1843.4z"/>
			<path d="M177.1,1895.7h-6.9l-0.7,4.7c0.4-0.1,0.8-0.1,1.5-0.1c1.4,0,2.8,0.3,3.9,1c1.4,0.8,2.6,2.4,2.6,4.7
				c0,3.6-2.8,6.2-6.8,6.2c-2,0-3.7-0.6-4.5-1.1l0.6-1.9c0.8,0.4,2.2,1,3.9,1c2.3,0,4.3-1.5,4.3-3.9s-1.6-4-5.2-4
				c-1,0-1.8,0.1-2.5,0.2l1.2-8.7h8.7v1.9H177.1z"/>
			<path d="M176.6,1956.9c-0.5,0-1.1,0-1.8,0.1c-3.9,0.6-5.9,3.5-6.3,6.5h0.1c0.9-1.1,2.4-2.1,4.4-2.1c3.2,0,5.5,2.3,5.5,5.9
				c0,3.3-2.3,6.4-6,6.4c-3.9,0-6.4-3-6.4-7.8c0-3.6,1.3-6.4,3.1-8.2c1.5-1.5,3.5-2.4,5.8-2.7c0.7-0.1,1.3-0.1,1.8-0.1v2H176.6z
				 M175.9,1967.4c0-2.6-1.5-4.2-3.8-4.2c-1.5,0-2.9,0.9-3.5,2.2c-0.2,0.3-0.3,0.6-0.3,1.1c0.1,3,1.4,5.2,4,5.2
				C174.5,1971.7,175.9,1970,175.9,1967.4z"/>
			<path d="M177.1,2016.6v1.6l-7.9,16.6h-2.5l7.9-16.1v-0.1h-8.9v-2H177.1z"/>
			<path d="M166,2091.7c0-2.3,1.4-3.9,3.6-4.9v-0.1c-2-1-2.9-2.5-2.9-4.1c0-2.9,2.4-4.8,5.6-4.8c3.5,0,5.3,2.2,5.3,4.5
				c0,1.5-0.8,3.2-3,4.3v0.1c2.3,0.9,3.7,2.5,3.7,4.7c0,3.2-2.7,5.3-6.2,5.3C168.3,2096.6,166,2094.4,166,2091.7z M175.8,2091.6
				c0-2.2-1.5-3.3-4-4c-2.1,0.6-3.3,2-3.3,3.8c-0.1,1.8,1.3,3.5,3.6,3.5C174.4,2094.8,175.8,2093.5,175.8,2091.6z M169.1,2082.5
				c0,1.8,1.4,2.8,3.5,3.4c1.6-0.5,2.8-1.7,2.8-3.3c0-1.5-0.9-3-3.1-3C170.2,2079.6,169.1,2080.9,169.1,2082.5z"/>
			<path d="M167.7,2156.1c0.5,0.1,1.1,0,2-0.1c1.4-0.2,2.8-0.8,3.8-1.8c1.2-1.1,2.1-2.7,2.4-4.8h-0.1c-1,1.2-2.5,2-4.3,2
				c-3.3,0-5.4-2.5-5.4-5.6c0-3.4,2.5-6.5,6.2-6.5c3.7,0,6,3,6,7.7c0,4-1.3,6.8-3.1,8.5c-1.4,1.4-3.3,2.2-5.3,2.4
				c-0.9,0.1-1.7,0.2-2.3,0.1v-1.9H167.7z M168.6,2145.6c0,2.3,1.4,3.9,3.5,3.9c1.7,0,2.9-0.8,3.6-1.9c0.1-0.2,0.2-0.5,0.2-0.9
				c0-3.1-1.1-5.5-3.7-5.5C170.1,2141.2,168.6,2143,168.6,2145.6z"/>
			<path d="M169.6,2203.4L169.6,2203.4l-3.2,1.7l-0.5-1.9l4-2.1h2.1v18.2h-2.4V2203.4L169.6,2203.4z"/>
			<path d="M190.7,2210c0,6.2-2.3,9.6-6.3,9.6c-3.6,0-6-3.3-6-9.4s2.6-9.5,6.3-9.5C188.5,2200.8,190.7,2204.2,190.7,2210z
				 M180.8,2210.3c0,4.7,1.5,7.4,3.7,7.4c2.5,0,3.7-2.9,3.7-7.6c0-4.5-1.1-7.4-3.7-7.4C182.4,2202.7,180.8,2205.4,180.8,2210.3z"/>
			<path d="M169.6,2264.9L169.6,2264.9l-3.2,1.7l-0.5-1.9l4-2.1h2.1v18.2h-2.4V2264.9L169.6,2264.9z"/>
			<path d="M184,2264.9L184,2264.9l-3.2,1.7l-0.5-1.9l4-2.1h2.1v18.2H184V2264.9z"/>
			<path d="M169.6,2326.4L169.6,2326.4l-3.2,1.7l-0.5-1.9l4-2.1h2.1v18.2h-2.4V2326.4L169.6,2326.4z"/>
			<path d="M178.6,2342.3v-1.5l1.9-1.9c4.6-4.4,6.7-6.8,6.8-9.5c0-1.8-0.9-3.6-3.6-3.6c-1.7,0-3,0.8-3.9,1.5l-0.8-1.7
				c1.3-1.1,3.1-1.8,5.2-1.8c3.9,0,5.6,2.7,5.6,5.3c0,3.4-2.4,6.1-6.3,9.8l-1.5,1.3v0.1h8.2v2H178.6L178.6,2342.3z"/>
			<path d="M169.6,2387.9L169.6,2387.9l-3.2,1.7l-0.5-1.9l4-2.1h2.1v18.2h-2.4V2387.9L169.6,2387.9z"/>
			<path d="M179.2,2401c0.7,0.4,2.3,1.1,4,1.1c3.2,0,4.1-2,4.1-3.5c0-2.5-2.3-3.6-4.7-3.6h-1.4v-1.8h1.4c1.8,0,4.1-0.9,4.1-3.1
				c0-1.5-0.9-2.7-3.2-2.7c-1.5,0-2.9,0.6-3.6,1.2l-0.6-1.8c1-0.7,2.8-1.4,4.8-1.4c3.6,0,5.2,2.1,5.2,4.3c0,1.9-1.1,3.5-3.4,4.3v0.1
				c2.2,0.4,4.1,2.1,4.1,4.7c0,2.9-2.3,5.5-6.6,5.5c-2,0-3.8-0.6-4.7-1.2L179.2,2401z"/>
			<path d="M169.6,2449.4L169.6,2449.4l-3.2,1.7l-0.5-1.9l4-2.1h2.1v18.2h-2.4V2449.4L169.6,2449.4z"/>
			<path d="M186.2,2465.3v-5h-8.5v-1.6l8.1-11.6h2.7v11.3h2.5v1.9h-2.5v5H186.2L186.2,2465.3z M186.2,2458.4v-6.1c0-1,0-1.9,0.1-2.9
				h-0.1c-0.6,1.1-1,1.8-1.5,2.7l-4.5,6.2v0.1H186.2z"/>
			<path d="M169.6,2510.9L169.6,2510.9l-3.2,1.7l-0.5-1.9l4-2.1h2.1v18.2h-2.4V2510.9L169.6,2510.9z"/>
			<path d="M189.5,2510.7h-6.9l-0.7,4.7c0.4-0.1,0.8-0.1,1.5-0.1c1.4,0,2.8,0.3,3.9,1c1.4,0.8,2.6,2.4,2.6,4.7
				c0,3.6-2.8,6.2-6.8,6.2c-2,0-3.7-0.6-4.5-1.1l0.6-1.9c0.8,0.4,2.2,1,3.9,1c2.3,0,4.3-1.5,4.3-3.9s-1.6-4-5.2-4
				c-1,0-1.8,0.1-2.5,0.2l1.2-8.7h8.7v1.9H189.5z"/>
			<path d="M169.6,2571.4L169.6,2571.4l-3.2,1.7l-0.5-1.9l4-2.1h2.1v18.2h-2.4V2571.4L169.6,2571.4z"/>
			<path d="M189,2570.9c-0.5,0-1.1,0-1.8,0.1c-3.9,0.6-5.9,3.5-6.3,6.5h0.1c0.9-1.1,2.4-2.1,4.4-2.1c3.2,0,5.5,2.3,5.5,5.9
				c0,3.3-2.3,6.4-6,6.4c-3.9,0-6.4-3-6.4-7.8c0-3.6,1.3-6.4,3.1-8.2c1.5-1.5,3.5-2.4,5.8-2.7c0.7-0.1,1.3-0.1,1.8-0.1v2H189z
				 M188.3,2581.4c0-2.6-1.5-4.2-3.8-4.2c-1.5,0-2.9,0.9-3.5,2.2c-0.2,0.3-0.3,0.6-0.3,1.1c0.1,3,1.4,5.2,4,5.2
				C186.9,2585.7,188.3,2584,188.3,2581.4z"/>
			<path d="M169.6,2632.9L169.6,2632.9l-3.2,1.7l-0.5-1.9l4-2.1h2.1v18.2h-2.4V2632.9L169.6,2632.9z"/>
			<path d="M190.4,2630.6v1.6l-7.9,16.6H180l7.9-16.1v-0.1H179v-2H190.4z"/>
			<path d="M169.6,2694.4L169.6,2694.4l-3.2,1.7l-0.5-1.9l4-2.1h2.1v18.2h-2.4V2694.4L169.6,2694.4z"/>
			<path d="M178.4,2705.7c0-2.3,1.4-3.9,3.6-4.9v-0.1c-2-1-2.9-2.5-2.9-4.1c0-2.9,2.4-4.8,5.6-4.8c3.5,0,5.3,2.2,5.3,4.5
				c0,1.5-0.8,3.2-3,4.3v0.1c2.3,0.9,3.7,2.5,3.7,4.7c0,3.2-2.7,5.3-6.2,5.3C180.7,2710.6,178.4,2708.4,178.4,2705.7z M188.2,2705.6
				c0-2.2-1.5-3.3-4-4c-2.1,0.6-3.3,2-3.3,3.8c-0.1,1.8,1.3,3.5,3.6,3.5C186.8,2708.8,188.2,2707.5,188.2,2705.6z M181.4,2696.5
				c0,1.8,1.4,2.8,3.5,3.4c1.6-0.5,2.8-1.7,2.8-3.3c0-1.5-0.9-3-3.1-3C182.5,2693.6,181.4,2694.9,181.4,2696.5z"/>
			<path d="M169.6,2755.9L169.6,2755.9l-3.2,1.7l-0.5-1.9l4-2.1h2.1v18.2h-2.4V2755.9L169.6,2755.9z"/>
			<path d="M180.1,2770.1c0.5,0.1,1.1,0,2-0.1c1.4-0.2,2.8-0.8,3.8-1.8c1.2-1.1,2.1-2.7,2.4-4.8h-0.1c-1,1.2-2.5,2-4.3,2
				c-3.3,0-5.4-2.5-5.4-5.6c0-3.4,2.5-6.5,6.2-6.5c3.7,0,6,3,6,7.7c0,4-1.3,6.8-3.1,8.5c-1.4,1.4-3.3,2.2-5.3,2.4
				c-0.9,0.1-1.7,0.2-2.3,0.1v-1.9H180.1z M180.9,2759.6c0,2.3,1.4,3.9,3.5,3.9c1.7,0,2.9-0.8,3.6-1.9c0.1-0.2,0.2-0.5,0.2-0.9
				c0-3.1-1.1-5.5-3.7-5.5C182.4,2755.2,180.9,2757,180.9,2759.6z"/>
			<path d="M166.3,2833.3v-1.5l1.9-1.9c4.6-4.4,6.7-6.8,6.8-9.5c0-1.8-0.9-3.6-3.6-3.6c-1.7,0-3,0.8-3.9,1.5l-0.8-1.7
				c1.3-1.1,3.1-1.8,5.2-1.8c3.9,0,5.6,2.7,5.6,5.3c0,3.4-2.4,6.1-6.3,9.8l-1.5,1.3v0.1h8.2v2H166.3L166.3,2833.3z"/>
			<path d="M192.7,2824c0,6.2-2.3,9.6-6.3,9.6c-3.6,0-6-3.3-6-9.4s2.6-9.5,6.3-9.5C190.5,2814.8,192.7,2818.2,192.7,2824z
				 M182.8,2824.3c0,4.7,1.5,7.4,3.7,7.4c2.5,0,3.7-2.9,3.7-7.6c0-4.5-1.1-7.4-3.7-7.4C184.4,2816.7,182.8,2819.4,182.8,2824.3z"/>
			<path d="M166.3,2894.8v-1.5l1.9-1.9c4.6-4.4,6.7-6.8,6.8-9.5c0-1.8-0.9-3.6-3.6-3.6c-1.7,0-3,0.8-3.9,1.5l-0.8-1.7
				c1.3-1.1,3.1-1.8,5.2-1.8c3.9,0,5.6,2.7,5.6,5.3c0,3.4-2.4,6.1-6.3,9.8l-1.5,1.3v0.1h8.2v2H166.3L166.3,2894.8z"/>
			<path d="M186,2878.9L186,2878.9l-3.2,1.7l-0.5-1.9l4-2.1h2.1v18.2H186V2878.9z"/>
			<path d="M166.3,2956.3v-1.5l1.9-1.9c4.6-4.4,6.7-6.8,6.8-9.5c0-1.8-0.9-3.6-3.6-3.6c-1.7,0-3,0.8-3.9,1.5l-0.8-1.7
				c1.3-1.1,3.1-1.8,5.2-1.8c3.9,0,5.6,2.7,5.6,5.3c0,3.4-2.4,6.1-6.3,9.8l-1.5,1.3v0.1h8.2v2H166.3L166.3,2956.3z"/>
			<path d="M180.6,2956.3v-1.5l1.9-1.9c4.6-4.4,6.7-6.8,6.8-9.5c0-1.8-0.9-3.6-3.6-3.6c-1.7,0-3,0.8-3.9,1.5l-0.8-1.7
				c1.3-1.1,3.1-1.8,5.2-1.8c3.9,0,5.6,2.7,5.6,5.3c0,3.4-2.4,6.1-6.3,9.8l-1.5,1.3v0.1h8.2v2H180.6L180.6,2956.3z"/>
			<path d="M166.3,3017.8v-1.5l1.9-1.9c4.6-4.4,6.7-6.8,6.8-9.5c0-1.8-0.9-3.6-3.6-3.6c-1.7,0-3,0.8-3.9,1.5l-0.8-1.7
				c1.3-1.1,3.1-1.8,5.2-1.8c3.9,0,5.6,2.7,5.6,5.3c0,3.4-2.4,6.1-6.3,9.8l-1.5,1.3v0.1h8.2v2H166.3L166.3,3017.8z"/>
			<path d="M181.2,3015c0.7,0.4,2.3,1.1,4,1.1c3.2,0,4.1-2,4.1-3.5c0-2.5-2.3-3.6-4.7-3.6h-1.4v-1.8h1.4c1.8,0,4.1-0.9,4.1-3.1
				c0-1.5-0.9-2.7-3.2-2.7c-1.5,0-2.9,0.6-3.6,1.2l-0.6-1.8c1-0.7,2.8-1.4,4.8-1.4c3.6,0,5.2,2.1,5.2,4.3c0,1.9-1.1,3.5-3.4,4.3v0.1
				c2.2,0.4,4.1,2.1,4.1,4.7c0,2.9-2.3,5.5-6.6,5.5c-2,0-3.8-0.6-4.7-1.2L181.2,3015z"/>
			<path d="M166.3,3079.3v-1.5l1.9-1.9c4.6-4.4,6.7-6.8,6.8-9.5c0-1.8-0.9-3.6-3.6-3.6c-1.7,0-3,0.8-3.9,1.5l-0.8-1.7
				c1.3-1.1,3.1-1.8,5.2-1.8c3.9,0,5.6,2.7,5.6,5.3c0,3.4-2.4,6.1-6.3,9.8l-1.5,1.3v0.1h8.2v2H166.3L166.3,3079.3z"/>
			<path d="M188.2,3079.3v-5h-8.5v-1.6l8.1-11.6h2.7v11.3h2.5v1.9h-2.5v5H188.2L188.2,3079.3z M188.2,3072.4v-6.1c0-1,0-1.9,0.1-2.9
				h-0.1c-0.6,1.1-1,1.8-1.5,2.7l-4.5,6.2v0.1H188.2z"/>
			<path d="M166.3,3140.8v-1.5l1.9-1.9c4.6-4.4,6.7-6.8,6.8-9.5c0-1.8-0.9-3.6-3.6-3.6c-1.7,0-3,0.8-3.9,1.5l-0.8-1.7
				c1.3-1.1,3.1-1.8,5.2-1.8c3.9,0,5.6,2.7,5.6,5.3c0,3.4-2.4,6.1-6.3,9.8l-1.5,1.3v0.1h8.2v2H166.3L166.3,3140.8z"/>
			<path d="M191.5,3124.7h-6.9l-0.7,4.7c0.4-0.1,0.8-0.1,1.5-0.1c1.4,0,2.8,0.3,3.9,1c1.4,0.8,2.6,2.4,2.6,4.7
				c0,3.6-2.8,6.2-6.8,6.2c-2,0-3.7-0.6-4.5-1.1l0.6-1.9c0.8,0.4,2.2,1,3.9,1c2.3,0,4.3-1.5,4.3-3.9s-1.6-4-5.2-4
				c-1,0-1.8,0.1-2.5,0.2l1.2-8.7h8.7v1.9H191.5z"/>
		</g>
	</g>
</g>
</svg>
