<?xml version="1.0" encoding="utf-8"?>
<!-- Generator: Adobe Illustrator 16.0.0, SVG Export Plug-In . SVG Version: 6.00 Build 0)  -->
<!DOCTYPE svg PUBLIC "-//W3C//DTD SVG 1.1//EN" "http://www.w3.org/Graphics/SVG/1.1/DTD/svg11.dtd">
<svg version="1.1" id="Layer_1" xmlns="http://www.w3.org/2000/svg" xmlns:xlink="http://www.w3.org/1999/xlink" x="0px" y="0px"
	 width="700px" height="700px" viewBox="0 0 700 700" enable-background="new 0 0 700 700" xml:space="preserve">
<g>
	<g>
		<g>
			<g>
				
					<linearGradient id="SVGID_1_" gradientUnits="userSpaceOnUse" x1="-9.083" y1="-1.0176" x2="0.8489" y2="-1.0176" gradientTransform="matrix(-0.2895 -1.1373 1.1406 -0.2766 663.2991 317.499)">
					<stop  offset="0" style="stop-color:#6E6A68"/>
					<stop  offset="0.298" style="stop-color:#B4B1B1"/>
					<stop  offset="1" style="stop-color:#6D6967"/>
				</linearGradient>
				<path fill-rule="evenodd" clip-rule="evenodd" fill="url(#SVGID_1_)" d="M672.2,321.3L672.2,321.3c-0.2,0.4-0.4,0.7-0.8,1v0.1
					c-0.1,0.1-0.2,0.2-0.3,0.2c-0.3,0.2-0.7,0.5-1.1,0.8c-0.2,0.1-0.4,0.2-0.6,0.3c-1.8,0.7-4,1.1-6.6,1c-2.6-0.1-4.8-0.5-6.6-1.3
					c-0.2-0.1-0.4-0.2-0.6-0.3c-0.4-0.2-0.8-0.5-1.1-0.8c-0.1-0.1-0.2-0.2-0.3-0.3c0,0-0.1-0.1-0.1-0.2c-0.3-0.3-0.5-0.6-0.6-0.8
					c0-0.1,0-0.1,0-0.2v-0.1c0-0.1,0-0.2,0-0.2v-0.1c0-0.1,0-0.2,0-0.4c0-0.1,0.1-0.2,0.1-0.4c0.3-0.8,1.2-1.5,2.6-2.1
					c1.9-0.8,4.2-1.1,6.7-1.1c2.6,0.1,4.8,0.5,6.6,1.4c1.6,0.7,2.5,1.6,2.8,2.5c0,0.1,0,0.2,0,0.4L672.2,321.3z"/>
				
					<linearGradient id="SVGID_2_" gradientUnits="userSpaceOnUse" x1="-8.5371" y1="6.3247" x2="7.5395" y2="6.6239" gradientTransform="matrix(1.1736 0 0 1.1736 663.3002 317.5004)">
					<stop  offset="0" style="stop-color:#322B28"/>
					<stop  offset="6.274510e-002" style="stop-color:#322B28"/>
					<stop  offset="0.1294" style="stop-color:#7C6654"/>
					<stop  offset="0.349" style="stop-color:#857464"/>
					<stop  offset="0.4275" style="stop-color:#6F7C8D"/>
					<stop  offset="0.4902" style="stop-color:#6E7A89"/>
					<stop  offset="0.5647" style="stop-color:#999A9C"/>
					<stop  offset="0.6157" style="stop-color:#56586F"/>
					<stop  offset="0.6784" style="stop-color:#939491"/>
					<stop  offset="0.7412" style="stop-color:#8A8685"/>
					<stop  offset="0.8196" style="stop-color:#97999B"/>
					<stop  offset="0.8549" style="stop-color:#EEF3F9"/>
					<stop  offset="0.9608" style="stop-color:#F2F6FE"/>
					<stop  offset="1" style="stop-color:#5E5C8C"/>
				</linearGradient>
				<path fill-rule="evenodd" clip-rule="evenodd" fill="url(#SVGID_2_)" d="M672.2,325.8c-0.2,0.3-0.5,0.6-0.8,0.9v0.1
					c-0.1,0.1-0.2,0.2-0.3,0.2c-0.3,0.2-0.7,0.5-1.1,0.7c-0.2,0.2-0.4,0.3-0.6,0.3c-1.8,0.8-4,1.1-6.6,1.1c-2.6-0.1-4.8-0.5-6.6-1.4
					c-0.2,0-0.4-0.1-0.6-0.3c-0.4-0.2-0.8-0.4-1.1-0.7c-0.1-0.1-0.2-0.2-0.3-0.3c0,0-0.1-0.1-0.1-0.2c-0.4-0.3-0.5-0.6-0.6-0.8
					c0-0.2,0-0.5,0-0.6c0-0.4,0-0.7,0-1.1l0.1-2.7c0.1,0.2,0.3,0.5,0.6,0.8c0,0.1,0.1,0.1,0.1,0.2c0.1,0.1,0.2,0.2,0.3,0.3
					c0.3,0.3,0.7,0.5,1.1,0.8c0.2,0.1,0.4,0.2,0.6,0.3c1.8,0.8,4,1.3,6.6,1.3c2.6,0.1,4.8-0.3,6.6-1c0.2-0.1,0.4-0.2,0.6-0.3
					c0.4-0.3,0.8-0.5,1.1-0.8c0.1-0.1,0.2-0.2,0.3-0.2v-0.1c0.3-0.3,0.5-0.6,0.7-0.9l0.1-0.1l-0.1,1.5h0.1V325.8z"/>
				<path fill-rule="evenodd" clip-rule="evenodd" fill="#322B28" d="M653.4,325.4c0,0.2,0.2,0.5,0.6,0.8c0,0.1,0.1,0.1,0.1,0.2
					c0.1,0.1,0.2,0.2,0.3,0.3c0.3,0.3,0.7,0.5,1.1,0.7c0.2,0.2,0.4,0.3,0.6,0.3c1.8,0.9,4,1.3,6.6,1.4c2.6,0.1,4.8-0.3,6.6-1.1
					c0.2,0,0.4-0.1,0.6-0.3c0.4-0.2,0.8-0.5,1.1-0.7c0.1-0.1,0.2-0.2,0.3-0.2v-0.1c0.3-0.3,0.6-0.6,0.8-0.9l-0.1,0.2l-0.1,0.1
					c-0.1,0.3-0.3,0.6-0.6,0.9c-0.1,0.1-0.2,0.2-0.3,0.3c-0.3,0.2-0.7,0.5-1.1,0.7c-0.2,0.2-0.4,0.3-0.6,0.3c-1.8,0.8-4,1.1-6.6,1.1
					c-2.6-0.1-4.8-0.5-6.6-1.4c-0.2,0-0.4-0.1-0.6-0.3c-0.4-0.2-0.8-0.4-1.1-0.7c-0.2-0.2-0.3-0.3-0.4-0.5c-0.4-0.3-0.6-0.6-0.6-0.8
					C653.4,325.6,653.4,325.5,653.4,325.4z"/>
			</g>
		</g>
		<g>
			<path fill-rule="evenodd" clip-rule="evenodd" d="M664.5,320.7c-0.4,0.1-0.9,0.1-1.5,0.1s-1.1-0.1-1.5-0.2
				c-0.4-0.1-0.6-0.2-0.6-0.5c0-0.2,0.2-0.3,0.6-0.4c0.4,0,0.9-0.1,1.5-0.1s1.1,0.1,1.5,0.2c0.4,0.1,0.6,0.3,0.6,0.4
				C665.1,320.4,664.9,320.6,664.5,320.7z"/>
		</g>
		<g>
			<path fill-rule="evenodd" clip-rule="evenodd" d="M653.5,320.3c0-0.3,0.1-0.5,0.2-0.8l8.1,0.2v0.8L653.5,320.3z"/>
		</g>
	</g>
	<g>
		<g>
			<g>
				
					<linearGradient id="SVGID_3_" gradientUnits="userSpaceOnUse" x1="-9.1436" y1="-0.9814" x2="0.7884" y2="-0.9814" gradientTransform="matrix(-0.2895 -1.1373 1.1406 -0.2766 663.2991 317.499)">
					<stop  offset="0" style="stop-color:#6E6A68"/>
					<stop  offset="0.298" style="stop-color:#B4B1B1"/>
					<stop  offset="1" style="stop-color:#6D6967"/>
				</linearGradient>
				<path fill-rule="evenodd" clip-rule="evenodd" fill="url(#SVGID_3_)" d="M672.3,321.4L672.3,321.4c-0.2,0.4-0.5,0.7-0.8,1v0.1
					c-0.1,0.1-0.2,0.2-0.3,0.2c-0.3,0.2-0.7,0.5-1.1,0.8c-0.2,0.1-0.4,0.2-0.6,0.3c-1.8,0.7-4,1.1-6.6,1c-2.6-0.1-4.8-0.5-6.6-1.3
					c-0.2-0.1-0.4-0.2-0.6-0.3c-0.4-0.2-0.8-0.5-1.1-0.8c-0.1-0.1-0.2-0.2-0.3-0.3c0,0-0.1-0.1-0.1-0.2c-0.3-0.3-0.5-0.6-0.6-0.8
					c0-0.1,0-0.1,0-0.2v-0.1c0-0.1,0-0.2,0-0.2v-0.1c0-0.1,0-0.2,0-0.4c0-0.1,0.1-0.2,0.1-0.4c0.3-0.8,1.2-1.5,2.6-2.1
					c1.9-0.8,4.2-1.1,6.7-1.1c2.6,0.1,4.8,0.5,6.6,1.4c1.6,0.7,2.5,1.6,2.8,2.5c0,0.1,0,0.2,0,0.4L672.3,321.4z"/>
				
					<linearGradient id="SVGID_4_" gradientUnits="userSpaceOnUse" x1="-8.4873" y1="6.3745" x2="7.5893" y2="6.6737" gradientTransform="matrix(1.1736 0 0 1.1736 663.3002 317.5004)">
					<stop  offset="0" style="stop-color:#322B28"/>
					<stop  offset="6.274510e-002" style="stop-color:#322B28"/>
					<stop  offset="0.1294" style="stop-color:#7C6654"/>
					<stop  offset="0.349" style="stop-color:#857464"/>
					<stop  offset="0.4275" style="stop-color:#6F7C8D"/>
					<stop  offset="0.4902" style="stop-color:#6E7A89"/>
					<stop  offset="0.5647" style="stop-color:#999A9C"/>
					<stop  offset="0.6157" style="stop-color:#56586F"/>
					<stop  offset="0.6784" style="stop-color:#939491"/>
					<stop  offset="0.7412" style="stop-color:#8A8685"/>
					<stop  offset="0.8196" style="stop-color:#97999B"/>
					<stop  offset="0.8549" style="stop-color:#EEF3F9"/>
					<stop  offset="0.9608" style="stop-color:#F2F6FE"/>
					<stop  offset="1" style="stop-color:#5E5C8C"/>
				</linearGradient>
				<path fill-rule="evenodd" clip-rule="evenodd" fill="url(#SVGID_4_)" d="M672.3,325.8c-0.2,0.3-0.5,0.6-0.8,0.9v0.1
					c-0.1,0.1-0.2,0.2-0.3,0.2c-0.3,0.2-0.7,0.5-1.1,0.7c-0.2,0.2-0.4,0.3-0.6,0.3c-1.8,0.8-4,1.1-6.6,1.1c-2.6-0.1-4.8-0.5-6.6-1.4
					c-0.2,0-0.4-0.1-0.6-0.3c-0.4-0.2-0.8-0.4-1.1-0.7c-0.1-0.1-0.2-0.2-0.3-0.3c0,0-0.1-0.1-0.1-0.2c-0.4-0.3-0.5-0.6-0.6-0.8
					c0-0.2,0-0.4,0-0.6c0-0.4,0-0.7,0-1.1l0.1-2.7c0.1,0.2,0.3,0.5,0.6,0.8c0,0.1,0.1,0.1,0.1,0.2c0.1,0.1,0.2,0.2,0.3,0.3
					c0.3,0.3,0.7,0.5,1.1,0.8c0.2,0.1,0.4,0.2,0.6,0.3c1.8,0.8,4,1.3,6.6,1.3c2.6,0.1,4.8-0.3,6.6-1c0.2-0.1,0.4-0.2,0.6-0.3
					c0.4-0.3,0.8-0.5,1.1-0.8c0.1-0.1,0.2-0.2,0.3-0.2v-0.1c0.3-0.3,0.5-0.6,0.7-0.9l0.1-0.1l-0.1,1.5h0.1V325.8z"/>
				<path fill-rule="evenodd" clip-rule="evenodd" fill="#322B28" d="M653.5,325.4c0,0.2,0.2,0.5,0.6,0.8c0,0.1,0.1,0.1,0.1,0.2
					c0.1,0.1,0.2,0.2,0.3,0.3c0.3,0.3,0.7,0.5,1.1,0.7c0.2,0.2,0.4,0.3,0.6,0.3c1.8,0.9,4,1.3,6.6,1.4c2.6,0.1,4.8-0.3,6.6-1.1
					c0.2,0,0.4-0.1,0.6-0.3c0.4-0.2,0.8-0.5,1.1-0.7c0.1-0.1,0.2-0.2,0.3-0.2v-0.1c0.3-0.3,0.6-0.6,0.8-0.9l-0.1,0.2l-0.1,0.1
					c-0.1,0.3-0.3,0.6-0.6,0.9c-0.1,0.1-0.2,0.2-0.3,0.3c-0.3,0.2-0.7,0.5-1.1,0.7c-0.2,0.2-0.4,0.3-0.6,0.3c-1.8,0.8-4,1.1-6.6,1.1
					s-4.8-0.5-6.6-1.4c-0.2,0-0.4-0.1-0.6-0.3c-0.4-0.2-0.8-0.4-1.1-0.7c-0.2-0.2-0.3-0.3-0.4-0.5c-0.4-0.3-0.6-0.6-0.6-0.8
					C653.4,325.6,653.5,325.5,653.5,325.4z"/>
			</g>
		</g>
		<g>
			<path fill-rule="evenodd" clip-rule="evenodd" d="M664.5,320.7c-0.4,0.1-0.9,0.1-1.5,0.1c-0.6,0-1.1-0.1-1.5-0.2
				c-0.4-0.1-0.6-0.2-0.6-0.5c0-0.2,0.2-0.3,0.6-0.4c0.4,0,0.9-0.1,1.5-0.1c0.6,0,1.1,0.1,1.5,0.2c0.4,0.1,0.6,0.3,0.6,0.4
				C665.1,320.5,664.9,320.6,664.5,320.7z"/>
		</g>
		<g>
			<path fill-rule="evenodd" clip-rule="evenodd" d="M653.6,320.4c0-0.3,0.1-0.5,0.2-0.8l8.1,0.2v0.8L653.6,320.4z"/>
		</g>
	</g>
	<g>
		<g>
			
				<radialGradient id="SVGID_5_" cx="4.980469e-002" cy="-9.75" r="4.575" gradientTransform="matrix(1.1736 0 0 1.1736 663.3002 317.5004)" gradientUnits="userSpaceOnUse">
				<stop  offset="0" style="stop-color:#FFFFFF"/>
				<stop  offset="1" style="stop-color:#6D6967"/>
			</radialGradient>
			<path fill-rule="evenodd" clip-rule="evenodd" fill="url(#SVGID_5_)" d="M666.1,311.1c0.2-0.2,0.4-0.3,0.6-0.5
				c0.7-0.6,0.2-0.7-1.5-0.2c-1.1,0.2-1.2,0.1-0.1-0.5l-0.4,0.2l0,0c0.1-0.1,0.2-0.1,0.3-0.1c0.1,0,0.2-0.1,0.3-0.2
				c0.4-0.2,0.7-0.4,0.9-0.7c0.8-0.8,1.2-1.8,1.2-2.9c0-1.1-0.4-2.1-1.2-2.9c-0.8-0.9-1.8-1.3-2.9-1.3c-1.1,0-2.1,0.4-2.9,1.3
				c-0.7,0.7-1.2,1.5-1.3,2.4c0,0.2-0.1,0.4-0.3,0.5c-0.2,0.1-0.3,0.2-0.5,0.1s-0.4-0.1-0.5-0.3c-0.1-0.2-0.2-0.3-0.1-0.5
				c0.2-1.3,0.7-2.4,1.6-3.3l0.1-0.1c1.1-1.1,2.4-1.6,4-1.6c1.5,0,2.9,0.6,4,1.7c1.1,1.1,1.6,2.4,1.6,4c0,1.6-0.5,2.9-1.6,4
				C667,310.5,666.5,310.8,666.1,311.1z"/>
			
				<radialGradient id="SVGID_6_" cx="3.6499" cy="-1.0498" r="5.375" gradientTransform="matrix(1.1736 0 0 1.1736 663.3002 317.5004)" gradientUnits="userSpaceOnUse">
				<stop  offset="0" style="stop-color:#FFFFFF"/>
				<stop  offset="1" style="stop-color:#6D6967"/>
			</radialGradient>
			<path fill-rule="evenodd" clip-rule="evenodd" fill="url(#SVGID_6_)" d="M666.1,311.1c-0.1,0-0.2,0-0.2,0.1
				c-0.1,0.1-0.4,0.3-0.8,0.6c-0.4,0.3-0.7,0.8-0.9,1.6c-0.2,0.7-0.3,2.1-0.1,4.2v0.4c0,0.3,0,0.6,0,1c0,0.5,0,1.2,0,1.9
				c-0.6,0.3-1.2,0.3-1.6,0c0-0.7,0-1.3,0.1-1.9c0-0.2,0-0.4,0-0.5c0-0.6,0-1.2-0.1-1.6c0-0.4,0-0.7,0-0.9c-0.2-1.5-0.1-2.9,0.4-4
				c0.4-0.7,0.8-1.2,1.3-1.5c0.2-0.1,0.5-0.2,0.8-0.4l0,0l0.4-0.2c-1.1,0.6-1.1,0.8,0.1,0.5c1.7-0.4,2.2-0.4,1.5,0.2
				C666.4,310.8,666.3,310.9,666.1,311.1z"/>
		</g>
	</g>
	<g>
		
			<line fill-rule="evenodd" clip-rule="evenodd" fill="none" stroke="#FFFFFF" stroke-width="0.75" stroke-linecap="round" stroke-linejoin="round" stroke-miterlimit="3" x1="664.1" y1="302" x2="664.1" y2="200.1"/>
	</g>
</g>
</svg>
