<?xml version="1.0" encoding="utf-8"?>
<!-- Generator: Adobe Illustrator 16.0.0, SVG Export Plug-In . SVG Version: 6.00 Build 0)  -->
<!DOCTYPE svg PUBLIC "-//W3C//DTD SVG 1.1//EN" "http://www.w3.org/Graphics/SVG/1.1/DTD/svg11.dtd">
<svg version="1.1" id="Layer_1" xmlns="http://www.w3.org/2000/svg" xmlns:xlink="http://www.w3.org/1999/xlink" x="0px" y="0px"
	 width="700px" height="700px" viewBox="0 0 700 700" enable-background="new 0 0 700 700" xml:space="preserve">
<g>
	
		<linearGradient id="SVGID_1_" gradientUnits="userSpaceOnUse" x1="13.5747" y1="-19.4624" x2="13.5747" y2="-17.8374" gradientTransform="matrix(1.5949 0 0 1.5949 456.7992 240.35)">
		<stop  offset="0" style="stop-color:#A07646"/>
		<stop  offset="0.2353" style="stop-color:#EBC083"/>
		<stop  offset="0.5412" style="stop-color:#A57649"/>
		<stop  offset="0.7686" style="stop-color:#A3824C"/>
		<stop  offset="1" style="stop-color:#694721"/>
	</linearGradient>
	<path fill-rule="evenodd" clip-rule="evenodd" fill="url(#SVGID_1_)" d="M663.1,209.7c0.1,0.3,0.1,0.7,0.1,1c0,0.3,0,0.6-0.1,0.9
		c-0.1,0.3-0.2,0.4-0.4,0.4H294.4c-0.2,0-0.3-0.1-0.5-0.4c-0.1-0.3-0.2-0.6-0.2-0.9c0-0.4,0.1-0.7,0.2-1c0.2-0.2,0.3-0.2,0.5-0.2
		h368.3C662.9,209.5,663,209.6,663.1,209.7z"/>
</g>
</svg>
