<?xml version="1.0" encoding="utf-8"?>
<!-- Generator: Adobe Illustrator 16.0.0, SVG Export Plug-In . SVG Version: 6.00 Build 0)  -->
<!DOCTYPE svg PUBLIC "-//W3C//DTD SVG 1.1//EN" "http://www.w3.org/Graphics/SVG/1.1/DTD/svg11.dtd">
<svg version="1.1" xmlns="http://www.w3.org/2000/svg" xmlns:xlink="http://www.w3.org/1999/xlink" x="0px" y="0px" width="359px"
	 height="250px" viewBox="0 0 359 250" enable-background="new 0 0 359 250" xml:space="preserve">
<g id="Layer_3">
</g>
<g id="Layer_2">
	<g>
		<g>
			<path fill-rule="evenodd" clip-rule="evenodd" fill="#CECECE" d="M252.6,163c0,0.2,0,0.4-0.2,0.5c-0.1,0.2-0.3,0.3-0.5,0.3
				c-0.2,0-0.4,0-0.5-0.2l-3.1-2.5c-0.2-0.1-0.3-0.3-0.3-0.5c0-0.2,0-0.4,0.2-0.5c0.1-0.2,0.3-0.3,0.5-0.3c0.2,0,0.4,0,0.6,0.2
				l3.1,2.5C252.5,162.6,252.6,162.8,252.6,163z M254.2,165.6c0-0.2,0-0.4,0.2-0.5c0.1-0.2,0.3-0.3,0.5-0.3c0.2,0,0.4,0,0.5,0.2
				l3.1,2.5c0.2,0.1,0.3,0.3,0.3,0.5c0,0.2,0,0.4-0.2,0.5c-0.1,0.2-0.3,0.3-0.5,0.3c-0.2,0-0.4,0-0.5-0.2l-3.1-2.5
				C254.3,166,254.2,165.8,254.2,165.6z M235.8,150.1c0.1-0.2,0.3-0.3,0.5-0.3c0.2,0,0.4,0,0.6,0.2l3.1,2.5c0.2,0.1,0.3,0.3,0.3,0.5
				c0,0.2,0,0.4-0.2,0.5c-0.1,0.2-0.3,0.3-0.5,0.3c-0.2,0-0.4,0-0.5-0.2l-3.1-2.5c-0.2-0.1-0.3-0.3-0.3-0.5
				C235.6,150.4,235.6,150.2,235.8,150.1z M229.7,146.1c-0.2-0.1-0.3-0.3-0.3-0.5c0-0.2,0-0.4,0.2-0.5c0.1-0.2,0.3-0.3,0.5-0.3
				c0.2,0,0.4,0,0.5,0.2l3.1,2.5c0.2,0.1,0.3,0.3,0.3,0.5c0,0.2,0,0.4-0.2,0.5c-0.1,0.2-0.3,0.3-0.5,0.3c-0.2,0-0.4,0-0.6-0.2
				L229.7,146.1z M223.5,141.1c-0.2-0.1-0.3-0.3-0.3-0.5c0-0.2,0-0.4,0.2-0.5c0.1-0.2,0.3-0.3,0.5-0.3c0.2,0,0.4,0,0.5,0.2l3.1,2.5
				c0.2,0.1,0.3,0.3,0.3,0.5c0,0.2,0,0.4-0.2,0.5c-0.1,0.2-0.3,0.3-0.5,0.3c-0.2,0-0.4,0-0.5-0.2L223.5,141.1z M242.5,154.8
				c0.2,0,0.4,0,0.5,0.2l3.1,2.5c0.2,0.1,0.3,0.3,0.3,0.5c0,0.2,0,0.4-0.2,0.5c-0.1,0.2-0.3,0.3-0.5,0.3c-0.2,0-0.4,0-0.6-0.2
				l-3.1-2.5c-0.2-0.1-0.3-0.3-0.3-0.5c0-0.2,0-0.4,0.2-0.5C242.1,154.9,242.3,154.8,242.5,154.8z M273.1,181.1
				c-0.2-0.1-0.3-0.3-0.3-0.5c0-0.2,0-0.4,0.2-0.5c0.1-0.2,0.3-0.3,0.5-0.3c0.2,0,0.4,0,0.5,0.2l3.1,2.5c0.2,0.1,0.3,0.3,0.3,0.5
				c0,0.2,0,0.4-0.2,0.5c-0.1,0.2-0.3,0.3-0.5,0.3c-0.2,0-0.4,0-0.6-0.2L273.1,181.1z M266.8,175.1c0.1-0.2,0.3-0.3,0.5-0.3
				c0.2,0,0.4,0,0.6,0.2l3.1,2.5c0.2,0.1,0.3,0.3,0.3,0.5c0,0.2,0,0.4-0.2,0.5c-0.1,0.2-0.3,0.3-0.5,0.3c-0.2,0-0.4,0-0.5-0.2
				l-3.1-2.5c-0.2-0.1-0.3-0.3-0.3-0.5C266.6,175.4,266.6,175.2,266.8,175.1z M264.3,173.8c-0.2,0-0.4,0-0.6-0.2l-3.1-2.5
				c-0.2-0.1-0.3-0.3-0.3-0.5c0-0.2,0-0.4,0.2-0.5c0.1-0.2,0.3-0.3,0.5-0.3c0.2,0,0.4,0,0.5,0.2l3.1,2.5c0.2,0.1,0.3,0.3,0.3,0.5
				c0,0.2,0,0.4-0.2,0.5C264.7,173.7,264.5,173.8,264.3,173.8z M298.3,199.8c0.2,0,0.4,0,0.6,0.2l3.1,2.5c0.2,0.1,0.3,0.3,0.3,0.5
				c0,0.2,0,0.4-0.2,0.5c-0.1,0.2-0.3,0.3-0.5,0.3c-0.2,0-0.4,0-0.5-0.2l-3.1-2.5c-0.2-0.1-0.3-0.3-0.3-0.5c0-0.2,0-0.4,0.2-0.5
				C297.9,199.9,298.1,199.8,298.3,199.8z M291.7,196.1c-0.2-0.1-0.3-0.3-0.3-0.5c0-0.2,0-0.4,0.2-0.5c0.1-0.2,0.3-0.3,0.5-0.3
				c0.2,0,0.4,0,0.5,0.2l3.1,2.5c0.2,0.1,0.3,0.3,0.3,0.5c0,0.2,0,0.4-0.2,0.5c-0.1,0.2-0.3,0.3-0.5,0.3c-0.2,0-0.4,0-0.6-0.2
				L291.7,196.1z M285.5,191.1c-0.2-0.1-0.3-0.3-0.3-0.5c0-0.2,0-0.4,0.2-0.5c0.1-0.2,0.3-0.3,0.5-0.3c0.2,0,0.4,0,0.5,0.2l3.1,2.5
				c0.2,0.1,0.3,0.3,0.3,0.5c0,0.2,0,0.4-0.2,0.5c-0.1,0.2-0.3,0.3-0.5,0.3c-0.2,0-0.4,0-0.5-0.2L285.5,191.1z M283.6,188
				c0,0.2,0,0.4-0.2,0.5c-0.1,0.2-0.3,0.3-0.5,0.3c-0.2,0-0.4,0-0.5-0.2l-3.1-2.5c-0.2-0.1-0.3-0.3-0.3-0.5c0-0.2,0-0.4,0.2-0.5
				c0.1-0.2,0.3-0.3,0.5-0.3c0.2,0,0.4,0,0.6,0.2l3.1,2.5C283.5,187.6,283.6,187.8,283.6,188z M316.5,216.1
				c-0.2-0.1-0.3-0.3-0.3-0.5c0-0.2,0-0.4,0.2-0.5c0.1-0.2,0.3-0.3,0.5-0.3c0.2,0,0.4,0,0.5,0.2l3.1,2.5c0.2,0.1,0.3,0.3,0.3,0.5
				c0,0.2,0,0.4-0.2,0.5c-0.1,0.2-0.3,0.3-0.5,0.3c-0.2,0-0.4,0-0.5-0.2L316.5,216.1z M314.6,213c0,0.2,0,0.4-0.2,0.5
				c-0.1,0.2-0.3,0.3-0.5,0.3c-0.2,0-0.4,0-0.5-0.2l-3.1-2.5c-0.2-0.1-0.3-0.3-0.3-0.5c0-0.2,0-0.4,0.2-0.5c0.1-0.2,0.3-0.3,0.5-0.3
				c0.2,0,0.4,0,0.6,0.2l3.1,2.5C314.5,212.6,314.6,212.8,314.6,213z M303.8,205.6c0-0.2,0-0.4,0.2-0.5c0.1-0.2,0.3-0.3,0.5-0.3
				c0.2,0,0.4,0,0.5,0.2l3.1,2.5c0.2,0.1,0.3,0.3,0.3,0.5c0,0.2,0,0.4-0.2,0.5c-0.1,0.2-0.3,0.3-0.5,0.3c-0.2,0-0.4,0-0.6-0.2
				l-3.1-2.5C303.9,206,303.8,205.8,303.8,205.6z M322.4,220.6c0-0.2,0-0.4,0.2-0.5c0.1-0.2,0.3-0.3,0.5-0.3c0.2,0,0.4,0,0.5,0.2
				l3.1,2.5c0.2,0.1,0.3,0.3,0.3,0.5c0,0.2,0,0.4-0.2,0.5c-0.1,0.2-0.3,0.3-0.5,0.3c-0.2,0-0.4,0-0.6-0.2l-3.1-2.5
				C322.5,221,322.4,220.8,322.4,220.6z M54.3,6.5c-0.2-0.1-0.3-0.3-0.3-0.5c0-0.2,0-0.4,0.2-0.5c0.1-0.2,0.3-0.3,0.5-0.3
				c0.2,0,0.4,0,0.5,0.1l2.9,2.3c0.2,0.1,0.3,0.3,0.3,0.5c0,0.2,0,0.4-0.2,0.5c-0.1,0.2-0.3,0.3-0.5,0.3c-0.2,0-0.4,0-0.5-0.1
				L54.3,6.5z M86.9,30l3.2,2.5c0.2,0.1,0.3,0.3,0.3,0.5c0,0.2,0,0.4-0.1,0.5c-0.1,0.2-0.3,0.3-0.5,0.3c-0.2,0-0.4,0-0.6-0.1
				L86,31.1c-0.2-0.1-0.3-0.3-0.3-0.5c0-0.2,0-0.4,0.1-0.5c0.1-0.2,0.3-0.3,0.5-0.3C86.5,29.8,86.7,29.8,86.9,30z M79.5,26.1
				c-0.2-0.1-0.3-0.3-0.3-0.5c0-0.2,0-0.4,0.1-0.5c0.1-0.2,0.3-0.3,0.5-0.3c0.2,0,0.4,0,0.6,0.2l3.2,2.5c0.2,0.1,0.3,0.3,0.3,0.5
				c0,0.2,0,0.4-0.2,0.5c-0.1,0.2-0.3,0.3-0.5,0.3c-0.2,0-0.4,0-0.5-0.1L79.5,26.1z M60.5,11.1c-0.2-0.1-0.3-0.3-0.3-0.5
				c0-0.2,0-0.4,0.1-0.5c0.1-0.2,0.3-0.3,0.5-0.3c0.2,0,0.4,0,0.6,0.2l3.2,2.5c0.2,0.1,0.3,0.3,0.3,0.5c0,0.2,0,0.4-0.1,0.5
				c-0.1,0.2-0.3,0.3-0.5,0.3c-0.2,0-0.4,0-0.6-0.1L60.5,11.1z M71,17.5c0.2,0.1,0.3,0.3,0.3,0.5c0,0.2,0,0.4-0.1,0.5
				c-0.1,0.2-0.3,0.3-0.5,0.3c-0.2,0-0.4,0-0.6-0.1l-3.2-2.5c-0.2-0.1-0.3-0.3-0.3-0.5c0-0.2,0-0.4,0.2-0.5c0.1-0.2,0.3-0.3,0.5-0.3
				c0.2,0,0.4,0,0.5,0.2L71,17.5z M73.6,19.8c0.2,0,0.4,0,0.5,0.2l3.2,2.5c0.2,0.1,0.3,0.3,0.3,0.5c0,0.2,0,0.4-0.1,0.5
				c-0.1,0.2-0.3,0.3-0.5,0.3c-0.2,0-0.4,0-0.5-0.1l-3.2-2.5C73.1,21,73,20.9,73,20.6c0-0.2,0-0.4,0.1-0.5
				C73.2,19.9,73.4,19.8,73.6,19.8z M334.8,230.6c0-0.2,0-0.4,0.2-0.5c0.1-0.2,0.3-0.3,0.5-0.3c0.2,0,0.4,0,0.5,0.2l3.1,2.5
				c0.2,0.1,0.3,0.3,0.3,0.5c0,0.2,0,0.4-0.2,0.5c-0.1,0.2-0.3,0.3-0.5,0.3c-0.2,0-0.4,0-0.6-0.2l-3.1-2.5
				C334.9,231,334.8,230.8,334.8,230.6z M328.6,225.6c0-0.2,0-0.4,0.2-0.5c0.1-0.2,0.3-0.3,0.5-0.3c0.2,0,0.4,0,0.6,0.2l3.1,2.5
				c0.2,0.1,0.3,0.3,0.3,0.5c0,0.2,0,0.4-0.2,0.5c-0.1,0.2-0.3,0.3-0.5,0.3c-0.2,0-0.4,0-0.5-0.2l-3.1-2.5
				C328.7,226,328.6,225.8,328.6,225.6z M96.1,38.8c-0.2,0-0.4,0-0.6-0.1l-3.2-2.5c-0.2-0.1-0.3-0.3-0.3-0.5c0-0.2,0-0.4,0.2-0.5
				c0.1-0.2,0.3-0.3,0.5-0.3c0.2,0,0.4,0,0.5,0.2l3.2,2.5c0.2,0.1,0.3,0.3,0.3,0.5c0,0.2,0,0.4-0.1,0.5
				C96.5,38.7,96.3,38.8,96.1,38.8z M128,63.8c-0.2,0-0.4,0-0.6-0.1l-3.1-2.5c-0.2-0.1-0.3-0.3-0.3-0.5c0-0.2,0-0.4,0.1-0.5
				c0.1-0.2,0.3-0.3,0.5-0.3c0.2,0,0.4,0,0.5,0.2l3.1,2.5c0.2,0.1,0.3,0.3,0.3,0.5c0,0.2,0,0.4-0.1,0.5
				C128.3,63.7,128.2,63.8,128,63.8z M137.1,69.8c0.2,0,0.4,0,0.5,0.2l3.1,2.5c0.2,0.1,0.3,0.3,0.3,0.5c0,0.2,0,0.4-0.2,0.5
				c-0.1,0.2-0.3,0.3-0.5,0.3c-0.2,0-0.4,0-0.6-0.2l-3.1-2.5c-0.2-0.1-0.3-0.3-0.3-0.5c0-0.2,0-0.4,0.2-0.5
				C136.7,69.9,136.9,69.8,137.1,69.8z M131.4,65l3.1,2.5c0.2,0.1,0.3,0.3,0.3,0.5c0,0.2,0,0.4-0.2,0.5c-0.1,0.2-0.3,0.3-0.5,0.3
				c-0.2,0-0.4,0-0.5-0.2l-3.1-2.5c-0.2-0.1-0.3-0.3-0.3-0.5c0-0.2,0-0.4,0.2-0.5c0.1-0.2,0.3-0.3,0.5-0.3
				C131.1,64.8,131.3,64.8,131.4,65z M117.9,56.1c-0.2-0.1-0.3-0.3-0.3-0.5c0-0.2,0-0.4,0.2-0.5c0.1-0.2,0.3-0.3,0.5-0.3
				c0.2,0,0.4,0,0.5,0.2l3.1,2.5c0.2,0.1,0.3,0.3,0.3,0.5c0,0.2,0,0.4-0.2,0.5c-0.1,0.2-0.3,0.3-0.5,0.3c-0.2,0-0.4,0-0.6-0.2
				L117.9,56.1z M111.3,50.6c0-0.2,0-0.4,0.1-0.5c0.1-0.2,0.3-0.3,0.5-0.3c0.2,0,0.4,0,0.6,0.2l3.2,2.5c0.2,0.1,0.3,0.3,0.3,0.5
				c0,0.2,0,0.4-0.2,0.5c-0.1,0.2-0.3,0.3-0.5,0.3c-0.2,0-0.4,0-0.5-0.1l-3.2-2.5C111.4,51,111.3,50.9,111.3,50.6z M102.9,42.5
				c0.2,0.1,0.3,0.3,0.3,0.5c0,0.2,0,0.4-0.1,0.5c-0.1,0.2-0.3,0.3-0.5,0.3c-0.2,0-0.4,0-0.5-0.1l-3.2-2.5c-0.2-0.1-0.3-0.3-0.3-0.5
				c0-0.2,0-0.4,0.1-0.5c0.1-0.2,0.3-0.3,0.5-0.3c0.2,0,0.4,0,0.5,0.2L102.9,42.5z M105,45.1c0.1-0.2,0.3-0.3,0.5-0.3
				c0.2,0,0.4,0,0.5,0.2l3.2,2.5c0.2,0.1,0.3,0.3,0.3,0.5c0,0.2,0,0.4-0.1,0.5c-0.1,0.2-0.3,0.3-0.5,0.3c-0.2,0-0.4,0-0.5-0.1
				l-3.2-2.5c-0.2-0.1-0.3-0.3-0.3-0.5C104.8,45.4,104.9,45.3,105,45.1z M211,130.1c0.1-0.2,0.3-0.3,0.5-0.3c0.2,0,0.4,0,0.5,0.2
				l3.1,2.5c0.2,0.1,0.3,0.3,0.3,0.5c0,0.2,0,0.4-0.2,0.5c-0.1,0.2-0.3,0.3-0.5,0.3c-0.2,0-0.4,0-0.6-0.2l-3.1-2.5
				c-0.2-0.1-0.3-0.3-0.3-0.5C210.8,130.4,210.8,130.2,211,130.1z M204.6,125.6c0-0.2,0-0.4,0.2-0.5c0.1-0.2,0.3-0.3,0.5-0.3
				c0.2,0,0.4,0,0.6,0.2l3.1,2.5c0.2,0.1,0.3,0.3,0.3,0.5c0,0.2,0,0.4-0.2,0.5c-0.1,0.2-0.3,0.3-0.5,0.3c-0.2,0-0.4,0-0.5-0.2
				l-3.1-2.5C204.7,126,204.6,125.8,204.6,125.6z M198.4,120.6c0-0.2,0-0.4,0.2-0.5c0.1-0.2,0.3-0.3,0.5-0.3c0.2,0,0.4,0,0.5,0.2
				l3.1,2.5c0.2,0.1,0.3,0.3,0.3,0.5c0,0.2,0,0.4-0.2,0.5c-0.1,0.2-0.3,0.3-0.5,0.3c-0.2,0-0.4,0-0.6-0.2l-3.1-2.5
				C198.5,121,198.4,120.8,198.4,120.6z M187.2,110l3.1,2.5c0.2,0.1,0.3,0.3,0.3,0.5c0,0.2,0,0.4-0.2,0.5c-0.1,0.2-0.3,0.3-0.5,0.3
				c-0.2,0-0.4,0-0.5-0.2l-3.1-2.5c-0.2-0.1-0.3-0.3-0.3-0.5c0-0.2,0-0.4,0.2-0.5c0.1-0.2,0.3-0.3,0.5-0.3
				C186.9,109.8,187.1,109.8,187.2,110z M196.6,118.5c-0.1,0.2-0.3,0.3-0.5,0.3c-0.2,0-0.4,0-0.5-0.2l-3.1-2.5
				c-0.2-0.1-0.3-0.3-0.3-0.5c0-0.2,0-0.4,0.2-0.5c0.1-0.2,0.3-0.3,0.5-0.3c0.2,0,0.4,0,0.5,0.2l3.1,2.5c0.2,0.1,0.3,0.3,0.3,0.5
				C196.8,118.2,196.8,118.4,196.6,118.5z M156.2,85l3.1,2.5c0.2,0.1,0.3,0.3,0.3,0.5c0,0.2,0,0.4-0.2,0.5c-0.1,0.2-0.3,0.3-0.5,0.3
				c-0.2,0-0.4,0-0.5-0.2l-3.1-2.5c-0.2-0.1-0.3-0.3-0.3-0.5c0-0.2,0-0.4,0.2-0.5c0.1-0.2,0.3-0.3,0.5-0.3
				C155.9,84.8,156.1,84.8,156.2,85z M180.5,104.8c0.2,0,0.4,0,0.5,0.2l3.1,2.5c0.2,0.1,0.3,0.3,0.3,0.5c0,0.2,0,0.4-0.2,0.5
				c-0.1,0.2-0.3,0.3-0.5,0.3c-0.2,0-0.4,0-0.6-0.2l-3.1-2.5c-0.2-0.1-0.3-0.3-0.3-0.5c0-0.2,0-0.4,0.2-0.5
				C180.1,104.9,180.3,104.8,180.5,104.8z M174.3,99.8c0.2,0,0.4,0,0.6,0.2l3.1,2.5c0.2,0.1,0.3,0.3,0.3,0.5c0,0.2,0,0.4-0.2,0.5
				c-0.1,0.2-0.3,0.3-0.5,0.3c-0.2,0-0.4,0-0.5-0.2l-3.1-2.5c-0.2-0.1-0.3-0.3-0.3-0.5c0-0.2,0-0.4,0.2-0.5
				C173.9,99.9,174.1,99.8,174.3,99.8z M167.7,96.1c-0.2-0.1-0.3-0.3-0.3-0.5c0-0.2,0-0.4,0.2-0.5c0.1-0.2,0.3-0.3,0.5-0.3
				c0.2,0,0.4,0,0.5,0.2l3.1,2.5c0.2,0.1,0.3,0.3,0.3,0.5c0,0.2,0,0.4-0.2,0.5c-0.1,0.2-0.3,0.3-0.5,0.3c-0.2,0-0.4,0-0.6-0.2
				L167.7,96.1z M161.4,90.1c0.1-0.2,0.3-0.3,0.5-0.3c0.2,0,0.4,0,0.5,0.2l3.1,2.5c0.2,0.1,0.3,0.3,0.3,0.5c0,0.2,0,0.4-0.2,0.5
				c-0.1,0.2-0.3,0.3-0.5,0.3c-0.2,0-0.4,0-0.5-0.2l-3.1-2.5c-0.2-0.1-0.3-0.3-0.3-0.5C161.2,90.4,161.2,90.2,161.4,90.1z
				 M149.5,79.8c0.2,0,0.4,0,0.5,0.2l3.1,2.5c0.2,0.1,0.3,0.3,0.3,0.5c0,0.2,0,0.4-0.2,0.5c-0.1,0.2-0.3,0.3-0.5,0.3
				c-0.2,0-0.4,0-0.6-0.2l-3.1-2.5c-0.2-0.1-0.3-0.3-0.3-0.5c0-0.2,0-0.4,0.2-0.5C149.1,79.9,149.3,79.8,149.5,79.8z M142.9,76.1
				c-0.2-0.1-0.3-0.3-0.3-0.5c0-0.2,0-0.4,0.2-0.5c0.1-0.2,0.3-0.3,0.5-0.3c0.2,0,0.4,0,0.6,0.2l3.1,2.5c0.2,0.1,0.3,0.3,0.3,0.5
				c0,0.2,0,0.4-0.2,0.5c-0.1,0.2-0.3,0.3-0.5,0.3c-0.2,0-0.4,0-0.5-0.2L142.9,76.1z M217.3,136.1c-0.2-0.1-0.3-0.3-0.3-0.5
				c0-0.2,0-0.4,0.2-0.5c0.1-0.2,0.3-0.3,0.5-0.3c0.2,0,0.4,0,0.6,0.2l3.1,2.5c0.2,0.1,0.3,0.3,0.3,0.5c0,0.2,0,0.4-0.2,0.5
				c-0.1,0.2-0.3,0.3-0.5,0.3c-0.2,0-0.4,0-0.5-0.2L217.3,136.1z M345.3,237.5c0.2,0.1,0.3,0.3,0.3,0.5c0,0.2,0,0.4-0.2,0.5
				c-0.1,0.2-0.3,0.3-0.5,0.3c-0.2,0-0.4,0-0.5-0.2l-3.1-2.5c-0.2-0.1-0.3-0.3-0.3-0.5c0-0.2,0-0.4,0.2-0.5c0.1-0.2,0.3-0.3,0.5-0.3
				c0.2,0,0.4,0,0.5,0.2L345.3,237.5z"/>
			<path fill-rule="evenodd" clip-rule="evenodd" fill="#D6D6D6" d="M226.5,185.3c0.2,0.1,0.3,0.2,0.4,0.4c0.1,0.2,0.1,0.4,0,0.6
				c-0.1,0.2-0.2,0.3-0.4,0.4c-0.2,0.1-0.4,0.1-0.6,0l-3.6-1.6c-0.2-0.1-0.3-0.2-0.4-0.4c-0.1-0.2-0.1-0.4,0-0.6
				c0.1-0.2,0.2-0.3,0.4-0.4c0.2-0.1,0.4-0.1,0.6,0L226.5,185.3z M233.7,189.9c-0.2,0.1-0.4,0.1-0.6,0l-3.6-1.6
				c-0.2-0.1-0.3-0.2-0.4-0.4c-0.1-0.2-0.1-0.4,0-0.6c0.1-0.2,0.2-0.3,0.4-0.4c0.2-0.1,0.4-0.1,0.6,0l3.6,1.6
				c0.2,0.1,0.3,0.2,0.4,0.4c0.1,0.2,0.1,0.4,0,0.6C234,189.6,233.9,189.8,233.7,189.9z M236.7,191.5c-0.2-0.1-0.3-0.2-0.4-0.4
				c-0.1-0.2-0.1-0.4,0-0.6c0.1-0.2,0.2-0.3,0.4-0.4c0.2-0.1,0.4-0.1,0.6,0l3.6,1.6c0.2,0.1,0.3,0.2,0.4,0.4c0.1,0.2,0.1,0.4,0,0.6
				c-0.1,0.2-0.2,0.3-0.4,0.4c-0.2,0.1-0.4,0.1-0.6,0L236.7,191.5z M258.3,200c0.2-0.1,0.4-0.1,0.6,0l3.6,1.6
				c0.2,0.1,0.3,0.2,0.4,0.4c0.1,0.2,0.1,0.4,0,0.6c-0.1,0.2-0.2,0.3-0.4,0.4c-0.2,0.1-0.4,0.1-0.6,0l-3.6-1.6
				c-0.2-0.1-0.3-0.2-0.4-0.4c-0.1-0.2-0.1-0.4,0-0.6C258,200.2,258.1,200,258.3,200z M251.1,196.6c0.2-0.1,0.4-0.1,0.6,0l3.6,1.6
				c0.2,0.1,0.3,0.2,0.4,0.4c0.1,0.2,0.1,0.4,0,0.6c-0.1,0.2-0.2,0.3-0.4,0.4c-0.2,0.1-0.4,0.1-0.6,0l-3.6-1.6
				c-0.2-0.1-0.3-0.2-0.4-0.4c-0.1-0.2-0.1-0.4,0-0.6C250.8,196.9,250.9,196.7,251.1,196.6z M244,193.4c0.2-0.1,0.4-0.1,0.6,0
				l3.6,1.7c0.2,0.1,0.3,0.2,0.4,0.4c0.1,0.2,0.1,0.4,0,0.6c-0.1,0.2-0.2,0.3-0.4,0.4c-0.2,0.1-0.4,0.1-0.6,0l-3.6-1.7
				c-0.2-0.1-0.3-0.2-0.4-0.4c-0.1-0.2-0.1-0.4,0-0.6C243.6,193.5,243.8,193.4,244,193.4z M301.5,220.8c-0.2-0.1-0.3-0.2-0.4-0.4
				c-0.1-0.2-0.1-0.4,0-0.6c0.1-0.2,0.2-0.3,0.4-0.4c0.2-0.1,0.4-0.1,0.6,0l3.6,1.7c0.2,0.1,0.3,0.2,0.4,0.4c0.1,0.2,0.1,0.4,0,0.6
				c-0.1,0.2-0.2,0.3-0.4,0.4c-0.2,0.1-0.4,0.1-0.6,0L301.5,220.8z M287.1,214.3c-0.2-0.1-0.3-0.2-0.4-0.4c-0.1-0.2-0.1-0.4,0-0.6
				c0.1-0.2,0.2-0.3,0.4-0.4c0.2-0.1,0.4-0.1,0.6,0l3.6,1.6c0.2,0.1,0.3,0.2,0.4,0.4c0.1,0.2,0.1,0.4,0,0.6
				c-0.1,0.2-0.2,0.3-0.4,0.4c-0.2,0.1-0.4,0.1-0.6,0L287.1,214.3z M294.9,216.3l3.6,1.6c0.2,0.1,0.3,0.2,0.4,0.4
				c0.1,0.2,0.1,0.4,0,0.6c-0.1,0.2-0.2,0.3-0.4,0.4c-0.2,0.1-0.4,0.1-0.6,0l-3.6-1.6c-0.2-0.1-0.3-0.2-0.4-0.4
				c-0.1-0.2-0.1-0.4,0-0.6c0.1-0.2,0.2-0.3,0.4-0.4C294.5,216.2,294.7,216.2,294.9,216.3z M276.9,208.1c0.2,0.1,0.3,0.2,0.4,0.4
				c0.1,0.2,0.1,0.4,0,0.6c-0.1,0.2-0.2,0.3-0.4,0.4c-0.2,0.1-0.4,0.1-0.6,0l-3.6-1.6c-0.2-0.1-0.3-0.2-0.4-0.4
				c-0.1-0.2-0.1-0.4,0-0.6c0.1-0.2,0.2-0.3,0.4-0.4c0.2-0.1,0.4-0.1,0.6,0L276.9,208.1z M279.5,210.1c0.1-0.2,0.2-0.3,0.4-0.4
				c0.2-0.1,0.4-0.1,0.6,0l3.6,1.6c0.2,0.1,0.3,0.2,0.4,0.4c0.1,0.2,0.1,0.4,0,0.6c-0.1,0.2-0.2,0.3-0.4,0.4c-0.2,0.1-0.4,0.1-0.6,0
				l-3.6-1.6c-0.2-0.1-0.3-0.2-0.4-0.4C279.4,210.5,279.4,210.3,279.5,210.1z M265.5,203.1c0.2-0.1,0.4-0.1,0.6,0l3.6,1.6
				c0.2,0.1,0.3,0.2,0.4,0.4c0.1,0.2,0.1,0.4,0,0.6c-0.1,0.2-0.2,0.3-0.4,0.4c-0.2,0.1-0.4,0.1-0.6,0l-3.6-1.6
				c-0.2-0.1-0.3-0.2-0.4-0.4c-0.1-0.2-0.1-0.4,0-0.6C265.2,203.4,265.3,203.2,265.5,203.1z M309.3,222.8l3.6,1.6
				c0.2,0.1,0.3,0.2,0.4,0.4c0.1,0.2,0.1,0.4,0,0.6c-0.1,0.2-0.2,0.3-0.4,0.4c-0.2,0.1-0.4,0.1-0.6,0l-3.6-1.6
				c-0.2-0.1-0.3-0.2-0.4-0.4c-0.1-0.2-0.1-0.4,0-0.6c0.1-0.2,0.2-0.3,0.4-0.4C308.9,222.7,309.1,222.7,309.3,222.8z M323.1,230.6
				c-0.2-0.1-0.3-0.2-0.4-0.4c-0.1-0.2-0.1-0.4,0-0.6c0.1-0.2,0.2-0.3,0.4-0.4c0.2-0.1,0.4-0.1,0.6,0l3.6,1.6
				c0.2,0.1,0.3,0.2,0.4,0.4c0.1,0.2,0.1,0.4,0,0.6c-0.1,0.2-0.2,0.3-0.4,0.4c-0.2,0.1-0.4,0.1-0.6,0L323.1,230.6z M316,226
				c0.2-0.1,0.4-0.1,0.6,0l3.6,1.7c0.2,0.1,0.3,0.2,0.4,0.4c0.1,0.2,0.1,0.4,0,0.6c-0.1,0.2-0.2,0.3-0.4,0.4c-0.2,0.1-0.4,0.1-0.6,0
				l-3.6-1.7c-0.2-0.1-0.3-0.2-0.4-0.4c-0.1-0.2-0.1-0.4,0-0.6C315.6,226.1,315.8,226,316,226z M56.7,110.1
				c-0.2-0.1-0.3-0.2-0.4-0.4c-0.1-0.2-0.1-0.4,0-0.6c0.1-0.2,0.2-0.3,0.4-0.4c0.2-0.1,0.4-0.1,0.6,0l3.6,1.6
				c0.2,0.1,0.3,0.2,0.4,0.4c0.1,0.2,0.1,0.4,0,0.6c-0.1,0.2-0.2,0.3-0.4,0.4c-0.2,0.1-0.4,0.1-0.6,0L56.7,110.1z M35.1,100.3
				c-0.2-0.1-0.3-0.2-0.4-0.4c-0.1-0.2-0.1-0.4,0-0.6c0.1-0.2,0.2-0.3,0.4-0.4c0.2-0.1,0.4-0.1,0.6,0l3.6,1.6
				c0.2,0.1,0.3,0.2,0.4,0.4c0.1,0.2,0.1,0.4,0,0.6c-0.1,0.2-0.2,0.3-0.4,0.4c-0.2,0.1-0.4,0.1-0.6,0L35.1,100.3z M27.9,97.1
				c-0.2-0.1-0.3-0.2-0.4-0.4c-0.1-0.2-0.1-0.4,0-0.6c0.1-0.2,0.2-0.3,0.4-0.4c0.2-0.1,0.4-0.1,0.6,0l3.6,1.6
				c0.2,0.1,0.3,0.2,0.4,0.4c0.1,0.2,0.1,0.4,0,0.6c-0.1,0.2-0.2,0.3-0.4,0.4c-0.2,0.1-0.4,0.1-0.6,0L27.9,97.1z M21.3,92.6l3.6,1.6
				c0.2,0.1,0.3,0.2,0.4,0.4c0.1,0.2,0.1,0.4,0,0.6c-0.1,0.2-0.2,0.3-0.4,0.4c-0.2,0.1-0.4,0.1-0.6,0l-3.6-1.6
				c-0.2-0.1-0.3-0.2-0.4-0.4c-0.1-0.2-0.1-0.4,0-0.6c0.1-0.2,0.2-0.3,0.4-0.4C20.9,92.5,21.1,92.5,21.3,92.6z M49.5,106.7
				c-0.2-0.1-0.3-0.2-0.4-0.4c-0.1-0.2-0.1-0.4,0-0.6c0.1-0.2,0.2-0.3,0.4-0.4c0.2-0.1,0.4-0.1,0.6,0l3.6,1.7
				c0.2,0.1,0.3,0.2,0.4,0.4c0.1,0.2,0.1,0.4,0,0.6c-0.1,0.2-0.2,0.3-0.4,0.4c-0.2,0.1-0.4,0.1-0.6,0L49.5,106.7z M42.3,103.5
				c-0.2-0.1-0.3-0.2-0.4-0.4c-0.1-0.2-0.1-0.4,0-0.6c0.1-0.2,0.2-0.3,0.4-0.4c0.2-0.1,0.4-0.1,0.6,0l3.6,1.6
				c0.2,0.1,0.3,0.2,0.4,0.4c0.1,0.2,0.1,0.4,0,0.6c-0.1,0.2-0.2,0.3-0.4,0.4c-0.2,0.1-0.4,0.1-0.6,0L42.3,103.5z M13.5,89.4
				c0.2-0.1,0.4-0.1,0.6,0l3.6,1.6c0.2,0.1,0.3,0.2,0.4,0.4c0.1,0.2,0.1,0.4,0,0.6c-0.1,0.2-0.2,0.3-0.4,0.4c-0.2,0.1-0.4,0.1-0.6,0
				l-3.6-1.6c-0.2-0.1-0.3-0.2-0.4-0.4c-0.1-0.2-0.1-0.4,0-0.6C13.2,89.6,13.3,89.4,13.5,89.4z M10.5,87.8c0.2,0.1,0.3,0.2,0.4,0.4
				c0.1,0.2,0.1,0.4,0,0.6c-0.1,0.2-0.2,0.3-0.4,0.4c-0.2,0.1-0.4,0.1-0.6,0l-3.6-1.6c-0.2-0.1-0.3-0.2-0.4-0.4
				c-0.1-0.2-0.1-0.4,0-0.6c0.1-0.2,0.2-0.3,0.4-0.4c0.2-0.1,0.4-0.1,0.6,0L10.5,87.8z M118.9,136.8c0.1,0.2,0.1,0.4,0,0.6
				c-0.1,0.2-0.2,0.3-0.4,0.4c-0.2,0.1-0.4,0.1-0.6,0l-3.6-1.7c-0.2-0.1-0.3-0.2-0.4-0.4c-0.1-0.2-0.1-0.4,0-0.6
				c0.1-0.2,0.2-0.3,0.4-0.4c0.2-0.1,0.4-0.1,0.6,0l3.6,1.7C118.7,136.5,118.8,136.6,118.9,136.8z M140.1,146.2
				c0.2,0.1,0.3,0.2,0.4,0.4c0.1,0.2,0.1,0.4,0,0.6c-0.1,0.2-0.2,0.3-0.4,0.4c-0.2,0.1-0.4,0.1-0.6,0l-3.6-1.7
				c-0.2-0.1-0.3-0.2-0.4-0.4c-0.1-0.2-0.1-0.4,0-0.6c0.1-0.2,0.2-0.3,0.4-0.4c0.2-0.1,0.4-0.1,0.6,0L140.1,146.2z M121.5,138
				c0.2-0.1,0.4-0.1,0.6,0l3.6,1.7c0.2,0.1,0.3,0.2,0.4,0.4c0.1,0.2,0.1,0.4,0,0.6c-0.1,0.2-0.2,0.3-0.4,0.4c-0.2,0.1-0.4,0.1-0.6,0
				l-3.6-1.7c-0.2-0.1-0.3-0.2-0.4-0.4c-0.1-0.2-0.1-0.4,0-0.6C121.2,138.1,121.4,138,121.5,138z M132.9,142.9
				c0.2,0.1,0.3,0.2,0.4,0.4c0.1,0.2,0.1,0.4,0,0.6c-0.1,0.2-0.2,0.3-0.4,0.4c-0.2,0.1-0.4,0.1-0.6,0l-3.6-1.6
				c-0.2-0.1-0.3-0.2-0.4-0.4c-0.1-0.2-0.1-0.4,0-0.6c0.1-0.2,0.2-0.3,0.4-0.4c0.2-0.1,0.4-0.1,0.6,0L132.9,142.9z M106.7,131.9
				c0.1-0.2,0.2-0.3,0.4-0.4c0.2-0.1,0.4-0.1,0.6,0l3.6,1.6c0.2,0.1,0.3,0.2,0.4,0.4c0.1,0.2,0.1,0.4,0,0.6
				c-0.1,0.2-0.2,0.3-0.4,0.4c-0.2,0.1-0.4,0.1-0.6,0l-3.6-1.6c-0.2-0.1-0.3-0.2-0.4-0.4C106.6,132.2,106.6,132,106.7,131.9z
				 M99.5,128.5c0.1-0.2,0.2-0.3,0.4-0.4c0.2-0.1,0.4-0.1,0.6,0l3.6,1.7c0.2,0.1,0.3,0.2,0.4,0.4c0.1,0.2,0.1,0.4,0,0.6
				c-0.1,0.2-0.2,0.3-0.4,0.4c-0.2,0.1-0.4,0.1-0.6,0l-3.6-1.7c-0.2-0.1-0.3-0.2-0.4-0.4C99.4,128.9,99.4,128.7,99.5,128.5z
				 M92.7,125c0.2-0.1,0.4-0.1,0.6,0l3.6,1.6c0.2,0.1,0.3,0.2,0.4,0.4c0.1,0.2,0.1,0.4,0,0.6c-0.1,0.2-0.2,0.3-0.4,0.4
				c-0.2,0.1-0.4,0.1-0.6,0l-3.6-1.6c-0.2-0.1-0.3-0.2-0.4-0.4c-0.1-0.2-0.1-0.4,0-0.6C92.4,125.2,92.5,125,92.7,125z M89.7,123.4
				c0.2,0.1,0.3,0.2,0.4,0.4c0.1,0.2,0.1,0.4,0,0.6c-0.1,0.2-0.2,0.3-0.4,0.4c-0.2,0.1-0.4,0.1-0.6,0l-3.6-1.7
				c-0.2-0.1-0.3-0.2-0.4-0.4c-0.1-0.2-0.1-0.4,0-0.6c0.1-0.2,0.2-0.3,0.4-0.4c0.2-0.1,0.4-0.1,0.6,0L89.7,123.4z M63.9,112
				c0.2-0.1,0.4-0.1,0.6,0l3.6,1.6c0.2,0.1,0.3,0.2,0.4,0.4c0.1,0.2,0.1,0.4,0,0.6c-0.1,0.2-0.2,0.3-0.4,0.4c-0.2,0.1-0.4,0.1-0.6,0
				l-3.6-1.6c-0.2-0.1-0.3-0.2-0.4-0.4c-0.1-0.2-0.1-0.4,0-0.6C63.6,112.2,63.7,112,63.9,112z M77.9,119.4c-0.1-0.2-0.1-0.4,0-0.6
				c0.1-0.2,0.2-0.3,0.4-0.4c0.2-0.1,0.4-0.1,0.6,0l3.6,1.6c0.2,0.1,0.3,0.2,0.4,0.4c0.1,0.2,0.1,0.4,0,0.6
				c-0.1,0.2-0.2,0.3-0.4,0.4c-0.2,0.1-0.4,0.1-0.6,0l-3.6-1.6C78.1,119.7,78,119.6,77.9,119.4z M74.7,118.2l-3.6-1.7
				c-0.2-0.1-0.3-0.2-0.4-0.4c-0.1-0.2-0.1-0.4,0-0.6c0.1-0.2,0.2-0.3,0.4-0.4c0.2-0.1,0.4-0.1,0.6,0l3.6,1.7
				c0.2,0.1,0.3,0.2,0.4,0.4c0.1,0.2,0.1,0.4,0,0.6c-0.1,0.2-0.2,0.3-0.4,0.4C75.1,118.3,74.9,118.3,74.7,118.2z M169.3,159.6
				c0.1,0.2,0.1,0.4,0,0.6c-0.1,0.2-0.2,0.3-0.4,0.4c-0.2,0.1-0.4,0.1-0.6,0l-3.6-1.6c-0.2-0.1-0.3-0.2-0.4-0.4
				c-0.1-0.2-0.1-0.4,0-0.6c0.1-0.2,0.2-0.3,0.4-0.4c0.2-0.1,0.4-0.1,0.6,0l3.6,1.6C169.1,159.3,169.2,159.4,169.3,159.6z
				 M171.9,162.1c-0.2-0.1-0.3-0.2-0.4-0.4c-0.1-0.2-0.1-0.4,0-0.6c0.1-0.2,0.2-0.3,0.4-0.4c0.2-0.1,0.4-0.1,0.6,0l3.6,1.7
				c0.2,0.1,0.3,0.2,0.4,0.4c0.1,0.2,0.1,0.4,0,0.6c-0.1,0.2-0.2,0.3-0.4,0.4c-0.2,0.1-0.4,0.1-0.6,0L171.9,162.1z M150.3,152.4
				c-0.2-0.1-0.3-0.2-0.4-0.4c-0.1-0.2-0.1-0.4,0-0.6c0.1-0.2,0.2-0.3,0.4-0.4c0.2-0.1,0.4-0.1,0.6,0l3.6,1.6
				c0.2,0.1,0.3,0.2,0.4,0.4c0.1,0.2,0.1,0.4,0,0.6c-0.1,0.2-0.2,0.3-0.4,0.4c-0.2,0.1-0.4,0.1-0.6,0L150.3,152.4z M147.3,149.5
				c0.2,0.1,0.3,0.2,0.4,0.4c0.1,0.2,0.1,0.4,0,0.6c-0.1,0.2-0.2,0.3-0.4,0.4c-0.2,0.1-0.4,0.1-0.6,0l-3.6-1.7
				c-0.2-0.1-0.3-0.2-0.4-0.4c-0.1-0.2-0.1-0.4,0-0.6c0.1-0.2,0.2-0.3,0.4-0.4c0.2-0.1,0.4-0.1,0.6,0L147.3,149.5z M161.7,156
				c0.2,0.1,0.3,0.2,0.4,0.4c0.1,0.2,0.1,0.4,0,0.6c-0.1,0.2-0.2,0.3-0.4,0.4c-0.2,0.1-0.4,0.1-0.6,0l-3.6-1.7
				c-0.2-0.1-0.3-0.2-0.4-0.4c-0.1-0.2-0.1-0.4,0-0.6c0.1-0.2,0.2-0.3,0.4-0.4c0.2-0.1,0.4-0.1,0.6,0L161.7,156z M214.7,181.3
				c-0.1-0.2-0.1-0.4,0-0.6c0.1-0.2,0.2-0.3,0.4-0.4c0.2-0.1,0.4-0.1,0.6,0l3.6,1.6c0.2,0.1,0.3,0.2,0.4,0.4c0.1,0.2,0.1,0.4,0,0.6
				c-0.1,0.2-0.2,0.3-0.4,0.4c-0.2,0.1-0.4,0.1-0.6,0l-3.6-1.6C214.9,181.6,214.8,181.5,214.7,181.3z M207.9,178.4
				c-0.2-0.1-0.3-0.2-0.4-0.4c-0.1-0.2-0.1-0.4,0-0.6c0.1-0.2,0.2-0.3,0.4-0.4c0.2-0.1,0.4-0.1,0.6,0l3.6,1.7
				c0.2,0.1,0.3,0.2,0.4,0.4c0.1,0.2,0.1,0.4,0,0.6c-0.1,0.2-0.2,0.3-0.4,0.4c-0.2,0.1-0.4,0.1-0.6,0L207.9,178.4z M197.7,172.3
				c0.2,0.1,0.3,0.2,0.4,0.4c0.1,0.2,0.1,0.4,0,0.6c-0.1,0.2-0.2,0.3-0.4,0.4c-0.2,0.1-0.4,0.1-0.6,0l-3.6-1.7
				c-0.2-0.1-0.3-0.2-0.4-0.4c-0.1-0.2-0.1-0.4,0-0.6c0.1-0.2,0.2-0.3,0.4-0.4c0.2-0.1,0.4-0.1,0.6,0L197.7,172.3z M200.7,175.2
				c-0.2-0.1-0.3-0.2-0.4-0.4c-0.1-0.2-0.1-0.4,0-0.6c0.1-0.2,0.2-0.3,0.4-0.4c0.2-0.1,0.4-0.1,0.6,0l3.6,1.6
				c0.2,0.1,0.3,0.2,0.4,0.4c0.1,0.2,0.1,0.4,0,0.6c-0.1,0.2-0.2,0.3-0.4,0.4c-0.2,0.1-0.4,0.1-0.6,0L200.7,175.2z M186.3,168.6
				c-0.2-0.1-0.3-0.2-0.4-0.4c-0.1-0.2-0.1-0.4,0-0.6c0.1-0.2,0.2-0.3,0.4-0.4c0.2-0.1,0.4-0.1,0.6,0l3.6,1.7
				c0.2,0.1,0.3,0.2,0.4,0.4c0.1,0.2,0.1,0.4,0,0.6c-0.1,0.2-0.2,0.3-0.4,0.4c-0.2,0.1-0.4,0.1-0.6,0L186.3,168.6z M183.3,165.7
				c0.2,0.1,0.3,0.2,0.4,0.4c0.1,0.2,0.1,0.4,0,0.6c-0.1,0.2-0.2,0.3-0.4,0.4c-0.2,0.1-0.4,0.1-0.6,0l-3.6-1.6
				c-0.2-0.1-0.3-0.2-0.4-0.4c-0.1-0.2-0.1-0.4,0-0.6c0.1-0.2,0.2-0.3,0.4-0.4c0.2-0.1,0.4-0.1,0.6,0L183.3,165.7z M337.6,235.9
				c0.2-0.1,0.4-0.1,0.6,0l3.7,1.6c0.2,0.1,0.3,0.2,0.4,0.4c0.1,0.2,0.1,0.4,0,0.6c-0.1,0.2-0.2,0.3-0.4,0.4c-0.2,0.1-0.4,0.1-0.6,0
				l-3.7-1.6c-0.2-0.1-0.3-0.2-0.4-0.4c-0.1-0.2-0.1-0.4,0-0.6C337.3,236.1,337.4,235.9,337.6,235.9z M334.6,234.1
				c0.2,0.1,0.3,0.2,0.4,0.4c0.1,0.2,0.1,0.4,0,0.6c-0.1,0.2-0.2,0.3-0.4,0.4c-0.2,0.1-0.4,0.1-0.6,0l-3.7-1.6
				c-0.2-0.1-0.3-0.2-0.4-0.4c-0.1-0.2-0.1-0.4,0-0.6c0.1-0.2,0.2-0.3,0.4-0.4c0.2-0.1,0.4-0.1,0.6,0L334.6,234.1z M344.9,239.1
				c0.2-0.1,0.4-0.1,0.6,0l4.3,1.9c0.2,0.1,0.3,0.2,0.4,0.4c0.1,0.2,0.1,0.4,0,0.6c-0.1,0.2-0.2,0.3-0.4,0.4c-0.2,0.1-0.4,0.1-0.6,0
				l-4.3-1.9c-0.2-0.1-0.3-0.2-0.4-0.4c-0.1-0.2-0.1-0.4,0-0.6C344.6,239.4,344.7,239.2,344.9,239.1z"/>
		</g>
	</g>
</g>
</svg>
