<?xml version="1.0" encoding="utf-8"?>
<!-- Generator: Adobe Illustrator 16.0.0, SVG Export Plug-In . SVG Version: 6.00 Build 0)  -->
<!DOCTYPE svg PUBLIC "-//W3C//DTD SVG 1.1//EN" "http://www.w3.org/Graphics/SVG/1.1/DTD/svg11.dtd">
<svg version="1.1" id="Layer_1" xmlns="http://www.w3.org/2000/svg" xmlns:xlink="http://www.w3.org/1999/xlink" x="0px" y="0px"
	 width="700px" height="700px" viewBox="0 0 700 700" enable-background="new 0 0 700 700" xml:space="preserve">
<g>
	
		<linearGradient id="SVGID_1_" gradientUnits="userSpaceOnUse" x1="13.5747" y1="-19.4624" x2="13.5747" y2="-17.8374" gradientTransform="matrix(1.5949 0 0 1.5949 456.7992 240.35)">
		<stop  offset="0" style="stop-color:#867669"/>
		<stop  offset="0.4118" style="stop-color:#EBE3D8"/>
		<stop  offset="0.6157" style="stop-color:#B09E8A"/>
		<stop  offset="0.7725" style="stop-color:#8D7C68"/>
		<stop  offset="1" style="stop-color:#433F3C"/>
	</linearGradient>
	<path fill-rule="evenodd" clip-rule="evenodd" fill="url(#SVGID_1_)" d="M663.2,210.8c0,0.3,0,0.6-0.1,0.9
		c-0.1,0.3-0.2,0.4-0.4,0.4H294.4c-0.2,0-0.3-0.1-0.5-0.4c-0.1-0.3-0.2-0.6-0.2-0.9c0-0.4,0.1-0.7,0.2-1c0.2-0.2,0.3-0.2,0.5-0.2
		h368.3c0.2,0,0.3,0.1,0.4,0.2C663.2,210,663.2,210.4,663.2,210.8z"/>
</g>
</svg>
