<?xml version="1.0" encoding="utf-8"?>
<!-- Generator: Adobe Illustrator 16.0.0, SVG Export Plug-In . SVG Version: 6.00 Build 0)  -->
<!DOCTYPE svg PUBLIC "-//W3C//DTD SVG 1.1//EN" "http://www.w3.org/Graphics/SVG/1.1/DTD/svg11.dtd">
<svg version="1.1" xmlns="http://www.w3.org/2000/svg" xmlns:xlink="http://www.w3.org/1999/xlink" x="0px" y="0px" width="44.6px"
	 height="18.8px" viewBox="0 0 44.6 18.8" enable-background="new 0 0 44.6 18.8" xml:space="preserve">
<g id="Layer_3">
</g>
<g id="Layer_2">
	<g>
		<g>
			<g>
				
					<linearGradient id="SVGID_1_" gradientUnits="userSpaceOnUse" x1="-102.2939" y1="-873.4907" x2="-84.192" y2="-873.4907" gradientTransform="matrix(-0.1395 0.9902 -1.0078 -1.487494e-002 -852.2151 88.6656)">
					<stop  offset="0" style="stop-color:#737173"/>
					<stop  offset="9.803922e-002" style="stop-color:#FDFDFD"/>
					<stop  offset="0.2863" style="stop-color:#AFB3CE"/>
					<stop  offset="0.549" style="stop-color:#A1A5C0"/>
					<stop  offset="0.7216" style="stop-color:#F8FBFF"/>
					<stop  offset="0.8353" style="stop-color:#818082"/>
					<stop  offset="1" style="stop-color:#1F1D1E"/>
				</linearGradient>
				<path fill-rule="evenodd" clip-rule="evenodd" fill="url(#SVGID_1_)" d="M38.7,0.3L38.7,0.3l3.9,0c0.3,0,0.5,0.1,0.6,0.4
					c0.3,0.6,0.5,1.3,0.6,2.1c0.2,1.3,0.4,2.7,0.4,4.4c0,0.7,0.1,1.3,0.1,2c0,0.8,0,1.6,0,2.3v0c0,1.5-0.1,2.9-0.3,4.2
					c-0.2,1.6-0.5,2.5-0.8,2.8h-4.4c0.4-0.1,0.7-1,0.9-2.8c0.2-1.2,0.3-2.6,0.3-4.2v0c0-0.7,0-1.5,0-2.3c0-0.7,0-1.3-0.1-2
					c-0.1-1.7-0.3-3.2-0.4-4.4c-0.2-1.2-0.5-2-0.8-2.4C38.7,0.4,38.7,0.4,38.7,0.3L38.7,0.3z"/>
			</g>
			<g>
				<g>
					
						<linearGradient id="SVGID_2_" gradientUnits="userSpaceOnUse" x1="-97.1631" y1="-874.3984" x2="-74.1786" y2="-874.3984" gradientTransform="matrix(-0.1425 0.9898 -1.0105 1.458179e-003 -854.489 94.1082)">
						<stop  offset="0" style="stop-color:#0D0D0D"/>
						<stop  offset="0.4941" style="stop-color:#070707;stop-opacity:0.3765"/>
						<stop  offset="1" style="stop-color:#000000;stop-opacity:0.5765"/>
					</linearGradient>
					<path fill-rule="evenodd" clip-rule="evenodd" fill="url(#SVGID_2_)" d="M40.2,4.9C40.2,4.9,40.2,4.9,40.2,4.9h3.5
						c0,0,0,0-0.1,0L40.2,4.9L40.2,4.9z M40.1,3.3C40,3.3,40,3.3,40.1,3.3l3.5-0.1v0.1l0,0L40.1,3.3C40,3.3,40,3.3,40.1,3.3z
						 M39.8,2.5V2.4h3.5c0,0,0,0,0,0h0c0,0,0,0.1-0.1,0.1H39.8z M40.2,4.1C40.1,4.1,40.1,4.1,40.2,4.1l3.4-0.1c0,0,0,0,0,0v0.1
						c0,0,0,0,0,0L40.2,4.1L40.2,4.1z M39.6,1.6V1.5h3.5c0,0,0,0,0,0.1c0,0.1,0,0.1,0,0.1H39.6z M42.6,0.7L42.6,0.7l0,0.1h-3.5
						c0,0,0-0.1,0-0.1v0H42.6z M39.2,17.7v-0.1h3.5v0l0,0.1H39.2z M40.1,14.3L40.1,14.3C40.1,14.3,40.2,14.3,40.1,14.3l3.5-0.1
						c0,0,0,0,0,0v0.1H40.1z M40,15.1V15h3.5l0,0.1l0,0H40z M39.6,16.8L39.6,16.8l3.5-0.1c0,0,0,0,0,0v0.1H39.6z M39.8,16L39.8,16
						l3.5-0.1l0.1,0l-0.1,0H39.8z M40.5,11.7L40.5,11.7C40.5,11.7,40.5,11.7,40.5,11.7l3.4,0c0,0,0,0,0.1,0c0,0,0,0-0.1,0H40.5z
						 M40.4,13.5C40.3,13.5,40.3,13.5,40.4,13.5l-0.1-0.1h3.5v0h0v0.1H40.4z M40.4,12.6C40.3,12.6,40.3,12.6,40.4,12.6
						C40.4,12.6,40.4,12.6,40.4,12.6l3.5,0l0,0H40.4z M40.6,10.1V10h3.5v0.1c0,0-0.1,0-0.1,0H40.6z M40.6,9.2
						C40.5,9.2,40.5,9.2,40.6,9.2l3.5,0v0l0,0.1h-3.4V9.2z M40.6,10.9C40.6,10.9,40.6,10.9,40.6,10.9l3.5,0v0l0,0L40.6,10.9
						L40.6,10.9L40.6,10.9z M40.6,8.4L40.6,8.4c0-0.1,0-0.1,0-0.1H44v0.1l0,0H40.6z M40.4,5.9L40.4,5.9C40.4,5.8,40.5,5.8,40.4,5.9
						l3.5,0c0-0.1,0-0.1,0,0v0H40.4z M40.5,6.7C40.4,6.7,40.4,6.7,40.5,6.7L40.5,6.7l3.4-0.1v0h0v0H40.5z"/>
					
						<linearGradient id="SVGID_3_" gradientUnits="userSpaceOnUse" x1="-93.5313" y1="-875.4585" x2="-75.3939" y2="-875.4585" gradientTransform="matrix(-0.1434 0.9897 -1.0106 1.458365e-003 -854.9175 94.0532)">
						<stop  offset="0" style="stop-color:#0D0D0D;stop-opacity:0.4235"/>
						<stop  offset="0.4941" style="stop-color:#070707;stop-opacity:0.1765"/>
						<stop  offset="1" style="stop-color:#000000"/>
					</linearGradient>
					<polygon fill-rule="evenodd" clip-rule="evenodd" fill="url(#SVGID_3_)" points="40.5,7.6 40.5,7.5 43.9,7.5 44,7.5 43.9,7.6 
											"/>
				</g>
			</g>
			<g>
				
					<path fill-rule="evenodd" clip-rule="evenodd" fill="none" stroke="#FFFFFF" stroke-width="0.25" stroke-miterlimit="10" stroke-opacity="0.4196" d="
					M38.9,0.9h3.6 M39.5,1.7H43 M39.1,17.8h3.5 M40.1,4.2h3.5 M40,3.4h3.5 M39.7,2.6h3.6 M40.2,5h3.5 M40.4,6.8h3.5 M40.5,8.5h3.6
					 M40.4,7.7H44 M40.3,6h3.6 M40.5,9.4h3.6 M40.3,13.6h3.5 M40.4,12.7h3.5 M40.5,11.8H44 M40.6,11h3.5 M40.6,10.2h3.5 M40.1,14.4
					h3.5 M40,15.2h3.6 M39.7,16.1h3.6 M39.6,16.9h3.5"/>
			</g>
			<g>
				<path fill-rule="evenodd" clip-rule="evenodd" fill="#171715" d="M38.7,0.4c0.3,0.3,0.5,1.1,0.8,2.4c0.2,1.3,0.3,2.7,0.4,4.4
					c0,0.6,0.1,1.3,0.1,2c0,0.8,0,1.5,0,2.3v0c0,1.6-0.1,3-0.3,4.2c-0.3,1.8-0.6,2.7-0.9,2.8c-0.1,0-0.1,0-0.2-0.1
					c-0.1-0.1-0.2-0.2-0.3-0.3c-0.2-0.4-0.4-1.1-0.6-2.2c0-0.4-0.1-0.8-0.1-1.3c-0.2-1.5-0.4-3.2-0.4-5.2c0-2,0.1-3.8,0.3-5.4
					c0-0.4,0-0.7,0.1-1.1c0.1-1,0.3-1.8,0.5-2.3c0.1-0.1,0.1-0.1,0.1-0.2c0.1-0.2,0.2-0.2,0.5-0.2l0,0L38.7,0.4
					C38.7,0.4,38.7,0.4,38.7,0.4z"/>
			</g>
			<g>
				<g>
					<g>
						
							<linearGradient id="SVGID_4_" gradientUnits="userSpaceOnUse" x1="-90.9482" y1="-871.728" x2="-83.6721" y2="-871.728" gradientTransform="matrix(-0.1443 0.9895 -1.0099 -4.353201e-003 -855.0981 91.9875)">
							<stop  offset="0" style="stop-color:#878B8C"/>
							<stop  offset="7.058824e-002" style="stop-color:#9AA2AD"/>
							<stop  offset="0.1765" style="stop-color:#FFFFFF"/>
							<stop  offset="0.298" style="stop-color:#828692"/>
							<stop  offset="0.3686" style="stop-color:#797BCE"/>
							<stop  offset="0.5216" style="stop-color:#282E57"/>
							<stop  offset="0.5961" style="stop-color:#7E808C"/>
							<stop  offset="0.6627" style="stop-color:#6A6D77"/>
							<stop  offset="0.7686" style="stop-color:#242528"/>
							<stop  offset="0.8667" style="stop-color:#585B64"/>
							<stop  offset="0.9804" style="stop-color:#383745"/>
						</linearGradient>
						<path fill-rule="evenodd" clip-rule="evenodd" fill="url(#SVGID_4_)" d="M37.1,13.1h0.1c0.1-0.1,0.2-0.5,0.3-1.2
							c0.1-0.2,0.1-0.5,0.1-0.8c0-0.3,0-0.6,0-0.9v0c0-0.3,0-0.6,0-1V8.9c0-0.2,0-0.3,0-0.5c0-0.3,0-0.6,0-0.9
							c0-0.4-0.1-0.7-0.1-0.9c-0.1-0.6-0.2-1-0.3-1.1v0h1.2c0.1,0.1,0.2,0.5,0.2,1.1c0,0.3,0.1,0.6,0.1,0.9c0,0.3,0,0.6,0,1
							c0,0.2,0,0.3,0,0.5v0.3c0,0.4,0,0.7,0,1c0,0.3,0,0.6,0,0.9c0,0.3,0,0.6,0,0.8c-0.1,0.6-0.2,1-0.3,1.1l-0.1,0L37.1,13.1
							L37.1,13.1z"/>
						
							<linearGradient id="SVGID_5_" gradientUnits="userSpaceOnUse" x1="58.0039" y1="9.2871" x2="67.6789" y2="9.2871" gradientTransform="matrix(1 0 -8.196721e-002 1 -28.2631 0)">
							<stop  offset="0" style="stop-color:#878B8C"/>
							<stop  offset="7.058824e-002" style="stop-color:#9AA2AD"/>
							<stop  offset="0.1765" style="stop-color:#FFFFFF"/>
							<stop  offset="0.298" style="stop-color:#828692"/>
							<stop  offset="0.3686" style="stop-color:#797BCE"/>
							<stop  offset="0.5216" style="stop-color:#282E57"/>
							<stop  offset="0.5961" style="stop-color:#7E808C"/>
							<stop  offset="0.6627" style="stop-color:#6A6D77"/>
							<stop  offset="0.7686" style="stop-color:#242528"/>
							<stop  offset="0.8667" style="stop-color:#585B64"/>
							<stop  offset="0.9804" style="stop-color:#383745"/>
						</linearGradient>
						<path fill-rule="evenodd" clip-rule="evenodd" fill="url(#SVGID_5_)" d="M37.1,13.1C37.1,13.1,37.1,13.1,37.1,13.1
							C37,13,37,12.9,36.9,12.8c0-0.1-0.1-0.8-0.1-2.1c-0.1-1.3-0.1-2.4,0-3.3c0-1,0.1-1.5,0.2-1.8c0.1-0.2,0.1-0.3,0.3-0.3v0
							c0.1,0.1,0.1,0.5,0.3,1.1c0,0.2,0.1,0.5,0.1,0.9c0,0.3,0,0.6,0,0.9c0,0.2,0,0.4,0,0.5v0.3c0,0.3,0,0.7,0,1v0
							c0,0.3,0,0.5,0,0.9c0,0.3,0,0.6-0.1,0.8c-0.1,0.7-0.2,1.1-0.3,1.2H37.1z"/>
					</g>
				</g>
				<g>
					
						<linearGradient id="SVGID_6_" gradientUnits="userSpaceOnUse" x1="-81.8945" y1="-871.0518" x2="-78.6975" y2="-871.0518" gradientTransform="matrix(-0.2111 0.9775 -1.0231 2.176828e-004 -889.2357 88.2154)">
						<stop  offset="0" style="stop-color:#878B8C"/>
						<stop  offset="7.058824e-002" style="stop-color:#9AA2AD"/>
						<stop  offset="0.1765" style="stop-color:#FFFFFF"/>
						<stop  offset="0.298" style="stop-color:#828692"/>
						<stop  offset="0.3686" style="stop-color:#797BCE"/>
						<stop  offset="0.5216" style="stop-color:#282E57"/>
						<stop  offset="0.5961" style="stop-color:#7E808C"/>
						<stop  offset="0.6627" style="stop-color:#6A6D77"/>
						<stop  offset="0.7686" style="stop-color:#242528"/>
						<stop  offset="0.8667" style="stop-color:#585B64"/>
						<stop  offset="0.9804" style="stop-color:#383745"/>
					</linearGradient>
					<path fill-rule="evenodd" clip-rule="evenodd" fill="url(#SVGID_6_)" d="M0.6,11.1C0.2,10,0.2,9,0.6,7.9h36.7
						c0.1,0.9,0.1,2,0,3.2H0.6z"/>
				</g>
			</g>
			<g>
				
					<path fill-rule="evenodd" clip-rule="evenodd" fill="none" stroke="#000000" stroke-width="0.25" stroke-linecap="round" stroke-linejoin="round" stroke-miterlimit="3" stroke-opacity="0.4314" d="
					M34.9,8.2c0.3,0.4,0.4,0.9,0.5,1.5c0,0.5-0.1,0.9-0.2,1.3 M36,8.2c0.3,0.4,0.4,0.9,0.4,1.5c0,0.5,0,0.9-0.1,1.3 M33.8,8.2
					c0.3,0.4,0.4,0.9,0.4,1.5c0,0.5,0,0.9-0.2,1.3 M32.8,8.2c0.3,0.4,0.4,0.9,0.4,1.5c0,0.5,0,0.9-0.2,1.3 M25.1,8.2
					c0.3,0.4,0.4,0.9,0.5,1.5c0,0.5-0.1,0.9-0.2,1.3 M26.2,8.2c0.2,0.4,0.4,0.9,0.4,1.5c0,0.5-0.1,0.9-0.2,1.3 M27.3,8.2
					c0.3,0.4,0.4,0.9,0.5,1.5c0,0.5-0.1,0.9-0.3,1.3 M30.5,8.2c0.3,0.4,0.4,0.9,0.5,1.5c0,0.5-0.1,0.9-0.2,1.3 M28.4,8.2
					c0.3,0.4,0.4,0.9,0.5,1.5c0,0.5-0.1,0.9-0.3,1.3 M29.5,8.2c0.3,0.4,0.4,0.9,0.4,1.5c0,0.5,0,0.9-0.1,1.3 M31.7,8.2
					c0.3,0.4,0.4,0.9,0.4,1.5c0,0.5,0,0.9-0.2,1.3"/>
			</g>
			<g>
				<path fill-rule="evenodd" clip-rule="evenodd" fill="none" d="M35.1,8.2c0.2,0.4,0.3,0.9,0.3,1.5c0.1,0.5,0,0.9-0.1,1.3
					 M36.2,8.2c0.3,0.4,0.5,0.9,0.5,1.5c0,0.5-0.1,0.9-0.3,1.3 M34,8.2c0.3,0.4,0.4,0.9,0.4,1.5c0,0.5,0,0.9-0.1,1.3 M32.9,8.2
					c0.3,0.4,0.5,0.9,0.5,1.5c0,0.5,0,0.9-0.2,1.3 M25.3,8.2c0.2,0.4,0.4,0.9,0.4,1.5c0,0.5-0.1,0.9-0.2,1.3 M27.5,8.2
					c0.3,0.4,0.4,0.9,0.4,1.5c0,0.5,0,0.9-0.1,1.3 M26.3,8.2c0.2,0.4,0.4,0.9,0.5,1.5c0,0.5-0.1,0.9-0.3,1.3 M29.6,8.2
					C29.9,8.6,30,9.1,30,9.7c0,0.5,0,0.9-0.2,1.3 M28.5,8.2c0.3,0.4,0.4,0.9,0.4,1.5c0,0.5,0,0.9-0.1,1.3 M30.7,8.2
					c0.3,0.4,0.4,0.9,0.4,1.5c0,0.5-0.1,0.9-0.3,1.3 M31.8,8.2c0.3,0.4,0.5,0.9,0.5,1.5c0,0.5-0.1,0.9-0.3,1.3"/>
			</g>
		</g>
		<g>
			<g>
				<polygon fill-rule="evenodd" clip-rule="evenodd" points="4.4,16.2 5.5,7.6 14.8,7.6 17.6,16.2 				"/>
			</g>
			<g>
				<g>
					<linearGradient id="SVGID_7_" gradientUnits="userSpaceOnUse" x1="9.3232" y1="0.2183" x2="11.0815" y2="13.4205">
						<stop  offset="0" style="stop-color:#85837C"/>
						<stop  offset="0.2863" style="stop-color:#7F7D74"/>
						<stop  offset="0.5961" style="stop-color:#A3A098"/>
						<stop  offset="0.8627" style="stop-color:#7D7B72"/>
						<stop  offset="1" style="stop-color:#79776D"/>
					</linearGradient>
					<polygon fill-rule="evenodd" clip-rule="evenodd" fill="url(#SVGID_7_)" points="17.5,12.5 4.5,12.5 4.5,12.2 4.9,4.6 
						15.6,4.6 					"/>
					<linearGradient id="SVGID_8_" gradientUnits="userSpaceOnUse" x1="17.375" y1="14.2871" x2="4.45" y2="14.2871">
						<stop  offset="0" style="stop-color:#86867E"/>
						<stop  offset="0.2039" style="stop-color:#8E8E88"/>
						<stop  offset="0.3647" style="stop-color:#494847"/>
						<stop  offset="0.5686" style="stop-color:#A9A7A3"/>
						<stop  offset="0.7451" style="stop-color:#67655B"/>
						<stop  offset="1" style="stop-color:#626052"/>
					</linearGradient>
					<rect x="4.5" y="12.5" fill-rule="evenodd" clip-rule="evenodd" fill="url(#SVGID_8_)" width="13" height="3.5"/>
				</g>
			</g>
			<g>
				
					<radialGradient id="SVGID_9_" cx="11.0625" cy="12.6875" r="5.0875" gradientTransform="matrix(1 0 0 1.4717 0 -5.9853)" gradientUnits="userSpaceOnUse">
					<stop  offset="0" style="stop-color:#FFFFFF"/>
					<stop  offset="1" style="stop-color:#FAFAFA;stop-opacity:0"/>
				</radialGradient>
				<path fill-rule="evenodd" clip-rule="evenodd" fill="url(#SVGID_9_)" d="M16.2,12.6c0,0,0.1,0,0.1,0c0,0,0,0.1,0,0.1
					s0,0.1,0,0.2c0,0-0.1,0-0.1,0H6.1c0,0-0.1,0-0.1,0c0-0.1,0-0.1,0-0.2c0,0,0-0.1,0-0.1c0,0,0.1,0,0.1,0H16.2z"/>
			</g>
		</g>
		<g>
			<g>
				<path fill-rule="evenodd" clip-rule="evenodd" d="M10.8,11.6c-0.8,0-1.3-0.3-1.5-1l-0.1-0.3c0-0.3,0.2-0.6,0.5-0.9
					c0.3-0.2,0.7-0.3,1.2-0.3c0.4,0,0.7,0.1,1,0.3c0.3,0.2,0.4,0.5,0.4,0.9v0.3C11.9,11.3,11.5,11.6,10.8,11.6z"/>
			</g>
			<g>
				<g>
					
						<radialGradient id="SVGID_10_" cx="10.4121" cy="9.3877" r="2.575" gradientTransform="matrix(1 0 0 0.9806 0 0.1823)" gradientUnits="userSpaceOnUse">
						<stop  offset="0" style="stop-color:#8F929B"/>
						<stop  offset="0.6196" style="stop-color:#686779"/>
						<stop  offset="0.8" style="stop-color:#3D3B44"/>
						<stop  offset="0.9922" style="stop-color:#2F291B"/>
					</radialGradient>
					<path fill-rule="evenodd" clip-rule="evenodd" fill="url(#SVGID_10_)" d="M12.2,10.3c0,0.3-0.1,0.6-0.4,0.8
						c-0.3,0.3-0.6,0.4-1,0.4c-0.4,0-0.8-0.1-1.1-0.4c-0.3-0.2-0.4-0.5-0.4-0.8c0-0.3,0.1-0.6,0.4-0.8c0.3-0.2,0.6-0.3,1.1-0.3
						c0.4,0,0.7,0.1,1,0.3C12,9.7,12.2,10,12.2,10.3z M11.1,10.1c-0.1,0-0.2,0.1-0.2,0.3c0,0.2,0.2,0.3,0.4,0.1
						C11.4,10.3,11.3,10.2,11.1,10.1z"/>
					<path fill-rule="evenodd" clip-rule="evenodd" fill="#FEFEFF" d="M11.1,10.1c0.2,0.1,0.3,0.2,0.2,0.4c-0.2,0.1-0.4,0.1-0.4-0.1
						C10.9,10.3,11,10.2,11.1,10.1z"/>
				</g>
			</g>
			<g>
				<g>
					<g>
						<g>
							<path fill-rule="evenodd" clip-rule="evenodd" fill="#999AA4" d="M9.8,10.4c0,0-0.1,0.1-0.1,0.2l-0.2-0.3
								c0.5-0.7,1.2-1,2-0.9l0.3,0.2c0,0-0.1,0-0.1,0C10.8,9.5,10.1,9.8,9.8,10.4z"/>
						</g>
					</g>
				</g>
				<g>
					<g>
						<g>
							<g>
								<path fill-rule="evenodd" clip-rule="evenodd" d="M9.8,10.5l0,0.2l-0.2-0.3c0.5-0.7,1.2-1.1,2-1l0.2,0.2l-0.1,0
									C10.8,9.6,10.2,9.9,9.8,10.5z"/>
							</g>
						</g>
					</g>
				</g>
			</g>
		</g>
		<g>
			<g>
				<path fill-rule="evenodd" clip-rule="evenodd" d="M9.3,6.1l0-0.2c0-0.2,0.1-0.5,0.4-0.7C9.9,5.1,10.1,5,10.5,5
					c0.3,0,0.5,0.1,0.8,0.2c0.2,0.2,0.3,0.4,0.3,0.7v0.2c-0.2,0.5-0.5,0.8-1,0.8C9.9,6.9,9.5,6.7,9.3,6.1z"/>
			</g>
			<g>
				<g>
					
						<radialGradient id="SVGID_11_" cx="10.2627" cy="5.2373" r="1.95" gradientTransform="matrix(1 0 0 0.9808 0 0.1007)" gradientUnits="userSpaceOnUse">
						<stop  offset="0" style="stop-color:#8F929B"/>
						<stop  offset="0.6196" style="stop-color:#686779"/>
						<stop  offset="0.8" style="stop-color:#3D3B44"/>
						<stop  offset="0.9922" style="stop-color:#2F291B"/>
					</radialGradient>
					<path fill-rule="evenodd" clip-rule="evenodd" fill="url(#SVGID_11_)" d="M9.3,5.9c0-0.3,0.1-0.5,0.3-0.7
						C9.9,5.1,10.1,5,10.5,5c0.3,0,0.5,0.1,0.8,0.3c0.2,0.2,0.3,0.4,0.3,0.7c0,0.2-0.1,0.4-0.3,0.6c-0.2,0.2-0.5,0.3-0.8,0.3
						c-0.3,0-0.6-0.1-0.8-0.3C9.4,6.3,9.3,6.1,9.3,5.9z M10.6,6c0.1,0.2,0.2,0.2,0.3,0.1c0-0.1,0-0.3-0.1-0.4
						C10.7,5.8,10.6,5.9,10.6,6z"/>
					<path fill-rule="evenodd" clip-rule="evenodd" fill="#FEFEFF" d="M10.6,6c0.1-0.1,0.2-0.2,0.3-0.3c0.1,0.1,0.1,0.2,0.1,0.4
						C10.7,6.2,10.6,6.2,10.6,6z"/>
				</g>
			</g>
			<g>
				<g>
					<g>
						<g>
							<path fill-rule="evenodd" clip-rule="evenodd" fill="#999AA4" d="M11.2,5.4C10.5,5.3,10,5.5,9.8,6c0,0-0.1,0.1-0.1,0.1
								L9.5,5.9c0.4-0.5,0.9-0.8,1.5-0.7L11.2,5.4C11.2,5.4,11.2,5.4,11.2,5.4z"/>
						</g>
					</g>
				</g>
				<g>
					<g>
						<g>
							<g>
								<path fill-rule="evenodd" clip-rule="evenodd" d="M11.2,5.4c-0.6-0.1-1.1,0.2-1.4,0.7l0,0.1L9.7,6c0.3-0.6,0.8-0.8,1.4-0.8
									L11.2,5.4L11.2,5.4z"/>
							</g>
						</g>
					</g>
				</g>
			</g>
		</g>
	</g>
</g>
</svg>
