<?xml version="1.0" encoding="utf-8"?>
<!-- Generator: Adobe Illustrator 16.0.0, SVG Export Plug-In . SVG Version: 6.00 Build 0)  -->
<!DOCTYPE svg PUBLIC "-//W3C//DTD SVG 1.1//EN" "http://www.w3.org/Graphics/SVG/1.1/DTD/svg11.dtd">
<svg version="1.1" xmlns="http://www.w3.org/2000/svg" xmlns:xlink="http://www.w3.org/1999/xlink" x="0px" y="0px" width="33px"
	 height="78.5px" viewBox="0 0 33 78.5" enable-background="new 0 0 33 78.5" xml:space="preserve">
<g id="Layer_3">
	<linearGradient id="SVGID_1_" gradientUnits="userSpaceOnUse" x1="1.0264" y1="41.7891" x2="31.3916" y2="41.7891">
		<stop  offset="0" style="stop-color:#725130"/>
		<stop  offset="3.137255e-002" style="stop-color:#704E32"/>
		<stop  offset="5.098039e-002" style="stop-color:#7C5B32"/>
		<stop  offset="0.1882" style="stop-color:#8C652A"/>
		<stop  offset="0.2392" style="stop-color:#8F8F8D"/>
		<stop  offset="0.4471" style="stop-color:#A9A9A7"/>
		<stop  offset="0.502" style="stop-color:#D1D1CF"/>
		<stop  offset="0.5961" style="stop-color:#ADAFA1"/>
		<stop  offset="0.651" style="stop-color:#18191D"/>
		<stop  offset="0.7098" style="stop-color:#232428"/>
		<stop  offset="0.8196" style="stop-color:#6B695D"/>
		<stop  offset="1" style="stop-color:#6A654F"/>
	</linearGradient>
	<path fill-rule="evenodd" clip-rule="evenodd" fill="url(#SVGID_1_)" d="M4.7,7L1.8,44.9l0.5,5.9L3.1,54l-1.5,5.2
		c0,0-4.6,13.7,10.8,17.3c0,0,11.7,3.2,16.7-5.4s0.4-16.8,0.4-16.8l0.8-4.9l-5.1-29.6l-0.7-6l-1.5-7.3L4.7,7z"/>
</g>
<g id="Layer_2">
	<g>
		<g>
			<g>
				<g>
					
						<linearGradient id="SVGID_2_" gradientUnits="userSpaceOnUse" x1="-15.3467" y1="7.0254" x2="4.0533" y2="7.0254" gradientTransform="matrix(1 0 5.333333e-002 1 18.2931 0)">
						<stop  offset="0" style="stop-color:#725130"/>
						<stop  offset="3.137255e-002" style="stop-color:#704E32"/>
						<stop  offset="5.098039e-002" style="stop-color:#7C5B32"/>
						<stop  offset="0.1882" style="stop-color:#8C652A"/>
						<stop  offset="0.2392" style="stop-color:#8F8F8D"/>
						<stop  offset="0.4471" style="stop-color:#A9A9A7"/>
						<stop  offset="0.502" style="stop-color:#D1D1CF"/>
						<stop  offset="0.5961" style="stop-color:#ADAFA1"/>
						<stop  offset="0.651" style="stop-color:#18191D"/>
						<stop  offset="0.7098" style="stop-color:#232428"/>
						<stop  offset="0.8196" style="stop-color:#6B695D"/>
						<stop  offset="1" style="stop-color:#6A654F"/>
					</linearGradient>
					<path fill-rule="evenodd" clip-rule="evenodd" fill="url(#SVGID_2_)" d="M24.3,13.6c-0.6-1.1-1.5-2.1-2.6-3
						c-0.9-0.8-1.9-1.4-3-1.8c-1.5-0.7-3.2-1-5-1c-3.1,0-5.6,0.9-7.8,2.8c-0.9,0.9-1.7,1.9-2.2,3c0-3.1,0-4.8,0-5.1
						c0-0.8,0.2-1.5,0.5-2.2C4.7,5.1,5.4,4,6.5,3.1c1.9-1.8,4.2-2.7,6.9-2.7c1.6,0,3.1,0.3,4.5,0.8c1.3,0.6,2.3,1.3,3.1,2
						c0.8,0.8,1.5,1.7,2,2.7C23.4,6.9,23.9,9.5,24.3,13.6z"/>
					
						<linearGradient id="SVGID_3_" gradientUnits="userSpaceOnUse" x1="-15.752" y1="13.8242" x2="6.773" y2="13.8242" gradientTransform="matrix(1 0 5.186722e-002 1 17.79 0)">
						<stop  offset="0" style="stop-color:#2F2F2F"/>
						<stop  offset="0.1451" style="stop-color:#282828"/>
						<stop  offset="0.2392" style="stop-color:#8C8C8C"/>
						<stop  offset="0.3961" style="stop-color:#0F0F0F"/>
						<stop  offset="1" style="stop-color:#000000"/>
					</linearGradient>
					<path fill-rule="evenodd" clip-rule="evenodd" fill="url(#SVGID_3_)" d="M24.3,13.6c0,0.1,0.1,0.1,0.1,0.2
						c0.4,0.9,0.7,1.8,0.8,2.8l0.5,3.3c-0.1-0.5-0.3-1-0.5-1.4c-0.6-1.5-1.6-2.9-3.1-4.1c-0.2-0.2-0.5-0.3-0.7-0.5
						c-0.7-0.5-1.5-1-2.4-1.3c-1.6-0.7-3.3-1.1-5.2-1.1c-2.9,0-5.3,0.8-7.3,2.3c-0.2,0.2-0.5,0.4-0.7,0.5c-1.2,1.2-2.1,2.5-2.6,4
						H3.2v-1.1c0-0.4,0-0.8,0-1.1c0-0.8,0.2-1.6,0.5-2.4l0.1-0.3c0.5-1.1,1.3-2,2.2-3c2.1-1.9,4.7-2.8,7.8-2.8c1.8,0,3.4,0.3,5,1
						c1,0.4,2,1,3,1.8C22.8,11.5,23.7,12.5,24.3,13.6z"/>
					<path fill-rule="evenodd" clip-rule="evenodd" fill="#333333" d="M25.7,19.8l0,0.3c0,0.3,0.1,0.6,0.1,1
						c0.1,0.6,0.1,1.2-0.1,1.9L25,19.4c-0.6-1.7-1.5-3-2.8-4c-0.7-0.7-1.5-1.2-2.4-1.6c-0.2-0.1-0.5-0.2-0.7-0.3
						c-1.6-0.7-3.3-1-5.2-1c-2.2,0-4.1,0.5-5.8,1.3c-0.7,0.4-1.5,1-2.2,1.6c-1.1,1-1.9,2.3-2.4,4l-0.3,3.5C3,22,2.9,21.4,2.9,21.3
						c0-0.1,0-0.3,0-0.3c0-0.3,0-0.7,0-1c0-0.2,0-0.4,0.2-0.5v-0.1c0-0.1,0-0.1,0-0.2c0-0.3,0.1-0.6,0.2-0.8c0.5-1.5,1.4-2.8,2.6-4
						c0.2-0.2,0.5-0.3,0.7-0.5c2-1.6,4.5-2.3,7.3-2.3c1.9,0,3.6,0.4,5.2,1.1c0.9,0.3,1.7,0.7,2.4,1.3c0.2,0.2,0.5,0.4,0.7,0.5
						c1.5,1.2,2.5,2.6,3.1,4.1C25.5,18.8,25.6,19.3,25.7,19.8z"/>
					<linearGradient id="SVGID_4_" gradientUnits="userSpaceOnUse" x1="1.8066" y1="30.6201" x2="28.9551" y2="28.9205">
						<stop  offset="0" style="stop-color:#725130"/>
						<stop  offset="3.137255e-002" style="stop-color:#704E32"/>
						<stop  offset="5.098039e-002" style="stop-color:#7C5B32"/>
						<stop  offset="0.1882" style="stop-color:#8C652A"/>
						<stop  offset="0.2392" style="stop-color:#8F8F8D"/>
						<stop  offset="0.4471" style="stop-color:#A9A9A7"/>
						<stop  offset="0.502" style="stop-color:#D1D1CF"/>
						<stop  offset="0.5961" style="stop-color:#ADAFA1"/>
						<stop  offset="0.651" style="stop-color:#18191D"/>
						<stop  offset="0.7098" style="stop-color:#232428"/>
						<stop  offset="0.8196" style="stop-color:#6B695D"/>
						<stop  offset="1" style="stop-color:#6A654F"/>
					</linearGradient>
					<path fill-rule="evenodd" clip-rule="evenodd" fill="url(#SVGID_4_)" d="M25.8,23l4.2,23.3c-0.5-2-1.6-3.8-3.2-5.5
						c-0.4-0.4-0.8-0.8-1.2-1.1c-1.2-1-2.5-1.7-3.9-2.3c-0.8-0.4-1.6-0.6-2.4-0.8c-1.3-0.3-2.7-0.5-4.1-0.5c0,0-0.1,0-0.2,0
						c-3.9,0-7.1,1.2-9.8,3.6c-1.3,1.2-2.3,2.6-3,4c-0.2,0.4-0.3,0.8-0.5,1.2H1.7l1.6-22l0.3-3.5c0.5-1.7,1.3-3,2.4-4
						c0.7-0.6,1.4-1.2,2.2-1.6c1.7-0.9,3.7-1.3,5.8-1.3c1.9,0,3.6,0.3,5.2,1c0.2,0.1,0.4,0.2,0.7,0.3c0.9,0.4,1.7,0.9,2.4,1.6
						c1.3,1,2.2,2.3,2.8,4L25.8,23z"/>
					
						<linearGradient id="SVGID_5_" gradientUnits="userSpaceOnUse" x1="-20.0869" y1="45.4746" x2="12.0381" y2="45.4746" gradientTransform="matrix(1 0 5.099778e-002 1 17.492 0)">
						<stop  offset="0" style="stop-color:#3E3838"/>
						<stop  offset="4.705882e-002" style="stop-color:#6A6A6A"/>
						<stop  offset="0.1098" style="stop-color:#3E3B32"/>
						<stop  offset="0.2196" style="stop-color:#5B5B53"/>
						<stop  offset="0.298" style="stop-color:#C5C8CB"/>
						<stop  offset="0.3608" style="stop-color:#8695AA"/>
						<stop  offset="0.5882" style="stop-color:#ACADB1"/>
						<stop  offset="0.6902" style="stop-color:#626874"/>
						<stop  offset="0.7765" style="stop-color:#8A95A7"/>
						<stop  offset="1" style="stop-color:#535768"/>
					</linearGradient>
					<path fill-rule="evenodd" clip-rule="evenodd" fill="url(#SVGID_5_)" d="M1.6,46l0.1-1.1h0.1c0,0.1,0,0.1,0,0.2
						C1.7,45.4,1.6,45.8,1.6,46z"/>
					<linearGradient id="SVGID_6_" gradientUnits="userSpaceOnUse" x1="1.5293" y1="42.25" x2="29.9043" y2="42.25">
						<stop  offset="0" style="stop-color:#857D72"/>
						<stop  offset="0.3451" style="stop-color:#938F86"/>
						<stop  offset="0.3804" style="stop-color:#55544F"/>
						<stop  offset="0.4471" style="stop-color:#B3BAC2"/>
						<stop  offset="0.5529" style="stop-color:#BFC1C0"/>
						<stop  offset="0.7137" style="stop-color:#9B9C9A"/>
						<stop  offset="0.8235" style="stop-color:#504748"/>
						<stop  offset="1" style="stop-color:#645A59"/>
					</linearGradient>
					<path fill-rule="evenodd" clip-rule="evenodd" fill="url(#SVGID_6_)" d="M1.9,47H1.5c0-0.3,0-0.6,0.1-0.9c0-0.3,0.1-0.6,0.1-1
						c0-0.1,0-0.1,0-0.2c0.1-0.4,0.3-0.8,0.5-1.2c0.6-1.5,1.6-2.8,3-4c2.7-2.4,5.9-3.6,9.8-3.6c0.1,0,0.1,0,0.2,0
						c1.4,0,2.8,0.2,4.1,0.5c0.8,0.2,1.6,0.4,2.4,0.8c1.4,0.6,2.7,1.3,3.9,2.3c0.4,0.4,0.8,0.8,1.2,1.1c1.6,1.6,2.7,3.4,3.2,5.5
						c0,0,0,0.1,0,0.2c0.1,0.6,0.2,1.2,0.2,1.9l-0.1,0.1c-0.2-0.7-0.4-1.3-0.7-1.9c-0.8-1.8-2-3.4-3.8-4.8c-1.2-1-2.5-1.7-4-2.3
						c-0.2-0.1-0.3-0.1-0.5-0.2c-0.8-0.3-1.7-0.6-2.6-0.8c-1-0.2-2.1-0.4-3.3-0.4c-3.9,0-7.3,1.2-10,3.6c-0.8,0.8-1.5,1.6-2.1,2.5
						c0,0,0,0,0,0c-0.2,0.3-0.4,0.7-0.5,1C2.3,45.8,2,46.3,1.9,47z"/>
					<linearGradient id="SVGID_7_" gradientUnits="userSpaceOnUse" x1="1.4795" y1="46.3496" x2="30.2432" y2="46.3496">
						<stop  offset="0" style="stop-color:#523C25"/>
						<stop  offset="0.4118" style="stop-color:#B3BAC2"/>
						<stop  offset="0.4392" style="stop-color:#FFFFFF"/>
						<stop  offset="0.7137" style="stop-color:#9B9C9A"/>
						<stop  offset="1" style="stop-color:#645A59"/>
					</linearGradient>
					<path fill-rule="evenodd" clip-rule="evenodd" fill="url(#SVGID_7_)" d="M3.1,54l-0.9-0.1c-0.4-1.1-0.7-2.3-0.7-3.5
						c-0.1-0.4-0.1-0.7,0-1c0-0.4,0-0.7,0.1-1c0-0.5,0.1-1,0.2-1.5c0.2-0.6,0.4-1.2,0.7-1.7c0.1-0.3,0.3-0.7,0.5-1c0,0,0,0,0,0
						c0.6-0.9,1.3-1.7,2.1-2.5c2.7-2.4,6.1-3.6,10-3.6c1.2,0,2.3,0.1,3.3,0.4c0.9,0.2,1.8,0.4,2.6,0.8c0.2,0.1,0.3,0.1,0.5,0.2
						c1.4,0.6,2.7,1.3,4,2.3c1.8,1.4,3,3,3.8,4.8c0.2,0.6,0.5,1.2,0.7,1.9c0,0.3,0.1,0.6,0.1,1c0,0.3,0,0.6,0,1c0,0.1,0,0.2,0,0.3
						c0.1,1.4-0.1,2.7-0.5,3.8c-0.3-0.4-0.7-0.8-1-1.1l-0.8-4.1c-0.4-2.2-1.7-4.2-3.8-5.8c-1.1-0.9-2.2-1.5-3.3-2
						c-1.6-0.7-3.4-1-5.4-1c-0.1,0-0.1,0-0.2,0c-3.2,0-5.9,1-8.1,3c-1.5,1.3-2.4,2.7-2.8,4.3c0,0.1,0,0.3,0,0.4
						c-0.1,0.3-0.1,0.6-0.1,1L3.1,54z"/>
					
						<linearGradient id="SVGID_8_" gradientUnits="userSpaceOnUse" x1="-19.749" y1="48.1758" x2="8.751" y2="48.1758" gradientTransform="matrix(1 0 5.263158e-002 1 18.0522 0)">
						<stop  offset="0" style="stop-color:#857D72"/>
						<stop  offset="0.3451" style="stop-color:#938F86"/>
						<stop  offset="0.3804" style="stop-color:#55544F"/>
						<stop  offset="0.4471" style="stop-color:#B3BAC2"/>
						<stop  offset="0.5529" style="stop-color:#BFC1C0"/>
						<stop  offset="0.7137" style="stop-color:#9B9C9A"/>
						<stop  offset="0.8235" style="stop-color:#504748"/>
						<stop  offset="1" style="stop-color:#645A59"/>
					</linearGradient>
					<path fill-rule="evenodd" clip-rule="evenodd" fill="url(#SVGID_8_)" d="M1.9,47c-0.1,0.5-0.2,1-0.2,1.5
						c-0.1,0.3-0.1,0.6-0.1,1c-0.1-0.4-0.2-0.7-0.2-1.1c0-0.5,0-0.9,0-1.4H1.9z"/>
					<linearGradient id="SVGID_9_" gradientUnits="userSpaceOnUse" x1="1.9473" y1="48.4111" x2="31.5207" y2="46.3391">
						<stop  offset="0" style="stop-color:#725130"/>
						<stop  offset="3.137255e-002" style="stop-color:#704E32"/>
						<stop  offset="5.098039e-002" style="stop-color:#7C5B32"/>
						<stop  offset="0.1882" style="stop-color:#8C652A"/>
						<stop  offset="0.2392" style="stop-color:#8F8F8D"/>
						<stop  offset="0.4471" style="stop-color:#A9A9A7"/>
						<stop  offset="0.502" style="stop-color:#D1D1CF"/>
						<stop  offset="0.5961" style="stop-color:#ADAFA1"/>
						<stop  offset="0.651" style="stop-color:#18191D"/>
						<stop  offset="0.7098" style="stop-color:#232428"/>
						<stop  offset="0.8196" style="stop-color:#6B695D"/>
						<stop  offset="1" style="stop-color:#6A654F"/>
					</linearGradient>
					<path fill-rule="evenodd" clip-rule="evenodd" fill="url(#SVGID_9_)" d="M28.7,53.5c-0.2-0.3-0.5-0.5-0.7-0.7
						c-0.2-0.1-0.3-0.3-0.5-0.4c-1.4-1-2.8-1.8-4.4-2.3c-1-0.2-2-0.4-3-0.6c-0.3-0.1-0.7-0.1-1-0.2c-0.8-0.1-1.6-0.2-2.4-0.2
						c-0.3,0-0.5,0-0.8,0h-0.1c-0.1,0-0.1,0-0.2,0c-4.2,0-7.7,1.3-10.6,3.8c-0.1,0-0.2,0.1-0.2,0.1c-0.1,0.1-0.2,0.3-0.4,0.4
						c-0.3,0.3-0.6,0.6-0.9,1c-0.2,0.3-0.4,0.5-0.6,0.8l0.3-1l1-4.8c0-0.3,0-0.7,0.1-1c0-0.1,0-0.3,0-0.4c0.4-1.6,1.3-3,2.8-4.3
						c2.2-2,4.9-3,8.1-3c0.1,0,0.1,0,0.2,0c2,0,3.8,0.4,5.4,1c1.1,0.5,2.2,1.1,3.3,2c2.1,1.6,3.3,3.6,3.8,5.8L28.7,53.5z"/>
					<linearGradient id="SVGID_10_" gradientUnits="userSpaceOnUse" x1="0.6416" y1="56.0996" x2="32.4916" y2="56.0996">
						<stop  offset="0" style="stop-color:#857D72"/>
						<stop  offset="0.3451" style="stop-color:#938F86"/>
						<stop  offset="0.3804" style="stop-color:#55544F"/>
						<stop  offset="0.4471" style="stop-color:#B3BAC2"/>
						<stop  offset="0.5529" style="stop-color:#BFC1C0"/>
						<stop  offset="0.7137" style="stop-color:#9B9C9A"/>
						<stop  offset="0.8235" style="stop-color:#504748"/>
						<stop  offset="1" style="stop-color:#645A59"/>
					</linearGradient>
					<path fill-rule="evenodd" clip-rule="evenodd" fill="url(#SVGID_10_)" d="M0.9,62.4H0.8c0-0.4,0-0.7,0-1.1c0-0.2,0-0.5,0.1-0.7
						c0.1-1.7,0.6-3.3,1.5-4.8c0.1-0.2,0.3-0.5,0.5-0.8v0c0.2-0.2,0.5-0.5,0.6-0.8c0.3-0.3,0.6-0.6,0.9-1c0.2-0.2,0.3-0.3,0.4-0.4
						c0,0,0.1-0.1,0.2-0.1c2.9-2.5,6.4-3.8,10.6-3.8c0.1,0,0.1,0,0.2,0H16c0.3,0,0.5,0,0.8,0c0.8,0,1.6,0.1,2.4,0.2
						c0.3,0.1,0.7,0.1,1,0.2c1,0.2,2,0.5,3,0.6c1.6,0.5,3,1.3,4.4,2.3c0.1,0.1,0.3,0.3,0.5,0.4c0.2,0.2,0.5,0.4,0.7,0.7
						c0.4,0.3,0.7,0.7,1,1.1c0.8,0.8,1.4,1.7,1.8,2.7c0.1,0.2,0.1,0.5,0.2,0.7c0.2,0.6,0.4,1.1,0.5,1.6c0.2,0.5,0.3,1.1,0.3,1.7
						c0,0.4,0,1-0.1,2l0-0.8c-0.1-0.4-0.1-0.7-0.2-1.1c-0.2-1.3-0.7-2.5-1.5-3.6c-0.7-1.1-1.7-2.2-2.8-3.2c-1.6-1.3-3.3-2.2-5.3-2.8
						c-0.8-0.3-1.7-0.5-2.6-0.6l-3.4-0.3c0,0-0.1,0-0.1,0h0c-0.1,0-0.3,0-0.5,0c0,0-0.1,0-0.1,0h0C12,50.8,8.7,51.8,6,54
						c-0.3,0.2-0.5,0.4-0.8,0.6c-0.1,0-0.1,0.1-0.2,0.1c0,0,0,0-0.1,0c-0.2,0.2-0.3,0.4-0.5,0.6c0,0,0,0,0,0.1
						c-0.3,0.2-0.5,0.5-0.8,0.8c-0.1,0.1-0.2,0.2-0.3,0.3c-0.3,0.4-0.6,0.8-0.9,1.2c-0.5,0.8-0.9,1.7-1.2,2.6
						C1.1,61,1,61.7,0.9,62.4z"/>
					<linearGradient id="SVGID_11_" gradientUnits="userSpaceOnUse" x1="17.8652" y1="74.1631" x2="14.3037" y2="47.1546">
						<stop  offset="0" style="stop-color:#5A523F"/>
						<stop  offset="1" style="stop-color:#A59674"/>
					</linearGradient>
					<path fill-rule="evenodd" clip-rule="evenodd" fill="url(#SVGID_11_)" d="M13.4,51.8L13.4,51.8c-2.9,0.5-5.4,1.6-7.5,3.4
						c-0.8,0.7-1.4,1.3-2,2h0c-0.2,0.3-0.4,0.5-0.5,0.8c-0.3,0.5-0.6,1-0.8,1.5c-0.6,1.2-0.9,2.4-1,3.8v0c-0.1,0.3-0.1,0.6-0.1,0.9
						v0c0,1.7,0.4,3.3,1.1,4.8c0.2,0.6,0.5,1.1,0.9,1.7c0,0,0.1,0,0.1,0l0,0c0.3,0.5,0.7,0.9,1.1,1.4l0,0c0.3,0.4,0.7,0.7,1.1,1
						c0.1,0.1,0.3,0.2,0.4,0.3l0.1,0.1c0.6,0.4,1.1,0.8,1.8,1.3c0.9,0.5,1.9,0.9,3,1.3c1,0.3,2,0.6,3.2,0.7l0.1-0.2v0.2
						c0.7,0.1,1.3,0.2,2,0.2c0.3,0,0.6,0,1,0c0.6-0.1,1.2-0.1,1.8-0.2c0.4,0,0.8-0.1,1.1-0.1h0l0-0.1c1.1-0.3,2.1-0.6,3.1-1
						c1.3-0.6,2.5-1.4,3.7-2.3c1.1-1,2.1-2.1,2.9-3.2c1-1.7,1.5-3.5,1.5-5.5h0c0-0.1,0-0.2,0-0.3V64c0-0.2,0-0.4,0-0.6
						c0-0.2,0-0.4,0-0.7c-0.3-2-1.2-3.9-2.5-5.6v-0.1c-0.4-0.5-0.8-0.9-1.3-1.3c-0.2-0.2-0.4-0.3-0.6-0.5c-0.1-0.1-0.2-0.1-0.3-0.2
						c-1.2-1-2.6-1.8-4-2.3c0,0,0,0,0,0c-1.4-0.5-2.8-0.9-4.5-1c-0.6-0.1-1.2-0.2-1.8-0.2c-0.1,0-0.2,0-0.4,0
						C15.1,51.5,14.2,51.6,13.4,51.8z M0.8,62.5c0,0.2,0,0.5,0.1,0.8c0-0.3,0-0.6,0-0.9c0-0.7,0.2-1.4,0.3-2.1
						c0.3-0.9,0.7-1.8,1.2-2.6c0.3-0.4,0.6-0.8,0.9-1.2c0.1-0.1,0.1-0.2,0.3-0.3c0.2-0.3,0.5-0.6,0.8-0.8c0,0,0-0.1,0-0.1
						c0.2-0.2,0.4-0.4,0.5-0.6c0.1,0,0.1,0,0.1,0c0,0,0.1-0.1,0.2-0.1C5.4,54.4,5.7,54.2,6,54c2.7-2.2,6-3.3,9.9-3.3h0
						c0,0,0.1,0,0.1,0c0.2,0,0.3,0,0.5,0h0c0,0,0.1,0,0.1,0l3.4,0.3c0.9,0.1,1.8,0.3,2.6,0.6c2,0.6,3.7,1.6,5.3,2.8
						c1.1,1,2,2.1,2.8,3.2c0.8,1.1,1.3,2.3,1.5,3.6c0,0.4,0.1,0.7,0.2,1.1h-0.2c0,0.1,0,0.3,0,0.4c0,0.1,0,0.2,0.1,0.3
						c0,0,0,0.1,0,0.2v0c0,0,0,0.1,0,0.1c0,0.2,0,0.5,0,0.7v0.2c0,0.1,0,0.1,0,0.3c0,2.6-0.9,5-2.5,7.1l-2,2c-0.1,0-0.2,0.1-0.3,0.2
						c-0.5,0.4-1,0.8-1.5,1.2c-0.9,0.6-1.8,1-2.7,1.5c-0.7,0.3-1.4,0.5-2.1,0.8l-2.2,0.4c-0.3,0-0.5,0-0.8,0c-0.1,0-0.1,0-0.2,0.1
						c-0.3,0-0.6,0-0.9,0h-0.1v0c-0.2,0-0.3,0-0.4,0h-0.1c-0.1,0-0.2,0-0.3,0c0,0-0.1,0-0.1,0h-0.2c-0.2,0-0.4,0-0.6,0
						c-0.5,0-1-0.1-1.5-0.2h0c-1.1-0.1-2.2-0.4-3.2-0.7h-0.1c-1.1-0.3-2.1-0.8-3-1.3l0,0c-0.6-0.4-1.3-0.8-1.8-1.2
						c-0.1-0.1-0.1-0.2-0.2-0.2c-0.1-0.1-0.3-0.2-0.4-0.3c-0.4-0.4-0.8-0.7-1.1-1c-2.3-2.4-3.5-5.2-3.5-8.5v0c0-0.3,0-0.5,0-0.9
						C0.7,63,0.7,62.8,0.8,62.5z"/>
					<linearGradient id="SVGID_12_" gradientUnits="userSpaceOnUse" x1="16.4668" y1="75.1748" x2="16.4668" y2="56.2248">
						<stop  offset="0" style="stop-color:#111111"/>
						<stop  offset="1" style="stop-color:#262626"/>
					</linearGradient>
					<path fill-rule="evenodd" clip-rule="evenodd" fill="url(#SVGID_12_)" d="M13.4,51.8c0.8-0.2,1.7-0.3,2.5-0.3
						c0.2,0,0.3,0,0.4,0c0.6,0,1.3,0,1.8,0.2c1.6,0.1,3.1,0.5,4.5,1c0,0,0,0,0,0c1.5,0.5,2.8,1.3,4,2.3c0.1,0,0.2,0.1,0.3,0.2
						c0.2,0.2,0.4,0.4,0.6,0.5c0.5,0.4,0.9,0.9,1.3,1.3v0.1c1.4,1.7,2.3,3.6,2.5,5.6c0,0.2,0,0.5,0,0.7c0,0.2,0,0.4,0,0.6v0.2
						c0,0.1,0,0.3,0,0.3h0c0,2-0.5,3.8-1.5,5.5c-0.8,1.1-1.7,2.2-2.9,3.2c-1.2,1-2.4,1.8-3.7,2.3c-1,0.4-2,0.7-3.1,1l0,0.1h0
						c-0.4,0.1-0.8,0.1-1.1,0.1c-0.6,0.1-1.2,0.1-1.8,0.2c-0.3,0-0.7,0-1,0c-0.7,0-1.4,0-2-0.2v-0.2l-0.1,0.2
						c-1.2-0.1-2.2-0.4-3.2-0.7c-1.1-0.3-2.1-0.7-3-1.3c-0.6-0.4-1.2-0.8-1.8-1.3l-0.1-0.1c-0.1-0.1-0.3-0.3-0.4-0.3
						c-0.4-0.3-0.8-0.6-1.1-1l0,0c-0.4-0.5-0.8-0.9-1.1-1.4l0,0c0,0,0,0-0.1,0c-0.4-0.6-0.7-1.1-0.9-1.7c-0.7-1.5-1.1-3-1.1-4.8v0
						c0-0.3,0-0.5,0.1-0.9v0c0.1-1.3,0.4-2.6,1-3.8c0.2-0.5,0.4-1,0.8-1.5c0.2-0.3,0.3-0.6,0.5-0.8h0c0.5-0.7,1.2-1.4,2-2
						C8,53.4,10.6,52.3,13.4,51.8L13.4,51.8z"/>
					<path fill-rule="evenodd" clip-rule="evenodd" fill="#8B7F67" d="M32.4,63.2c0-0.1,0-0.1,0-0.2c-0.1-0.1-0.1-0.2-0.1-0.3
						c0-0.1,0-0.3,0-0.4h0.2c0,0.1,0,0.3,0,0.4C32.3,63,32.3,63.1,32.4,63.2z M0.8,62.4h0.2c-0.1,0.3-0.1,0.6,0,0.9
						c-0.1-0.3-0.1-0.5-0.1-0.8C0.8,62.5,0.8,62.4,0.8,62.4z"/>
					
						<radialGradient id="SVGID_13_" cx="-16.2559" cy="53.75" r="37.1" gradientTransform="matrix(1 0 5.020216e-002 0.9825 17.5742 0.9417)" gradientUnits="userSpaceOnUse">
						<stop  offset="0" style="stop-color:#504444"/>
						<stop  offset="0.1725" style="stop-color:#9A8791"/>
						<stop  offset="0.3137" style="stop-color:#706464"/>
						<stop  offset="0.502" style="stop-color:#999999"/>
						<stop  offset="0.7255" style="stop-color:#CDCFDB"/>
						<stop  offset="0.8549" style="stop-color:#D5DAF0"/>
						<stop  offset="1" style="stop-color:#FEFFFF"/>
					</radialGradient>
					<path fill-rule="evenodd" clip-rule="evenodd" fill="url(#SVGID_13_)" d="M2.3,53.9L3.1,54l-0.3,1v0
						C2.6,54.7,2.4,54.3,2.3,53.9z"/>
				</g>
			</g>
			<g>
				<g>
					<path fill-rule="evenodd" clip-rule="evenodd" fill="#7B7B7B" d="M22.9,64.7c0,1.5-0.6,2.8-1.8,3.8c-1.2,1-2.8,1.5-4.6,1.5
						c-1.7,0-3.2-0.5-4.5-1.5c-1.3-1.1-1.9-2.4-1.9-3.9c0-1.5,0.7-2.7,2-3.8c1.3-1,2.8-1.5,4.5-1.5c1.8,0,3.4,0.5,4.6,1.5
						C22.3,61.9,22.9,63.2,22.9,64.7z M22.1,64.7c0-1.3-0.5-2.5-1.5-3.4c-1.1-0.9-2.5-1.3-4-1.3c-1.5,0-2.8,0.4-4,1.3
						c-1.1,0.9-1.7,2-1.7,3.4c0,1.3,0.5,2.5,1.6,3.4c1.1,0.9,2.4,1.4,3.9,1.4c1.6,0,2.9-0.5,4-1.4C21.6,67.1,22.1,66,22.1,64.7z"/>
					<path fill-rule="evenodd" clip-rule="evenodd" fill="#262626" d="M22.1,64.7c0,1.3-0.5,2.5-1.6,3.4c-1.1,0.9-2.4,1.4-4,1.4
						c-1.5,0-2.8-0.5-3.9-1.4C11.5,67.1,11,66,11,64.7c0-1.3,0.5-2.5,1.7-3.4c1.1-0.9,2.5-1.3,4-1.3c1.6,0,2.9,0.4,4,1.3
						C21.7,62.2,22.2,63.3,22.1,64.7z"/>
				</g>
			</g>
		</g>
		<g>
			<g>
				
					<radialGradient id="SVGID_14_" cx="-361.4189" cy="-943.7183" r="2.3726" gradientTransform="matrix(-0.6059 0.7956 -1.5015 -0.9483 -1611.8928 -566.8389)" gradientUnits="userSpaceOnUse">
					<stop  offset="0" style="stop-color:#FFFFFF"/>
					<stop  offset="0.149" style="stop-color:#FFFFFF"/>
					<stop  offset="0.2706" style="stop-color:#FFFFFF;stop-opacity:0.6235"/>
					<stop  offset="0.5216" style="stop-color:#FEFEFE;stop-opacity:0.1686"/>
					<stop  offset="0.8" style="stop-color:#FEFEFE;stop-opacity:0"/>
					<stop  offset="1" style="stop-color:#FAFAFA;stop-opacity:0"/>
				</radialGradient>
				<path fill-rule="evenodd" clip-rule="evenodd" fill="url(#SVGID_14_)" d="M22.5,37.6c0.9,0,1.8,0.4,2.8,1c0.9,0.6,1.6,1.3,2,2.1
					c0.4,0.8,0.4,1.4,0,1.9c-0.4,0.5-1,0.8-2,0.7c-1,0-1.9-0.3-2.8-0.9c-0.9-0.6-1.6-1.3-1.9-2.1c-0.4-0.8-0.4-1.5,0-2
					C20.8,37.8,21.5,37.6,22.5,37.6z"/>
				
					<radialGradient id="SVGID_15_" cx="-35.6514" cy="-816.5864" r="3.0044" gradientTransform="matrix(-5.408737e-002 0.9985 -1.7974 3.328454e-002 -1455.5156 113.5787)" gradientUnits="userSpaceOnUse">
					<stop  offset="0" style="stop-color:#FFFFFF"/>
					<stop  offset="0.149" style="stop-color:#FFFFFF"/>
					<stop  offset="0.2706" style="stop-color:#FFFFFF;stop-opacity:0.6235"/>
					<stop  offset="0.5216" style="stop-color:#FEFEFE;stop-opacity:0.1686"/>
					<stop  offset="0.8" style="stop-color:#FEFEFE;stop-opacity:0"/>
					<stop  offset="1" style="stop-color:#FAFAFA;stop-opacity:0"/>
				</radialGradient>
				<path fill-rule="evenodd" clip-rule="evenodd" fill="url(#SVGID_15_)" d="M8.6,50.8c0-0.8,0.6-1.5,1.7-2.1
					c1-0.6,2.2-0.8,3.7-0.8c1.4,0,2.6,0.2,3.6,0.7c0.9,0.6,1.4,1.3,1.4,2.1s-0.5,1.5-1.5,2.1c-1.1,0.6-2.4,1-3.8,1
					c-1.4,0-2.6-0.3-3.5-0.8C9,52.3,8.5,51.7,8.6,50.8z"/>
				
					<radialGradient id="SVGID_16_" cx="-292.8872" cy="-946.7861" r="2.4997" gradientTransform="matrix(-0.5501 0.8351 -1.7552 -0.9551 -1809.8312 -591.2107)" gradientUnits="userSpaceOnUse">
					<stop  offset="0" style="stop-color:#FFFFFF"/>
					<stop  offset="0.149" style="stop-color:#FFFFFF"/>
					<stop  offset="0.2706" style="stop-color:#FFFFFF;stop-opacity:0.6235"/>
					<stop  offset="0.5216" style="stop-color:#FEFEFE;stop-opacity:0.1686"/>
					<stop  offset="0.8" style="stop-color:#FEFEFE;stop-opacity:0"/>
					<stop  offset="1" style="stop-color:#FAFAFA;stop-opacity:0"/>
				</radialGradient>
				<path fill-rule="evenodd" clip-rule="evenodd" fill="url(#SVGID_16_)" d="M8.9,68.3c-0.6-0.9-0.7-1.6-0.3-2.2
					c0.4-0.5,1.1-0.8,2.3-0.8c1,0,2.1,0.3,3.3,1c1.1,0.6,2,1.4,2.6,2.2c0.5,0.9,0.6,1.6,0.3,2.2c-0.4,0.5-1.1,0.8-2.2,0.8
					c-1.1,0-2.3-0.4-3.4-1C10.3,69.8,9.4,69.1,8.9,68.3z"/>
			</g>
		</g>
	</g>
</g>
</svg>
