<?xml version="1.0" encoding="utf-8"?>
<!-- Generator: Adobe Illustrator 16.0.0, SVG Export Plug-In . SVG Version: 6.00 Build 0)  -->
<!DOCTYPE svg PUBLIC "-//W3C//DTD SVG 1.1//EN" "http://www.w3.org/Graphics/SVG/1.1/DTD/svg11.dtd">
<svg version="1.1" id="Layer_1" xmlns="http://www.w3.org/2000/svg" xmlns:xlink="http://www.w3.org/1999/xlink" x="0px" y="0px"
	 width="700px" height="700px" viewBox="0 0 700 700" enable-background="new 0 0 700 700" xml:space="preserve">
<g id="Layer_3">
</g>
<g id="Layer_2">
	<g>
		<g>
			<g>
				
					<linearGradient id="SVGID_1_" gradientUnits="userSpaceOnUse" x1="-194.4814" y1="804.0127" x2="-194.4814" y2="843.5127" gradientTransform="matrix(1.1736 0 0 -1.1736 638.0927 1263.1866)">
					<stop  offset="0" style="stop-color:#685231"/>
					<stop  offset="1" style="stop-color:#8B6C41"/>
				</linearGradient>
				<polygon fill="url(#SVGID_1_)" points="577,311.1 260.2,311.1 250.3,311.1 235.8,311.1 221,311.1 208,311.1 185.2,311.1 
					155.4,311.1 155.4,296 664.3,296 664.3,311.1 634.9,311.1 611.6,311.1 602.6,311.1 600,311.1 584.8,311.1 				"/>
				
					<linearGradient id="SVGID_2_" gradientUnits="userSpaceOnUse" x1="-330.4307" y1="782.1113" x2="-45.4102" y2="782.1113" gradientTransform="matrix(1.1736 0 0 -1.1736 638.0927 1263.1866)">
					<stop  offset="0" style="stop-color:#0C0905"/>
					<stop  offset="7.843138e-002" style="stop-color:#453321"/>
					<stop  offset="0.3608" style="stop-color:#463320"/>
					<stop  offset="1" style="stop-color:#685231"/>
				</linearGradient>
				<path fill="url(#SVGID_2_)" d="M584.8,311.1v68.5h-1.1l-6.7-16.8V311h7.8V311.1z M250.4,379.3l-0.1-68.2h9.9v52.5L250.4,379.3z"
					/>
				
					<linearGradient id="SVGID_3_" gradientUnits="userSpaceOnUse" x1="-194.3101" y1="835.3613" x2="-194.3101" y2="696.6613" gradientTransform="matrix(1.1736 0 0 -1.1736 638.0927 1263.1866)">
					<stop  offset="0" style="stop-color:#0C0905"/>
					<stop  offset="7.843138e-002" style="stop-color:#453321"/>
					<stop  offset="0.3608" style="stop-color:#7A6038"/>
					<stop  offset="1" style="stop-color:#9D7B48"/>
				</linearGradient>
				<path fill="url(#SVGID_3_)" d="M611.6,445.3V311.1h23.3v134.3h-23.3V445.3z M208,311.1v134.3h-22.8V311.1H208z M610.4,443.3
					l0.8,2.1h-0.8V443.3z"/>
				
					<linearGradient id="SVGID_4_" gradientUnits="userSpaceOnUse" x1="-26.5786" y1="835.3613" x2="-26.5786" y2="696.6613" gradientTransform="matrix(1.1736 0 0 -1.1736 638.0927 1263.1866)">
					<stop  offset="0" style="stop-color:#0C0905"/>
					<stop  offset="7.843138e-002" style="stop-color:#453321"/>
					<stop  offset="0.3608" style="stop-color:#574428"/>
					<stop  offset="1" style="stop-color:#7A6038"/>
				</linearGradient>
				<polygon fill="url(#SVGID_4_)" points="611.6,311.1 611.6,445.3 611.2,445.3 610.4,443.3 602.2,422.9 602.6,422.9 602.6,311.1 
									"/>
				
					<linearGradient id="SVGID_5_" gradientUnits="userSpaceOnUse" x1="-194.481" y1="890.8867" x2="-194.481" y2="826.5378" gradientTransform="matrix(1.1736 0 0 -1.1736 638.0927 1263.1866)">
					<stop  offset="0" style="stop-color:#685231"/>
					<stop  offset="1" style="stop-color:#9F7C2D"/>
				</linearGradient>
				<polygon fill="url(#SVGID_5_)" points="155.4,296 227.1,225.7 240.3,225.7 260.2,225.7 590.1,225.7 664.3,296 				"/>
				
					<linearGradient id="SVGID_6_" gradientUnits="userSpaceOnUse" x1="-187.6641" y1="835.3604" x2="-187.6641" y2="696.665" gradientTransform="matrix(1.1736 0 0 -1.1736 638.0927 1263.1866)">
					<stop  offset="0" style="stop-color:#0C0905"/>
					<stop  offset="7.843138e-002" style="stop-color:#453321"/>
					<stop  offset="0.3608" style="stop-color:#634D2E"/>
					<stop  offset="1" style="stop-color:#9D7B48"/>
				</linearGradient>
				<path fill="url(#SVGID_6_)" d="M584.8,379.6v-68.5H600v68.5H584.8z M250.3,311.1l0.1,68.2v0.3h-14.7v-68.5H250.3z"/>
				
					<linearGradient id="SVGID_7_" gradientUnits="userSpaceOnUse" x1="-360.9346" y1="835.3613" x2="-360.9346" y2="696.6613" gradientTransform="matrix(1.1736 0 0 -1.1736 638.0927 1263.1866)">
					<stop  offset="0" style="stop-color:#0C0905"/>
					<stop  offset="7.843138e-002" style="stop-color:#453321"/>
					<stop  offset="0.3608" style="stop-color:#634D2E"/>
					<stop  offset="1" style="stop-color:#7A6038"/>
				</linearGradient>
				<polygon fill="url(#SVGID_7_)" points="208,445.3 208,311.1 221,311.1 221,423.3 208.2,445.3 				"/>
				
					<linearGradient id="SVGID_8_" gradientUnits="userSpaceOnUse" x1="-360.3804" y1="835.4063" x2="-360.3804" y2="696.6608" gradientTransform="matrix(1.1736 0 0 -1.1736 638.0927 1263.1866)">
					<stop  offset="0" style="stop-color:#0C0905"/>
					<stop  offset="7.843138e-002" style="stop-color:#453321"/>
					<stop  offset="0.3608" style="stop-color:#634D2E"/>
					<stop  offset="1" style="stop-color:#7A6038"/>
				</linearGradient>
				<polygon fill="url(#SVGID_8_)" points="214.4,445.3 214.1,445.3 216.2,441.8 				"/>
			</g>
		</g>
		<g>
			<polygon fill="#666666" points="600,311.1 600,379.6 583.8,379.6 577,362.9 577,311.1 260.2,311.1 260.2,363.5 250.4,379.3 
				250.4,379.6 235.8,379.6 235.8,311.1 221,311.1 221,423.3 208.2,445.3 185.2,445.3 185.2,311.1 155.4,311.1 155.4,296 
				227.1,225.7 590.1,225.7 634.4,267.6 664.3,296 664.3,311.1 634.9,311.1 634.9,445.3 610.4,445.3 602.7,423.5 602.6,311.1 			"/>
		</g>
		<g>
			<g>
				<rect x="155.4" y="296" fill="#9F5318" width="508.9" height="15.1"/>
				
					<linearGradient id="SVGID_9_" gradientUnits="userSpaceOnUse" x1="-194.481" y1="890.8867" x2="-194.481" y2="826.5378" gradientTransform="matrix(1.1736 0 0 -1.1736 638.0927 1263.1866)">
					<stop  offset="0" style="stop-color:#AA561A"/>
					<stop  offset="1" style="stop-color:#CC8126"/>
				</linearGradient>
				<polygon fill="url(#SVGID_9_)" points="664.3,296 155.4,296 227.1,225.7 590.1,225.7 				"/>
			</g>
		</g>
		<g>
			<g>
				<path fill="#58330E" d="M583.8,311.1v68.5h-0.1l-6.7-16.8V311h6.8V311.1z M249.3,379.6v-68.5h10.9v52.5l-9.8,15.8v0.3h-1.1
					V379.6z"/>
				
					<linearGradient id="SVGID_10_" gradientUnits="userSpaceOnUse" x1="-13.2388" y1="813.0596" x2="-13.197" y2="782.3596" gradientTransform="matrix(1.1736 0 0 -1.1736 638.0927 1263.1866)">
					<stop  offset="0" style="stop-color:#7E4813"/>
					<stop  offset="1" style="stop-color:#CC8126"/>
				</linearGradient>
				<polygon fill="url(#SVGID_10_)" points="610.4,445.2 610.4,311.1 634.9,311.1 634.9,445.3 610.4,445.3 				"/>
				<path fill="#704112" d="M610.4,445.2l-7.7-21.7l-0.1-112.4h7.9L610.4,445.2z M208.7,311.1H221v112.3l-12.4,21.3V311.1H208.7z"/>
				
					<linearGradient id="SVGID_11_" gradientUnits="userSpaceOnUse" x1="-39.2222" y1="762.1738" x2="-39.5836" y2="801.9489" gradientTransform="matrix(1.1736 0 0 -1.1736 638.0927 1263.1866)">
					<stop  offset="0" style="stop-color:#CC8126"/>
					<stop  offset="1" style="stop-color:#3A2C09"/>
				</linearGradient>
				<rect x="583.8" y="311.1" fill="url(#SVGID_11_)" width="16.1" height="68.5"/>
				
					<linearGradient id="SVGID_12_" gradientUnits="userSpaceOnUse" x1="-376.9395" y1="813.4746" x2="-375.552" y2="735.0236" gradientTransform="matrix(1.1736 0 0 -1.1736 638.0927 1263.1866)">
					<stop  offset="0" style="stop-color:#7E4813"/>
					<stop  offset="1" style="stop-color:#CC8126"/>
				</linearGradient>
				<polygon fill="url(#SVGID_12_)" points="208.7,311.1 208.7,444.6 208.2,445.3 185.2,445.3 185.2,311.1 				"/>
				
					<linearGradient id="SVGID_13_" gradientUnits="userSpaceOnUse" x1="-336.8896" y1="772.2568" x2="-337.248" y2="806.9814" gradientTransform="matrix(1.1736 0 0 -1.1736 638.0927 1263.1866)">
					<stop  offset="0" style="stop-color:#CC8126"/>
					<stop  offset="1" style="stop-color:#3A2C09"/>
				</linearGradient>
				<rect x="235.8" y="311.1" fill="url(#SVGID_13_)" width="13.6" height="68.5"/>
			</g>
		</g>
		<g>
			<g>
				<line fill="none" x1="583.8" y1="377.5" x2="583.8" y2="311.3"/>
				<line fill="none" x1="610.4" y1="315" x2="610.4" y2="435.9"/>
				<line fill="none" x1="249.3" y1="379.6" x2="249.3" y2="315"/>
				<line fill="none" x1="208.2" y1="312.9" x2="208.2" y2="444.2"/>
				<line fill="none" x1="163.6" y1="295.6" x2="658.5" y2="295.6"/>
			</g>
		</g>
	</g>
	<g>
		<g>
			<polygon fill-opacity="0.102" points="588.2,226.5 636.5,272.5 250.2,273 238.1,254.1 252.4,226.5 			"/>
		</g>
		<g>
			
				<linearGradient id="SVGID_14_" gradientUnits="userSpaceOnUse" x1="-297.0903" y1="816.9805" x2="-255.2379" y2="808.0914" gradientTransform="matrix(1.5949 0 0 -1.5949 748.0764 1526.3533)">
				<stop  offset="0" style="stop-color:#1C1F1F;stop-opacity:0"/>
				<stop  offset="0.3333" style="stop-color:#1B1E1E"/>
				<stop  offset="1" style="stop-color:#181B1B"/>
			</linearGradient>
			<polygon fill="url(#SVGID_14_)" points="638.9,272.4 259,272.9 259,240.6 604,240.6 			"/>
		</g>
		<g>
			<g>
				<g>
					<polygon fill="#7A4D30" points="604.3,216.7 300.8,216.7 300.7,216.7 298.7,216.7 298.7,212.2 604,212.2 604.3,212.5 					"/>
					
						<linearGradient id="SVGID_15_" gradientUnits="userSpaceOnUse" x1="-81.2207" y1="820.2178" x2="-85.2517" y2="790.8176" gradientTransform="matrix(1.5949 0 0 -1.5949 748.0764 1526.3533)">
						<stop  offset="0" style="stop-color:#6D452C"/>
						<stop  offset="1" style="stop-color:#000000"/>
					</linearGradient>
					<path fill="url(#SVGID_15_)" d="M604,212.2l16.4,15.2h-16.1v-10.8v-4.2L604,212.2z M627.5,264.1l-23.2-21.5l0,0V239h23.3
						L627.5,264.1L627.5,264.1z"/>
					
						<linearGradient id="SVGID_16_" gradientUnits="userSpaceOnUse" x1="-182.6128" y1="806.5986" x2="-182.481" y2="851.7236" gradientTransform="matrix(1.5949 0 0 -1.5949 748.0764 1526.3533)">
						<stop  offset="0" style="stop-color:#AD9430"/>
						<stop  offset="1" style="stop-color:#543623"/>
					</linearGradient>
					<path fill="url(#SVGID_16_)" d="M298.7,212.2L298.7,212.2l-9.3,15.2h9.3h2.1h0.1h303.4h16.1L604,212.2H298.7z M637.1,232.2
						H276.6l0,0l13.8-23.2l318.9-0.1L637.1,232.2L637.1,232.2z"/>
					
						<linearGradient id="SVGID_17_" gradientUnits="userSpaceOnUse" x1="-182.5981" y1="821.2217" x2="-182.5981" y2="779.6217" gradientTransform="matrix(1.5949 0 0 -1.5949 748.0764 1526.3533)">
						<stop  offset="0" style="stop-color:#997E2D"/>
						<stop  offset="1" style="stop-color:#543623"/>
					</linearGradient>
					<path fill="url(#SVGID_17_)" d="M276.6,232.2h360.5v39.6H276.6V232.2z M285.8,264.1h341.7v-25.2h-23.3l-60,0.5l-245.5-0.5
						h-12.8v25.2H285.8z"/>
					
						<linearGradient id="SVGID_18_" gradientUnits="userSpaceOnUse" x1="-182.7231" y1="792.1719" x2="-182.7231" y2="805.1719" gradientTransform="matrix(1.5949 0 0 -1.5949 748.0764 1526.3533)">
						<stop  offset="0" style="stop-color:#705327"/>
						<stop  offset="0.4" style="stop-color:#362216"/>
						<stop  offset="1" style="stop-color:#000000"/>
					</linearGradient>
					<polygon fill="url(#SVGID_18_)" points="627.5,264.1 285.8,264.1 298.6,242.6 298.7,242.6 604.3,242.6 					"/>
					
						<linearGradient id="SVGID_19_" gradientUnits="userSpaceOnUse" x1="-273.5308" y1="809.8896" x2="-285.6587" y2="819.9611" gradientTransform="matrix(1.5949 0 0 -1.5949 748.0764 1526.3533)">
						<stop  offset="0" style="stop-color:#6D452C"/>
						<stop  offset="1" style="stop-color:#543623"/>
					</linearGradient>
					<path fill="url(#SVGID_19_)" d="M300.7,216.7L300.7,216.7L300.7,216.7C300.8,216.7,300.8,216.7,300.7,216.7z M300.7,227.4
						C300.8,227.4,300.8,227.4,300.7,227.4L300.7,227.4L300.7,227.4z M298.7,216.7v10.8h-9.3l9.2-15.2h0.1V216.7L298.7,216.7z"/>
					
						<linearGradient id="SVGID_20_" gradientUnits="userSpaceOnUse" x1="-283.7285" y1="797.6094" x2="-295.8565" y2="807.6808" gradientTransform="matrix(1.5949 0 0 -1.5949 748.0764 1526.3533)">
						<stop  offset="0" style="stop-color:#110A06"/>
						<stop  offset="1" style="stop-color:#060302"/>
					</linearGradient>
					<polygon fill="url(#SVGID_20_)" points="298.6,242.6 285.8,264.1 285.8,238.9 298.7,238.9 298.7,242.5 					"/>
					<polygon fill="#8E6138" points="298.7,242.6 298.6,242.6 298.7,242.5 					"/>
				</g>
			</g>
			<g>
				<g>
					
						<path fill="none" stroke="#3A2304" stroke-width="0.25" stroke-linecap="round" stroke-linejoin="round" stroke-miterlimit="3" d="
						M459.3,237.3v1.8 M458,237.3v1.8 M458.6,237.3v1.8 M460.6,237.3v1.8 M457.4,237.3v1.8 M459.9,236.6v2.6 M461.9,237.3v1.8
						 M462.5,237.3v1.8 M464.4,237.3v1.8 M463.8,237.3v1.8 M461.2,237.3v1.8 M463.2,237v2.2 M465.7,237.3v1.8 M465.1,237.3v1.8
						 M467.6,237.3v1.8 M468.3,237.3v1.8 M467,237.3v1.8 M466.4,236.6v2.6 M470.2,237.3v1.8 M469.6,237v2.2 M470.8,237.3v1.8
						 M468.9,237.3v1.8 M472.7,236.6v2.6 M471.5,237.3v1.8 M472.1,237.3v1.8 M473.5,237.3v1.8 M474.7,237.3v1.8 M474.1,237.3v1.8
						 M475.4,237.3v1.8 M476.7,237.3v1.8 M476.1,237v2.2 M478.6,237.3v1.8 M477.3,237.3v1.8 M478,237.3v1.8 M479.8,237.3v1.8
						 M480.5,237.3v1.8 M479.3,236.6v2.6 M484.3,237.3v1.8 M482.4,237v2.2 M485,237.3v1.8 M483,237.3v1.8 M481.1,237.3v1.8
						 M481.8,237.3v1.8 M483.7,237.3v1.8 M487.7,237.3v1.8 M486.3,237.3v1.8 M486.9,237.3v1.8 M488.9,237v2.2 M485.6,236.6v2.6
						 M488.2,237.3v1.8 M489.6,237.3v1.8 M490.9,237.3v1.8 M490.1,237.3v1.8 M492.8,237.3v1.8 M491.4,237.3v1.8 M492.1,236.6v2.6
						 M493.3,237.3v1.8 M494.6,237.3v1.8 M496.5,237.3v1.8 M496,237.3v1.8 M495.3,237v2.2 M494,237.3v1.8 M499.2,237.3v1.8
						 M497.2,237.3v1.8 M497.8,237.3v1.8 M501.1,237.3v1.8 M499.9,237.3v1.8 M500.5,237.3v1.8 M498.5,236.6v2.6 M502.4,237.3v1.8
						 M503.7,237.3v1.8 M501.8,237v2.2 M503.1,237.3v1.8 M505,236.6v2.6 M504.3,237.3v1.8 M507.5,237.3v1.8 M507,237.3v1.8
						 M506.2,237.3v1.8 M505.7,237.3v1.8 M508.9,237.3v1.8 M508.2,237v2.2 M509.5,237.3v1.8 M510.1,237.3v1.8 M510.7,237.3v1.8
						 M512.1,237.3v1.8 M512.8,237.3v1.8 M511.4,236.6v2.6 M513.4,237.3v1.8 M514.1,237.3v1.8 M517.2,237.3v1.8 M516,237.3v1.8
						 M516.6,237.3v1.8 M514.7,237v2.2 M515.3,237.3v1.8 M521.2,237v2.2 M518.5,237.3v1.8 M520.4,237.3v1.8 M519.9,237.3v1.8
						 M517.9,236.6v2.6 M519.2,237.3v1.8 M525.1,237.3v1.8 M521.8,237.3v1.8 M523.6,237.3v1.8 M522.4,237.3v1.8 M523.1,237.3v1.8
						 M524.3,236.6v2.6 M527.6,237v2.2 M526.9,237.3v1.8 M528.3,237.3v1.8 M525.6,237.3v1.8 M526.3,237.3v1.8 M528.8,237.3v1.8
						 M529.5,237.3v1.8 M533.3,237.3v1.8 M530.1,237.3v1.8 M532.7,237.3v1.8 M532,237.3v1.8 M531.4,237.3v1.8 M530.8,236.6v2.6
						 M536.5,237.3v1.8 M534,237v2.2 M535.9,237.3v1.8 M535.2,237.3v1.8 M537.2,236.6v2.6 M534.6,237.3v1.8 M537.9,237.3v1.8
						 M538.5,237.3v1.8 M539.2,237.3v1.8 M539.7,237.3v1.8 M541.1,237.3v1.8 M540.5,237v2.2 M543,237.3v1.8 M541.6,237.3v1.8
						 M542.4,237.3v1.8 M545.6,237.3v1.8 M544.2,237.3v1.8 M544.8,237.3v1.8 M543.5,236.6v2.6 M546.1,237.3v1.8 M547.5,237.3v1.8
						 M546.8,237v2.2 M548,237.3v1.8 M549.3,237.3v1.8 M548.7,237.3v1.8 M550.7,237.3v1.8 M551.2,237.3v1.8 M551.9,237.3v1.8
						 M550,236.6v2.6 M553.2,237v2.2 M552.5,237.3v1.8 M557.7,237.3v1.8 M557.1,237.3v1.8 M555.1,237.3v1.8 M555.7,237.3v1.8
						 M553.9,237.3v1.8 M554.4,237.3v1.8 M556.4,236.6v2.6 M559.7,237v2.2 M560.3,237.3v1.8 M560.9,237.3v1.8 M558.4,237.3v1.8
						 M559,237.3v1.8 M561.6,237.3v1.8 M562.2,237.3v1.8 M563.5,237.3v1.8 M564.1,237.3v1.8 M564.8,237.3v1.8 M565.3,237.3v1.8
						 M562.9,236.6v2.6 M567.2,237.3v1.8 M568,237.3v1.8 M568.5,237.3v1.8 M569.2,236.6v2.6 M566.7,237.3v1.8 M566.1,237v2.2
						 M571.2,237.3v1.8 M571.9,237.3v1.8 M570.6,237.3v1.8 M570,237.3v1.8 M573.8,237.3v1.8 M573.1,237.3v1.8 M572.5,237v2.2
						 M576.3,237.3v1.8 M577,237.3v1.8 M575.1,237.3v1.8 M574.4,237.3v1.8 M577.6,237.3v1.8 M575.7,236.6v2.6 M580.9,237.3v1.8
						 M579.5,237.3v1.8 M578.9,237v2.2 M580.2,237.3v1.8 M581.4,237.3v1.8 M578.3,237.3v1.8 M582.9,237.3v1.8 M585.4,237v2.2
						 M583.4,237.3v1.8 M582.2,236.6v2.6 M584.7,237.3v1.8 M584.2,237.3v1.8 M586.1,237.3v1.8 M586.6,237.3v1.8 M587.3,237.3v1.8
						 M587.9,237.3v1.8 M589.9,237.3v1.8 M589.3,237.3v1.8 M588.6,236.6v2.6 M591.2,237.3v1.8 M590.5,237.3v1.8 M593.8,237.3v1.8
						 M592.5,237.3v1.8 M591.8,237v2.2 M593.1,237.3v1.8 M597.1,237.3v1.8 M597.6,237.3v1.8 M595.8,237.3v1.8 M594.4,237.3v1.8
						 M596.4,237.3v1.8 M595.1,236.6v2.6 M599,237.3v1.8 M598.3,237v2.2 M600.8,237.3v1.8 M601.5,236.6v2.6 M600.3,237.3v1.8
						 M599.5,237.3v1.8 M603.5,237.3v1.8 M605.4,237.3v1.8 M602.8,237.3v1.8 M602.2,237.3v1.8 M604,237.3v1.8 M606,237.3v1.8
						 M604.7,237v2.2 M609.3,237.3v1.8 M606.6,237.3v1.8 M607.3,237.3v1.8 M608.6,237.3v1.8 M609.9,237.3v1.8 M607.9,236.6v2.6
						 M610.5,237.3v1.8 M611.3,237v2.2 M612.5,237.3v1.8 M611.8,237.3v1.8 M613.2,237.3v1.8 M613.7,237.3v1.8 M615,237.3v1.8
						 M615.7,237.3v1.8 M618.2,237.3v1.8 M616.3,237.3v1.8 M614.5,236.6v2.6 M617.6,237v2.2 M616.9,237.3v1.8 M622.1,237.3v1.8
						 M621.5,237.3v1.8 M618.8,237.3v1.8 M619.5,237.3v1.8 M620.1,237.3v1.8 M620.8,236.6v2.6 M623.4,237.3v1.8 M624,237v2.2
						 M625.3,237.3v1.8 M626,237.3v1.8 M624.7,237.3v1.8 M622.8,237.3v1.8 M626.6,237.3v1.8 M629.8,237.3v1.8 M627.9,237.3v1.8
						 M629.2,237.3v1.8 M628.6,237.3v1.8 M627.2,236.6v2.6 M631.1,237.3v1.8 M631.8,237.3v1.8 M630.5,237v2.2 M633,237.3v1.8
						 M632.4,237.3v1.8 M286.1,236.6v2.6 M286.8,237.3v1.8 M289.3,237v2.2 M288.7,237.3v1.8 M290,237.3v1.8 M288.1,237.3v1.8
						 M290.6,237.3v1.8 M287.4,237.3v1.8 M291.9,237.3v1.8 M293.3,237.3v1.8 M293.9,237.3v1.8 M295.2,237.3v1.8 M292.6,236.6v2.6
						 M291.3,237.3v1.8 M294.6,237.3v1.8 M295.9,237v2.2 M296.5,237.3v1.8 M298.3,237.3v1.8 M297.8,237.3v1.8 M297.1,237.3v1.8
						 M299.1,236.6v2.6 M301.5,237.3v1.8 M301,237.3v1.8 M302.3,237v2.2 M299.7,237.3v1.8 M300.3,237.3v1.8 M302.9,237.3v1.8
						 M306.8,237.3v1.8 M304.2,237.3v1.8 M304.8,237.3v1.8 M303.5,237.3v1.8 M306.2,237.3v1.8 M305.4,236.6v2.6 M307.4,237.3v1.8
						 M310,237.3v1.8 M308.7,237v2.2 M309.4,237.3v1.8 M311.3,237.3v1.8 M308.1,237.3v1.8 M310.6,237.3v1.8 M312.5,237.3v1.8
						 M314.5,237.3v1.8 M313.1,237.3v1.8 M315.1,237v2.2 M313.8,237.3v1.8 M312,236.6v2.6 M319,237.3v1.8 M315.7,237.3v1.8
						 M317.6,237.3v1.8 M316.4,237.3v1.8 M317,237.3v1.8 M318.3,236.6v2.6 M320.3,237.3v1.8 M319.6,237.3v1.8 M322.8,237.3v1.8
						 M322.2,237.3v1.8 M323.5,237.3v1.8 M320.9,237.3v1.8 M321.6,237v2.2 M326,237.3v1.8 M324.1,237.3v1.8 M327.3,237.3v1.8
						 M326.7,237.3v1.8 M324.8,236.6v2.6 M325.5,237.3v1.8 M330.5,237.3v1.8 M328.6,237.3v1.8 M329.9,237.3v1.8 M328,237v2.2
						 M329.2,237.3v1.8 M331.2,236.6v2.6 M331.9,237.3v1.8 M333.8,237.3v1.8 M332.6,237.3v1.8 M333.2,237.3v1.8 M334.5,237v2.2
						 M335.1,237.3v1.8 M338.4,237.3v1.8 M339.7,237.3v1.8 M338.9,237.3v1.8 M335.7,237.3v1.8 M336.4,237.3v1.8 M337,237.3v1.8
						 M337.7,236.6v2.6 M343.4,237.3v1.8 M342.1,237.3v1.8 M342.8,237.3v1.8 M340.9,237v2.2 M341.6,237.3v1.8 M340.2,237.3v1.8
						 M346.1,237.3v1.8 M344.8,237.3v1.8 M347.4,237v2.2 M345.5,237.3v1.8 M346.8,237.3v1.8 M344.1,236.6v2.6 M348,237.3v1.8
						 M348.7,237.3v1.8 M349.3,237.3v1.8 M349.9,237.3v1.8 M351.2,237.3v1.8 M350.6,236.6v2.6 M354.4,237.3v1.8 M352.5,237.3v1.8
						 M351.9,237.3v1.8 M353.8,237v2.2 M353.1,237.3v1.8 M355.7,237.3v1.8 M355,237.3v1.8 M357.8,237.3v1.8 M359,237.3v1.8
						 M358.3,237.3v1.8 M359.6,237.3v1.8 M357,236.6v2.6 M356.3,237.3v1.8 M361.5,237.3v1.8 M362.2,237.3v1.8 M360.9,237.3v1.8
						 M362.8,237.3v1.8 M360.3,237v2.2 M363.5,236.6v2.6 M366,237.3v1.8 M364.7,237.3v1.8 M366.6,237v2.2 M365.3,237.3v1.8
						 M364.1,237.3v1.8 M367.9,237.3v1.8 M367.2,237.3v1.8 M368.6,237.3v1.8 M370.6,237.3v1.8 M371.2,237.3v1.8 M371.9,237.3v1.8
						 M369.2,237.3v1.8 M369.9,236.6v2.6 M373.1,237v2.2 M372.4,237.3v1.8 M375.1,237.3v1.8 M375.6,237.3v1.8 M374.3,237.3v1.8
						 M373.8,237.3v1.8 M377.5,237.3v1.8 M378.2,237.3v1.8 M376.9,237.3v1.8 M380.1,237.3v1.8 M379.4,237v2.2 M378.8,237.3v1.8
						 M376.2,236.6v2.6 M382,237.3v1.8 M383.3,237.3v1.8 M381.4,237.3v1.8 M380.7,237.3v1.8 M383.9,237.3v1.8 M382.6,236.6v2.6
						 M384.6,237.3v1.8 M385.2,237.3v1.8 M386.5,237.3v1.8 M387.1,237.3v1.8 M387.8,237.3v1.8 M385.9,237v2.2 M390.4,237.3v1.8
						 M391.6,237.3v1.8 M391.1,237.3v1.8 M389.1,236.6v2.6 M388.4,237.3v1.8 M389.8,237.3v1.8 M394.9,237.3v1.8 M396.2,237.3v1.8
						 M394.3,237.3v1.8 M393.6,237.3v1.8 M392.4,237v2.2 M393,237.3v1.8 M395.6,236.6v2.6 M396.8,237.3v1.8 M397.5,237.3v1.8
						 M399.9,237.3v1.8 M398.7,237v2.2 M399.4,237.3v1.8 M398,237.3v1.8 M403.2,237.3v1.8 M400.7,237.3v1.8 M402.7,237.3v1.8
						 M401.2,237.3v1.8 M403.9,237.3v1.8 M401.9,236.6v2.6 M406.4,237.3v1.8 M404.5,237.3v1.8 M405.8,237.3v1.8 M407.8,237.3v1.8
						 M405.2,237v2.2 M407.1,237.3v1.8 M411.6,237v2.2 M409,237.3v1.8 M412.2,237.3v1.8 M410.9,237.3v1.8 M409.7,237.3v1.8
						 M410.3,237.3v1.8 M408.4,236.6v2.6 M412.9,237.3v1.8 M414.1,237.3v1.8 M416.1,237.3v1.8 M413.5,237.3v1.8 M415.6,237.3v1.8
						 M414.8,236.6v2.6 M416.8,237.3v1.8 M419.3,237.3v1.8 M420,237.3v1.8 M418.1,237v2.2 M417.4,237.3v1.8 M418.8,237.3v1.8
						 M420.6,237.3v1.8 M422,237.3v1.8 M422.6,237.3v1.8 M421.3,236.6v2.6 M423.9,237.3v1.8 M423.2,237.3v1.8 M425.8,237.3v1.8
						 M426.4,237.3v1.8 M424.5,237v2.2 M425.1,237.3v1.8 M428.5,237.3v1.8 M427.1,237.3v1.8 M427.7,236.6v2.6 M430.3,237.3v1.8
						 M431,237v2.2 M431.7,237.3v1.8 M432.2,237.3v1.8 M429,237.3v1.8 M429.8,237.3v1.8 M433,237.3v1.8 M435.4,237.3v1.8
						 M436.1,237.3v1.8 M433.5,237.3v1.8 M434.9,237.3v1.8 M434.2,236.6v2.6 M438.6,237.3v1.8 M439.9,237.3v1.8 M437.4,237v2.2
						 M439.3,237.3v1.8 M440.6,236.6v2.6 M436.7,237.3v1.8 M438.1,237.3v1.8 M441.3,237.3v1.8 M442.6,237.3v1.8 M444.5,237.3v1.8
						 M443.2,237.3v1.8 M443.9,237v2.2 M442,237.3v1.8 M446.4,237.3v1.8 M445.8,237.3v1.8 M445.2,237.3v1.8 M447.7,237.3v1.8
						 M448.3,237.3v1.8 M447.1,236.6v2.6 M452.2,237.3v1.8 M450.3,237v2.2 M449.5,237.3v1.8 M450.9,237.3v1.8 M449,237.3v1.8
						 M451.5,237.3v1.8 M456.1,237.3v1.8 M455.4,237.3v1.8 M454.8,237.3v1.8 M456.7,237v2.2 M453.5,236.6v2.6 M452.8,237.3v1.8
						 M454.2,237.3v1.8"/>
				</g>
				<g>
					<g>
						<path d="M299.2,234.8v0.2h-0.9v-0.1c0-0.1,0.1-0.1,0.1-0.2c0-0.1,0.1-0.1,0.2-0.2c0.1-0.1,0.2-0.2,0.3-0.3
							c0.1-0.1,0.1-0.1,0.1-0.2s0-0.1-0.1-0.2c0,0-0.1-0.1-0.2-0.1c-0.1,0-0.1,0-0.2,0.1c0,0-0.1,0.1-0.1,0.2h-0.2
							c0-0.1,0.1-0.2,0.1-0.3c0.1-0.1,0.2-0.1,0.3-0.1c0.1,0,0.2,0,0.3,0.1c0.1,0.1,0.1,0.2,0.1,0.3s0,0.1,0,0.2
							c0,0.1-0.1,0.1-0.1,0.2c-0.1,0.1-0.1,0.1-0.3,0.2c-0.1,0.1-0.2,0.1-0.2,0.2l-0.1,0.1h0.9V234.8z"/>
					</g>
					<g>
						<path d="M304.7,234.6h0.2c0,0.1,0.1,0.2,0.1,0.2s0.1,0.1,0.2,0.1c0.1,0,0.1,0,0.2-0.1c0.1-0.1,0.1-0.1,0.1-0.2s0-0.1-0.1-0.2
							c0,0-0.1-0.1-0.2-0.1h-0.1v-0.1l0,0c0.1,0,0.1,0,0.2-0.1c0.1-0.1,0.1-0.1,0.1-0.2s0-0.1-0.1-0.2c0,0-0.1-0.1-0.2-0.1
							c-0.1,0-0.1,0-0.2,0.1c0,0-0.1,0.1-0.1,0.2h-0.2c0-0.1,0.1-0.2,0.1-0.3c0.1-0.1,0.2-0.1,0.3-0.1s0.1,0,0.2,0
							c0.1,0,0.1,0.1,0.1,0.1s0,0.1,0,0.2c0,0.1,0,0.1,0,0.2l-0.1,0.1c0.1,0,0.1,0.1,0.2,0.1c0,0.1,0.1,0.1,0.1,0.2s0,0.2-0.1,0.3
							c-0.1,0.1-0.2,0.1-0.3,0.1c-0.1,0-0.2,0-0.3-0.1C304.8,234.8,304.7,234.7,304.7,234.6z"/>
					</g>
					<g>
						<path d="M311.7,234.9v-0.3h-0.6v-0.2l0.6-0.9h0.1v0.9h0.2v0.2h-0.2L311.7,234.9L311.7,234.9z M311.7,234.5v-0.6l-0.4,0.6
							H311.7z"/>
					</g>
					<g>
						<path d="M317.7,234.6h0.2c0,0.1,0,0.1,0.1,0.2c0.1,0.1,0.1,0.1,0.2,0.1c0.1,0,0.1,0,0.2-0.1c0.1-0.1,0.1-0.1,0.1-0.2
							s0-0.2-0.1-0.2c-0.1-0.1-0.1-0.1-0.2-0.1c-0.1,0-0.1,0-0.1,0l-0.1,0.1h-0.2l0.1-0.7h0.7v0.2H318l-0.1,0.4
							c0.1-0.1,0.2-0.1,0.3-0.1c0.1,0,0.2,0,0.3,0.1c0.1,0.1,0.1,0.2,0.1,0.3s0,0.2-0.1,0.3s-0.2,0.2-0.4,0.2c-0.1,0-0.2,0-0.3-0.1
							C317.8,234.8,317.7,234.7,317.7,234.6z"/>
					</g>
					<g>
						<path d="M325.1,233.9h-0.2c0-0.1,0-0.1-0.1-0.1c0,0-0.1-0.1-0.2-0.1c-0.1,0-0.1,0-0.1,0c-0.1,0-0.1,0.1-0.1,0.2s0,0.2,0,0.3
							c0-0.1,0.1-0.1,0.1-0.1c0.1,0,0.1,0,0.2,0c0.1,0,0.2,0,0.3,0.1c0.1,0.1,0.1,0.2,0.1,0.3s0,0.2-0.1,0.2c0,0.1-0.1,0.1-0.1,0.2
							c-0.1,0-0.1,0.1-0.2,0.1c-0.1,0-0.2-0.1-0.3-0.2c-0.1-0.1-0.1-0.3-0.1-0.5c0-0.3,0-0.4,0.1-0.6c0.1-0.1,0.2-0.2,0.3-0.2
							c0.1,0,0.2,0,0.3,0.1S325.1,233.8,325.1,233.9z M324.4,234.5c0,0.1,0,0.1,0,0.2c0,0.1,0.1,0.1,0.1,0.1h0.1
							c0.1,0,0.1,0,0.2-0.1c0-0.1,0.1-0.1,0.1-0.2s0-0.2-0.1-0.2c0-0.1-0.1-0.1-0.2-0.1c-0.1,0-0.1,0-0.2,0.1
							C324.5,234.4,324.4,234.4,324.4,234.5z"/>
					</g>
					<g>
						<path d="M330.9,233.8v-0.2h0.9v0.1c-0.1,0.1-0.2,0.2-0.3,0.4c-0.1,0.2-0.1,0.3-0.2,0.5c0,0.1-0.1,0.2-0.1,0.4H331
							c0-0.1,0-0.2,0.1-0.4c0-0.1,0.1-0.3,0.2-0.4c0.1-0.1,0.2-0.3,0.2-0.4H330.9L330.9,233.8z"/>
					</g>
					<g>
						<path d="M337.4,234.2c-0.1,0-0.1-0.1-0.2-0.1c0,0,0-0.1,0-0.2s0-0.2,0.1-0.2c0.1-0.1,0.2-0.1,0.3-0.1c0.1,0,0.2,0,0.3,0.1
							c0.1,0.1,0.1,0.2,0.1,0.2c0,0.1,0,0.1,0,0.2l-0.1,0.1c0.1,0,0.1,0.1,0.2,0.1c0,0.1,0.1,0.1,0.1,0.2s0,0.2-0.1,0.3
							c-0.1,0.1-0.2,0.1-0.3,0.1c-0.1,0-0.2,0-0.3-0.1c-0.1-0.1-0.1-0.2-0.1-0.3S337.4,234.3,337.4,234.2
							C337.3,234.3,337.3,234.2,337.4,234.2z M337.3,234.6v0.1l0.1,0.1h0.1c0.1,0,0.1,0,0.2-0.1c0.1-0.1,0.1-0.1,0.1-0.2
							s0-0.1-0.1-0.2c-0.1-0.1-0.1-0.1-0.2-0.1s-0.1,0-0.2,0.1C337.4,234.4,337.3,234.5,337.3,234.6z M337.4,233.9
							c0,0.1,0,0.1,0.1,0.2c0,0,0.1,0.1,0.2,0.1c0.1,0,0.1,0,0.2-0.1c0.1-0.1,0.1-0.1,0.1-0.1c0-0.1,0-0.1-0.1-0.2
							c0,0-0.1-0.1-0.2-0.1c-0.1,0-0.1,0-0.2,0.1C337.4,233.8,337.4,233.9,337.4,233.9z"/>
					</g>
					<g>
						<path d="M343.6,234.6h0.2c0,0.1,0,0.1,0.1,0.2l0.1,0.1c0.1,0,0.1,0,0.1,0l0.1-0.1c0,0,0-0.1,0.1-0.2c0-0.1,0-0.1,0-0.2l0,0
							c0,0.1-0.1,0.1-0.1,0.1s-0.1,0-0.2,0s-0.2,0-0.3-0.1c-0.1-0.1-0.1-0.2-0.1-0.3s0-0.2,0.1-0.3c0.1-0.1,0.2-0.1,0.3-0.1
							s0.2,0,0.2,0.1c0.1,0,0.1,0.1,0.2,0.2c0.1,0.1,0.1,0.2,0.1,0.4c0,0.2,0,0.3-0.1,0.4c-0.1,0.1-0.1,0.2-0.2,0.2
							c-0.1,0.1-0.2,0.1-0.3,0.1c-0.1,0-0.2,0-0.3-0.1C343.7,234.8,343.6,234.7,343.6,234.6z M344.3,234c0-0.1,0-0.2-0.1-0.2
							c-0.1-0.1-0.1-0.1-0.2-0.1s-0.1,0-0.2,0.1c-0.1,0.1-0.1,0.1-0.1,0.2s0,0.2,0.1,0.2c0.1,0.1,0.1,0.1,0.2,0.1s0.1,0,0.2-0.1
							C344.3,234.2,344.3,234.1,344.3,234z"/>
					</g>
					<g>
						<path d="M350.1,234.9L350.1,234.9l-0.1-1.1c0,0-0.1,0.1-0.2,0.1c-0.1,0-0.1,0.1-0.2,0.1v-0.2c0.1,0,0.2-0.1,0.2-0.2
							c0.1-0.1,0.1-0.1,0.1-0.2h0.1L350.1,234.9L350.1,234.9z"/>
						<path d="M350.6,234.3c0-0.2,0-0.3,0-0.4s0.1-0.2,0.1-0.2c0.1-0.1,0.1-0.1,0.2-0.1c0.1,0,0.1,0,0.2,0c0.1,0,0.1,0.1,0.1,0.1
							c0,0.1,0.1,0.1,0.1,0.2s0,0.2,0,0.3c0,0.2,0,0.3,0,0.4s-0.1,0.2-0.1,0.2c-0.1,0.1-0.1,0.1-0.2,0.1s-0.2,0-0.3-0.1
							C350.6,234.7,350.6,234.5,350.6,234.3z M350.7,234.3c0,0.2,0,0.4,0.1,0.4c0.1,0.1,0.1,0.1,0.2,0.1s0.1,0,0.2-0.1
							c0.1-0.1,0.1-0.2,0.1-0.4c0-0.2,0-0.4-0.1-0.4c-0.1,0-0.1-0.1-0.2-0.1s-0.1,0-0.2,0.1C350.7,233.9,350.7,234.1,350.7,234.3z"
							/>
					</g>
					<g>
						<path d="M356.6,234.9h-0.2v-1.1c0,0-0.1,0.1-0.2,0.1c-0.1,0-0.1,0.1-0.2,0.1v-0.2c0.1,0,0.2-0.1,0.2-0.2
							c0.1-0.1,0.1-0.1,0.1-0.2h0.1v1.5H356.6z"/>
						<path d="M357.7,234.9h-0.2v-1.1c0,0-0.1,0.1-0.2,0.1c-0.1,0-0.1,0.1-0.2,0.1v-0.2c0.1,0,0.2-0.1,0.2-0.2
							c0.1-0.1,0.1-0.1,0.1-0.2h0.1v1.5H357.7z"/>
					</g>
					<g>
						<path d="M363.1,234.9h-0.2v-1.1c0,0-0.1,0.1-0.2,0.1c-0.1,0-0.1,0.1-0.2,0.1v-0.2c0.1,0,0.2-0.1,0.2-0.2
							c0.1-0.1,0.1-0.1,0.1-0.2h0.1v1.5H363.1z"/>
						<path d="M364.4,234.8v0.2h-0.9v-0.1c0-0.1,0.1-0.1,0.1-0.2c0-0.1,0.1-0.1,0.2-0.2c0.1-0.1,0.2-0.2,0.3-0.3
							c0.1-0.1,0.1-0.1,0.1-0.2s0-0.1-0.1-0.2c-0.1-0.1-0.1-0.1-0.2-0.1c-0.1,0-0.1,0-0.2,0.1c0,0-0.1,0.1-0.1,0.2h-0.2
							c0-0.1,0.1-0.2,0.1-0.3c0.1-0.1,0.2-0.1,0.3-0.1c0.1,0,0.2,0,0.3,0.1c0.1,0.1,0.1,0.2,0.1,0.3s0,0.1,0,0.2
							c0,0.1-0.1,0.1-0.1,0.2c-0.1,0.1-0.1,0.1-0.3,0.2c-0.1,0.1-0.2,0.1-0.2,0.2l-0.1,0.1h0.9V234.8z"/>
					</g>
					<g>
						<path d="M369.5,234.9h-0.2v-1.1c0,0-0.1,0.1-0.2,0.1c-0.1,0-0.1,0.1-0.2,0.1v-0.2c0.1,0,0.2-0.1,0.2-0.2
							c0.1-0.1,0.1-0.1,0.1-0.2h0.1v1.5H369.5z"/>
						<path d="M370,234.6h0.2c0,0.1,0.1,0.2,0.1,0.2s0.1,0.1,0.2,0.1s0.1,0,0.2-0.1c0.1-0.1,0.1-0.1,0.1-0.2s0-0.1-0.1-0.2
							c0,0-0.1-0.1-0.2-0.1h-0.1v-0.1l0,0c0.1,0,0.1,0,0.2-0.1c0.1-0.1,0.1-0.1,0.1-0.2s0-0.1-0.1-0.2c0,0-0.1-0.1-0.2-0.1
							c-0.1,0-0.1,0-0.2,0.1c0,0-0.1,0.1-0.1,0.2h-0.2c0-0.1,0.1-0.2,0.1-0.3c0.1-0.1,0.2-0.1,0.3-0.1c0.1,0,0.1,0,0.2,0
							s0.1,0.1,0.1,0.1c0,0.1,0,0.1,0,0.2c0,0.1,0,0.1,0,0.2l-0.1,0.1c0.1,0,0.1,0.1,0.2,0.1c0,0.1,0.1,0.1,0.1,0.2s0,0.2-0.1,0.3
							c-0.1,0.1-0.2,0.1-0.3,0.1c-0.1,0-0.2,0-0.3-0.1C370,234.6,370,234.7,370,234.6z"/>
					</g>
					<g>
						<path d="M375.8,234.9h-0.2v-1.1c0,0-0.1,0.1-0.2,0.1c-0.1,0-0.1,0.1-0.2,0.1v-0.2c0.1,0,0.2-0.1,0.2-0.2
							c0.1-0.1,0.1-0.1,0.1-0.2h0.1v1.5H375.8z"/>
						<path d="M376.8,234.9v-0.3h-0.6v-0.2l0.6-0.9h0.1v0.9h0.2v0.2h-0.2v0.3H376.8z M376.8,234.5v-0.6l-0.4,0.6H376.8z"/>
					</g>
					<g>
						<path d="M382,234.9h-0.2v-1.1c0,0-0.1,0.1-0.2,0.1c-0.1,0-0.1,0.1-0.2,0.1v-0.2c0.1,0,0.2-0.1,0.2-0.2
							c0.1-0.1,0.1-0.1,0.1-0.2h0.1v1.5H382z"/>
						<path d="M382.5,234.6h0.2c0,0.1,0,0.1,0.1,0.2c0,0,0.1,0.1,0.2,0.1s0.1,0,0.2-0.1c0.1-0.1,0.1-0.1,0.1-0.2s0-0.2-0.1-0.2
							c-0.1-0.1-0.1-0.1-0.2-0.1s-0.1,0-0.1,0l-0.1,0.1h-0.2l0.1-0.7h0.7v0.2h-0.5l-0.1,0.4c0.1-0.1,0.2-0.1,0.3-0.1
							c0.1,0,0.2,0,0.3,0.1c0.1,0.1,0.1,0.2,0.1,0.3s0,0.2-0.1,0.3c-0.1,0.1-0.2,0.2-0.4,0.2c-0.1,0-0.2,0-0.3-0.1
							C382.6,234.9,382.5,234.7,382.5,234.6z"/>
					</g>
					<g>
						<path d="M388.6,234.9h-0.2v-1.1c0,0-0.1,0.1-0.2,0.1c-0.1,0-0.1,0.1-0.2,0.1v-0.2c0.1,0,0.2-0.1,0.2-0.2
							c0.1-0.1,0.1-0.1,0.1-0.2h0.1v1.5H388.6z"/>
						<path d="M389.9,233.9h-0.2c0-0.1,0-0.1-0.1-0.1c0,0-0.1-0.1-0.2-0.1c-0.1,0-0.1,0-0.1,0c-0.1,0-0.1,0.1-0.1,0.2s0,0.2,0,0.3
							c0-0.1,0.1-0.1,0.1-0.1c0.1,0,0.1,0,0.2,0s0.2,0,0.3,0.1c0.1,0.1,0.1,0.2,0.1,0.3s0,0.2-0.1,0.2c0,0.1-0.1,0.1-0.2,0.2
							c-0.1,0.1-0.1,0.1-0.2,0.1c-0.1,0-0.3-0.1-0.3-0.2c-0.1-0.1-0.1-0.3-0.1-0.5c0-0.3,0-0.4,0.1-0.6c0.1-0.1,0.2-0.2,0.3-0.2
							c0.1,0,0.2,0,0.3,0.1C389.8,233.7,389.8,233.8,389.9,233.9z M389.2,234.5c0,0.1,0,0.1,0,0.2c0,0.1,0.1,0.1,0.1,0.1h0.1
							c0.1,0,0.1,0,0.2-0.1c0-0.1,0.1-0.1,0.1-0.2s0-0.2-0.1-0.2c-0.1,0-0.1-0.1-0.2-0.1c-0.1,0-0.1,0-0.2,0.1
							C389.1,234.4,389.2,234.4,389.2,234.5z"/>
					</g>
					<g>
						<path d="M395.2,234.9H395v-1.1c0,0-0.1,0.1-0.2,0.1c-0.1,0-0.1,0.1-0.2,0.1v-0.2c0.1,0,0.2-0.1,0.2-0.2
							c0.1-0.1,0.1-0.1,0.1-0.2h0.1v1.5H395.2z"/>
						<path d="M395.7,233.8v-0.2h0.9v0.1c-0.1,0.1-0.2,0.2-0.3,0.4c-0.1,0.2-0.1,0.3-0.2,0.5c0,0.1-0.1,0.2-0.1,0.4h-0.2
							c0-0.1,0-0.2,0.1-0.4c0-0.1,0.1-0.3,0.2-0.4c0.1-0.1,0.2-0.3,0.2-0.4H395.7L395.7,233.8z"/>
					</g>
					<g>
						<path d="M401.4,234.9h-0.2v-1.1c0,0-0.1,0.1-0.2,0.1s-0.1,0.1-0.2,0.1v-0.2c0.1,0,0.2-0.1,0.2-0.2c0.1-0.1,0.1-0.1,0.1-0.2
							h0.1v1.5H401.4z"/>
						<path d="M402.1,234.2c-0.1,0-0.1-0.1-0.2-0.1c-0.1,0,0-0.1,0-0.2s0-0.2,0.1-0.2c0.1-0.1,0.2-0.1,0.3-0.1c0.1,0,0.2,0,0.3,0.1
							c0.1,0.1,0.1,0.2,0.1,0.2c0,0.1,0,0.1,0,0.2l-0.1,0.1c0.1,0,0.1,0.1,0.2,0.1c0,0.1,0.1,0.1,0.1,0.2s0,0.2-0.1,0.3
							c-0.1,0.1-0.2,0.1-0.3,0.1s-0.2,0-0.3-0.1c-0.1-0.1-0.1-0.2-0.1-0.3s0-0.2,0.1-0.2C402.3,234.3,402,234.2,402.1,234.2z
							 M402,234.6v0.1l0.1,0.1h0.1c0.1,0,0.1,0,0.2-0.1c0.1-0.1,0.1-0.1,0.1-0.2s0-0.1-0.1-0.2c-0.1-0.1-0.1-0.1-0.2-0.1
							c-0.1,0-0.1,0-0.2,0.1C401.9,234.4,402,234.5,402,234.6z M402.1,233.9c0,0.1,0,0.1,0.1,0.2c0,0,0.1,0.1,0.2,0.1
							c0.1,0,0.1,0,0.2-0.1c0.1-0.1,0.1-0.1,0.1-0.1c0-0.1,0-0.1-0.1-0.2c0,0-0.1-0.1-0.2-0.1c-0.1,0-0.1,0-0.2,0.1
							C402.1,233.8,402.1,233.9,402.1,233.9z"/>
					</g>
					<g>
						<path d="M408,234.9h-0.2v-1.1c0,0-0.1,0.1-0.2,0.1c-0.1,0-0.1,0.1-0.2,0.1v-0.2c0.1,0,0.2-0.1,0.2-0.2
							c0.1-0.1,0.1-0.1,0.1-0.2h0.1v1.5H408z"/>
						<path d="M408.5,234.6h0.2c0,0.1,0,0.1,0.1,0.2c0.1,0.1,0.1,0.1,0.1,0.1c0.1,0,0.1,0,0.1,0l0.1-0.1c0,0,0-0.1,0.1-0.2
							c0-0.1,0-0.1,0-0.2l0,0c0,0.1-0.1,0.1-0.1,0.1c-0.1,0-0.1,0-0.2,0c-0.1,0-0.2,0-0.3-0.1c-0.1-0.1-0.1-0.2-0.1-0.3
							s0-0.2,0.1-0.3c0.1-0.1,0.2-0.1,0.3-0.1c0.1,0,0.2,0,0.2,0.1c0.1,0,0.1,0.1,0.2,0.2c0,0.1,0.1,0.2,0.1,0.4
							c0,0.2,0,0.3-0.1,0.4c-0.1,0.1-0.1,0.2-0.2,0.2c-0.1,0.1-0.2,0.1-0.3,0.1c-0.1,0-0.2,0-0.3-0.1
							C408.5,234.8,408.5,234.7,408.5,234.6z M409.2,234c0-0.1,0-0.2-0.1-0.2c0-0.1-0.1-0.1-0.2-0.1c-0.1,0-0.1,0-0.2,0.1
							c-0.1,0.1-0.1,0.1-0.1,0.2s0,0.2,0.1,0.2c0.1,0.1,0.1,0.1,0.2,0.1c0.1,0,0.1,0,0.2-0.1C409.1,234.2,409.2,234.1,409.2,234z"/>
					</g>
					<g>
						<path d="M414.8,234.8v0.2h-0.9v-0.1c0-0.1,0.1-0.1,0.1-0.2c0-0.1,0.1-0.1,0.2-0.2c0.1-0.1,0.2-0.2,0.3-0.3
							c0.1-0.1,0.1-0.1,0.1-0.2s0-0.1-0.1-0.2c-0.1-0.1-0.1-0.1-0.2-0.1c-0.1,0-0.1,0-0.2,0.1c0,0-0.1,0.1-0.1,0.2h-0.2
							c0-0.1,0.1-0.2,0.1-0.3c0.1-0.1,0.2-0.1,0.3-0.1c0.1,0,0.2,0,0.3,0.1c0.1,0.1,0.1,0.2,0.1,0.3s0,0.1,0,0.2
							c0,0.1-0.1,0.1-0.1,0.2c-0.1,0.1-0.1,0.1-0.3,0.2c-0.1,0.1-0.2,0.1-0.2,0.2l-0.1,0.1h0.9V234.8z"/>
						<path d="M415,234.3c0-0.2,0-0.3,0-0.4s0.1-0.2,0.1-0.2c0.1-0.1,0.1-0.1,0.2-0.1c0.1,0,0.1,0,0.2,0s0.1,0.1,0.1,0.1
							c0,0.1,0.1,0.1,0.1,0.2s0,0.2,0,0.3c0,0.2,0,0.3,0,0.4s-0.1,0.2-0.1,0.2c-0.1,0.1-0.1,0.1-0.2,0.1c-0.1,0-0.2,0-0.3-0.1
							C415,234.7,415,234.5,415,234.3z M415.1,234.3c0,0.2,0,0.4,0.1,0.4c0.1,0.1,0.1,0.1,0.2,0.1c0.1,0,0.1,0,0.2-0.1
							c0.1-0.1,0.1-0.2,0.1-0.4c0-0.2,0-0.4-0.1-0.4c-0.1,0-0.1-0.1-0.2-0.1c-0.1,0-0.1,0-0.2,0.1
							C415.1,233.9,415.1,234.1,415.1,234.3z"/>
					</g>
					<g>
						<path d="M421.3,234.8v0.2h-0.9v-0.1c0-0.1,0.1-0.1,0.1-0.2c0-0.1,0.1-0.1,0.2-0.2c0.1-0.1,0.2-0.2,0.3-0.3
							c0.1-0.1,0.1-0.1,0.1-0.2s0-0.1-0.1-0.2c-0.1-0.1-0.1-0.1-0.2-0.1c-0.1,0-0.1,0-0.2,0.1c0,0-0.1,0.1-0.1,0.2h-0.2
							c0-0.1,0.1-0.2,0.1-0.3c0.1-0.1,0.2-0.1,0.3-0.1c0.1,0,0.2,0,0.3,0.1c0.1,0.1,0.1,0.2,0.1,0.3s0,0.1,0,0.2
							c0,0.1-0.1,0.1-0.1,0.2c-0.1,0.1-0.1,0.1-0.3,0.2c-0.1,0.1-0.2,0.1-0.2,0.2l-0.1,0.1h0.9V234.8z"/>
						<path d="M422.1,234.9h-0.2v-1.1c0,0-0.1,0.1-0.2,0.1c-0.1,0-0.1,0.1-0.2,0.1v-0.2c0.1,0,0.2-0.1,0.2-0.2
							c0.1-0.1,0.1-0.1,0.1-0.2h0.1v1.5H422.1z"/>
					</g>
					<g>
						<path d="M427.8,234.8v0.2h-0.9v-0.1c0-0.1,0.1-0.1,0.1-0.2c0-0.1,0.1-0.1,0.2-0.2c0.1-0.1,0.2-0.2,0.3-0.3
							c0.1-0.1,0.1-0.1,0.1-0.2s0-0.1-0.1-0.2c-0.1-0.1-0.1-0.1-0.2-0.1c-0.1,0-0.1,0-0.2,0.1c0,0-0.1,0.1-0.1,0.2h-0.2
							c0-0.1,0.1-0.2,0.1-0.3c0.1-0.1,0.2-0.1,0.3-0.1c0.1,0,0.2,0,0.3,0.1c0.1,0.1,0.1,0.2,0.1,0.3s0,0.1,0,0.2
							c0,0.1-0.1,0.1-0.1,0.2c-0.1,0.1-0.1,0.1-0.3,0.2c-0.1,0.1-0.2,0.1-0.2,0.2l-0.1,0.1h0.9V234.8z"/>
						<path d="M428.8,234.8v0.2h-0.9v-0.1c0-0.1,0.1-0.1,0.1-0.2c0-0.1,0.1-0.1,0.2-0.2c0.1-0.1,0.2-0.2,0.3-0.3
							c0.1-0.1,0.1-0.1,0.1-0.2s0-0.1-0.1-0.2c-0.1-0.1-0.1-0.1-0.2-0.1c-0.1,0-0.1,0-0.2,0.1c0,0-0.1,0.1-0.1,0.2h-0.2
							c0-0.1,0.1-0.2,0.1-0.3c0.1-0.1,0.2-0.1,0.3-0.1c0.1,0,0.2,0,0.3,0.1c0.1,0.1,0.1,0.2,0.1,0.3s0,0.1,0,0.2
							c0,0.1-0.1,0.1-0.1,0.2c-0.1,0.1-0.1,0.1-0.3,0.2c-0.1,0.1-0.2,0.1-0.2,0.2l-0.1,0.1h0.9V234.8z"/>
					</g>
					<g>
						<path d="M434,234.8v0.2h-0.9v-0.1c0-0.1,0.1-0.1,0.1-0.2c0-0.1,0.1-0.1,0.2-0.2c0.1-0.1,0.2-0.2,0.3-0.3
							c0.1-0.1,0.1-0.1,0.1-0.2s0-0.1-0.1-0.2c-0.1-0.1-0.1-0.1-0.2-0.1s-0.1,0-0.2,0.1c0,0-0.1,0.1-0.1,0.2H433
							c0-0.1,0.1-0.2,0.1-0.3c0.1-0.1,0.2-0.1,0.3-0.1c0.1,0,0.2,0,0.3,0.1c0.1,0.1,0.1,0.2,0.1,0.3s0,0.1,0,0.2
							c0,0.1-0.1,0.1-0.1,0.2c-0.1,0.1-0.1,0.1-0.3,0.2c-0.1,0.1-0.2,0.1-0.2,0.2l-0.1,0.1h0.9V234.8z"/>
						<path d="M434.2,234.6h0.2c0,0.1,0.1,0.2,0.1,0.2s0.1,0.1,0.2,0.1c0.1,0,0.1,0,0.2-0.1c0.1-0.1,0.1-0.1,0.1-0.2s0-0.1-0.1-0.2
							c0,0-0.1-0.1-0.2-0.1h-0.1v-0.1l0,0c0.1,0,0.1,0,0.2-0.1c0.1-0.1,0.1-0.1,0.1-0.2s0-0.1-0.1-0.2c0,0-0.1-0.1-0.2-0.1
							c-0.1,0-0.1,0-0.2,0.1c0,0-0.1,0.1-0.1,0.2h-0.2c0-0.1,0.1-0.2,0.1-0.3c0.1-0.1,0.2-0.1,0.3-0.1s0.1,0,0.2,0
							c0.1,0,0.1,0.1,0.1,0.1c0,0.1,0,0.1,0,0.2c0,0.1,0,0.1,0,0.2l-0.1,0.1c0.1,0,0.1,0.1,0.2,0.1c0,0.1,0.1,0.1,0.1,0.2
							s0,0.2-0.1,0.3c-0.1,0.1-0.2,0.1-0.3,0.1c-0.1,0-0.2,0-0.3-0.1C434.2,234.6,434.2,234.7,434.2,234.6z"/>
					</g>
					<g>
						<path d="M440.3,234.8v0.2h-0.9v-0.1c0-0.1,0.1-0.1,0.1-0.2c0-0.1,0.1-0.1,0.2-0.2c0.1-0.1,0.2-0.2,0.3-0.3
							c0.1-0.1,0.1-0.1,0.1-0.2s0-0.1-0.1-0.2c-0.1-0.1-0.1-0.1-0.2-0.1c-0.1,0-0.1,0-0.2,0.1c0,0-0.1,0.1-0.1,0.2h-0.2
							c0-0.1,0.1-0.2,0.1-0.3c0.1-0.1,0.2-0.1,0.3-0.1c0.1,0,0.2,0,0.3,0.1c0.1,0.1,0.1,0.2,0.1,0.3s0,0.1,0,0.2
							c0,0.1-0.1,0.1-0.1,0.2c-0.1,0.1-0.1,0.1-0.3,0.2c-0.1,0.1-0.2,0.1-0.2,0.2l-0.1,0.1h0.9V234.8z"/>
						<path d="M441,234.9v-0.3h-0.6v-0.2l0.6-0.9h0.1v0.9h0.2v0.2h-0.2L441,234.9L441,234.9z M441,234.5v-0.6l-0.4,0.6H441z"/>
					</g>
					<g>
						<path d="M446.8,234.8v0.2h-0.9v-0.1c0-0.1,0.1-0.1,0.1-0.2c0-0.1,0.1-0.1,0.2-0.2c0.1-0.1,0.2-0.2,0.3-0.3
							c0.1-0.1,0.1-0.1,0.1-0.2s0-0.1-0.1-0.2c-0.1-0.1-0.1-0.1-0.2-0.1c-0.1,0-0.1,0-0.2,0.1c0,0-0.1,0.1-0.1,0.2h-0.2
							c0-0.1,0.1-0.2,0.1-0.3c0.1-0.1,0.2-0.1,0.3-0.1c0.1,0,0.2,0,0.3,0.1c0.1,0.1,0.1,0.2,0.1,0.3s0,0.1,0,0.2
							c0,0.1-0.1,0.1-0.1,0.2c-0.1,0.1-0.1,0.1-0.3,0.2c-0.1,0.1-0.2,0.1-0.2,0.2l-0.1,0.1h0.9V234.8z"/>
						<path d="M447,234.6h0.2c0,0.1,0,0.1,0.1,0.2c0,0,0.1,0.1,0.2,0.1s0.1,0,0.2-0.1c0.1-0.1,0.1-0.1,0.1-0.2s0-0.2-0.1-0.2
							c-0.1-0.1-0.1-0.1-0.2-0.1s-0.1,0-0.1,0l-0.1,0.1h-0.2l0.1-0.7h0.7v0.2h-0.5l-0.1,0.4c0.1-0.1,0.2-0.1,0.3-0.1
							c0.1,0,0.2,0,0.3,0.1c0.1,0.1,0.1,0.2,0.1,0.3s0,0.2-0.1,0.3c-0.1,0.1-0.2,0.2-0.4,0.2c-0.1,0-0.2,0-0.3-0.1
							C447.1,234.9,447,234.7,447,234.6z"/>
					</g>
					<g>
						<path d="M453.3,234.8v0.2h-0.9v-0.1c0-0.1,0.1-0.1,0.1-0.2c0-0.1,0.1-0.1,0.2-0.2c0.1-0.1,0.2-0.2,0.3-0.3
							c0.1-0.1,0.1-0.1,0.1-0.2s0-0.1-0.1-0.2c-0.1-0.1-0.1-0.1-0.2-0.1c-0.1,0-0.1,0-0.2,0.1c0,0-0.1,0.1-0.1,0.2h-0.2
							c0-0.1,0.1-0.2,0.1-0.3c0.1-0.1,0.2-0.1,0.3-0.1c0.1,0,0.2,0,0.3,0.1c0.1,0.1,0.1,0.2,0.1,0.3s0,0.1,0,0.2
							c0,0.1-0.1,0.1-0.1,0.2c-0.1,0.1-0.1,0.1-0.3,0.2c-0.1,0.1-0.2,0.1-0.2,0.2l-0.1,0.1h0.9V234.8z"/>
						<path d="M454.3,233.9h-0.2c0-0.1,0-0.1-0.1-0.1c0,0-0.1-0.1-0.2-0.1c-0.1,0-0.1,0-0.1,0c-0.1,0-0.1,0.1-0.1,0.2s0,0.2,0,0.3
							c0-0.1,0.1-0.1,0.1-0.1c0.1,0,0.1,0,0.2,0c0.1,0,0.2,0,0.3,0.1c0.1,0.1,0.1,0.2,0.1,0.3s0,0.2-0.1,0.2c0,0.1-0.1,0.1-0.2,0.2
							s-0.1,0.1-0.2,0.1c-0.1,0-0.3-0.1-0.3-0.2c-0.1-0.1-0.1-0.3-0.1-0.5c0-0.3,0-0.4,0.1-0.6c0.1-0.1,0.2-0.2,0.3-0.2
							c0.1,0,0.2,0,0.3,0.1C454.3,233.7,454.3,233.8,454.3,233.9z M453.6,234.5c0,0.1,0,0.1,0,0.2c0,0.1,0.1,0.1,0.1,0.1h0.1
							c0.1,0,0.1,0,0.2-0.1c0-0.1,0.1-0.1,0.1-0.2s0-0.2-0.1-0.2s-0.1-0.1-0.2-0.1c-0.1,0-0.1,0-0.2,0.1
							C453.5,234.4,453.6,234.4,453.6,234.5z"/>
					</g>
					<g>
						<path d="M285.6,234.3c0-0.2,0-0.3,0-0.4s0.1-0.2,0.1-0.2c0.1-0.1,0.1-0.1,0.2-0.1s0.1,0,0.2,0s0.1,0.1,0.1,0.1
							c0,0.1,0.1,0.1,0.1,0.2s0,0.2,0,0.3c0,0.2,0,0.3,0,0.4s-0.1,0.2-0.1,0.2c-0.1,0.1-0.1,0.1-0.2,0.1s-0.2,0-0.3-0.1
							C285.6,234.7,285.6,234.5,285.6,234.3z M285.7,234.3c0,0.2,0,0.4,0.1,0.4c0.1,0.1,0.1,0.1,0.2,0.1s0.1,0,0.2-0.1
							c0.1-0.1,0.1-0.2,0.1-0.4c0-0.2,0-0.4-0.1-0.4c-0.1-0.1-0.1-0.1-0.2-0.1s-0.1,0-0.2,0.1C285.8,233.9,285.7,234.1,285.7,234.3z
							"/>
					</g>
					<g>
						<path d="M292.7,234.9h-0.2v-1.1c0,0-0.1,0.1-0.2,0.1c-0.1,0-0.1,0.1-0.2,0.1v-0.2c0.1,0,0.2-0.1,0.2-0.2
							c0.1-0.1,0.1-0.1,0.1-0.2h0.1v1.5H292.7z"/>
					</g>
					<g>
						<path d="M459.6,234.8v0.2h-0.9v-0.1c0-0.1,0.1-0.1,0.1-0.2c0-0.1,0.1-0.1,0.2-0.2s0.2-0.2,0.3-0.3c0.1-0.1,0.1-0.1,0.1-0.2
							s0-0.1-0.1-0.2c-0.1-0.1-0.1-0.1-0.2-0.1c-0.1,0-0.1,0-0.2,0.1c0,0-0.1,0.1-0.1,0.2h-0.2c0-0.1,0.1-0.2,0.1-0.3
							c0.1-0.1,0.2-0.1,0.3-0.1s0.2,0,0.3,0.1c0.1,0.1,0.1,0.2,0.1,0.3s0,0.1,0,0.2c0,0.1-0.1,0.1-0.1,0.2c-0.1,0.1-0.1,0.1-0.3,0.2
							c-0.1,0.1-0.2,0.1-0.2,0.2l-0.1,0.1h0.9V234.8z"/>
						<path d="M459.8,233.8v-0.2h0.9v0.1c-0.1,0.1-0.2,0.2-0.3,0.4c-0.1,0.2-0.1,0.3-0.2,0.5c0,0.1-0.1,0.2-0.1,0.4H460
							c0-0.1,0-0.2,0.1-0.4c0-0.1,0.1-0.3,0.2-0.4c0.1-0.1,0.2-0.3,0.2-0.4H459.8L459.8,233.8z"/>
					</g>
					<g>
						<path d="M466,234.8v0.2h-0.9v-0.1c0-0.1,0.1-0.1,0.1-0.2c0-0.1,0.1-0.1,0.2-0.2c0.1-0.1,0.2-0.2,0.3-0.3
							c0.1-0.1,0.1-0.1,0.1-0.2s0-0.1-0.1-0.2c-0.1-0.1-0.1-0.1-0.2-0.1s-0.1,0-0.2,0.1c0,0-0.1,0.1-0.1,0.2H465
							c0-0.1,0.1-0.2,0.1-0.3c0.1-0.1,0.2-0.1,0.3-0.1c0.1,0,0.2,0,0.3,0.1c0.1,0.1,0.1,0.2,0.1,0.3s0,0.1,0,0.2
							c0,0.1-0.1,0.1-0.1,0.2c-0.1,0.1-0.1,0.1-0.3,0.2c-0.1,0.1-0.2,0.1-0.2,0.2l-0.1,0.1h0.9V234.8z"/>
						<path d="M466.5,234.2c-0.1,0-0.1-0.1-0.2-0.1c-0.1,0,0-0.1,0-0.2s0-0.2,0.1-0.2c0.1-0.1,0.2-0.1,0.3-0.1c0.1,0,0.2,0,0.3,0.1
							c0.1,0.1,0.1,0.2,0.1,0.2c0,0.1,0,0.1,0,0.2l-0.1,0.1c0.1,0,0.1,0.1,0.2,0.1c0,0.1,0.1,0.1,0.1,0.2s0,0.2-0.1,0.3
							c-0.1,0.1-0.2,0.1-0.3,0.1c-0.1,0-0.2,0-0.3-0.1c-0.1-0.1-0.1-0.2-0.1-0.3S466.5,234.3,466.5,234.2
							C466.7,234.3,466.4,234.2,466.5,234.2z M466.4,234.6v0.1l0.1,0.1h0.1c0.1,0,0.1,0,0.2-0.1c0.1-0.1,0.1-0.1,0.1-0.2
							s0-0.1-0.1-0.2c-0.1-0.1-0.1-0.1-0.2-0.1c-0.1,0-0.1,0-0.2,0.1C466.3,234.4,466.4,234.5,466.4,234.6z M466.4,233.9
							c0,0.1,0,0.1,0.1,0.2c0,0,0.1,0.1,0.2,0.1c0.1,0,0.1,0,0.2-0.1c0.1-0.1,0.1-0.1,0.1-0.1c0-0.1,0-0.1-0.1-0.2
							c0,0-0.1-0.1-0.2-0.1c-0.1,0-0.1,0-0.2,0.1C466.4,233.8,466.4,233.9,466.4,233.9z"/>
					</g>
					<g>
						<path d="M472.4,234.8v0.2h-0.9v-0.1c0-0.1,0.1-0.1,0.1-0.2c0-0.1,0.1-0.1,0.2-0.2c0.1-0.1,0.2-0.2,0.3-0.3
							c0.1-0.1,0.1-0.1,0.1-0.2s0-0.1-0.1-0.2c-0.1-0.1-0.1-0.1-0.2-0.1c-0.1,0-0.1,0-0.2,0.1c0,0-0.1,0.1-0.1,0.2h-0.2
							c0-0.1,0.1-0.2,0.1-0.3c0.1-0.1,0.2-0.1,0.3-0.1c0.1,0,0.2,0,0.3,0.1c0.1,0.1,0.1,0.2,0.1,0.3s0,0.1,0,0.2
							c0,0.1-0.1,0.1-0.1,0.2c-0.1,0.1-0.1,0.1-0.3,0.2c-0.1,0.1-0.2,0.1-0.2,0.2l-0.1,0.1h0.9V234.8z"/>
						<path d="M472.6,234.6h0.2c0,0.1,0,0.1,0.1,0.2c0.1,0.1,0.1,0.1,0.1,0.1c0.1,0,0.1,0,0.1,0l0.1-0.1c0,0,0-0.1,0.1-0.2
							c0-0.1,0-0.1,0-0.2l0,0c0,0.1-0.1,0.1-0.1,0.1c-0.1,0-0.1,0-0.2,0s-0.2,0-0.3-0.1c-0.1-0.1-0.1-0.2-0.1-0.3s0-0.2,0.1-0.3
							c0.1-0.1,0.2-0.1,0.3-0.1s0.2,0,0.2,0.1c0.1,0,0.1,0.1,0.2,0.2c0,0.1,0.1,0.2,0.1,0.4c0,0.2,0,0.3-0.1,0.4
							c-0.1,0.1-0.1,0.2-0.2,0.2c-0.1,0.1-0.2,0.1-0.3,0.1c-0.1,0-0.2,0-0.3-0.1C472.7,234.8,472.6,234.7,472.6,234.6z M473.3,234
							c0-0.1,0-0.2-0.1-0.2c0-0.1-0.1-0.1-0.2-0.1s-0.1,0-0.2,0.1c-0.1,0.1-0.1,0.1-0.1,0.2s0,0.2,0.1,0.2c0.1,0.1,0.1,0.1,0.2,0.1
							s0.1,0,0.2-0.1C473.3,234.2,473.3,234.1,473.3,234z"/>
					</g>
					<g>
						<path d="M478,234.6h0.2c0,0.1,0.1,0.2,0.1,0.2s0.1,0.1,0.2,0.1s0.1,0,0.2-0.1c0.1-0.1,0.1-0.1,0.1-0.2s0-0.1-0.1-0.2
							c0,0-0.1-0.1-0.2-0.1h-0.1v-0.1l0,0c0.1,0,0.1,0,0.2-0.1c0.1-0.1,0.1-0.1,0.1-0.2s0-0.1-0.1-0.2c0,0-0.1-0.1-0.2-0.1
							c-0.1,0-0.1,0-0.2,0.1c0,0-0.1,0.1-0.1,0.2h-0.2c0-0.1,0.1-0.2,0.1-0.3c0.1-0.1,0.2-0.1,0.3-0.1c0.1,0,0.1,0,0.2,0
							s0.1,0.1,0.1,0.1c0,0.1,0,0.1,0,0.2c0,0.1,0,0.1,0,0.2l-0.1,0.1c0.1,0,0.1,0.1,0.2,0.1c0,0.1,0.1,0.1,0.1,0.2s0,0.2-0.1,0.3
							c-0.1,0.1-0.2,0.1-0.3,0.1c-0.1,0-0.2,0-0.3-0.1C478,234.6,478,234.7,478,234.6z"/>
						<path d="M479.1,234.3c0-0.2,0-0.3,0-0.4s0.1-0.2,0.1-0.2c0.1-0.1,0.1-0.1,0.2-0.1c0.1,0,0.1,0,0.2,0c0.1,0,0.1,0.1,0.1,0.1
							c0,0.1,0.1,0.1,0.1,0.2s0,0.2,0,0.3c0,0.2,0,0.3,0,0.4s-0.1,0.2-0.1,0.2c-0.1,0.1-0.1,0.1-0.2,0.1s-0.2,0-0.3-0.1
							C479.1,234.7,479.1,234.5,479.1,234.3z M479.2,234.3c0,0.2,0,0.4,0.1,0.4c0.1,0.1,0.1,0.1,0.2,0.1s0.1,0,0.2-0.1
							c0.1-0.1,0.1-0.2,0.1-0.4c0-0.2,0-0.4-0.1-0.4c-0.1,0-0.1-0.1-0.2-0.1s-0.1,0-0.2,0.1C479.3,233.9,479.2,234.1,479.2,234.3z"
							/>
					</g>
					<g>
						<path d="M484.4,234.6h0.2c0,0.1,0.1,0.2,0.1,0.2s0.1,0.1,0.2,0.1c0.1,0,0.1,0,0.2-0.1c0.1-0.1,0.1-0.1,0.1-0.2s0-0.1-0.1-0.2
							c0,0-0.1-0.1-0.2-0.1h-0.1v-0.1l0,0c0.1,0,0.1,0,0.2-0.1s0.1-0.1,0.1-0.2s0-0.1-0.1-0.2c0,0-0.1-0.1-0.2-0.1
							c-0.1,0-0.1,0-0.2,0.1c0,0-0.1,0.1-0.1,0.2h-0.2c0-0.1,0.1-0.2,0.1-0.3c0.1-0.1,0.2-0.1,0.3-0.1c0.1,0,0.1,0,0.2,0
							c0.1,0,0.1,0.1,0.1,0.1c0,0.1,0,0.1,0,0.2c0,0.1,0,0.1,0,0.2l-0.1,0.1c0.1,0,0.1,0.1,0.2,0.1c0,0.1,0.1,0.1,0.1,0.2
							s0,0.2-0.1,0.3c-0.1,0.1-0.2,0.1-0.3,0.1c-0.1,0-0.2,0-0.3-0.1C484.4,234.6,484.4,234.7,484.4,234.6z"/>
						<path d="M486,234.9h-0.2v-1.1c0,0-0.1,0.1-0.2,0.1c-0.1,0-0.1,0.1-0.2,0.1v-0.2c0.1,0,0.2-0.1,0.2-0.2
							c0.1-0.1,0.1-0.1,0.1-0.2h0.1v1.5H486z"/>
					</g>
					<g>
						<path d="M491,234.6h0.2c0,0.1,0.1,0.2,0.1,0.2s0.1,0.1,0.2,0.1s0.1,0,0.2-0.1c0.1-0.1,0.1-0.1,0.1-0.2s0-0.1-0.1-0.2
							c0,0-0.1-0.1-0.2-0.1h-0.1v-0.1l0,0c0.1,0,0.1,0,0.2-0.1c0.1-0.1,0.1-0.1,0.1-0.2s0-0.1-0.1-0.2c0,0-0.1-0.1-0.2-0.1
							c-0.1,0-0.1,0-0.2,0.1c0,0-0.1,0.1-0.1,0.2h-0.2c0-0.1,0.1-0.2,0.1-0.3c0.1-0.1,0.2-0.1,0.3-0.1c0.1,0,0.1,0,0.2,0
							s0.1,0.1,0.1,0.1c0,0.1,0,0.1,0,0.2c0,0.1,0,0.1,0,0.2l-0.1,0.1c0.1,0,0.1,0.1,0.2,0.1c0,0.1,0.1,0.1,0.1,0.2s0,0.2-0.1,0.3
							c-0.1,0.1-0.2,0.1-0.3,0.1c-0.1,0-0.2,0-0.3-0.1C491,234.6,491,234.7,491,234.6z"/>
						<path d="M492.9,234.8v0.2H492v-0.1c0-0.1,0.1-0.1,0.1-0.2c0-0.1,0.1-0.1,0.2-0.2c0.1-0.1,0.2-0.2,0.3-0.3
							c0.1-0.1,0.1-0.1,0.1-0.2s0-0.1-0.1-0.2c-0.1-0.1-0.1-0.1-0.2-0.1c-0.1,0-0.1,0-0.2,0.1c0,0-0.1,0.1-0.1,0.2h-0.2
							c0-0.1,0.1-0.2,0.1-0.3c0.1-0.1,0.2-0.1,0.3-0.1c0.1,0,0.2,0,0.3,0.1c0.1,0.1,0.1,0.2,0.1,0.3s0,0.1,0,0.2
							c0,0.1-0.1,0.1-0.1,0.2c-0.1,0.1-0.1,0.1-0.3,0.2c-0.1,0.1-0.2,0.1-0.2,0.2l-0.1,0.1h0.9V234.8z"/>
					</g>
					<g>
						<path d="M497.4,234.6h0.2c0,0.1,0.1,0.2,0.1,0.2s0.1,0.1,0.2,0.1c0.1,0,0.1,0,0.2-0.1c0.1-0.1,0.1-0.1,0.1-0.2s0-0.1-0.1-0.2
							c0,0-0.1-0.1-0.2-0.1h-0.1v-0.1l0,0c0.1,0,0.1,0,0.2-0.1s0.1-0.1,0.1-0.2s0-0.1-0.1-0.2c0,0-0.1-0.1-0.2-0.1
							c-0.1,0-0.1,0-0.2,0.1c0,0-0.1,0.1-0.1,0.2h-0.2c0-0.1,0.1-0.2,0.1-0.3c0.1-0.1,0.2-0.1,0.3-0.1c0.1,0,0.1,0,0.2,0
							c0.1,0,0.1,0.1,0.1,0.1c0,0.1,0,0.1,0,0.2c0,0.1,0,0.1,0,0.2l-0.1,0.1c0.1,0,0.1,0.1,0.2,0.1c0,0.1,0.1,0.1,0.1,0.2
							s0,0.2-0.1,0.3c-0.1,0.1-0.2,0.1-0.3,0.1c-0.1,0-0.2,0-0.3-0.1C497.4,234.6,497.4,234.7,497.4,234.6z"/>
						<path d="M498.4,234.6h0.2c0,0.1,0.1,0.2,0.1,0.2s0.1,0.1,0.2,0.1c0.1,0,0.1,0,0.2-0.1c0.1-0.1,0.1-0.1,0.1-0.2s0-0.1-0.1-0.2
							c0,0-0.1-0.1-0.2-0.1h-0.1v-0.1l0,0c0.1,0,0.1,0,0.2-0.1s0.1-0.1,0.1-0.2s0-0.1-0.1-0.2c0,0-0.1-0.1-0.2-0.1
							c-0.1,0-0.1,0-0.2,0.1c0,0-0.1,0.1-0.1,0.2h-0.2c0-0.1,0.1-0.2,0.1-0.3c0.1-0.1,0.2-0.1,0.3-0.1c0.1,0,0.1,0,0.2,0
							c0.1,0,0.1,0.1,0.1,0.1c0,0.1,0,0.1,0,0.2c0,0.1,0,0.1,0,0.2l-0.1,0.1c0.1,0,0.1,0.1,0.2,0.1c0,0.1,0.1,0.1,0.1,0.2
							s0,0.2-0.1,0.3c-0.1,0.1-0.2,0.1-0.3,0.1c-0.1,0-0.2,0-0.3-0.1C498.4,234.6,498.4,234.7,498.4,234.6z"/>
					</g>
					<g>
						<path d="M503.9,234.6h0.2c0,0.1,0.1,0.2,0.1,0.2s0.1,0.1,0.2,0.1c0.1,0,0.1,0,0.2-0.1c0.1-0.1,0.1-0.1,0.1-0.2s0-0.1-0.1-0.2
							c0,0-0.1-0.1-0.2-0.1h-0.1v-0.1l0,0c0.1,0,0.1,0,0.2-0.1s0.1-0.1,0.1-0.2s0-0.1-0.1-0.2c0,0-0.1-0.1-0.2-0.1
							c-0.1,0-0.1,0-0.2,0.1c0,0-0.1,0.1-0.1,0.2h-0.2c0-0.1,0.1-0.2,0.1-0.3c0.1-0.1,0.2-0.1,0.3-0.1c0.1,0,0.1,0,0.2,0
							c0.1,0,0.1,0.1,0.1,0.1c0,0.1,0,0.1,0,0.2c0,0.1,0,0.1,0,0.2l-0.1,0.1c0.1,0,0.1,0.1,0.2,0.1c0,0.1,0.1,0.1,0.1,0.2
							s0,0.2-0.1,0.3c-0.1,0.1-0.2,0.1-0.3,0.1c-0.1,0-0.2,0-0.3-0.1C503.9,234.6,503.9,234.7,503.9,234.6z"/>
						<path d="M505.6,234.9h-0.2v-1.1c0,0-0.1,0.1-0.2,0.1c-0.1,0-0.1,0.1-0.2,0.1v-0.2c0.1,0,0.2-0.1,0.2-0.2
							c0.1-0.1,0.1-0.1,0.1-0.2h0.1v1.5H505.6z"/>
					</g>
					<g>
						<path d="M510.4,234.6h0.2c0,0.1,0.1,0.2,0.1,0.2s0.1,0.1,0.2,0.1c0.1,0,0.1,0,0.2-0.1c0.1-0.1,0.1-0.1,0.1-0.2s0-0.1-0.1-0.2
							c0,0-0.1-0.1-0.2-0.1h-0.1v-0.1l0,0c0.1,0,0.1,0,0.2-0.1s0.1-0.1,0.1-0.2s0-0.1-0.1-0.2c0,0-0.1-0.1-0.2-0.1
							c-0.1,0-0.1,0-0.2,0.1c0,0-0.1,0.1-0.1,0.2h-0.2c0-0.1,0.1-0.2,0.1-0.3c0.1-0.1,0.2-0.1,0.3-0.1c0.1,0,0.1,0,0.2,0
							c0.1,0,0.1,0.1,0.1,0.1c0,0.1,0,0.1,0,0.2c0,0.1,0,0.1,0,0.2l-0.1,0.1c0.1,0,0.1,0.1,0.2,0.1c0,0.1,0.1,0.1,0.1,0.2
							s0,0.2-0.1,0.3c-0.1,0.1-0.2,0.1-0.3,0.1c-0.1,0-0.2,0-0.3-0.1C510.4,234.6,510.4,234.7,510.4,234.6z"/>
						<path d="M512.3,234.8v0.2h-0.9v-0.1c0-0.1,0.1-0.1,0.1-0.2c0-0.1,0.1-0.1,0.2-0.2c0.1-0.1,0.2-0.2,0.3-0.3
							c0.1-0.1,0.1-0.1,0.1-0.2s0-0.1-0.1-0.2c-0.1-0.1-0.1-0.1-0.2-0.1c-0.1,0-0.1,0-0.2,0.1c0,0-0.1,0.1-0.1,0.2h-0.2
							c0-0.1,0.1-0.2,0.1-0.3c0.1-0.1,0.2-0.1,0.3-0.1c0.1,0,0.2,0,0.3,0.1c0.1,0.1,0.1,0.2,0.1,0.3s0,0.1,0,0.2
							c0,0.1-0.1,0.1-0.1,0.2c-0.1,0.1-0.1,0.1-0.3,0.2c-0.1,0.1-0.2,0.1-0.2,0.2l-0.1,0.1h0.9V234.8z"/>
					</g>
					<g>
						<path d="M516.9,234.6h0.2c0,0.1,0.1,0.2,0.1,0.2s0.1,0.1,0.2,0.1c0.1,0,0.1,0,0.2-0.1c0.1-0.1,0.1-0.1,0.1-0.2s0-0.1-0.1-0.2
							c0,0-0.1-0.1-0.2-0.1h-0.1v-0.1l0,0c0.1,0,0.1,0,0.2-0.1s0.1-0.1,0.1-0.2s0-0.1-0.1-0.2c0,0-0.1-0.1-0.2-0.1
							c-0.1,0-0.1,0-0.2,0.1c0,0-0.1,0.1-0.1,0.2h-0.2c0-0.1,0.1-0.2,0.1-0.3c0.1-0.1,0.2-0.1,0.3-0.1c0.1,0,0.1,0,0.2,0
							c0.1,0,0.1,0.1,0.1,0.1c0,0.1,0,0.1,0,0.2c0,0.1,0,0.1,0,0.2l-0.1,0.1c0.1,0,0.1,0.1,0.2,0.1c0,0.1,0.1,0.1,0.1,0.2
							s0,0.2-0.1,0.3c-0.1,0.1-0.2,0.1-0.3,0.1c-0.1,0-0.2,0-0.3-0.1C516.9,234.6,516.9,234.7,516.9,234.6z"/>
						<path d="M517.9,234.6h0.2c0,0.1,0.1,0.2,0.1,0.2s0.1,0.1,0.2,0.1c0.1,0,0.1,0,0.2-0.1c0.1-0.1,0.1-0.1,0.1-0.2s0-0.1-0.1-0.2
							c0,0-0.1-0.1-0.2-0.1h-0.1v-0.1l0,0c0.1,0,0.1,0,0.2-0.1s0.1-0.1,0.1-0.2s0-0.1-0.1-0.2c0,0-0.1-0.1-0.2-0.1
							c-0.1,0-0.1,0-0.2,0.1c0,0-0.1,0.1-0.1,0.2h-0.2c0-0.1,0.1-0.2,0.1-0.3c0.1-0.1,0.2-0.1,0.3-0.1c0.1,0,0.1,0,0.2,0
							c0.1,0,0.1,0.1,0.1,0.1c0,0.1,0,0.1,0,0.2c0,0.1,0,0.1,0,0.2l-0.1,0.1c0.1,0,0.1,0.1,0.2,0.1c0,0.1,0.1,0.1,0.1,0.2
							s0,0.2-0.1,0.3c-0.1,0.1-0.2,0.1-0.3,0.1c-0.1,0-0.2,0-0.3-0.1C517.9,234.6,517.9,234.7,517.9,234.6z"/>
					</g>
					<g>
						<path d="M523.3,234.6h0.2c0,0.1,0.1,0.2,0.1,0.2s0.1,0.1,0.2,0.1c0.1,0,0.1,0,0.2-0.1c0.1-0.1,0.1-0.1,0.1-0.2s0-0.1-0.1-0.2
							c0,0-0.1-0.1-0.2-0.1h-0.1v-0.1l0,0c0.1,0,0.1,0,0.2-0.1c0.1-0.1,0.1-0.1,0.1-0.2s0-0.1-0.1-0.2c0,0-0.1-0.1-0.2-0.1
							c-0.1,0-0.1,0-0.2,0.1c0,0-0.1,0.1-0.1,0.2h-0.2c0-0.1,0.1-0.2,0.1-0.3c0.1-0.1,0.2-0.1,0.3-0.1c0.1,0,0.1,0,0.2,0
							c0.1,0,0.1,0.1,0.1,0.1c0,0.1,0,0.1,0,0.2c0,0.1,0,0.1,0,0.2l-0.1,0.1c0.1,0,0.1,0.1,0.2,0.1c0,0.1,0.1,0.1,0.1,0.2
							s0,0.2-0.1,0.3c-0.1,0.1-0.2,0.1-0.3,0.1c-0.1,0-0.2,0-0.3-0.1C523.3,234.6,523.3,234.7,523.3,234.6z"/>
						<path d="M524.9,234.9v-0.3h-0.6v-0.2l0.6-0.9h0.1v0.9h0.2v0.2H525L524.9,234.9L524.9,234.9z M524.9,234.5v-0.6l-0.4,0.6H524.9
							z"/>
					</g>
					<g>
						<path d="M529.7,234.6h0.2c0,0.1,0.1,0.2,0.1,0.2s0.1,0.1,0.2,0.1c0.1,0,0.1,0,0.2-0.1c0.1-0.1,0.1-0.1,0.1-0.2s0-0.1-0.1-0.2
							c0,0-0.1-0.1-0.2-0.1h-0.1v-0.1l0,0c0.1,0,0.1,0,0.2-0.1c0.1-0.1,0.1-0.1,0.1-0.2s0-0.1-0.1-0.2c0,0-0.1-0.1-0.2-0.1
							c-0.1,0-0.1,0-0.2,0.1c0,0-0.1,0.1-0.1,0.2h-0.2c0-0.1,0.1-0.2,0.1-0.3c0.1-0.1,0.2-0.1,0.3-0.1s0.1,0,0.2,0
							c0.1,0,0.1,0.1,0.1,0.1c0,0.1,0,0.1,0,0.2c0,0.1,0,0.1,0,0.2l-0.1,0.1c0.1,0,0.1,0.1,0.2,0.1c0,0.1,0.1,0.1,0.1,0.2
							s0,0.2-0.1,0.3c-0.1,0.1-0.2,0.1-0.3,0.1c-0.1,0-0.2,0-0.3-0.1C529.7,234.6,529.7,234.7,529.7,234.6z"/>
						<path d="M530.7,234.6h0.2c0,0.1,0,0.1,0.1,0.2c0,0,0.1,0.1,0.2,0.1c0.1,0,0.1,0,0.2-0.1c0.1-0.1,0.1-0.1,0.1-0.2
							s0-0.2-0.1-0.2c-0.1-0.1-0.1-0.1-0.2-0.1c-0.1,0-0.1,0-0.1,0l-0.1,0.1h-0.2l0.1-0.7h0.7v0.2H531l-0.1,0.4
							c0.1-0.1,0.2-0.1,0.3-0.1c0.1,0,0.2,0,0.3,0.1c0.1,0.1,0.1,0.2,0.1,0.3s0,0.2-0.1,0.3s-0.2,0.2-0.4,0.2c-0.1,0-0.2,0-0.3-0.1
							C530.7,234.9,530.7,234.7,530.7,234.6z"/>
					</g>
					<g>
						<path d="M536.2,234.6h0.2c0,0.1,0.1,0.2,0.1,0.2s0.1,0.1,0.2,0.1c0.1,0,0.1,0,0.2-0.1c0.1-0.1,0.1-0.1,0.1-0.2s0-0.1-0.1-0.2
							c0,0-0.1-0.1-0.2-0.1h-0.1v-0.1l0,0c0.1,0,0.1,0,0.2-0.1c0.1-0.1,0.1-0.1,0.1-0.2s0-0.1-0.1-0.2c0,0-0.1-0.1-0.2-0.1
							c-0.1,0-0.1,0-0.2,0.1c0,0-0.1,0.1-0.1,0.2h-0.2c0-0.1,0.1-0.2,0.1-0.3c0.1-0.1,0.2-0.1,0.3-0.1s0.1,0,0.2,0
							c0.1,0,0.1,0.1,0.1,0.1c0,0.1,0,0.1,0,0.2c0,0.1,0,0.1,0,0.2l-0.1,0.1c0.1,0,0.1,0.1,0.2,0.1c0,0.1,0.1,0.1,0.1,0.2
							s0,0.2-0.1,0.3c-0.1,0.1-0.2,0.1-0.3,0.1c-0.1,0-0.2,0-0.3-0.1C536.2,234.6,536.2,234.7,536.2,234.6z"/>
						<path d="M538.1,233.9h-0.2c0-0.1,0-0.1-0.1-0.1c0,0-0.1-0.1-0.2-0.1c-0.1,0-0.1,0-0.1,0c-0.1,0-0.1,0.1-0.1,0.2s0,0.2,0,0.3
							c0-0.1,0.1-0.1,0.1-0.1c0.1,0,0.1,0,0.2,0c0.1,0,0.2,0,0.3,0.1c0.1,0.1,0.1,0.2,0.1,0.3s0,0.2-0.1,0.2c0,0.1-0.1,0.1-0.2,0.2
							c-0.1,0.1-0.1,0.1-0.2,0.1c-0.1,0-0.3-0.1-0.3-0.2c-0.1-0.1-0.1-0.3-0.1-0.5c0-0.3,0-0.4,0.1-0.6c0.1-0.1,0.2-0.2,0.3-0.2
							c0.1,0,0.2,0,0.3,0.1C538.1,233.7,538.1,233.8,538.1,233.9z M537.4,234.5c0,0.1,0,0.1,0,0.2c0,0.1,0.1,0.1,0.1,0.1h0.1
							c0.1,0,0.1,0,0.2-0.1c0-0.1,0.1-0.1,0.1-0.2s0-0.2-0.1-0.2c-0.1,0-0.1-0.1-0.2-0.1c-0.1,0-0.1,0-0.2,0.1
							C537.3,234.4,537.4,234.4,537.4,234.5z"/>
					</g>
					<g>
						<path d="M542.4,234.6h0.2c0,0.1,0.1,0.2,0.1,0.2s0.1,0.1,0.2,0.1c0.1,0,0.1,0,0.2-0.1c0.1-0.1,0.1-0.1,0.1-0.2s0-0.1-0.1-0.2
							c0,0-0.1-0.1-0.2-0.1h-0.1v-0.1l0,0c0.1,0,0.1,0,0.2-0.1s0.1-0.1,0.1-0.2s0-0.1-0.1-0.2c0,0-0.1-0.1-0.2-0.1
							c-0.1,0-0.1,0-0.2,0.1c0,0-0.1,0.1-0.1,0.2h-0.2c0-0.1,0.1-0.2,0.1-0.3c0.1-0.1,0.2-0.1,0.3-0.1c0.1,0,0.1,0,0.2,0
							c0.1,0,0.1,0.1,0.1,0.1c0,0.1,0,0.1,0,0.2c0,0.1,0,0.1,0,0.2l-0.1,0.1c0.1,0,0.1,0.1,0.2,0.1c0,0.1,0.1,0.1,0.1,0.2
							s0,0.2-0.1,0.3c-0.1,0.1-0.2,0.1-0.3,0.1c-0.1,0-0.2,0-0.3-0.1C542.4,234.6,542.4,234.7,542.4,234.6z"/>
						<path d="M543.4,233.8v-0.2h0.9v0.1c-0.1,0.1-0.2,0.2-0.3,0.4c-0.1,0.2-0.1,0.3-0.2,0.5c0,0.1-0.1,0.2-0.1,0.4h-0.2
							c0-0.1,0-0.2,0.1-0.4c0-0.1,0.1-0.3,0.2-0.4c0.1-0.1,0.2-0.3,0.2-0.4H543.4L543.4,233.8z"/>
					</g>
					<g>
						<path d="M548.8,234.6h0.2c0,0.1,0.1,0.2,0.1,0.2s0.1,0.1,0.2,0.1c0.1,0,0.1,0,0.2-0.1c0.1-0.1,0.1-0.1,0.1-0.2s0-0.1-0.1-0.2
							c0,0-0.1-0.1-0.2-0.1h-0.1v-0.1l0,0c0.1,0,0.1,0,0.2-0.1c0.1-0.1,0.1-0.1,0.1-0.2s0-0.1-0.1-0.2c0,0-0.1-0.1-0.2-0.1
							c-0.1,0-0.1,0-0.2,0.1c0,0-0.1,0.1-0.1,0.2h-0.2c0-0.1,0.1-0.2,0.1-0.3c0.1-0.1,0.2-0.1,0.3-0.1c0.1,0,0.1,0,0.2,0
							c0.1,0,0.1,0.1,0.1,0.1c0,0.1,0,0.1,0,0.2c0,0.1,0,0.1,0,0.2l-0.1,0.1c0.1,0,0.1,0.1,0.2,0.1c0,0.1,0.1,0.1,0.1,0.2
							s0,0.2-0.1,0.3c-0.1,0.1-0.2,0.1-0.3,0.1c-0.1,0-0.2,0-0.3-0.1C548.8,234.6,548.8,234.7,548.8,234.6z"/>
						<path d="M550.1,234.2c-0.1,0-0.1-0.1-0.2-0.1c-0.1,0,0-0.1,0-0.2s0-0.2,0.1-0.2c0.1-0.1,0.2-0.1,0.3-0.1c0.1,0,0.2,0,0.3,0.1
							c0.1,0.1,0.1,0.2,0.1,0.2c0,0.1,0,0.1,0,0.2l-0.1,0.1c0.1,0,0.1,0.1,0.2,0.1c0,0.1,0.1,0.1,0.1,0.2s0,0.2-0.1,0.3
							c-0.1,0.1-0.2,0.1-0.3,0.1s-0.2,0-0.3-0.1c-0.1-0.1-0.1-0.2-0.1-0.3s0-0.2,0.1-0.2C550.3,234.3,550,234.2,550.1,234.2z
							 M550,234.6v0.1l0.1,0.1h0.1c0.1,0,0.1,0,0.2-0.1c0.1-0.1,0.1-0.1,0.1-0.2s0-0.1-0.1-0.2c-0.1-0.1-0.1-0.1-0.2-0.1
							c-0.1,0-0.1,0-0.2,0.1C549.9,234.4,550,234.5,550,234.6z M550.1,233.9c0,0.1,0,0.1,0.1,0.2c0,0,0.1,0.1,0.2,0.1
							c0.1,0,0.1,0,0.2-0.1c0.1-0.1,0.1-0.1,0.1-0.1c0-0.1,0-0.1-0.1-0.2c0,0-0.1-0.1-0.2-0.1c-0.1,0-0.1,0-0.2,0.1
							C550.1,233.8,550.1,233.9,550.1,233.9z"/>
					</g>
					<g>
						<path d="M555.2,234.6h0.2c0,0.1,0.1,0.2,0.1,0.2s0.1,0.1,0.2,0.1c0.1,0,0.1,0,0.2-0.1c0.1-0.1,0.1-0.1,0.1-0.2s0-0.1-0.1-0.2
							c0,0-0.1-0.1-0.2-0.1h-0.1v-0.1l0,0c0.1,0,0.1,0,0.2-0.1c0.1-0.1,0.1-0.1,0.1-0.2s0-0.1-0.1-0.2c0,0-0.1-0.1-0.2-0.1
							c-0.1,0-0.1,0-0.2,0.1c0,0-0.1,0.1-0.1,0.2h-0.2c0-0.1,0.1-0.2,0.1-0.3c0.1-0.1,0.2-0.1,0.3-0.1s0.1,0,0.2,0
							c0.1,0,0.1,0.1,0.1,0.1c0,0.1,0,0.1,0,0.2c0,0.1,0,0.1,0,0.2l-0.1,0.1c0.1,0,0.1,0.1,0.2,0.1c0,0.1,0.1,0.1,0.1,0.2
							s0,0.2-0.1,0.3c-0.1,0.1-0.2,0.1-0.3,0.1c-0.1,0-0.2,0-0.3-0.1C555.2,234.6,555.2,234.7,555.2,234.6z"/>
						<path d="M556.3,234.6h0.2c0,0.1,0,0.1,0.1,0.2c0.1,0.1,0.1,0.1,0.1,0.1c0.1,0,0.1,0,0.1,0l0.1-0.1c0,0,0-0.1,0.1-0.2
							c0-0.1,0-0.1,0-0.2l0,0c0,0.1-0.1,0.1-0.1,0.1c-0.1,0-0.1,0-0.2,0c-0.1,0-0.2,0-0.3-0.1c-0.1-0.1-0.1-0.2-0.1-0.3
							s0-0.2,0.1-0.3c0.1-0.1,0.2-0.1,0.3-0.1c0.1,0,0.2,0,0.2,0.1c0.1,0,0.1,0.1,0.2,0.2c0,0.1,0.1,0.2,0.1,0.4
							c0,0.2,0,0.3-0.1,0.4c-0.1,0.1-0.1,0.2-0.2,0.2c-0.1,0.1-0.2,0.1-0.3,0.1c-0.1,0-0.2,0-0.3-0.1
							C556.3,234.8,556.3,234.7,556.3,234.6z M557,234c0-0.1,0-0.2-0.1-0.2c0-0.1-0.1-0.1-0.2-0.1c-0.1,0-0.1,0-0.2,0.1
							c-0.1,0.1-0.1,0.1-0.1,0.2s0,0.2,0.1,0.2c0.1,0.1,0.1,0.1,0.2,0.1c0.1,0,0.1,0,0.2-0.1C556.9,234.2,557,234.1,557,234z"/>
					</g>
					<g>
						<path d="M562.4,234.8v-0.3h-0.6v-0.2l0.6-0.9h0.1v0.9h0.2v0.2h-0.2L562.4,234.8L562.4,234.8z M562.4,234.4v-0.6l-0.4,0.6
							H562.4z"/>
						<path d="M563,234.2c0-0.2,0-0.3,0-0.4c0-0.1,0.1-0.2,0.1-0.2c0.1-0.1,0.1-0.1,0.2-0.1c0.1,0,0.1,0,0.2,0s0.1,0.1,0.1,0.1
							c0,0.1,0.1,0.1,0.1,0.2c0,0.1,0,0.2,0,0.3c0,0.2,0,0.3,0,0.4s-0.1,0.2-0.1,0.2c-0.1,0.1-0.1,0.1-0.2,0.1c-0.1,0-0.2,0-0.3-0.1
							C563,234.6,563,234.4,563,234.2z M563.1,234.2c0,0.2,0,0.4,0.1,0.4c0.1,0.1,0.1,0.1,0.2,0.1c0.1,0,0.1,0,0.2-0.1
							c0.1-0.1,0.1-0.2,0.1-0.4c0-0.2,0-0.4-0.1-0.4c-0.1,0-0.1-0.1-0.2-0.1c-0.1,0-0.1,0-0.2,0.1
							C563.1,233.8,563.1,234,563.1,234.2z"/>
					</g>
					<g>
						<path d="M568.9,234.8v-0.3h-0.6v-0.2l0.6-0.9h0.1v0.9h0.2v0.2H569L568.9,234.8L568.9,234.8z M568.9,234.4v-0.6l-0.4,0.6H568.9
							z"/>
						<path d="M570,234.8h-0.2v-1.1c0,0-0.1,0.1-0.2,0.1c-0.1,0-0.1,0.1-0.2,0.1v-0.2c0.1,0,0.2-0.1,0.2-0.2
							c0.1-0.1,0.1-0.1,0.1-0.2h0.1v1.5H570z"/>
					</g>
					<g>
						<path d="M575.4,234.8v-0.3h-0.6v-0.2l0.6-0.9h0.1v0.9h0.2v0.2h-0.2L575.4,234.8L575.4,234.8z M575.4,234.4v-0.6l-0.4,0.6
							H575.4z"/>
						<path d="M576.8,234.7v0.2h-0.9v-0.1c0-0.1,0.1-0.1,0.1-0.2s0.1-0.1,0.2-0.2c0.1-0.1,0.2-0.2,0.3-0.3s0.1-0.1,0.1-0.2
							s0-0.1-0.1-0.2c-0.1-0.1-0.1-0.1-0.2-0.1c-0.1,0-0.1,0-0.2,0.1c0,0-0.1,0.1-0.1,0.2h-0.2c0-0.1,0.1-0.2,0.1-0.3
							c0.1-0.1,0.2-0.1,0.3-0.1c0.1,0,0.2,0,0.3,0.1s0.1,0.2,0.1,0.3s0,0.1,0,0.2s-0.1,0.1-0.1,0.2c-0.1,0.1-0.1,0.1-0.3,0.2
							c-0.1,0.1-0.2,0.1-0.2,0.2l-0.1,0.1L576.8,234.7L576.8,234.7z"/>
					</g>
					<g>
						<path d="M581.3,234.8v-0.3h-0.6v-0.2l0.6-0.9h0.1v0.9h0.2v0.2h-0.2v0.3H581.3z M581.3,234.4v-0.6l-0.4,0.6H581.3z"/>
						<path d="M581.9,234.5h0.2c0,0.1,0.1,0.2,0.1,0.2s0.1,0.1,0.2,0.1c0.1,0,0.1,0,0.2-0.1c0.1-0.1,0.1-0.1,0.1-0.2s0-0.1-0.1-0.2
							c0,0-0.1-0.1-0.2-0.1h-0.1v-0.1l0,0c0.1,0,0.1,0,0.2-0.1s0.1-0.1,0.1-0.2c0-0.1,0-0.1-0.1-0.2c0,0-0.1-0.1-0.2-0.1
							c-0.1,0-0.1,0-0.2,0.1c0,0-0.1,0.1-0.1,0.2h-0.2c0-0.1,0.1-0.2,0.1-0.3c0.1-0.1,0.2-0.1,0.3-0.1c0.1,0,0.1,0,0.2,0
							c0.1,0,0.1,0.1,0.1,0.1c0,0.1,0,0.1,0,0.2c0,0.1,0,0.1,0,0.2l-0.1,0.1c0.1,0,0.1,0.1,0.2,0.1c0,0.1,0.1,0.1,0.1,0.2
							c0,0.1,0,0.2-0.1,0.3c-0.1,0.1-0.2,0.1-0.3,0.1c-0.1,0-0.2,0-0.3-0.1S581.9,234.6,581.9,234.5z"/>
					</g>
					<g>
						<path d="M587.8,234.8v-0.3h-0.6v-0.2l0.6-0.9h0.1v0.9h0.2v0.2H588v0.3H587.8z M587.8,234.4v-0.6l-0.4,0.6H587.8z"/>
						<path d="M588.8,234.8v-0.3h-0.6v-0.2l0.6-0.9h0.1v0.9h0.2v0.2H589v0.3H588.8z M588.8,234.4v-0.6l-0.4,0.6H588.8z"/>
					</g>
					<g>
						<path d="M594.4,234.8v-0.3h-0.6v-0.2l0.6-0.9h0.1v0.9h0.2v0.2h-0.2L594.4,234.8L594.4,234.8z M594.4,234.4v-0.6l-0.4,0.6
							H594.4z"/>
						<path d="M594.9,234.5h0.2c0,0.1,0,0.1,0.1,0.2c0,0,0.1,0.1,0.2,0.1c0.1,0,0.1,0,0.2-0.1c0.1-0.1,0.1-0.1,0.1-0.2
							s0-0.2-0.1-0.2c-0.1-0.1-0.1-0.1-0.2-0.1c-0.1,0-0.1,0-0.1,0l-0.1,0.1H595l0.1-0.7h0.7v0.2h-0.5l-0.1,0.4
							c0.1-0.1,0.2-0.1,0.3-0.1s0.2,0,0.3,0.1c0.1,0.1,0.1,0.2,0.1,0.3s0,0.2-0.1,0.3c-0.1,0.1-0.2,0.2-0.4,0.2
							c-0.1,0-0.2,0-0.3-0.1C595,234.8,594.9,234.6,594.9,234.5z"/>
					</g>
					<g>
						<path d="M601,234.8v-0.3h-0.6v-0.2l0.6-0.9h0.1v0.9h0.2v0.2h-0.2L601,234.8L601,234.8z M601,234.4v-0.6l-0.4,0.6H601z"/>
						<path d="M602.4,233.8h-0.2c0-0.1,0-0.1-0.1-0.1c0,0-0.1-0.1-0.2-0.1c-0.1,0-0.1,0-0.1,0c-0.1,0-0.1,0.1-0.1,0.2
							c0,0.1,0,0.2,0,0.3c0-0.1,0.1-0.1,0.1-0.1c0.1,0,0.1,0,0.2,0s0.2,0,0.3,0.1c0.1,0.1,0.1,0.2,0.1,0.3s0,0.2-0.1,0.2
							c0,0.1-0.1,0.1-0.2,0.2c-0.1,0.1-0.1,0.1-0.2,0.1c-0.1,0-0.3-0.1-0.3-0.2c-0.1-0.1-0.1-0.3-0.1-0.5c0-0.3,0-0.4,0.1-0.6
							c0.1-0.1,0.2-0.2,0.3-0.2c0.1,0,0.2,0,0.3,0.1C602.4,233.6,602.4,233.7,602.4,233.8z M601.7,234.4c0,0.1,0,0.1,0,0.2
							s0.1,0.1,0.1,0.1h0.1c0.1,0,0.1,0,0.2-0.1c0-0.1,0.1-0.1,0.1-0.2s0-0.2-0.1-0.2c-0.1,0-0.1-0.1-0.2-0.1c-0.1,0-0.1,0-0.2,0.1
							C601.6,234.3,601.7,234.3,601.7,234.4z"/>
					</g>
					<g>
						<path d="M607.4,234.8v-0.3h-0.6v-0.2l0.6-0.9h0.1v0.9h0.2v0.2h-0.2L607.4,234.8L607.4,234.8z M607.4,234.4v-0.6l-0.4,0.6
							H607.4z"/>
						<path d="M607.9,233.7v-0.2h0.9v0.1c-0.1,0.1-0.2,0.2-0.3,0.4s-0.1,0.3-0.2,0.5c0,0.1-0.1,0.2-0.1,0.4H608c0-0.1,0-0.2,0.1-0.4
							c0-0.1,0.1-0.3,0.2-0.4c0.1-0.1,0.2-0.3,0.2-0.4H607.9z"/>
					</g>
					<g>
						<path d="M613.8,234.8v-0.3h-0.6v-0.2l0.6-0.9h0.1v0.9h0.2v0.2H614v0.3H613.8z M613.8,234.4v-0.6l-0.4,0.6H613.8z"/>
						<path d="M614.6,234.1c-0.1,0-0.1-0.1-0.2-0.1c-0.1,0,0-0.1,0-0.2c0-0.1,0-0.2,0.1-0.2c0.1-0.1,0.2-0.1,0.3-0.1
							c0.1,0,0.2,0,0.3,0.1c0.1,0.1,0.1,0.2,0.1,0.2c0,0.1,0,0.1,0,0.2l-0.1,0.1c0.1,0,0.1,0.1,0.2,0.1c0,0.1,0.1,0.1,0.1,0.2
							s0,0.2-0.1,0.3c-0.1,0.1-0.2,0.1-0.3,0.1s-0.2,0-0.3-0.1c-0.1-0.1-0.1-0.2-0.1-0.3s0-0.2,0.1-0.2
							C614.8,234.2,614.5,234.1,614.6,234.1z M614.5,234.5v0.1l0.1,0.1h0.1c0.1,0,0.1,0,0.2-0.1c0.1-0.1,0.1-0.1,0.1-0.2
							s0-0.1-0.1-0.2c-0.1-0.1-0.1-0.1-0.2-0.1c-0.1,0-0.1,0-0.2,0.1C614.4,234.3,614.5,234.4,614.5,234.5z M614.6,233.8
							c0,0.1,0,0.1,0.1,0.2c0,0,0.1,0.1,0.2,0.1c0.1,0,0.1,0,0.2-0.1c0.1-0.1,0.1-0.1,0.1-0.1c0-0.1,0-0.1-0.1-0.2
							c0,0-0.1-0.1-0.2-0.1c-0.1,0-0.1,0-0.2,0.1C614.6,233.7,614.6,233.8,614.6,233.8z"/>
					</g>
					<g>
						<path d="M620,234.8v-0.3h-0.6v-0.2l0.6-0.9h0.1v0.9h0.2v0.2h-0.2L620,234.8L620,234.8z M620,234.4v-0.6l-0.4,0.6H620z"/>
						<path d="M620.5,234.5h0.2c0,0.1,0,0.1,0.1,0.2c0.1,0.1,0.1,0.1,0.1,0.1c0.1,0,0.1,0,0.1,0l0.1-0.1c0,0,0-0.1,0.1-0.2
							c0-0.1,0-0.1,0-0.2l0,0c0,0.1-0.1,0.1-0.1,0.1c-0.1,0-0.1,0-0.2,0c-0.1,0-0.2,0-0.3-0.1c-0.1-0.1-0.1-0.2-0.1-0.3
							s0-0.2,0.1-0.3c0.1-0.1,0.2-0.1,0.3-0.1c0.1,0,0.2,0,0.2,0.1c0.1,0,0.1,0.1,0.2,0.2c0,0.1,0.1,0.2,0.1,0.4
							c0,0.2,0,0.3-0.1,0.4c-0.1,0.1-0.1,0.2-0.2,0.2c-0.1,0.1-0.2,0.1-0.3,0.1c-0.1,0-0.2,0-0.3-0.1
							C620.6,234.7,620.5,234.6,620.5,234.5z M621.2,233.9c0-0.1,0-0.2-0.1-0.2c0-0.1-0.1-0.1-0.2-0.1c-0.1,0-0.1,0-0.2,0.1
							c-0.1,0.1-0.1,0.1-0.1,0.2s0,0.2,0.1,0.2c0.1,0.1,0.1,0.1,0.2,0.1c0.1,0,0.1,0,0.2-0.1C621.2,234.1,621.2,234,621.2,233.9z"/>
					</g>
					<g>
						<path d="M626.1,234.5h0.2c0,0.1,0,0.1,0.1,0.2c0,0,0.1,0.1,0.2,0.1c0.1,0,0.1,0,0.2-0.1c0.1-0.1,0.1-0.1,0.1-0.2
							s0-0.2-0.1-0.2c-0.1-0.1-0.1-0.1-0.2-0.1c-0.1,0-0.1,0-0.1,0l-0.1,0.1h-0.2l0.1-0.7h0.7v0.2h-0.5l-0.1,0.4
							c0.1-0.1,0.2-0.1,0.3-0.1c0.1,0,0.2,0,0.3,0.1c0.1,0.1,0.1,0.2,0.1,0.3s0,0.2-0.1,0.3c-0.1,0.1-0.2,0.2-0.4,0.2
							c-0.1,0-0.2,0-0.3-0.1C626.2,234.8,626.1,234.6,626.1,234.5z"/>
						<path d="M627.2,234.2c0-0.2,0-0.3,0-0.4c0-0.1,0.1-0.2,0.1-0.2c0.1-0.1,0.1-0.1,0.2-0.1s0.1,0,0.2,0c0.1,0,0.1,0.1,0.1,0.1
							c0,0.1,0.1,0.1,0.1,0.2c0,0.1,0,0.2,0,0.3c0,0.2,0,0.3,0,0.4s-0.1,0.2-0.1,0.2c-0.1,0.1-0.1,0.1-0.2,0.1c-0.1,0-0.2,0-0.3-0.1
							C627.2,234.6,627.2,234.4,627.2,234.2z M627.3,234.2c0,0.2,0,0.4,0.1,0.4c0.1,0.1,0.1,0.1,0.2,0.1c0.1,0,0.1,0,0.2-0.1
							c0.1-0.1,0.1-0.2,0.1-0.4c0-0.2,0-0.4-0.1-0.4c-0.1,0-0.1-0.1-0.2-0.1c-0.1,0-0.1,0-0.2,0.1
							C627.3,233.8,627.3,234,627.3,234.2z"/>
					</g>
				</g>
			</g>
			<g>
				<g>
					
						<radialGradient id="SVGID_21_" cx="-183.3677" cy="811.4717" r="101.8368" gradientTransform="matrix(1.5949 0 0 -1.5949 748.0764 1526.3533)" gradientUnits="userSpaceOnUse">
						<stop  offset="0" style="stop-color:#FFFFFF;stop-opacity:0.5098"/>
						<stop  offset="1" style="stop-color:#F7F7F7;stop-opacity:0"/>
					</radialGradient>
					<path fill="url(#SVGID_21_)" d="M618.2,232.4c0,0-0.1,0-0.2,0H293.2c-0.1,0-0.1,0-0.2,0c0,0,0-0.1,0-0.2c0-0.1,0-0.1,0-0.2
						c0,0,0.1,0,0.2,0H618c0.1,0,0.1,0,0.2,0c0,0,0,0.1,0,0.2C618.3,232.3,618.2,232.3,618.2,232.4z"/>
					
						<radialGradient id="SVGID_22_" cx="-183.3804" cy="824.0703" r="101.8495" gradientTransform="matrix(1.5949 0 0 -1.5949 748.0764 1526.3533)" gradientUnits="userSpaceOnUse">
						<stop  offset="0" style="stop-color:#FFFFFF;stop-opacity:0.2902"/>
						<stop  offset="1" style="stop-color:#F7F7F7;stop-opacity:0"/>
					</radialGradient>
					<path fill="url(#SVGID_22_)" d="M604.6,212.3c0,0-0.1,0-0.2,0H297.1c-0.1,0-0.1,0-0.2,0c0,0,0-0.1,0-0.2s0-0.1,0-0.2
						c0,0,0.1,0,0.2,0h307.4c0.1,0,0.1,0,0.2,0c0,0,0,0.1,0,0.2S604.7,212.2,604.6,212.3z"/>
					
						<radialGradient id="SVGID_23_" cx="-183.3677" cy="791.5703" r="101.8368" gradientTransform="matrix(1.5949 0 0 -1.5949 748.0764 1526.3533)" gradientUnits="userSpaceOnUse">
						<stop  offset="0" style="stop-color:#FFFFFF;stop-opacity:0.1882"/>
						<stop  offset="1" style="stop-color:#F7F7F7;stop-opacity:0"/>
					</radialGradient>
					<path fill="url(#SVGID_23_)" d="M618.2,264.1c0,0-0.1,0-0.2,0H293.2c-0.1,0-0.1,0-0.2,0c0,0,0-0.1,0-0.2s0-0.1,0-0.2
						c0,0,0.1,0,0.2,0H618c0.1,0,0.1,0,0.2,0c0,0,0,0.1,0,0.2C618.3,264,618.2,264.1,618.2,264.1z"/>
				</g>
			</g>
			<g>
				<g>
					
						<radialGradient id="SVGID_24_" cx="-99.3325" cy="811.4717" r="28.6019" gradientTransform="matrix(1.5949 0 0 -1.5949 748.0764 1526.3533)" gradientUnits="userSpaceOnUse">
						<stop  offset="0" style="stop-color:#FFFFFF;stop-opacity:0.2902"/>
						<stop  offset="1" style="stop-color:#F7F7F7;stop-opacity:0"/>
					</radialGradient>
					<path fill="url(#SVGID_24_)" d="M543.9,232c0,0,0.1,0,0.2,0h91.2c0.1,0,0.1,0,0.2,0c0,0,0,0.1,0,0.2c0,0.1,0,0.1,0,0.2
						c0,0-0.1,0-0.2,0H544c-0.1,0-0.1,0-0.2,0c0,0,0-0.1,0-0.2C543.8,232.1,543.8,232,543.9,232z"/>
					
						<radialGradient id="SVGID_25_" cx="-84.4805" cy="818.7207" r="5.9" gradientTransform="matrix(1.5949 0 0 -1.5949 748.0764 1526.3533)" gradientUnits="userSpaceOnUse">
						<stop  offset="0" style="stop-color:#FFFFFF;stop-opacity:0.2902"/>
						<stop  offset="1" style="stop-color:#F7F7F7;stop-opacity:0"/>
					</radialGradient>
					<path fill="url(#SVGID_25_)" d="M606.3,214.2h0.1l13.6,12.6c0,0,0.1,0.1,0.1,0.2v0.1c0,0-0.1,0.1-0.2,0.1h-0.1l-13.6-12.6
						c0,0-0.1-0.1-0.1-0.2v-0.1C606.2,214.2,606.3,214.2,606.3,214.2z"/>
					
						<radialGradient id="SVGID_26_" cx="-99.5205" cy="791.5205" r="23.7394" gradientTransform="matrix(1.5949 0 0 -1.5949 748.0764 1526.3533)" gradientUnits="userSpaceOnUse">
						<stop  offset="0" style="stop-color:#FFFFFF;stop-opacity:0.2902"/>
						<stop  offset="1" style="stop-color:#F7F7F7;stop-opacity:0"/>
					</radialGradient>
					<path fill="url(#SVGID_26_)" d="M627.3,264.1c0,0-0.1,0-0.2,0h-75.5c-0.1,0-0.1,0-0.2,0c0,0,0-0.1,0-0.2s0-0.1,0-0.2
						c0,0,0.1,0,0.2,0h75.5c0.1,0,0.1,0,0.2,0c0,0,0,0.1,0,0.2S627.3,264.1,627.3,264.1z"/>
					
						<radialGradient id="SVGID_27_" cx="-273.6064" cy="811.4717" r="23.1757" gradientTransform="matrix(1.5949 0 0 -1.5949 748.0764 1526.3533)" gradientUnits="userSpaceOnUse">
						<stop  offset="0" style="stop-color:#FFFFFF;stop-opacity:0.2902"/>
						<stop  offset="1" style="stop-color:#F7F7F7;stop-opacity:0"/>
					</radialGradient>
					<path fill="url(#SVGID_27_)" d="M274.5,232c0,0,0.1,0,0.2,0h74c0.1,0,0.1,0,0.2,0c0,0,0,0.1,0,0.2c0,0.1,0,0.1,0,0.2
						c0,0-0.1,0-0.2,0h-74c-0.1,0-0.1,0-0.2,0c0,0,0-0.1,0-0.2C274.5,232.1,274.5,232,274.5,232z"/>
					
						<radialGradient id="SVGID_28_" cx="-284.6802" cy="819.0713" r="5.4" gradientTransform="matrix(1.5949 0 0 -1.5949 748.0764 1526.3533)" gradientUnits="userSpaceOnUse">
						<stop  offset="0" style="stop-color:#FFFFFF;stop-opacity:0.2902"/>
						<stop  offset="1" style="stop-color:#F7F7F7;stop-opacity:0"/>
					</radialGradient>
					<path fill="url(#SVGID_28_)" d="M289.8,227.7L289.8,227.7c-0.2,0-0.2-0.1-0.2-0.1v-0.1l8.5-15c0-0.1,0.1-0.1,0.1-0.1h0.1
						c0.1,0,0.1,0.1,0.1,0.1v0.1l-8.5,15L289.8,227.7z"/>
					
						<radialGradient id="SVGID_29_" cx="-289.8804" cy="799.6719" r="6.9" gradientTransform="matrix(1.5949 0 0 -1.5949 748.0764 1526.3533)" gradientUnits="userSpaceOnUse">
						<stop  offset="0" style="stop-color:#FFFFFF;stop-opacity:0.2902"/>
						<stop  offset="1" style="stop-color:#F7F7F7;stop-opacity:0"/>
					</radialGradient>
					<path fill="url(#SVGID_29_)" d="M285.7,239.8c0.1,0,0.1,0,0.2,0c0,0,0,0.1,0,0.2v21.9c0,0.1,0,0.1,0,0.2c0,0-0.1,0-0.2,0
						c-0.1,0-0.1,0-0.2,0c0,0,0-0.1,0-0.2V240c0-0.1,0-0.1,0-0.2C285.6,239.8,285.7,239.7,285.7,239.8z"/>
					
						<radialGradient id="SVGID_30_" cx="-248.4951" cy="791.5205" r="40.8646" gradientTransform="matrix(1.5949 0 0 -1.5949 748.0764 1526.3533)" gradientUnits="userSpaceOnUse">
						<stop  offset="0" style="stop-color:#FFFFFF;stop-opacity:0.2902"/>
						<stop  offset="1" style="stop-color:#F7F7F7;stop-opacity:0"/>
					</radialGradient>
					<path fill="url(#SVGID_30_)" d="M417.1,264.1c0,0-0.1,0-0.2,0H286.6c-0.1,0-0.1,0-0.2,0c0,0,0-0.1,0-0.2s0-0.1,0-0.2
						c0,0,0.1,0,0.2,0h130.3c0.1,0,0.1,0,0.2,0c0,0,0,0.1,0,0.2S417.1,264.1,417.1,264.1z"/>
				</g>
			</g>
		</g>
		<g>
			<g>
				<g>
					
						<linearGradient id="SVGID_31_" gradientUnits="userSpaceOnUse" x1="-181.5718" y1="992.7813" x2="-175.3903" y2="992.7813" gradientTransform="matrix(-0.258 -1.5739 -1.6162 -2.376820e-004 1845.6466 -65.206)">
						<stop  offset="0" style="stop-color:#6A957B"/>
						<stop  offset="0.3216" style="stop-color:#749C84"/>
						<stop  offset="1" style="stop-color:#476656"/>
					</linearGradient>
					<path fill="url(#SVGID_31_)" d="M285,210h7.1c0.2,6.7,0,10.3-0.6,10.8h-9.3c0-0.1,0.5-1,1.4-2.8C284.5,216.3,285,213.6,285,210
						z"/>
					<polygon fill="#6A957B" points="294.9,206.9 292.1,210 285,210 287.8,206.9 					"/>
					
						<linearGradient id="SVGID_32_" gradientUnits="userSpaceOnUse" x1="-86.4453" y1="970.2012" x2="-81.2566" y2="970.2012" gradientTransform="matrix(-1.0606 -1.1912 -1.2313 1.0155 1398.3002 -871.8761)">
						<stop  offset="0" style="stop-color:#486250"/>
						<stop  offset="1" style="stop-color:#334437"/>
					</linearGradient>
					<path fill="url(#SVGID_32_)" d="M294.9,206.9c0.3,2.2,1.3,3.9,3,5.2l-6.2,8.9h-0.1c0.6-0.6,0.7-4.2,0.6-10.8L294.9,206.9z"/>
					<polygon fill="#3D5445" points="291.6,220.9 291.6,220.9 292.1,223.5 282.8,223.5 282.3,220.9 					"/>
					<polygon fill="#354A3E" points="291.6,220.9 297.9,212 298.2,214 292.1,223.5 					"/>
				</g>
			</g>
			<g>
				<g>
					<line fill="none" x1="292.1" y1="210" x2="294.4" y2="207.3"/>
					<line fill="none" x1="291.6" y1="220.8" x2="283.7" y2="221"/>
					<path fill="none" d="M292.1,210c0.2,4.1,0,7.6-0.6,10.8"/>
					<line fill="none" x1="285.3" y1="210" x2="291.4" y2="210"/>
				</g>
			</g>
			<g>
				<path fill="#131C16" d="M294.5,209.8c0.2,0.3,0.2,0.7,0.2,1.2s-0.1,0.9-0.2,1.2c-0.1,0.3-0.2,0.4-0.4,0.3
					c-0.2-0.1-0.3-0.3-0.4-0.5c-0.1-0.2-0.2-0.6-0.2-1s0-0.8,0.1-1.2c0.1-0.4,0.2-0.5,0.4-0.4C294.2,209.4,294.4,209.5,294.5,209.8z
					"/>
			</g>
		</g>
		<g>
			<g>
				<polygon fill="#354A3E" points="608.2,213.4 617.1,220.9 617.1,223.3 608.3,215.5 				"/>
				
					<linearGradient id="SVGID_33_" gradientUnits="userSpaceOnUse" x1="-85.2593" y1="820.7158" x2="-82.7553" y2="823.9377" gradientTransform="matrix(1.5949 0 0 -1.5949 748.0764 1526.3533)">
					<stop  offset="0" style="stop-color:#486250"/>
					<stop  offset="1" style="stop-color:#334437"/>
				</linearGradient>
				<path fill="url(#SVGID_33_)" d="M615.3,210c-0.2,1-0.2,2.6,0.1,4.9c0.2,2.2,0.8,4.2,1.8,6l-8.9-7.5c0.7-0.3,1.3-0.7,1.8-1.4
					l0.1-0.1l1.2-2.4v-0.1c0.2-0.5,0.3-1.1,0.4-1.7L615.3,210z"/>
				<polygon fill="#6A957B" points="622.4,210 615.3,210 611.7,207.7 618.3,207.7 				"/>
				
					<linearGradient id="SVGID_34_" gradientUnits="userSpaceOnUse" x1="-79.8452" y1="818.5186" x2="-79.8452" y2="825.3184" gradientTransform="matrix(1.5949 0 0 -1.5949 748.0764 1526.3533)">
					<stop  offset="0" style="stop-color:#6A957B"/>
					<stop  offset="0.3216" style="stop-color:#749C84"/>
					<stop  offset="1" style="stop-color:#476656"/>
				</linearGradient>
				<path fill="url(#SVGID_34_)" d="M626.4,220.9h-9.3c-1-1.8-1.5-3.7-1.8-6c-0.3-2.2-0.3-3.9-0.1-4.9h7.1
					C622.4,214.8,623.7,218.4,626.4,220.9z"/>
				<polygon fill="#3D5445" points="617.1,220.9 626.4,220.9 626.4,223.5 617.1,223.3 				"/>
			</g>
		</g>
	</g>
	<g>
		<g>
			<path d="M290.9,208.1c0.3,0.1,0.4,0.2,0.4,0.3c0,0.2-0.1,0.3-0.4,0.3c-0.3,0.1-0.6,0.2-1,0.2c-0.3,0-0.6-0.1-0.9-0.2
				c-0.3-0.1-0.4-0.2-0.4-0.3s0.1-0.2,0.4-0.3s0.6-0.1,0.9-0.1C290.3,208.1,290.7,208.1,290.9,208.1z"/>
		</g>
		<g>
			<g>
				
					<radialGradient id="SVGID_35_" cx="-287.8809" cy="827.5713" r="1.9887" gradientTransform="matrix(1.5949 0 0 -1.5949 748.0764 1526.3533)" gradientUnits="userSpaceOnUse">
					<stop  offset="0" style="stop-color:#3A3A3A"/>
					<stop  offset="0.2275" style="stop-color:#8E8E8E"/>
					<stop  offset="0.349" style="stop-color:#FFFFFF"/>
					<stop  offset="0.5333" style="stop-color:#888888"/>
					<stop  offset="0.6314" style="stop-color:#808080"/>
					<stop  offset="1" style="stop-color:#1A1A1A"/>
				</radialGradient>
				<path fill="url(#SVGID_35_)" d="M290.8,205.3c-0.4,0.8-1,1.1-1.7,1v0.1l-0.1-0.1c-0.6-0.7-0.7-1.4-0.2-2c0.4-0.1,0.8-0.1,1,0.1
					C290.3,204.5,290.6,204.8,290.8,205.3z"/>
				
					<linearGradient id="SVGID_36_" gradientUnits="userSpaceOnUse" x1="-288.9912" y1="828.8623" x2="-288.9719" y2="827.6362" gradientTransform="matrix(1.5949 0 0 -1.5949 748.0764 1526.3533)">
					<stop  offset="0" style="stop-color:#747474"/>
					<stop  offset="0.2549" style="stop-color:#959595"/>
					<stop  offset="0.4314" style="stop-color:#FFFFFF"/>
					<stop  offset="0.6784" style="stop-color:#808080"/>
					<stop  offset="1" style="stop-color:#1A1A1A"/>
				</linearGradient>
				<path fill="url(#SVGID_36_)" d="M289.2,206.4c-1.3,0-2.5,0-3.5,0c-0.7-0.9-0.7-1.6,0-2.2c1,0,2.1,0,3.2,0.1
					C288.4,204.9,288.5,205.6,289.2,206.4L289.2,206.4z"/>
				
					<linearGradient id="SVGID_37_" gradientUnits="userSpaceOnUse" x1="-286.5298" y1="827.2344" x2="-287.8298" y2="827.2068" gradientTransform="matrix(1.5949 0 0 -1.5949 748.0764 1526.3533)">
					<stop  offset="0" style="stop-color:#747474"/>
					<stop  offset="0.2549" style="stop-color:#959595"/>
					<stop  offset="0.4314" style="stop-color:#FFFFFF"/>
					<stop  offset="0.6784" style="stop-color:#808080"/>
					<stop  offset="1" style="stop-color:#1A1A1A"/>
				</linearGradient>
				<path fill="url(#SVGID_37_)" d="M290.8,205.3c0.3,0.6,0.3,1.7,0.2,3.1v0.1c-0.6,0.3-1.2,0.3-2,0c0-0.1,0-0.2,0-0.3
					c0.1-0.4,0.1-1,0.2-1.8v-0.1C289.9,206.4,290.4,206.1,290.8,205.3z"/>
				<polygon fill="#666666" points="287.4,207.5 287.3,207.6 287.3,207.5 				"/>
			</g>
		</g>
	</g>
</g>
</svg>
