<?xml version="1.0" encoding="utf-8"?>
<!-- Generator: Adobe Illustrator 16.0.0, SVG Export Plug-In . SVG Version: 6.00 Build 0)  -->
<!DOCTYPE svg PUBLIC "-//W3C//DTD SVG 1.1//EN" "http://www.w3.org/Graphics/SVG/1.1/DTD/svg11.dtd">
<svg version="1.1" id="Layer_1" xmlns="http://www.w3.org/2000/svg" xmlns:xlink="http://www.w3.org/1999/xlink" x="0px" y="0px"
	 width="700px" height="700px" viewBox="0 0 700 700" enable-background="new 0 0 700 700" xml:space="preserve">
<g>
	<g>
		<g>
			<g>
				
					<linearGradient id="SVGID_1_" gradientUnits="userSpaceOnUse" x1="-693.9263" y1="346.2808" x2="-682.2662" y2="346.2808" gradientTransform="matrix(-0.2466 -0.9691 -0.9722 0.2346 842.8288 -414.8679)">
					<stop  offset="0" style="stop-color:#6E6A68"/>
					<stop  offset="0.298" style="stop-color:#B4B1B1"/>
					<stop  offset="1" style="stop-color:#6D6967"/>
				</linearGradient>
				<path fill="url(#SVGID_1_)" d="M684.7,332L684.7,332c-0.2,0.4-0.4,0.7-0.8,1v0.1c-0.101,0.1-0.2,0.2-0.301,0.3
					c-0.3,0.2-0.699,0.5-1.1,0.8c-0.2,0.1-0.4,0.2-0.6,0.3c-1.801,0.8-4,1.1-6.601,1c-2.6-0.1-4.8-0.5-6.6-1.4
					c-0.2-0.1-0.4-0.2-0.6-0.3c-0.4-0.2-0.801-0.5-1.101-0.8c-0.1-0.1-0.2-0.2-0.3-0.3c0,0-0.1-0.1-0.1-0.2
					c-0.301-0.3-0.5-0.6-0.601-0.8c0-0.1,0-0.1,0-0.2l0,0c0-0.1,0-0.2,0-0.3v-0.1c0-0.1,0-0.3,0-0.4c0-0.1,0.101-0.2,0.101-0.4
					c0.3-0.8,1.199-1.5,2.6-2c1.9-0.8,4.2-1.1,6.8-1.1c2.601,0.1,4.8,0.6,6.5,1.4c1.601,0.8,2.601,1.6,2.8,2.5c0,0.1,0,0.2,0,0.4
					L684.7,332z"/>
				
					<linearGradient id="SVGID_2_" gradientUnits="userSpaceOnUse" x1="463.4346" y1="444.4053" x2="482.3188" y2="444.0459" gradientTransform="matrix(1 0 0 -1 202.3398 780.0391)">
					<stop  offset="0" style="stop-color:#322B28"/>
					<stop  offset="0.0627" style="stop-color:#322B28"/>
					<stop  offset="0.1294" style="stop-color:#7C6654"/>
					<stop  offset="0.349" style="stop-color:#857464"/>
					<stop  offset="0.4275" style="stop-color:#6F7C8D"/>
					<stop  offset="0.4902" style="stop-color:#6E7A89"/>
					<stop  offset="0.5647" style="stop-color:#999A9C"/>
					<stop  offset="0.6157" style="stop-color:#56586F"/>
					<stop  offset="0.6784" style="stop-color:#939491"/>
					<stop  offset="0.7412" style="stop-color:#8A8685"/>
					<stop  offset="0.8196" style="stop-color:#97999B"/>
					<stop  offset="0.8549" style="stop-color:#EEF3F9"/>
					<stop  offset="0.9608" style="stop-color:#F2F6FE"/>
					<stop  offset="1" style="stop-color:#5E5C8C"/>
				</linearGradient>
				<path fill="url(#SVGID_2_)" d="M684.7,336.5c-0.2,0.3-0.5,0.6-0.8,1l0,0c-0.101,0.1-0.2,0.2-0.301,0.3
					c-0.3,0.2-0.699,0.5-1.1,0.7c-0.2,0.2-0.4,0.3-0.6,0.3c-1.801,0.8-4.101,1.1-6.7,1c-2.601-0.1-4.8-0.5-6.601-1.4
					c-0.199,0-0.399-0.1-0.6-0.3c-0.4-0.2-0.8-0.4-1.1-0.7c-0.101-0.1-0.2-0.2-0.3-0.3L666.5,337c-0.399-0.3-0.6-0.6-0.6-0.9
					c0-0.2,0-0.5,0-0.6c0-0.3,0-0.7,0-1.1v-2.7c0.1,0.2,0.3,0.5,0.6,0.8c0,0.1,0.101,0.1,0.101,0.2c0.1,0.1,0.199,0.2,0.3,0.3
					c0.3,0.3,0.7,0.5,1.1,0.8c0.2,0.1,0.4,0.2,0.6,0.3c1.801,0.8,4,1.3,6.601,1.4c2.6,0.1,4.8-0.2,6.6-1c0.2-0.1,0.4-0.2,0.601-0.3
					c0.399-0.3,0.8-0.5,1.1-0.8c0.1-0.1,0.2-0.1,0.3-0.3V333c0.3-0.3,0.601-0.6,0.7-0.9V332v1.6l0,0v2.9H684.7z"/>
				<path fill="#322B28" d="M666,336.1c0,0.2,0.2,0.5,0.6,0.9c0,0.1,0.101,0.1,0.101,0.1c0.1,0.1,0.2,0.2,0.3,0.3
					c0.3,0.3,0.7,0.5,1.1,0.7c0.2,0.2,0.4,0.3,0.601,0.3c1.8,0.9,4,1.3,6.6,1.4c2.6,0.1,4.8-0.3,6.7-1c0.2,0,0.4-0.1,0.6-0.3
					c0.4-0.2,0.8-0.5,1.101-0.7c0.1-0.1,0.199-0.1,0.3-0.3l0,0c0.3-0.3,0.6-0.6,0.8-1l-0.1,0.3l0,0c-0.101,0.3-0.301,0.7-0.601,1
					c-0.1,0.1-0.2,0.2-0.3,0.3c-0.3,0.2-0.7,0.5-1.1,0.7c-0.2,0.2-0.4,0.3-0.601,0.3c-1.8,0.8-4.1,1.1-6.699,1.1
					c-2.601-0.1-4.801-0.5-6.601-1.4c-0.2,0-0.399-0.1-0.6-0.3c-0.4-0.2-0.8-0.4-1.101-0.7c-0.199-0.2-0.3-0.3-0.399-0.5
					c-0.4-0.3-0.601-0.6-0.601-0.9C665.9,336.3,665.9,336.2,666,336.1z"/>
			</g>
		</g>
		<g>
			<path d="M675.5,331.5c-0.6,0-1.1-0.1-1.5-0.3c-0.4-0.1-0.6-0.2-0.6-0.4c0-0.2,0.199-0.3,0.6-0.5c0.4,0,0.9,0,1.5,0
				s1.1,0.1,1.5,0.2s0.6,0.2,0.6,0.4c0,0.2-0.199,0.4-0.6,0.4C676.5,331.5,676,331.5,675.5,331.5z"/>
		</g>
		<g>
			<path d="M666,331c0-0.3,0.1-0.5,0.2-0.8l8,0.3v0.8L666,331z"/>
		</g>
	</g>
	<g>
		<g>
			<g>
				
					<linearGradient id="SVGID_3_" gradientUnits="userSpaceOnUse" x1="-693.9863" y1="346.2324" x2="-682.3263" y2="346.2324" gradientTransform="matrix(-0.2466 -0.9691 -0.9722 0.2346 842.8288 -414.8679)">
					<stop  offset="0" style="stop-color:#6E6A68"/>
					<stop  offset="0.298" style="stop-color:#B4B1B1"/>
					<stop  offset="1" style="stop-color:#6D6967"/>
				</linearGradient>
				<path fill="url(#SVGID_3_)" d="M684.8,332.1l-0.1,0.1c-0.101,0.3-0.4,0.6-0.7,0.9v0.1c-0.1,0.1-0.2,0.1-0.3,0.2
					c-0.3,0.2-0.7,0.5-1.101,0.8c-0.199,0.1-0.399,0.2-0.6,0.3c-1.8,0.8-4,1.1-6.6,1c-2.601-0.1-4.801-0.5-6.7-1.4
					c-0.2-0.1-0.4-0.2-0.601-0.3c-0.399-0.2-0.8-0.5-1.1-0.8c-0.1-0.1-0.2-0.2-0.3-0.3l-0.1-0.1c-0.301-0.3-0.5-0.6-0.601-0.9
					c0-0.1,0-0.1,0-0.1v-0.1c0-0.1,0-0.2,0-0.3v-0.1c0-0.1,0-0.3,0-0.4c0-0.1,0.101-0.3,0.2-0.4c0.3-0.8,1.1-1.5,2.5-2
					c1.9-0.8,4.2-1.2,6.8-1.1c2.601,0.1,4.8,0.6,6.601,1.4c1.6,0.7,2.5,1.6,2.8,2.5c0,0.1,0,0.3,0,0.4L684.8,332.1z"/>
				
					<linearGradient id="SVGID_4_" gradientUnits="userSpaceOnUse" x1="463.4834" y1="444.2803" x2="482.3677" y2="443.9208" gradientTransform="matrix(1 0 0 -1 202.3398 780.0391)">
					<stop  offset="0" style="stop-color:#322B28"/>
					<stop  offset="0.0627" style="stop-color:#322B28"/>
					<stop  offset="0.1294" style="stop-color:#7C6654"/>
					<stop  offset="0.349" style="stop-color:#857464"/>
					<stop  offset="0.4275" style="stop-color:#6F7C8D"/>
					<stop  offset="0.4902" style="stop-color:#6E7A89"/>
					<stop  offset="0.5647" style="stop-color:#999A9C"/>
					<stop  offset="0.6157" style="stop-color:#56586F"/>
					<stop  offset="0.6784" style="stop-color:#939491"/>
					<stop  offset="0.7412" style="stop-color:#8A8685"/>
					<stop  offset="0.8196" style="stop-color:#97999B"/>
					<stop  offset="0.8549" style="stop-color:#EEF3F9"/>
					<stop  offset="0.9608" style="stop-color:#F2F6FE"/>
					<stop  offset="1" style="stop-color:#5E5C8C"/>
				</linearGradient>
				<path fill="url(#SVGID_4_)" d="M684.8,336.6c-0.2,0.3-0.5,0.6-0.8,0.9v0.1c-0.1,0.1-0.2,0.1-0.3,0.2c-0.3,0.2-0.7,0.5-1.101,0.7
					c-0.199,0.2-0.399,0.3-0.6,0.3c-1.8,0.8-4,1.2-6.6,1.1c-2.601-0.1-4.801-0.5-6.601-1.4c-0.2,0-0.399-0.1-0.6-0.3
					c-0.4-0.2-0.8-0.4-1.1-0.7c-0.101-0.1-0.2-0.2-0.301-0.3l-0.1-0.1c-0.4-0.3-0.6-0.6-0.6-0.9c0-0.2,0-0.4,0-0.6
					c0-0.4,0-0.7,0-1.1v-2.7c0.1,0.2,0.3,0.5,0.6,0.9c0,0.1,0.1,0.1,0.1,0.1c0.101,0.1,0.2,0.2,0.301,0.3c0.3,0.3,0.699,0.5,1.1,0.8
					c0.2,0.1,0.4,0.2,0.6,0.3c1.8,0.8,4,1.3,6.7,1.4c2.6,0.1,4.8-0.2,6.6-1c0.2-0.1,0.4-0.2,0.601-0.3c0.399-0.3,0.8-0.6,1.1-0.8
					c0.101-0.1,0.2-0.1,0.3-0.2v-0.1c0.301-0.3,0.601-0.6,0.7-0.9l0.101-0.1l-0.101,1.5h0.101v2.9H684.8z"/>
				<path fill="#322B28" d="M666,336.1c0,0.2,0.2,0.5,0.6,0.9c0,0.1,0.101,0.1,0.101,0.1c0.1,0.1,0.2,0.2,0.3,0.3
					c0.3,0.3,0.7,0.5,1.1,0.7c0.2,0.2,0.4,0.3,0.601,0.3c1.8,0.9,4,1.3,6.6,1.4c2.6,0.1,4.8-0.3,6.6-1.1c0.2,0,0.4-0.1,0.601-0.3
					c0.399-0.2,0.8-0.5,1.1-0.7c0.101-0.1,0.2-0.1,0.3-0.2v-0.1c0.301-0.3,0.601-0.6,0.801-0.9l-0.101,0.2l-0.1,0.1
					c-0.101,0.3-0.3,0.6-0.601,0.9c-0.1,0.1-0.199,0.2-0.3,0.3c-0.3,0.2-0.7,0.5-1.1,0.7c-0.2,0.2-0.4,0.3-0.6,0.3
					c-1.801,0.8-4,1.1-6.601,1c-2.6-0.1-4.8-0.5-6.6-1.4c-0.2,0-0.4-0.1-0.601-0.3c-0.399-0.2-0.8-0.4-1.1-0.7
					c-0.2-0.2-0.3-0.3-0.4-0.5c-0.399-0.3-0.6-0.6-0.6-0.8C666,336.4,666,336.3,666,336.1z"/>
			</g>
		</g>
		<g>
			<path d="M675.5,331.6c-0.6,0-1.1-0.1-1.5-0.3c-0.4-0.1-0.6-0.2-0.6-0.5c0-0.2,0.199-0.3,0.6-0.4s0.9-0.1,1.5-0.1s1.1,0.1,1.5,0.2
				s0.5,0.2,0.5,0.4c0,0.2-0.2,0.4-0.5,0.5C676.6,331.6,676.1,331.6,675.5,331.6z"/>
		</g>
		<g>
			<path d="M666,331.1c0-0.3,0.1-0.6,0.2-0.8l8.1,0.3v0.8L666,331.1z"/>
		</g>
	</g>
	<g>
		<g>
			
				<radialGradient id="SVGID_5_" cx="473.5098" cy="463.2393" r="5.3755" gradientTransform="matrix(1 0 0 -1 202.3398 780.0391)" gradientUnits="userSpaceOnUse">
				<stop  offset="0" style="stop-color:#FFFFFF"/>
				<stop  offset="1" style="stop-color:#6D6967"/>
			</radialGradient>
			<path fill="url(#SVGID_5_)" d="M678.5,321.9c0.2-0.2,0.4-0.3,0.6-0.5c0.7-0.6,0.2-0.7-1.5-0.3c-1,0.2-1.1,0.1-0.5-0.3
				c0,0,0,0,0.101-0.1h0.1l0.101-0.1c0,0,0.1,0,0.1-0.1c0.1,0,0.2-0.1,0.3-0.1c0.4-0.2,0.7-0.4,1-0.7c0.8-0.8,1.2-1.8,1.2-3
				c0-1.1-0.4-2.1-1.2-2.9c-0.8-0.8-1.8-1.3-3-1.3c-1.1,0-2.1,0.4-2.9,1.3c-0.699,0.7-1.199,1.5-1.3,2.4c0,0.2-0.1,0.3-0.3,0.5
				c-0.2,0.1-0.3,0.2-0.5,0.2c-0.2-0.1-0.4-0.2-0.5-0.3c-0.1-0.2-0.2-0.4-0.1-0.5c0.2-1.3,0.7-2.4,1.6-3.3l0,0
				c1.1-1.1,2.4-1.6,4-1.6c1.5,0,2.9,0.6,4,1.7s1.7,2.4,1.7,4s-0.5,2.9-1.7,4C679.5,321.2,679,321.6,678.5,321.9z"/>
			
				<radialGradient id="SVGID_6_" cx="477.7598" cy="453.04" r="6.3125" gradientTransform="matrix(1 0 0 -1 202.3398 780.0391)" gradientUnits="userSpaceOnUse">
				<stop  offset="0" style="stop-color:#FFFFFF"/>
				<stop  offset="1" style="stop-color:#6D6967"/>
			</radialGradient>
			<path fill="url(#SVGID_6_)" d="M677.2,320.9c-0.601,0.4-0.4,0.5,0.5,0.3c1.7-0.4,2.1-0.4,1.5,0.3c-0.2,0.1-0.4,0.3-0.601,0.5
				c-0.1,0-0.1,0-0.3,0.1c-0.1,0.1-0.3,0.3-0.8,0.6c-0.4,0.3-0.7,0.8-1,1.6c-0.2,0.7-0.3,2.1-0.1,4.1v0.4c0,0.3,0,0.7,0,1
				c0,0.6,0,1.2,0,1.9c-0.601,0.3-1.2,0.3-1.7,0c0-0.7,0-1.3,0.1-1.9c0-0.2,0-0.4,0-0.5c0-0.6,0-1.2-0.1-1.7c0-0.4,0-0.7,0-0.9
				c-0.2-1.5-0.101-2.9,0.399-4c0.4-0.7,0.801-1.2,1.301-1.5C676.7,321,676.9,320.9,677.2,320.9z M677.3,320.8
				c0,0,0.101-0.1,0.2-0.1l0,0C677.4,320.7,677.4,320.8,677.3,320.8L677.3,320.8z"/>
		</g>
	</g>
	<g>
		
			<line fill="none" stroke="#FFFFFF" stroke-width="0.75" stroke-linecap="round" stroke-linejoin="round" stroke-miterlimit="3" x1="676.6" y1="312.8" x2="676.6" y2="210.9"/>
	</g>
	<g>
		<path fill="none" stroke="#FFFFFF" stroke-width="0.75" stroke-miterlimit="10" d="M676.5,211c-0.3-11.2-3.4-17.8-9.4-19.8"/>
	</g>
</g>
</svg>
