<?xml version="1.0" encoding="utf-8"?>
<!-- Generator: Adobe Illustrator 16.0.0, SVG Export Plug-In . SVG Version: 6.00 Build 0)  -->
<!DOCTYPE svg PUBLIC "-//W3C//DTD SVG 1.1//EN" "http://www.w3.org/Graphics/SVG/1.1/DTD/svg11.dtd">
<svg version="1.1" id="Layer_1" xmlns="http://www.w3.org/2000/svg" xmlns:xlink="http://www.w3.org/1999/xlink" x="0px" y="0px"
	 width="23.4px" height="44.9px" viewBox="656 188.9 23.4 44.9" enable-background="new 656 188.9 23.4 44.9" xml:space="preserve">
<g id="Layer_4_1_">
	<g id="Layer_5">
		
			<radialGradient id="SVGID_1_" cx="272.3662" cy="355.1484" r="16.9289" gradientTransform="matrix(1.0976 0 0 0.9869 368.6896 -139.0461)" gradientUnits="userSpaceOnUse">
			<stop  offset="0" style="stop-color:#4E6D57"/>
			<stop  offset="1" style="stop-color:#4E6D57"/>
		</radialGradient>
		<ellipse fill="url(#SVGID_1_)" cx="667.6" cy="211.4" rx="10.7" ry="21.6"/>
	</g>
</g>
<g id="Layer_3_1_">
	<g id="Layer_4">
		<g>
			<g>
				
					<linearGradient id="SVGID_2_" gradientUnits="userSpaceOnUse" x1="-231.229" y1="59.3584" x2="-232.0232" y2="81.1577" gradientTransform="matrix(1.5949 0 0 1.5949 1039.3538 99.4309)">
					<stop  offset="0" style="stop-color:#CAD0CC"/>
					<stop  offset="5.490196e-002" style="stop-color:#FFFFFF"/>
					<stop  offset="0.2745" style="stop-color:#8A968D"/>
					<stop  offset="0.5255" style="stop-color:#999F9A"/>
					<stop  offset="0.6902" style="stop-color:#AABBAA"/>
					<stop  offset="1" style="stop-color:#1D2720"/>
				</linearGradient>
				<path fill="url(#SVGID_2_)" d="M667.6,190c0.2,0.1,0.3,0.1,0.5,0.2c0.1,0.1,0.1,0.1,0.2,0.1c1.6,0.8,3.1,2.8,4.4,5.9
					c1.6,4.2,2.5,9.3,2.5,15.2c0,6-0.8,11-2.5,15.2c-1.2,3.1-2.6,5.1-4.2,5.9c-0.1,0.1-0.2,0.1-0.3,0.2c-0.2,0.1-0.3,0.1-0.5,0.2
					c-0.4,0.1-0.7,0.2-1.1,0.2c-0.2,0-0.3,0-0.5,0c0.4-0.1,0.7-0.2,1.1-0.3c0.2-0.1,0.3-0.1,0.5-0.2c1.5-0.9,2.9-2.8,4.1-5.8
					c1.6-4.2,2.5-9.3,2.5-15.2c0-6-0.8-11-2.5-15.2c-1.2-2.9-2.5-4.8-4.1-5.7c-0.2-0.1-0.3-0.2-0.5-0.2c-0.4-0.2-1-0.3-1.8-0.3h0.2
					c0.5,0,0.8,0,1,0C666.9,189.9,667.3,189.9,667.6,190z"/>
				
					<radialGradient id="SVGID_3_" cx="-235.4614" cy="77.7568" r="19.4015" gradientTransform="matrix(1.5949 0 0 1.5949 1039.3538 99.4309)" gradientUnits="userSpaceOnUse">
					<stop  offset="0" style="stop-color:#70987B"/>
					<stop  offset="1" style="stop-color:#1D2720"/>
				</radialGradient>
				<path fill="url(#SVGID_3_)" d="M665.7,196.5c-1.6,0-3,1.4-4.1,4.3c-1.2,2.9-1.8,6.4-1.8,10.5c0,4.1,0.6,7.7,1.8,10.5
					c1.1,2.9,2.4,4.4,4.1,4.4c0.1,0,0.2,0,0.3,0c0.2,0,0.5-0.1,0.7-0.2c0.1-0.1,0.2-0.1,0.3-0.2c1-0.6,1.9-1.9,2.7-4
					c1.1-2.9,1.6-6.4,1.6-10.5c0-4.1-0.5-7.6-1.6-10.5c-0.8-2-1.7-3.3-2.7-3.9c-0.1-0.1-0.2-0.2-0.3-0.2c-0.3-0.2-0.5-0.2-0.7-0.2
					C665.9,196.5,665.8,196.5,665.7,196.5z M665.9,195.9c0.3,0,0.5,0.1,0.8,0.2c0.1,0,0.2,0.1,0.3,0.2c1.1,0.6,2.1,2,3,4.1
					c1.2,3,1.8,6.7,1.8,11c0,4.4-0.6,8.1-1.8,11.1c-0.8,2.1-1.8,3.5-3,4.2c-0.1,0.1-0.2,0.1-0.3,0.2c-0.3,0.1-0.5,0.2-0.8,0.2
					c-0.1,0-0.2,0-0.3,0c-1.8,0-3.3-1.5-4.5-4.6c-1.2-3-1.8-6.7-1.8-11.1c0-4.3,0.6-8,1.8-11c1.2-3,2.7-4.5,4.5-4.5
					C665.7,195.9,665.8,195.9,665.9,195.9z"/>
				
					<radialGradient id="SVGID_4_" cx="-237.1616" cy="64.356" r="15.5502" gradientTransform="matrix(1.5949 0 0 1.5949 1039.3538 99.4309)" gradientUnits="userSpaceOnUse">
					<stop  offset="0" style="stop-color:#4E6D57"/>
					<stop  offset="1" style="stop-color:#4E6D57"/>
				</radialGradient>
				<path fill="url(#SVGID_4_)" d="M665.7,196.5c0.1,0,0.2,0,0.3,0c0.2,0,0.5,0.1,0.7,0.2c0.1,0,0.2,0.1,0.3,0.2
					c1,0.6,1.9,1.9,2.7,3.9c1.1,2.9,1.6,6.4,1.6,10.5c0,4.1-0.5,7.7-1.6,10.5c-0.8,2.1-1.7,3.4-2.7,4c-0.1,0.1-0.2,0.2-0.3,0.2
					c-0.3,0.1-0.5,0.2-0.7,0.2c-0.1,0-0.2,0-0.3,0c-1.6,0-3-1.5-4.1-4.4c-1.2-2.9-1.8-6.4-1.8-10.5c0-4.1,0.6-7.6,1.8-10.5
					C662.6,197.9,664,196.5,665.7,196.5z M663.3,207.6c-0.3,0.1-0.5,0.4-0.7,1c-0.3,0.7-0.4,1.5-0.4,2.5s0.1,1.8,0.4,2.5
					c0.2,0.4,0.3,0.7,0.6,1c0.1,0.5,0.3,1.1,0.5,1.6c0,0.1,0,0.2,0.1,0.3c0.2,0.5,0.4,0.8,0.6,1c0.4,0.7,0.8,1.1,1.3,1.1
					c0.1,0,0.1,0,0.2,0c0.1-0.1,0.2-0.1,0.3-0.2c0.1,0,0.1,0,0.2-0.1c0.5-0.3,1-0.9,1.4-1.9c0.5-1.4,0.7-3.1,0.7-5
					c0-2-0.2-3.6-0.7-5c-0.4-1-0.8-1.6-1.4-1.8c-0.1-0.1-0.1-0.1-0.2-0.1c-0.1-0.1-0.2-0.1-0.3-0.1c-0.1-0.1-0.1-0.1-0.2-0.1
					c-0.6,0-1.1,0.5-1.5,1.4L664,206c-0.1,0.1-0.2,0.2-0.2,0.4c-0.1,0.1-0.1,0.1-0.1,0.2C663.5,206.9,663.4,207.2,663.3,207.6z"/>
				
					<radialGradient id="SVGID_5_" cx="-230.9111" cy="62.2563" r="21.5011" gradientTransform="matrix(1.5949 0 0 1.5949 1039.3538 99.4309)" gradientUnits="userSpaceOnUse">
					<stop  offset="0" style="stop-color:#70987B"/>
					<stop  offset="1" style="stop-color:#1D2720"/>
				</radialGradient>
				<path fill="url(#SVGID_5_)" d="M666.1,233c-0.2,0-0.3,0-0.5,0c-2.4,0-4.5-2.1-6.1-6.4c-1.7-4.2-2.6-9.3-2.6-15.2
					c0-6,0.9-11,2.6-15.2c1.6-4,3.6-6.1,5.9-6.3c0.9,0.1,1.5,0.2,1.8,0.3c0.2,0.1,0.3,0.1,0.5,0.2c1.5,0.9,2.9,2.8,4.1,5.7
					c1.6,4.2,2.5,9.3,2.5,15.2c0,6-0.8,11-2.5,15.2c-1.2,3-2.5,4.9-4.1,5.8c-0.2,0.1-0.3,0.2-0.5,0.2
					C666.8,232.9,666.4,233,666.1,233z M665.9,195.9c-0.1,0-0.2,0-0.3,0c-1.8,0-3.3,1.5-4.5,4.5c-1.2,3-1.8,6.7-1.8,11
					c0,4.4,0.6,8.1,1.8,11.1c1.2,3.1,2.7,4.6,4.5,4.6c0.1,0,0.2,0,0.3,0c0.3-0.1,0.5-0.1,0.8-0.2c0.1-0.1,0.2-0.1,0.3-0.2
					c1.1-0.7,2.1-2.1,3-4.2c1.2-3,1.8-6.7,1.8-11.1c0-4.3-0.6-8-1.8-11c-0.8-2.1-1.8-3.5-3-4.1c-0.1-0.1-0.2-0.2-0.3-0.2
					C666.4,195.9,666.2,195.9,665.9,195.9z"/>
				<path fill="#2E4131" d="M667.6,232.9c0.2-0.1,0.3-0.1,0.5-0.2c0.1-0.1,0.2-0.1,0.3-0.2c2.1-0.3,4-2.4,5.5-6.3
					c1.6-4.1,2.5-9.1,2.5-14.9c0-5.8-0.8-10.8-2.5-15c-1.6-3.8-3.5-5.8-5.7-6.1c-0.1,0-0.1,0-0.2-0.1c-0.2-0.1-0.3-0.1-0.5-0.2
					c0.4-0.1,0.7-0.2,1.1-0.2h0.1c2.4,0.3,4.5,2.4,6.1,6.3c1.6,4.2,2.5,9.3,2.5,15.2c0,6-0.8,11-2.5,15.2c-1.6,4-3.5,6.1-5.7,6.4
					c-0.2,0-0.3,0-0.5,0C668.4,233,668,233,667.6,232.9z"/>
				
					<linearGradient id="SVGID_6_" gradientUnits="userSpaceOnUse" x1="-229.0444" y1="56.8428" x2="-230.2454" y2="83.8292" gradientTransform="matrix(1.5949 0 0 1.5949 1039.3538 99.4309)">
					<stop  offset="0" style="stop-color:#CAD0CC"/>
					<stop  offset="5.490196e-002" style="stop-color:#FFFFFF"/>
					<stop  offset="0.2745" style="stop-color:#8A968D"/>
					<stop  offset="0.5255" style="stop-color:#999F9A"/>
					<stop  offset="0.6902" style="stop-color:#AABBAA"/>
					<stop  offset="1" style="stop-color:#1D2720"/>
				</linearGradient>
				<path fill="url(#SVGID_6_)" d="M669.2,233c2.2-0.3,4.1-2.4,5.7-6.4c1.6-4.2,2.5-9.3,2.5-15.2c0-6-0.8-11-2.5-15.2
					c-1.6-3.9-3.6-6-6.1-6.3c0.4,0,0.7,0,0.9,0c2.4,0,4.4,2.1,6.1,6.3c1.6,4.2,2.5,9.3,2.5,15.2c0,6-0.8,11-2.5,15.2
					c-1.7,4.3-3.7,6.4-6.1,6.4C669.6,233,669.4,233,669.2,233z"/>
				
					<linearGradient id="SVGID_7_" gradientUnits="userSpaceOnUse" x1="-241.5586" y1="-68.916" x2="-216.1586" y2="-68.916" gradientTransform="matrix(6.279172e-005 1.5949 -1.5949 -1.504632e-003 562.4999 576.3042)">
					<stop  offset="0" style="stop-color:#55775F"/>
					<stop  offset="0.4784" style="stop-color:#53735C"/>
					<stop  offset="1" style="stop-color:#243127"/>
				</linearGradient>
				<path fill="url(#SVGID_7_)" d="M668.3,190.3c2.2,0.2,4.1,2.2,5.7,6.1c1.6,4.1,2.5,9.1,2.5,15c0,5.8-0.8,10.8-2.5,14.9
					c-1.5,3.9-3.4,6-5.5,6.3c1.6-0.9,3-2.8,4.2-5.9c1.6-4.2,2.5-9.3,2.5-15.2c0-6-0.8-11-2.5-15.2
					C671.4,193,669.9,191.1,668.3,190.3z"/>
				
					<linearGradient id="SVGID_8_" gradientUnits="userSpaceOnUse" x1="-233.832" y1="65.7085" x2="-234.161" y2="74.6319" gradientTransform="matrix(1.5949 0 0 1.5949 1039.3538 99.4309)">
					<stop  offset="0" style="stop-color:#778A7C"/>
					<stop  offset="0.1137" style="stop-color:#FFFFFF"/>
					<stop  offset="0.2745" style="stop-color:#8A968D"/>
					<stop  offset="0.5255" style="stop-color:#999F9A"/>
					<stop  offset="1" style="stop-color:#2E4131"/>
				</linearGradient>
				<path fill="url(#SVGID_8_)" d="M664.1,205.6c0.4-0.9,0.9-1.4,1.5-1.4c0.1,0,0.1,0,0.2,0.1c0.1,0,0.2,0,0.3,0.1
					c0.1,0,0.1,0,0.2,0.1c0.5,0.3,1,0.9,1.4,1.8c0.5,1.4,0.7,3.1,0.7,5c0,2-0.2,3.6-0.7,5c-0.4,1-0.8,1.6-1.4,1.9
					c-0.1,0.1-0.1,0.1-0.2,0.1c-0.1,0.1-0.2,0.1-0.3,0.2c-0.1,0-0.1,0-0.2,0c-0.5,0-0.9-0.4-1.3-1.1l0.1,0.1
					c0.3,0.3,0.6,0.5,0.9,0.5c0.1,0,0.1,0,0.2,0s0.2,0,0.3-0.1c0-0.1,0-0.1,0.1-0.1c0.5-0.3,0.9-0.9,1.1-1.8
					c0.3-0.6,0.5-1.4,0.6-2.2l0.2-2.6l-0.2-2.5c-0.1-0.8-0.3-1.5-0.6-2.2c-0.3-0.9-0.6-1.5-1-1.8c-0.1-0.1-0.2-0.1-0.3-0.1
					c-0.1,0-0.1,0-0.2,0s-0.1,0-0.2,0C664.8,204.6,664.4,204.9,664.1,205.6z"/>
				
					<radialGradient id="SVGID_9_" cx="-234.2612" cy="66.9053" r="7.8506" gradientTransform="matrix(1.5949 0 0 1.5949 1039.3538 99.4309)" gradientUnits="userSpaceOnUse">
					<stop  offset="0" style="stop-color:#6A9577"/>
					<stop  offset="1" style="stop-color:#27362C"/>
				</radialGradient>
				<path fill="url(#SVGID_9_)" d="M664.3,217.4c-0.3-0.3-0.5-0.8-0.7-1.4c-0.2-0.5-0.3-1-0.4-1.5c0.1,0.1,0.2,0.1,0.3,0.1l1.4,0.3
					c0.1,0,0.1,0,0.2,0h0.1c0.1,0,0.1,0,0.2,0l0.1-0.1c0.3-0.2,0.5-0.5,0.6-1c0.3-0.7,0.4-1.6,0.4-2.7s-0.1-2-0.4-2.7
					c-0.2-0.5-0.4-0.9-0.6-1h-0.1c-0.1-0.1-0.1-0.1-0.2-0.1h-0.1c-0.1,0-0.1,0-0.2,0.1l-1,0.2h-0.2h-0.1h-0.1c-0.1,0-0.1,0-0.2,0.1
					c0.1-0.4,0.2-0.7,0.3-1c0-0.1,0-0.2,0.1-0.2c0.1-0.2,0.1-0.3,0.2-0.4l0.2-0.3c0.3-0.6,0.7-1,1.2-1c0.1,0,0.1,0,0.2,0
					s0.1,0,0.2,0c0.1,0,0.2,0,0.3,0.1c0.4,0.3,0.8,0.9,1,1.8c0.3,0.7,0.5,1.4,0.6,2.2l0.2,2.5l-0.2,2.6c-0.1,0.8-0.3,1.5-0.6,2.2
					c-0.3,0.9-0.6,1.5-1.1,1.8c-0.1,0-0.1,0-0.1,0.1c-0.1,0.1-0.2,0.1-0.3,0.1s-0.1,0-0.2,0C664.9,217.9,664.6,217.8,664.3,217.4
					L664.3,217.4z"/>
				
					<linearGradient id="SVGID_10_" gradientUnits="userSpaceOnUse" x1="-235.1274" y1="67.5898" x2="-234.5201" y2="72.6669" gradientTransform="matrix(1.5949 0 0 1.5949 1039.3538 99.4309)">
					<stop  offset="0" style="stop-color:#27342B"/>
					<stop  offset="0.1098" style="stop-color:#A3B1A5"/>
					<stop  offset="0.2549" style="stop-color:#444F47"/>
					<stop  offset="0.5373" style="stop-color:#777F79"/>
					<stop  offset="1" style="stop-color:#222E26"/>
				</linearGradient>
				<path fill="url(#SVGID_10_)" d="M663.5,214.5L663.5,214.5c0.1,0,0.2,0,0.2,0l0.1-0.1c0.2-0.1,0.3-0.2,0.5-0.4
					c0.1-0.2,0.1-0.3,0.2-0.6c0.3-0.7,0.4-1.5,0.4-2.5s-0.1-1.8-0.4-2.5c-0.1-0.2-0.1-0.4-0.2-0.5c-0.2-0.2-0.3-0.4-0.5-0.5v-0.1
					l1-0.2c0.1-0.1,0.2-0.1,0.2-0.1h0.1c0.1,0,0.1,0,0.2,0.1h0.1c0.3,0.2,0.5,0.5,0.6,1c0.3,0.7,0.4,1.6,0.4,2.7
					c0,1.1-0.1,2-0.4,2.7c-0.2,0.5-0.4,0.9-0.6,1l-0.1,0.1c-0.1,0-0.1,0-0.2,0H665c-0.1,0-0.1,0-0.2,0L663.5,214.5z"/>
				
					<radialGradient id="SVGID_11_" cx="-235.561" cy="23.9199" r="2.1497" gradientTransform="matrix(1.5949 0 0 3.2455 1039.3538 131.6143)" gradientUnits="userSpaceOnUse">
					<stop  offset="0" style="stop-color:#F6F7F6"/>
					<stop  offset="1" style="stop-color:#37493A"/>
				</radialGradient>
				<path fill="url(#SVGID_11_)" d="M663.2,214.4c0-0.2-0.1-0.3-0.2-0.4C663.1,214.1,663.1,214.2,663.2,214.4
					c-0.3-0.2-0.5-0.5-0.6-1c-0.3-0.7-0.4-1.5-0.4-2.5s0.1-1.8,0.4-2.5c0.2-0.5,0.5-0.9,0.7-1l0.3-0.1h0.1l0.1,0.1h0.1
					c0.2,0.1,0.3,0.3,0.5,0.5c0.1,0.1,0.1,0.3,0.2,0.5c0.3,0.7,0.4,1.5,0.4,2.5s-0.1,1.8-0.4,2.5c-0.1,0.2-0.1,0.4-0.2,0.6
					c-0.2,0.2-0.3,0.3-0.5,0.4l-0.1,0.1c-0.1,0-0.1,0-0.2,0h-0.1C663.4,214.5,663.3,214.5,663.2,214.4z M663,208.9
					c-0.1,0-0.2,0.2-0.3,0.5c-0.1,0.5-0.2,1-0.2,1.4c0,0.1,0,0.1,0,0.2c0,0.4,0.1,0.8,0.2,1c0.1,0.5,0.2,0.7,0.3,0.7
					c0.2,0,0.3-0.2,0.4-0.7c0.1-0.3,0.2-0.6,0.2-1c0-0.1,0-0.1,0-0.2c0-0.5-0.1-1-0.2-1.4C663.3,209,663.2,208.9,663,208.9
					L663,208.9z"/>
				<path fill="#638B6F" d="M663.6,207.5l-0.3,0.1C663.4,207.5,663.4,207.5,663.6,207.5L663.6,207.5z"/>
				<polygon fill="#5C8167" points="663.8,207.5 663.8,207.6 663.7,207.6 663.7,207.5 				"/>
				<path d="M663,208.9L663,208.9c0.2,0,0.3,0.2,0.4,0.5c0.1,0.5,0.2,1,0.2,1.4c0,0.1,0,0.1,0,0.2c0,0.4-0.1,0.8-0.2,1
					c-0.1,0.5-0.2,0.7-0.4,0.7c-0.1,0-0.2-0.2-0.3-0.7c-0.1-0.3-0.2-0.6-0.2-1c0-0.1,0-0.1,0-0.2c0-0.5,0.1-1,0.2-1.4
					C662.8,209,662.9,208.9,663,208.9z"/>
				
					<radialGradient id="SVGID_12_" cx="-234.6108" cy="14.5796" r="3.5021" fx="-233.4709" fy="14.5796" gradientTransform="matrix(1.5949 0 0 3.8734 1039.3538 149.0999)" gradientUnits="userSpaceOnUse">
					<stop  offset="0" style="stop-color:#749C80"/>
					<stop  offset="1" style="stop-color:#435F4A"/>
				</radialGradient>
				<path fill="url(#SVGID_12_)" d="M663.1,214.4c0-0.2,0-0.3-0.1-0.4C663.1,214.1,663.1,214.2,663.1,214.4c0.2,0.5,0.3,1,0.5,1.5
					c0.2,0.6,0.5,1.1,0.7,1.4c-0.3-0.2-0.5-0.6-0.6-1c-0.1-0.1-0.1-0.2-0.1-0.3C663.4,215.5,663.2,215,663.1,214.4z"/>
			</g>
		</g>
	</g>
</g>
<g id="Layer_5_1_">
	<g>
		<g>
			<path fill="none" d="M667.2,208.3c0.6,4.1,0.2,7.3-1.3,9.5"/>
			<path fill="none" d="M667.5,226.2c-0.6,0.6-1.3,0.9-2.1,0.9c-1.7,0-3.1-1.5-4.3-4.6c-1.2-3-1.8-6.7-1.8-11s0.6-8,1.8-11.1
				c1.2-3,2.6-4.5,4.3-4.5c0.7,0,1.4,0.3,2.1,0.9"/>
		</g>
		<g>
			
				<radialGradient id="SVGID_13_" cx="-259.3008" cy="-3.7017" r="1.1885" gradientTransform="matrix(1.4765 -0.6032 1.3771 3.371 1059.196 50.8779)" gradientUnits="userSpaceOnUse">
				<stop  offset="0" style="stop-color:#FFFFFF"/>
				<stop  offset="0.149" style="stop-color:#FFFFFF"/>
				<stop  offset="0.2706" style="stop-color:#FFFFFF;stop-opacity:0.6235"/>
				<stop  offset="0.5216" style="stop-color:#FEFEFE;stop-opacity:0.1686"/>
				<stop  offset="0.8" style="stop-color:#FEFEFE;stop-opacity:0"/>
				<stop  offset="1" style="stop-color:#FAFAFA;stop-opacity:0"/>
			</radialGradient>
			<path fill="url(#SVGID_13_)" d="M672.9,199c-0.5,0.2-1.1,0-1.8-0.6c-0.6-0.6-1.1-1.4-1.5-2.5c-0.4-1.1-0.6-2-0.6-3
				c0.1-0.9,0.3-1.5,0.8-1.7c0.4-0.2,1,0.1,1.7,0.6c0.7,0.6,1.2,1.5,1.7,2.6c0.4,1.1,0.6,2,0.5,2.9
				C673.6,198.2,673.3,198.8,672.9,199z"/>
		</g>
		<g>
			
				<radialGradient id="SVGID_14_" cx="-257.3213" cy="7.0664" r="1.2853" gradientTransform="matrix(1.5199 -0.4833 1.0811 3.3998 1050.1493 57.5126)" gradientUnits="userSpaceOnUse">
				<stop  offset="0" style="stop-color:#FFFFFF"/>
				<stop  offset="0.149" style="stop-color:#FFFFFF"/>
				<stop  offset="0.2706" style="stop-color:#FFFFFF;stop-opacity:0.6235"/>
				<stop  offset="0.5216" style="stop-color:#FEFEFE;stop-opacity:0.1686"/>
				<stop  offset="0.8" style="stop-color:#FEFEFE;stop-opacity:0"/>
				<stop  offset="1" style="stop-color:#FAFAFA;stop-opacity:0"/>
			</radialGradient>
			<path fill="url(#SVGID_14_)" d="M668.8,205.6c0.4,1.2,0.5,2.2,0.3,3c-0.2,1-0.5,1.6-1,1.8c-0.5,0.2-1.1-0.1-1.8-0.9
				c-0.6-0.6-1.1-1.5-1.5-2.7c-0.3-1.1-0.4-2.2-0.3-3.1c0.1-0.9,0.4-1.4,1-1.6c0.5-0.2,1.1,0.1,1.8,0.7
				C667.9,203.5,668.4,204.5,668.8,205.6z"/>
		</g>
		<g>
			
				<radialGradient id="SVGID_15_" cx="-234.8613" cy="2.0986" r="0.5007" gradientTransform="matrix(1.5949 0 0 6.8581 1039.3538 196.5366)" gradientUnits="userSpaceOnUse">
				<stop  offset="0" style="stop-color:#FFFFFF"/>
				<stop  offset="0.149" style="stop-color:#FFFFFF"/>
				<stop  offset="0.2706" style="stop-color:#FFFFFF;stop-opacity:0.6235"/>
				<stop  offset="0.5216" style="stop-color:#FEFEFE;stop-opacity:0.1686"/>
				<stop  offset="0.8" style="stop-color:#FEFEFE;stop-opacity:0"/>
				<stop  offset="1" style="stop-color:#FAFAFA;stop-opacity:0"/>
			</radialGradient>
			<path fill="url(#SVGID_15_)" d="M664.8,207.9c0.2,0,0.4,0.3,0.6,1c0.2,0.6,0.2,1.4,0.2,2.3c0,0.9-0.1,1.6-0.2,2.2
				c-0.2,0.7-0.3,1-0.6,1c-0.2,0-0.4-0.3-0.6-1c-0.2-0.6-0.2-1.3-0.2-2.2c0-0.9,0.1-1.7,0.2-2.3
				C664.3,208.3,664.6,207.9,664.8,207.9z"/>
		</g>
	</g>
</g>
</svg>
